%TF.GenerationSoftware,KiCad,Pcbnew,9.0.1*%
%TF.CreationDate,2025-10-23T22:13:15-04:00*%
%TF.ProjectId,OshTeledongle,4f736854-656c-4656-946f-6e676c652e6b,rev?*%
%TF.SameCoordinates,Original*%
%TF.FileFunction,Soldermask,Top*%
%TF.FilePolarity,Negative*%
%FSLAX46Y46*%
G04 Gerber Fmt 4.6, Leading zero omitted, Abs format (unit mm)*
G04 Created by KiCad (PCBNEW 9.0.1) date 2025-10-23 22:13:15*
%MOMM*%
%LPD*%
G01*
G04 APERTURE LIST*
G04 Aperture macros list*
%AMRoundRect*
0 Rectangle with rounded corners*
0 $1 Rounding radius*
0 $2 $3 $4 $5 $6 $7 $8 $9 X,Y pos of 4 corners*
0 Add a 4 corners polygon primitive as box body*
4,1,4,$2,$3,$4,$5,$6,$7,$8,$9,$2,$3,0*
0 Add four circle primitives for the rounded corners*
1,1,$1+$1,$2,$3*
1,1,$1+$1,$4,$5*
1,1,$1+$1,$6,$7*
1,1,$1+$1,$8,$9*
0 Add four rect primitives between the rounded corners*
20,1,$1+$1,$2,$3,$4,$5,0*
20,1,$1+$1,$4,$5,$6,$7,0*
20,1,$1+$1,$6,$7,$8,$9,0*
20,1,$1+$1,$8,$9,$2,$3,0*%
G04 Aperture macros list end*
%ADD10RoundRect,0.140000X0.170000X-0.140000X0.170000X0.140000X-0.170000X0.140000X-0.170000X-0.140000X0*%
%ADD11RoundRect,0.218750X-0.218750X-0.256250X0.218750X-0.256250X0.218750X0.256250X-0.218750X0.256250X0*%
%ADD12RoundRect,0.140000X0.140000X0.170000X-0.140000X0.170000X-0.140000X-0.170000X0.140000X-0.170000X0*%
%ADD13RoundRect,0.140000X-0.140000X-0.170000X0.140000X-0.170000X0.140000X0.170000X-0.140000X0.170000X0*%
%ADD14C,5.600000*%
%ADD15RoundRect,0.147500X-0.172500X0.147500X-0.172500X-0.147500X0.172500X-0.147500X0.172500X0.147500X0*%
%ADD16RoundRect,0.140000X-0.170000X0.140000X-0.170000X-0.140000X0.170000X-0.140000X0.170000X0.140000X0*%
%ADD17RoundRect,0.147500X-0.147500X-0.172500X0.147500X-0.172500X0.147500X0.172500X-0.147500X0.172500X0*%
%ADD18RoundRect,0.135000X0.135000X0.185000X-0.135000X0.185000X-0.135000X-0.185000X0.135000X-0.185000X0*%
%ADD19RoundRect,0.147500X0.172500X-0.147500X0.172500X0.147500X-0.172500X0.147500X-0.172500X-0.147500X0*%
%ADD20R,1.500000X5.080000*%
%ADD21R,3.000000X5.090000*%
%ADD22RoundRect,0.135000X-0.135000X-0.185000X0.135000X-0.185000X0.135000X0.185000X-0.135000X0.185000X0*%
%ADD23C,0.650000*%
%ADD24RoundRect,0.150000X0.425000X-0.150000X0.425000X0.150000X-0.425000X0.150000X-0.425000X-0.150000X0*%
%ADD25RoundRect,0.075000X0.500000X-0.075000X0.500000X0.075000X-0.500000X0.075000X-0.500000X-0.075000X0*%
%ADD26O,2.100000X1.000000*%
%ADD27O,1.800000X1.000000*%
%ADD28RoundRect,0.150000X0.150000X-0.512500X0.150000X0.512500X-0.150000X0.512500X-0.150000X-0.512500X0*%
%ADD29RoundRect,0.075000X-0.662500X-0.075000X0.662500X-0.075000X0.662500X0.075000X-0.662500X0.075000X0*%
%ADD30RoundRect,0.075000X-0.075000X-0.662500X0.075000X-0.662500X0.075000X0.662500X-0.075000X0.662500X0*%
%ADD31C,0.990600*%
%ADD32C,0.787400*%
%ADD33RoundRect,0.250000X-0.350000X0.450000X-0.350000X-0.450000X0.350000X-0.450000X0.350000X0.450000X0*%
%ADD34R,0.711200X1.498600*%
%ADD35R,1.498600X0.711200*%
%ADD36RoundRect,0.135000X-0.185000X0.135000X-0.185000X-0.135000X0.185000X-0.135000X0.185000X0.135000X0*%
%ADD37RoundRect,0.062500X0.062500X-0.375000X0.062500X0.375000X-0.062500X0.375000X-0.062500X-0.375000X0*%
%ADD38RoundRect,0.062500X0.375000X-0.062500X0.375000X0.062500X-0.375000X0.062500X-0.375000X-0.062500X0*%
%ADD39R,3.450000X3.450000*%
G04 APERTURE END LIST*
D10*
%TO.C,C12*%
X44231615Y-42892347D03*
X44231615Y-41932347D03*
%TD*%
D11*
%TO.C,D2*%
X40712500Y-55700000D03*
X42287500Y-55700000D03*
%TD*%
D10*
%TO.C,C13*%
X46102639Y-42952288D03*
X46102639Y-41992288D03*
%TD*%
D12*
%TO.C,C29*%
X49086230Y-37011908D03*
X48126230Y-37011908D03*
%TD*%
D13*
%TO.C,C44*%
X42540000Y-52000000D03*
X43500000Y-52000000D03*
%TD*%
D10*
%TO.C,C37*%
X45536230Y-33481908D03*
X45536230Y-32521908D03*
%TD*%
D14*
%TO.C,H2*%
X41000000Y-61800000D03*
%TD*%
D13*
%TO.C,C1*%
X60040000Y-53412499D03*
X61000000Y-53412499D03*
%TD*%
D12*
%TO.C,C40*%
X49089614Y-35153194D03*
X48129614Y-35153194D03*
%TD*%
%TO.C,C35*%
X52809240Y-36470868D03*
X51849240Y-36470868D03*
%TD*%
D13*
%TO.C,C25*%
X39809753Y-42170572D03*
X40769753Y-42170572D03*
%TD*%
%TO.C,C32*%
X38963227Y-34139688D03*
X39923227Y-34139688D03*
%TD*%
D12*
%TO.C,C28*%
X49048940Y-38934594D03*
X48088940Y-38934594D03*
%TD*%
%TO.C,C2*%
X60060000Y-48212499D03*
X59100000Y-48212499D03*
%TD*%
D15*
%TO.C,FB1*%
X43500000Y-50015000D03*
X43500000Y-50985000D03*
%TD*%
D16*
%TO.C,C41*%
X51400896Y-33632866D03*
X51400896Y-34592866D03*
%TD*%
%TO.C,C39*%
X47418607Y-32492265D03*
X47418607Y-33452265D03*
%TD*%
D17*
%TO.C,L5*%
X48366230Y-32681908D03*
X49336230Y-32681908D03*
%TD*%
D18*
%TO.C,R9*%
X53219999Y-60300000D03*
X52200001Y-60300000D03*
%TD*%
D19*
%TO.C,L8*%
X52236230Y-32581908D03*
X52236230Y-31611908D03*
%TD*%
D13*
%TO.C,C43*%
X42620000Y-53000000D03*
X43580000Y-53000000D03*
%TD*%
D12*
%TO.C,C47*%
X47680000Y-81600000D03*
X46720000Y-81600000D03*
%TD*%
D20*
%TO.C,J3*%
X50000000Y-27557045D03*
D21*
X46500000Y-27562045D03*
X53500000Y-27562045D03*
%TD*%
D18*
%TO.C,R48*%
X50986229Y-35541908D03*
X49966231Y-35541908D03*
%TD*%
D13*
%TO.C,C45*%
X39070000Y-50900000D03*
X40030000Y-50900000D03*
%TD*%
%TO.C,C30*%
X38959190Y-35084343D03*
X39919190Y-35084343D03*
%TD*%
D12*
%TO.C,C31*%
X50936230Y-36481908D03*
X49976230Y-36481908D03*
%TD*%
D13*
%TO.C,C11*%
X41336230Y-33181908D03*
X42296230Y-33181908D03*
%TD*%
D17*
%TO.C,L1*%
X44636230Y-34381908D03*
X45606230Y-34381908D03*
%TD*%
D13*
%TO.C,C34*%
X38959343Y-36048770D03*
X39919343Y-36048770D03*
%TD*%
D18*
%TO.C,R12*%
X49046229Y-37981908D03*
X48026231Y-37981908D03*
%TD*%
D22*
%TO.C,R13*%
X43600000Y-55700000D03*
X44620000Y-55700000D03*
%TD*%
D14*
%TO.C,H1*%
X59000000Y-29000000D03*
%TD*%
D23*
%TO.C,J4*%
X56220000Y-62210000D03*
X56220000Y-56430000D03*
D24*
X55145000Y-62520000D03*
X55145000Y-61720000D03*
D25*
X55145001Y-60570000D03*
X55145000Y-59570000D03*
X55145000Y-59070000D03*
X55145001Y-58070000D03*
D24*
X55145000Y-56920000D03*
X55145000Y-56120000D03*
X55145000Y-56120000D03*
X55145000Y-56920000D03*
D25*
X55145000Y-57570000D03*
X55145000Y-58570000D03*
X55145000Y-60070000D03*
X55145000Y-61070000D03*
D24*
X55145000Y-61720000D03*
X55145000Y-62520000D03*
D26*
X55720000Y-63640000D03*
D27*
X59900000Y-63640000D03*
D26*
X55720000Y-55000000D03*
D27*
X59900000Y-55000000D03*
%TD*%
D28*
%TO.C,U1*%
X59050001Y-51949999D03*
X60000000Y-51949999D03*
X60949999Y-51949999D03*
X60949999Y-49674999D03*
X59050001Y-49674999D03*
%TD*%
D11*
%TO.C,D1*%
X40700000Y-57300000D03*
X42275000Y-57300000D03*
%TD*%
D13*
%TO.C,C14*%
X38956230Y-33181908D03*
X39916230Y-33181908D03*
%TD*%
D17*
%TO.C,L7*%
X50251230Y-32681908D03*
X51221230Y-32681908D03*
%TD*%
D18*
%TO.C,R2*%
X53300000Y-57800000D03*
X52280002Y-57800000D03*
%TD*%
D13*
%TO.C,C33*%
X41336705Y-32222472D03*
X42296705Y-32222472D03*
%TD*%
D12*
%TO.C,C46*%
X39960000Y-45650000D03*
X39000000Y-45650000D03*
%TD*%
D29*
%TO.C,U3*%
X45637500Y-47050000D03*
X45637500Y-47550000D03*
X45637500Y-48050000D03*
X45637500Y-48550000D03*
X45637500Y-49050000D03*
X45637500Y-49550000D03*
X45637500Y-50050000D03*
X45637500Y-50550000D03*
X45637500Y-51050000D03*
X45637500Y-51550000D03*
X45637500Y-52050000D03*
X45637500Y-52550000D03*
D30*
X47050000Y-53962500D03*
X47550000Y-53962500D03*
X48050000Y-53962500D03*
X48550000Y-53962500D03*
X49050000Y-53962500D03*
X49550000Y-53962500D03*
X50050000Y-53962500D03*
X50550000Y-53962500D03*
X51050000Y-53962500D03*
X51550000Y-53962500D03*
X52050000Y-53962500D03*
X52550000Y-53962500D03*
D29*
X53962500Y-52550000D03*
X53962500Y-52050000D03*
X53962500Y-51550000D03*
X53962500Y-51050000D03*
X53962500Y-50550000D03*
X53962500Y-50050000D03*
X53962500Y-49550000D03*
X53962500Y-49050000D03*
X53962500Y-48550000D03*
X53962500Y-48050000D03*
X53962500Y-47550000D03*
X53962500Y-47050000D03*
D30*
X52550000Y-45637500D03*
X52050000Y-45637500D03*
X51550000Y-45637500D03*
X51050000Y-45637500D03*
X50550000Y-45637500D03*
X50050000Y-45637500D03*
X49550000Y-45637500D03*
X49050000Y-45637500D03*
X48550000Y-45637500D03*
X48050000Y-45637500D03*
X47550000Y-45637500D03*
X47050000Y-45637500D03*
%TD*%
D31*
%TO.C,J2*%
X61240000Y-44735000D03*
X56160000Y-45751000D03*
X56160000Y-43719000D03*
D32*
X59970000Y-44100000D03*
X59970000Y-45370000D03*
X58700000Y-44100000D03*
X58700000Y-45370000D03*
X57430000Y-44100000D03*
X57430000Y-45370000D03*
%TD*%
D12*
%TO.C,C36*%
X52807963Y-35530152D03*
X51847963Y-35530152D03*
%TD*%
D13*
%TO.C,C27*%
X41336801Y-34115403D03*
X42296801Y-34115403D03*
%TD*%
D10*
%TO.C,C15*%
X45162403Y-42941355D03*
X45162403Y-41981355D03*
%TD*%
D33*
%TO.C,Y1*%
X38609753Y-38470571D03*
X38609753Y-40670571D03*
X40309753Y-40670571D03*
X40309753Y-38470571D03*
%TD*%
D19*
%TO.C,L6*%
X50462438Y-34617749D03*
X50462438Y-33647749D03*
%TD*%
D15*
%TO.C,L4*%
X46476574Y-32461331D03*
X46476574Y-33431331D03*
%TD*%
D33*
%TO.C,Y2*%
X38700000Y-47200000D03*
X38700000Y-49400000D03*
X40400000Y-49400000D03*
X40400000Y-47200000D03*
%TD*%
D16*
%TO.C,C42*%
X52318494Y-33628651D03*
X52318494Y-34588651D03*
%TD*%
D12*
%TO.C,C26*%
X39689753Y-36970573D03*
X38729753Y-36970573D03*
%TD*%
D28*
%TO.C,U2*%
X49050002Y-62925000D03*
X50000001Y-62925000D03*
X50950000Y-62925000D03*
X50950000Y-60650000D03*
X50000001Y-60650000D03*
X49050002Y-60650000D03*
%TD*%
D34*
%TO.C,U4*%
X38449000Y-79399830D03*
X39548820Y-79399829D03*
X45748960Y-79399829D03*
X46848780Y-79399830D03*
X47948600Y-79399830D03*
X49048420Y-79399830D03*
X50148240Y-79399830D03*
X51248059Y-79399830D03*
X52347881Y-79399830D03*
X53447700Y-79399830D03*
X54547520Y-79399830D03*
X55647340Y-79399830D03*
X56747160Y-79399830D03*
X57846980Y-79399829D03*
D35*
X59150000Y-77198920D03*
X59150000Y-76099100D03*
X59150000Y-74999280D03*
X59150000Y-73899460D03*
X59150000Y-72799640D03*
X59150000Y-71699820D03*
X59150000Y-70600000D03*
D34*
X57846980Y-68399091D03*
X56747160Y-68399090D03*
X55647340Y-68399090D03*
X54547520Y-68399090D03*
X53447700Y-68399090D03*
X52347881Y-68399090D03*
X51248059Y-68399090D03*
X50148240Y-68399090D03*
X49048420Y-68399090D03*
X47948600Y-68399090D03*
X39548820Y-68399091D03*
X38449000Y-68399090D03*
%TD*%
D17*
%TO.C,L2*%
X48136230Y-36079408D03*
X49106230Y-36079408D03*
%TD*%
D36*
%TO.C,R1*%
X53300000Y-62780002D03*
X53300000Y-63800000D03*
%TD*%
D18*
%TO.C,R10*%
X53200000Y-59200000D03*
X52180002Y-59200000D03*
%TD*%
D22*
%TO.C,R11*%
X43577500Y-57300000D03*
X44597500Y-57300000D03*
%TD*%
D13*
%TO.C,C38*%
X48594634Y-33667497D03*
X49554634Y-33667497D03*
%TD*%
D36*
%TO.C,R3*%
X60750000Y-69540001D03*
X60750000Y-70559999D03*
%TD*%
D37*
%TO.C,U8*%
X42723730Y-40656908D03*
X43223730Y-40656908D03*
X43723730Y-40656908D03*
X44223730Y-40656908D03*
X44723730Y-40656908D03*
X45223730Y-40656908D03*
X45723730Y-40656908D03*
X46223730Y-40656908D03*
D38*
X46911230Y-39969408D03*
X46911230Y-39469408D03*
X46911230Y-38969408D03*
X46911230Y-38469408D03*
X46911230Y-37969408D03*
X46911230Y-37469408D03*
X46911230Y-36969408D03*
X46911230Y-36469408D03*
D37*
X46223730Y-35781908D03*
X45723730Y-35781908D03*
X45223730Y-35781908D03*
X44723730Y-35781908D03*
X44223730Y-35781908D03*
X43723730Y-35781908D03*
X43223730Y-35781908D03*
X42723730Y-35781908D03*
D38*
X42036230Y-36469408D03*
X42036230Y-36969408D03*
X42036230Y-37469408D03*
X42036230Y-37969408D03*
X42036230Y-38469408D03*
X42036230Y-38969408D03*
X42036230Y-39469408D03*
X42036230Y-39969408D03*
D39*
X44473730Y-38219408D03*
%TD*%
D19*
%TO.C,L3*%
X44571574Y-33462732D03*
X44571574Y-32492732D03*
%TD*%
M02*
