%TF.GenerationSoftware,KiCad,Pcbnew,9.0.1*%
%TF.CreationDate,2025-10-23T22:13:15-04:00*%
%TF.ProjectId,OshTeledongle,4f736854-656c-4656-946f-6e676c652e6b,rev?*%
%TF.SameCoordinates,Original*%
%TF.FileFunction,Copper,L4,Bot*%
%TF.FilePolarity,Positive*%
%FSLAX46Y46*%
G04 Gerber Fmt 4.6, Leading zero omitted, Abs format (unit mm)*
G04 Created by KiCad (PCBNEW 9.0.1) date 2025-10-23 22:13:15*
%MOMM*%
%LPD*%
G01*
G04 APERTURE LIST*
%TA.AperFunction,ComponentPad*%
%ADD10C,5.600000*%
%TD*%
%TA.AperFunction,SMDPad,CuDef*%
%ADD11R,3.000000X5.090000*%
%TD*%
%TA.AperFunction,HeatsinkPad*%
%ADD12O,2.100000X1.000000*%
%TD*%
%TA.AperFunction,HeatsinkPad*%
%ADD13O,1.800000X1.000000*%
%TD*%
%TA.AperFunction,ViaPad*%
%ADD14C,0.470000*%
%TD*%
%TA.AperFunction,Conductor*%
%ADD15C,0.160000*%
%TD*%
G04 APERTURE END LIST*
D10*
%TO.P,H2,1,1*%
%TO.N,GND*%
X41000000Y-61800000D03*
%TD*%
D11*
%TO.P,J3,2,Ext*%
%TO.N,GND*%
X46500000Y-27562045D03*
X53500000Y-27562045D03*
%TD*%
D10*
%TO.P,H1,1,1*%
%TO.N,GND*%
X59000000Y-29000000D03*
%TD*%
D12*
%TO.P,J4,S1,SHIELD*%
%TO.N,GND*%
X55720000Y-63640000D03*
D13*
X59900000Y-63640000D03*
D12*
X55720000Y-55000000D03*
D13*
X59900000Y-55000000D03*
%TD*%
D14*
%TO.N,VBUS*%
X51450000Y-58550000D03*
X50450000Y-59400000D03*
%TO.N,GND*%
X44747138Y-65521724D03*
X46350000Y-67700000D03*
X38196230Y-35961907D03*
X38350000Y-66450000D03*
X43400000Y-77800000D03*
X45736230Y-38281908D03*
X50250000Y-63850000D03*
X46400000Y-77150000D03*
X39900000Y-52150000D03*
X40236230Y-37381908D03*
X53356230Y-36481908D03*
X45405267Y-81640473D03*
X43950000Y-27350000D03*
X42700000Y-26350000D03*
X55750000Y-25950000D03*
X43950000Y-26000000D03*
X52000000Y-42200000D03*
X38166230Y-33301908D03*
X45700000Y-45000000D03*
X47750000Y-74050000D03*
X47433597Y-65694348D03*
X43900000Y-28850000D03*
X42650000Y-80550000D03*
X39786230Y-42951908D03*
X45577891Y-69643117D03*
X59300000Y-53400000D03*
X58700000Y-53400000D03*
X54550000Y-43850000D03*
X38750000Y-81400000D03*
X42900000Y-67600000D03*
X45536230Y-32071908D03*
X40500000Y-44500000D03*
X53456230Y-35181909D03*
X49706230Y-38861908D03*
X38850000Y-44400000D03*
X47300000Y-52500000D03*
X38900000Y-52350000D03*
X55600000Y-27250000D03*
X43100000Y-45100000D03*
X43150000Y-72500000D03*
X49726230Y-38081908D03*
X49550000Y-50750000D03*
X44550000Y-43450000D03*
X43400000Y-75300000D03*
X41900000Y-52900000D03*
X41150000Y-28500000D03*
X39848938Y-81338381D03*
X43136230Y-38281909D03*
X44336230Y-39481908D03*
X47300000Y-70400000D03*
X39536231Y-37611908D03*
X42850000Y-28350000D03*
X50250000Y-52400000D03*
X50870754Y-55781987D03*
X38316230Y-41871908D03*
X40850000Y-45400000D03*
X57750000Y-47250000D03*
X38200000Y-50950000D03*
X51800000Y-57800000D03*
X46436230Y-32071908D03*
X43600000Y-43050000D03*
X50250000Y-42650000D03*
X49550000Y-44500000D03*
X46050000Y-75100000D03*
X43136230Y-39481908D03*
X52500000Y-64300000D03*
X59850000Y-42500000D03*
X48550000Y-50900000D03*
X38186230Y-34011908D03*
X48550000Y-44450000D03*
X41800000Y-52000000D03*
X42150000Y-27400000D03*
X48300000Y-55700000D03*
X41200000Y-27000000D03*
X42450000Y-65650000D03*
X42200000Y-29300000D03*
X40716800Y-33115403D03*
X44150000Y-74050000D03*
X53036230Y-34581908D03*
X44450000Y-54200000D03*
X60850000Y-68850000D03*
X45736230Y-39481908D03*
X45700000Y-43450000D03*
X44536230Y-36981908D03*
X46350000Y-56450000D03*
X45736230Y-36981908D03*
X38146230Y-35251908D03*
X56700000Y-47250000D03*
X40686230Y-32161909D03*
X45329744Y-80691042D03*
X41850000Y-25900000D03*
X47350000Y-46800000D03*
X39800000Y-66400000D03*
X46150000Y-65700000D03*
X46000000Y-72400000D03*
X42600000Y-81700000D03*
X50250000Y-57200000D03*
X49656230Y-37281908D03*
X55600000Y-29650000D03*
X43136230Y-36981908D03*
X44473730Y-38219408D03*
X39009753Y-41770572D03*
%TO.N,+3V3*%
X59750000Y-49400000D03*
X44300000Y-47100000D03*
X44836231Y-41581908D03*
X42036230Y-40581908D03*
X46848780Y-80768780D03*
X58250000Y-48900000D03*
X53100000Y-53950000D03*
X59100000Y-47512499D03*
X42036230Y-35658158D03*
X58150000Y-49500000D03*
X47636231Y-37011908D03*
X42800000Y-49900000D03*
X51376229Y-36041908D03*
X59800000Y-50050000D03*
X42836801Y-33515403D03*
X60700000Y-43800000D03*
X55200000Y-47200000D03*
X47000000Y-44500000D03*
X48956208Y-39636466D03*
X40759344Y-36048770D03*
X58150000Y-50300000D03*
%TO.N,/NRST*%
X52400000Y-49950000D03*
X41500000Y-43000000D03*
X52850000Y-43750000D03*
X44550000Y-50050000D03*
%TO.N,/SCK2*%
X48050000Y-52450000D03*
X47998730Y-43400000D03*
%TO.N,/MISO2*%
X47936230Y-41481908D03*
X49750000Y-51700000D03*
%TO.N,/MOSI2*%
X49050000Y-52700000D03*
X46836230Y-42881908D03*
%TO.N,/CS_RADIO*%
X48691230Y-41506908D03*
X51550000Y-52500000D03*
%TO.N,/RADIO_INT*%
X50950000Y-43650000D03*
X50950000Y-51900000D03*
%TO.N,Net-(U3-PC15)*%
X46950000Y-48600000D03*
X46300000Y-54000000D03*
%TO.N,/TX2*%
X45500000Y-53750000D03*
X49550000Y-71300000D03*
%TO.N,/BT_SW_BTN*%
X46700000Y-48000000D03*
X48950000Y-81100000D03*
%TO.N,/CTS2*%
X50750000Y-71950000D03*
X52200000Y-51250000D03*
%TO.N,/BT_P0_5*%
X52650000Y-47100000D03*
X56200000Y-75850000D03*
%TO.N,/BT_NRST*%
X59300000Y-42900000D03*
X59250000Y-65250000D03*
%TO.N,/BT_P3_2*%
X55900000Y-51100000D03*
X55100000Y-67050000D03*
%TO.N,/BT_P1_5*%
X55600000Y-78200000D03*
X52600000Y-47750000D03*
%TO.N,/BT_P3_7*%
X52550000Y-65750000D03*
X52600000Y-52800000D03*
%TO.N,/BT_P3_1*%
X50450000Y-55300000D03*
X50300000Y-69850000D03*
%TO.N,/BT_P0_4*%
X53200000Y-78000000D03*
X47250000Y-47500000D03*
X49050000Y-56450000D03*
X52050000Y-55350000D03*
X44400000Y-47850000D03*
%TO.N,/BT_P3_4*%
X57250000Y-65100000D03*
X55300000Y-52050000D03*
%TO.N,/RTS2*%
X49150000Y-73800000D03*
X44450000Y-52200000D03*
%TO.N,/BT_P3_3*%
X55200000Y-51150000D03*
X57750000Y-65600000D03*
%TO.N,/BT_P3_6*%
X53050000Y-66350000D03*
X52388460Y-51968265D03*
%TO.N,/BT_P2_4*%
X60100000Y-50850000D03*
X55700000Y-49650000D03*
X57500000Y-49600000D03*
X61000000Y-62950000D03*
%TO.N,/BT_WAKE*%
X53550000Y-76800000D03*
X52600000Y-49350000D03*
%TO.N,/RX2*%
X50050000Y-70600000D03*
X47250000Y-55650000D03*
%TO.N,/BT_P2_0*%
X61200000Y-42800000D03*
X61700000Y-65250000D03*
%TO.N,/BT_P1_2*%
X53950000Y-77500000D03*
X52750000Y-48700000D03*
%TD*%
D15*
%TO.N,VBUS*%
X50450000Y-59400000D02*
X50800000Y-59400000D01*
X50800000Y-59400000D02*
X51450000Y-58750000D01*
X51450000Y-58750000D02*
X51450000Y-58550000D01*
%TO.N,/NRST*%
X41500000Y-47000000D02*
X44550000Y-50050000D01*
X52050000Y-44550000D02*
X52850000Y-43750000D01*
X41500000Y-43000000D02*
X41500000Y-47000000D01*
X52400000Y-49950000D02*
X52050000Y-49600000D01*
X52050000Y-49600000D02*
X52050000Y-44550000D01*
%TO.N,/SCK2*%
X47998730Y-43400000D02*
X48050000Y-43451270D01*
X48050000Y-43451270D02*
X48050000Y-52450000D01*
%TO.N,/MISO2*%
X48591908Y-41991908D02*
X48490336Y-41991908D01*
X50100000Y-43500000D02*
X48591908Y-41991908D01*
X48206230Y-41707802D02*
X48206230Y-41606230D01*
X48206230Y-41606230D02*
X48081908Y-41481908D01*
X48081908Y-41481908D02*
X47936230Y-41481908D01*
X49750000Y-51700000D02*
X50100000Y-51350000D01*
X48490336Y-41991908D02*
X48206230Y-41707802D01*
X50100000Y-51350000D02*
X50100000Y-43500000D01*
%TO.N,/MOSI2*%
X48281908Y-42881908D02*
X49050000Y-43650000D01*
X46836230Y-42881908D02*
X48281908Y-42881908D01*
X49050000Y-43650000D02*
X49050000Y-52700000D01*
%TO.N,/CS_RADIO*%
X50206908Y-41506908D02*
X48691230Y-41506908D01*
X51550000Y-42850000D02*
X50206908Y-41506908D01*
X51550000Y-52500000D02*
X51550000Y-42850000D01*
X48691230Y-41506908D02*
X48686230Y-41511908D01*
%TO.N,/RADIO_INT*%
X50950000Y-43650000D02*
X50950000Y-51900000D01*
%TO.N,Net-(U3-PC15)*%
X46300000Y-49250000D02*
X46950000Y-48600000D01*
X46300000Y-54000000D02*
X46300000Y-49250000D01*
%TO.N,/TX2*%
X49124000Y-65282118D02*
X49124000Y-58209894D01*
X49100999Y-65305119D02*
X49124000Y-65282118D01*
X45500000Y-54585894D02*
X45500000Y-53750000D01*
X49100000Y-70850000D02*
X49100000Y-70057294D01*
X49550000Y-71300000D02*
X49100000Y-70850000D01*
X49124000Y-58209894D02*
X45500000Y-54585894D01*
X49100997Y-70056297D02*
X49100999Y-65305119D01*
X49100000Y-70057294D02*
X49100997Y-70056297D01*
%TO.N,/BT_SW_BTN*%
X48812999Y-65185825D02*
X48836000Y-65162824D01*
X48836000Y-59593610D02*
X45035000Y-55792610D01*
X48811999Y-70969293D02*
X48812000Y-69938000D01*
X49357390Y-71765000D02*
X49085000Y-71492610D01*
X48812997Y-69937003D02*
X48812999Y-65185825D01*
X45035000Y-55792610D02*
X45035000Y-49665000D01*
X49650000Y-80400000D02*
X49650000Y-71765000D01*
X49650000Y-71765000D02*
X49357390Y-71765000D01*
X45035000Y-49665000D02*
X46700000Y-48000000D01*
X48836000Y-65162824D02*
X48836000Y-59593610D01*
X49085000Y-71492610D02*
X49085000Y-71242294D01*
X49085000Y-71242294D02*
X48811999Y-70969293D01*
X48812000Y-69938000D02*
X48812997Y-69937003D01*
X48950000Y-81100000D02*
X49650000Y-80400000D01*
%TO.N,/CTS2*%
X51550000Y-53157610D02*
X51550000Y-56645000D01*
X52015000Y-52307390D02*
X52015000Y-52692610D01*
X49965000Y-65663000D02*
X49965000Y-68829106D01*
X52015000Y-52692610D02*
X51550000Y-53157610D01*
X51550000Y-56645000D02*
X52285000Y-57380000D01*
X49965000Y-68829106D02*
X50785000Y-69649106D01*
X52285000Y-63343000D02*
X49965000Y-65663000D01*
X52200000Y-51450000D02*
X51900000Y-51750000D01*
X50785000Y-71915000D02*
X50750000Y-71950000D01*
X51900000Y-51750000D02*
X51900000Y-52192390D01*
X52285000Y-57380000D02*
X52285000Y-63343000D01*
X51900000Y-52192390D02*
X52015000Y-52307390D01*
X50785000Y-69649106D02*
X50785000Y-71915000D01*
X52200000Y-51250000D02*
X52200000Y-51450000D01*
%TO.N,/BT_P0_5*%
X56471037Y-53878647D02*
X56721353Y-53878647D01*
X54635000Y-74285000D02*
X56200000Y-75850000D01*
X52650000Y-47100000D02*
X53900000Y-47100000D01*
X57586000Y-54743294D02*
X57586000Y-63906390D01*
X54700000Y-52107610D02*
X56471037Y-53878647D01*
X53900000Y-47100000D02*
X54700000Y-47900000D01*
X57586000Y-63906390D02*
X54635000Y-66857390D01*
X54635000Y-66857390D02*
X54635000Y-74285000D01*
X56721353Y-53878647D02*
X57586000Y-54743294D01*
X54700000Y-47900000D02*
X54700000Y-52107610D01*
%TO.N,/BT_NRST*%
X58772000Y-54628000D02*
X58772000Y-64772000D01*
X58772000Y-64772000D02*
X59250000Y-65250000D01*
X58772000Y-52072000D02*
X59785000Y-53085000D01*
X59785000Y-53615000D02*
X58772000Y-54628000D01*
X58772000Y-47870393D02*
X58772000Y-52072000D01*
X59300000Y-43085894D02*
X58772000Y-43613894D01*
X58615000Y-47713393D02*
X58772000Y-47870393D01*
X59785000Y-53085000D02*
X59785000Y-53615000D01*
X59300000Y-42900000D02*
X59300000Y-43085894D01*
X58772000Y-47154605D02*
X58615000Y-47311605D01*
X58615000Y-47311605D02*
X58615000Y-47713393D01*
X58772000Y-43613894D02*
X58772000Y-47154605D01*
%TO.N,/BT_P3_2*%
X55900000Y-51386138D02*
X58450000Y-53936138D01*
X58450000Y-65800000D02*
X57200000Y-67050000D01*
X58450000Y-53936138D02*
X58450000Y-65800000D01*
X55900000Y-51100000D02*
X55900000Y-51386138D01*
X57200000Y-67050000D02*
X55100000Y-67050000D01*
%TO.N,/BT_P1_5*%
X54347000Y-76947000D02*
X55600000Y-78200000D01*
X52600000Y-47750000D02*
X53888000Y-49038000D01*
X57298000Y-55026737D02*
X57298000Y-63613263D01*
X57298000Y-63613263D02*
X54347000Y-66564263D01*
X56316647Y-54166647D02*
X56437910Y-54166647D01*
X53888000Y-49038000D02*
X53888000Y-51738000D01*
X56437910Y-54166647D02*
X57298000Y-55026737D01*
X53888000Y-51738000D02*
X56316647Y-54166647D01*
X54347000Y-66564263D02*
X54347000Y-76947000D01*
%TO.N,/BT_P3_7*%
X53574000Y-64168706D02*
X53574000Y-53774000D01*
X53565000Y-53757390D02*
X53292610Y-53485000D01*
X53292610Y-53485000D02*
X53285000Y-53485000D01*
X53574000Y-53774000D02*
X53565000Y-53765000D01*
X53285000Y-53485000D02*
X52600000Y-52800000D01*
X53565000Y-53765000D02*
X53565000Y-53757390D01*
X52550000Y-65750000D02*
X52550000Y-65192706D01*
X52550000Y-65192706D02*
X53574000Y-64168706D01*
%TO.N,/BT_P3_1*%
X49676999Y-68948399D02*
X49676999Y-65543707D01*
X49700000Y-68971400D02*
X49676999Y-68948399D01*
X49700001Y-65520705D02*
X49700000Y-57692706D01*
X49600000Y-56150000D02*
X50450000Y-55300000D01*
X49700000Y-57692706D02*
X49600000Y-57592706D01*
X50300000Y-69850000D02*
X50300000Y-69700000D01*
X49700000Y-69100000D02*
X49700000Y-68971400D01*
X49676999Y-65543707D02*
X49700001Y-65520705D01*
X50300000Y-69700000D02*
X49700000Y-69100000D01*
X49600000Y-57592706D02*
X49600000Y-56150000D01*
%TO.N,/BT_P0_4*%
X47415000Y-47665000D02*
X47250000Y-47500000D01*
X52035000Y-64107390D02*
X52573001Y-63569389D01*
X49050000Y-54907610D02*
X46835000Y-52692610D01*
X46835000Y-52692610D02*
X46835000Y-49415000D01*
X52550000Y-55350000D02*
X52050000Y-55350000D01*
X52035000Y-76835000D02*
X52035000Y-64107390D01*
X53200000Y-78000000D02*
X52035000Y-76835000D01*
X52573001Y-55373001D02*
X52550000Y-55350000D01*
X52573001Y-63569389D02*
X52573001Y-55373001D01*
X47415000Y-48835000D02*
X47415000Y-47665000D01*
X49050000Y-56450000D02*
X49050000Y-54907610D01*
X46835000Y-49415000D02*
X47415000Y-48835000D01*
%TO.N,/BT_P3_4*%
X57250000Y-65100000D02*
X57300000Y-65100000D01*
X57300000Y-65100000D02*
X57874000Y-64526000D01*
X57874000Y-54624000D02*
X55300000Y-52050000D01*
X57874000Y-64526000D02*
X57874000Y-54624000D01*
%TO.N,/RTS2*%
X48523999Y-63945920D02*
X48523999Y-72850000D01*
X44450000Y-52200000D02*
X43985000Y-52665000D01*
X48523999Y-73173999D02*
X49150000Y-73800000D01*
X43985000Y-59406921D02*
X48523999Y-63945920D01*
X48523999Y-72850000D02*
X48523999Y-73173999D01*
X43985000Y-52665000D02*
X43985000Y-59406921D01*
%TO.N,/BT_P3_3*%
X57750000Y-65600000D02*
X58162000Y-65188000D01*
X58162000Y-65188000D02*
X58162000Y-54112000D01*
X58162000Y-54112000D02*
X55200000Y-51150000D01*
%TO.N,/BT_P3_6*%
X52418265Y-51968265D02*
X52388460Y-51968265D01*
X52792610Y-52335000D02*
X52785000Y-52335000D01*
X53862000Y-53412000D02*
X53065000Y-52615000D01*
X53065000Y-52615000D02*
X53065000Y-52607390D01*
X53065000Y-52607390D02*
X52792610Y-52335000D01*
X53050000Y-66350000D02*
X53050000Y-65100000D01*
X53862000Y-64288000D02*
X53862000Y-53412000D01*
X52785000Y-52335000D02*
X52418265Y-51968265D01*
X53050000Y-65100000D02*
X53862000Y-64288000D01*
%TO.N,/BT_P2_4*%
X57500000Y-49600000D02*
X55750000Y-49600000D01*
X55750000Y-49600000D02*
X55700000Y-49650000D01*
X61000000Y-62950000D02*
X61028000Y-62922000D01*
X61028000Y-51778000D02*
X60100000Y-50850000D01*
X61028000Y-62922000D02*
X61028000Y-51778000D01*
%TO.N,/BT_WAKE*%
X52865000Y-49615000D02*
X52865000Y-51565000D01*
X54150000Y-52850000D02*
X54150000Y-65946675D01*
X54150000Y-65946675D02*
X53550000Y-66546675D01*
X52600000Y-49350000D02*
X52865000Y-49615000D01*
X53550000Y-66546675D02*
X53550000Y-76800000D01*
X52865000Y-51565000D02*
X54150000Y-52850000D01*
%TO.N,/RX2*%
X49388999Y-65424413D02*
X49412000Y-65401412D01*
X50050000Y-70600000D02*
X49388998Y-69938998D01*
X49412000Y-57812000D02*
X47250000Y-55650000D01*
X49412000Y-65401412D02*
X49412000Y-57812000D01*
X49388998Y-69938998D02*
X49388999Y-65424413D01*
%TO.N,/BT_P2_0*%
X61700000Y-46397506D02*
X61700000Y-65250000D01*
X60215000Y-44912506D02*
X61700000Y-46397506D01*
X60215000Y-43599106D02*
X60215000Y-44912506D01*
X61200000Y-42800000D02*
X61014106Y-42800000D01*
X61014106Y-42800000D02*
X60215000Y-43599106D01*
%TO.N,/BT_P1_2*%
X53250000Y-51542000D02*
X54450000Y-52742000D01*
X54059000Y-77066294D02*
X54221353Y-77228647D01*
X52750000Y-48700000D02*
X53250000Y-49200000D01*
X53250000Y-49200000D02*
X53250000Y-51542000D01*
X54450000Y-66053969D02*
X54058999Y-66444970D01*
X54221353Y-77228647D02*
X53950000Y-77500000D01*
X54058999Y-66444970D02*
X54059000Y-77066294D01*
X54450000Y-52742000D02*
X54450000Y-66053969D01*
%TD*%
%TA.AperFunction,Conductor*%
%TO.N,GND*%
G36*
X54809000Y-53002924D02*
G01*
X54825361Y-53015479D01*
X56180411Y-54370530D01*
X56180413Y-54370532D01*
X56180414Y-54370532D01*
X56180415Y-54370533D01*
X56268809Y-54407147D01*
X56305569Y-54407147D01*
X56356349Y-54425629D01*
X56361430Y-54430286D01*
X57034361Y-55103217D01*
X57057199Y-55152193D01*
X57057500Y-55159078D01*
X57057500Y-63480922D01*
X57039018Y-63531702D01*
X57034361Y-63536783D01*
X54825361Y-65745783D01*
X54776385Y-65768621D01*
X54724187Y-65754635D01*
X54693192Y-65710369D01*
X54690500Y-65689922D01*
X54690500Y-62133706D01*
X55640500Y-62133706D01*
X55640500Y-62286293D01*
X55679991Y-62433677D01*
X55679992Y-62433679D01*
X55756286Y-62565823D01*
X55864176Y-62673713D01*
X55864178Y-62673714D01*
X55864179Y-62673715D01*
X55996322Y-62750008D01*
X56143707Y-62789500D01*
X56143709Y-62789500D01*
X56296291Y-62789500D01*
X56296293Y-62789500D01*
X56443678Y-62750008D01*
X56575821Y-62673715D01*
X56683715Y-62565821D01*
X56760008Y-62433678D01*
X56799500Y-62286293D01*
X56799500Y-62133707D01*
X56760008Y-61986322D01*
X56683715Y-61854179D01*
X56683714Y-61854178D01*
X56683713Y-61854176D01*
X56575823Y-61746286D01*
X56443679Y-61669992D01*
X56443677Y-61669991D01*
X56296293Y-61630500D01*
X56143707Y-61630500D01*
X56143706Y-61630500D01*
X55996322Y-61669991D01*
X55996320Y-61669992D01*
X55864176Y-61746286D01*
X55756286Y-61854176D01*
X55679992Y-61986320D01*
X55679991Y-61986322D01*
X55640500Y-62133706D01*
X54690500Y-62133706D01*
X54690500Y-56353706D01*
X55640500Y-56353706D01*
X55640500Y-56506293D01*
X55679991Y-56653677D01*
X55679992Y-56653679D01*
X55756286Y-56785823D01*
X55864176Y-56893713D01*
X55987779Y-56965076D01*
X55996322Y-56970008D01*
X56143707Y-57009500D01*
X56143709Y-57009500D01*
X56296291Y-57009500D01*
X56296293Y-57009500D01*
X56443678Y-56970008D01*
X56575821Y-56893715D01*
X56683715Y-56785821D01*
X56760008Y-56653678D01*
X56799500Y-56506293D01*
X56799500Y-56353707D01*
X56760008Y-56206322D01*
X56683715Y-56074179D01*
X56683714Y-56074178D01*
X56683713Y-56074176D01*
X56575823Y-55966286D01*
X56443679Y-55889992D01*
X56443677Y-55889991D01*
X56296293Y-55850500D01*
X56143707Y-55850500D01*
X56143706Y-55850500D01*
X55996322Y-55889991D01*
X55996320Y-55889992D01*
X55864176Y-55966286D01*
X55756286Y-56074176D01*
X55679992Y-56206320D01*
X55679991Y-56206322D01*
X55640500Y-56353706D01*
X54690500Y-56353706D01*
X54690500Y-53071340D01*
X54708982Y-53020560D01*
X54755782Y-52993540D01*
X54809000Y-53002924D01*
G37*
%TD.AperFunction*%
%TA.AperFunction,Conductor*%
G36*
X50125347Y-41765890D02*
G01*
X50130428Y-41770547D01*
X51286361Y-42926480D01*
X51309199Y-42975456D01*
X51309500Y-42982341D01*
X51309500Y-43264041D01*
X51291018Y-43314821D01*
X51244218Y-43341841D01*
X51191000Y-43332457D01*
X51102658Y-43281452D01*
X51102654Y-43281451D01*
X51002071Y-43254500D01*
X51002069Y-43254500D01*
X50897931Y-43254500D01*
X50897928Y-43254500D01*
X50797345Y-43281451D01*
X50797341Y-43281452D01*
X50707154Y-43333522D01*
X50633522Y-43407154D01*
X50581452Y-43497341D01*
X50581451Y-43497345D01*
X50554500Y-43597928D01*
X50554500Y-43702071D01*
X50581451Y-43802654D01*
X50581452Y-43802658D01*
X50633522Y-43892845D01*
X50686361Y-43945684D01*
X50709199Y-43994660D01*
X50709500Y-44001545D01*
X50709500Y-51548455D01*
X50691018Y-51599235D01*
X50686361Y-51604316D01*
X50633522Y-51657154D01*
X50581452Y-51747341D01*
X50581451Y-51747345D01*
X50554500Y-51847928D01*
X50554500Y-51952071D01*
X50581451Y-52052654D01*
X50581452Y-52052658D01*
X50633522Y-52142845D01*
X50707154Y-52216477D01*
X50707156Y-52216478D01*
X50707157Y-52216479D01*
X50797343Y-52268548D01*
X50897931Y-52295500D01*
X50897933Y-52295500D01*
X51002067Y-52295500D01*
X51002069Y-52295500D01*
X51078125Y-52275121D01*
X51131957Y-52279831D01*
X51170168Y-52318042D01*
X51174878Y-52371875D01*
X51154500Y-52447928D01*
X51154500Y-52552071D01*
X51181451Y-52652654D01*
X51181452Y-52652658D01*
X51233522Y-52742845D01*
X51307154Y-52816477D01*
X51307156Y-52816478D01*
X51307157Y-52816479D01*
X51372593Y-52854259D01*
X51407329Y-52895654D01*
X51407329Y-52949693D01*
X51388955Y-52978535D01*
X51346115Y-53021375D01*
X51346114Y-53021376D01*
X51346114Y-53021377D01*
X51310368Y-53107677D01*
X51309500Y-53109772D01*
X51309500Y-56597161D01*
X51309500Y-56692839D01*
X51333909Y-56751768D01*
X51346114Y-56781234D01*
X51346116Y-56781235D01*
X52021361Y-57456480D01*
X52044199Y-57505456D01*
X52044500Y-57512341D01*
X52044500Y-63210658D01*
X52026018Y-63261438D01*
X52021361Y-63266519D01*
X50075361Y-65212519D01*
X50026385Y-65235357D01*
X49974187Y-65221371D01*
X49943192Y-65177105D01*
X49940500Y-65156658D01*
X49940500Y-59603353D01*
X49958982Y-59552573D01*
X50005782Y-59525553D01*
X50059000Y-59534937D01*
X50087916Y-59563853D01*
X50133522Y-59642845D01*
X50207154Y-59716477D01*
X50207156Y-59716478D01*
X50207157Y-59716479D01*
X50297343Y-59768548D01*
X50397931Y-59795500D01*
X50397933Y-59795500D01*
X50502067Y-59795500D01*
X50502069Y-59795500D01*
X50602657Y-59768548D01*
X50692843Y-59716479D01*
X50716094Y-59693228D01*
X50745684Y-59663639D01*
X50794660Y-59640801D01*
X50801545Y-59640500D01*
X50847837Y-59640500D01*
X50847839Y-59640500D01*
X50936233Y-59603886D01*
X51640055Y-58900061D01*
X51656408Y-58887513D01*
X51692843Y-58866479D01*
X51766479Y-58792843D01*
X51818548Y-58702657D01*
X51845500Y-58602069D01*
X51845500Y-58497931D01*
X51818548Y-58397343D01*
X51766479Y-58307157D01*
X51766478Y-58307156D01*
X51766477Y-58307154D01*
X51692845Y-58233522D01*
X51602658Y-58181452D01*
X51602654Y-58181451D01*
X51502071Y-58154500D01*
X51502069Y-58154500D01*
X51397931Y-58154500D01*
X51397928Y-58154500D01*
X51297345Y-58181451D01*
X51297341Y-58181452D01*
X51207154Y-58233522D01*
X51133522Y-58307154D01*
X51081452Y-58397341D01*
X51081451Y-58397345D01*
X51054500Y-58497928D01*
X51054500Y-58602071D01*
X51081451Y-58702654D01*
X51083434Y-58707442D01*
X51081157Y-58708384D01*
X51087858Y-58753524D01*
X51066321Y-58793558D01*
X50788654Y-59071225D01*
X50739678Y-59094063D01*
X50693293Y-59083780D01*
X50602658Y-59031452D01*
X50602654Y-59031451D01*
X50502071Y-59004500D01*
X50502069Y-59004500D01*
X50397931Y-59004500D01*
X50397928Y-59004500D01*
X50297345Y-59031451D01*
X50297341Y-59031452D01*
X50207154Y-59083522D01*
X50133524Y-59157152D01*
X50133521Y-59157156D01*
X50133521Y-59157157D01*
X50121092Y-59178685D01*
X50087916Y-59236147D01*
X50046519Y-59270882D01*
X49992480Y-59270882D01*
X49951084Y-59236145D01*
X49940500Y-59196646D01*
X49940500Y-57644867D01*
X49922439Y-57601266D01*
X49922438Y-57601265D01*
X49919051Y-57593087D01*
X49903886Y-57556473D01*
X49858893Y-57511480D01*
X49855016Y-57506002D01*
X49849553Y-57486018D01*
X49840801Y-57467249D01*
X49840500Y-57460364D01*
X49840500Y-56282339D01*
X49858982Y-56231559D01*
X49863628Y-56226489D01*
X50371478Y-55718638D01*
X50420454Y-55695801D01*
X50427339Y-55695500D01*
X50502067Y-55695500D01*
X50502069Y-55695500D01*
X50602657Y-55668548D01*
X50692843Y-55616479D01*
X50766479Y-55542843D01*
X50818548Y-55452657D01*
X50845500Y-55352069D01*
X50845500Y-55247931D01*
X50818548Y-55147343D01*
X50817838Y-55146114D01*
X50766477Y-55057154D01*
X50692845Y-54983522D01*
X50602658Y-54931452D01*
X50602654Y-54931451D01*
X50502071Y-54904500D01*
X50502069Y-54904500D01*
X50397931Y-54904500D01*
X50397928Y-54904500D01*
X50297345Y-54931451D01*
X50297341Y-54931452D01*
X50207154Y-54983522D01*
X50133522Y-55057154D01*
X50081452Y-55147341D01*
X50081451Y-55147345D01*
X50054500Y-55247928D01*
X50054500Y-55322659D01*
X50036018Y-55373439D01*
X50031361Y-55378520D01*
X49425361Y-55984520D01*
X49376385Y-56007358D01*
X49324187Y-55993372D01*
X49293192Y-55949106D01*
X49290500Y-55928659D01*
X49290500Y-54859774D01*
X49290500Y-54859772D01*
X49278950Y-54831886D01*
X49278949Y-54831883D01*
X49253888Y-54771380D01*
X49253883Y-54771373D01*
X47098639Y-52616129D01*
X47075801Y-52567153D01*
X47075500Y-52560268D01*
X47075500Y-49547341D01*
X47093982Y-49496561D01*
X47098639Y-49491480D01*
X47618885Y-48971234D01*
X47618886Y-48971233D01*
X47655500Y-48882839D01*
X47655500Y-48882836D01*
X47657513Y-48877977D01*
X47694021Y-48838135D01*
X47747598Y-48831082D01*
X47793175Y-48860116D01*
X47809500Y-48908209D01*
X47809500Y-52098455D01*
X47791018Y-52149235D01*
X47786361Y-52154316D01*
X47733522Y-52207154D01*
X47681452Y-52297341D01*
X47681451Y-52297345D01*
X47654500Y-52397928D01*
X47654500Y-52502071D01*
X47681451Y-52602654D01*
X47681452Y-52602658D01*
X47733522Y-52692845D01*
X47807154Y-52766477D01*
X47807156Y-52766478D01*
X47807157Y-52766479D01*
X47897343Y-52818548D01*
X47997931Y-52845500D01*
X47997933Y-52845500D01*
X48102067Y-52845500D01*
X48102069Y-52845500D01*
X48202657Y-52818548D01*
X48292843Y-52766479D01*
X48366479Y-52692843D01*
X48418548Y-52602657D01*
X48445500Y-52502069D01*
X48445500Y-52397931D01*
X48418548Y-52297343D01*
X48417483Y-52295499D01*
X48366477Y-52207154D01*
X48313639Y-52154316D01*
X48290801Y-52105340D01*
X48290500Y-52098455D01*
X48290500Y-43700274D01*
X48308982Y-43649494D01*
X48313633Y-43644418D01*
X48315209Y-43642843D01*
X48367278Y-43552657D01*
X48383693Y-43491392D01*
X48414686Y-43447129D01*
X48466884Y-43433141D01*
X48515858Y-43455977D01*
X48515861Y-43455980D01*
X48786361Y-43726480D01*
X48809199Y-43775456D01*
X48809500Y-43782341D01*
X48809500Y-52348455D01*
X48791018Y-52399235D01*
X48786361Y-52404316D01*
X48733522Y-52457154D01*
X48681452Y-52547341D01*
X48681451Y-52547345D01*
X48654500Y-52647928D01*
X48654500Y-52752071D01*
X48681451Y-52852654D01*
X48681452Y-52852658D01*
X48733522Y-52942845D01*
X48807154Y-53016477D01*
X48807156Y-53016478D01*
X48807157Y-53016479D01*
X48897343Y-53068548D01*
X48997931Y-53095500D01*
X48997933Y-53095500D01*
X49102067Y-53095500D01*
X49102069Y-53095500D01*
X49202657Y-53068548D01*
X49292843Y-53016479D01*
X49366479Y-52942843D01*
X49418548Y-52852657D01*
X49445500Y-52752069D01*
X49445500Y-52647931D01*
X49418548Y-52547343D01*
X49416524Y-52543838D01*
X49366477Y-52457154D01*
X49313639Y-52404316D01*
X49290801Y-52355340D01*
X49290500Y-52348455D01*
X49290500Y-51989180D01*
X49308982Y-51938400D01*
X49355782Y-51911380D01*
X49409000Y-51920764D01*
X49432179Y-51941093D01*
X49433526Y-51942849D01*
X49507154Y-52016477D01*
X49507156Y-52016478D01*
X49507157Y-52016479D01*
X49597343Y-52068548D01*
X49697931Y-52095500D01*
X49697933Y-52095500D01*
X49802067Y-52095500D01*
X49802069Y-52095500D01*
X49902657Y-52068548D01*
X49992843Y-52016479D01*
X50066479Y-51942843D01*
X50118548Y-51852657D01*
X50145500Y-51752069D01*
X50145500Y-51677340D01*
X50163982Y-51626560D01*
X50168639Y-51621478D01*
X50223638Y-51566479D01*
X50303886Y-51486232D01*
X50340500Y-51397838D01*
X50340500Y-51302161D01*
X50340500Y-43452162D01*
X50340462Y-43452069D01*
X50303886Y-43363767D01*
X50303885Y-43363766D01*
X50303883Y-43363763D01*
X48898737Y-41958618D01*
X48875899Y-41909642D01*
X48889885Y-41857444D01*
X48902886Y-41843034D01*
X48908574Y-41838108D01*
X48934073Y-41823387D01*
X48988915Y-41768544D01*
X48991063Y-41766685D01*
X49013823Y-41757998D01*
X49035890Y-41747709D01*
X49041419Y-41747467D01*
X49041551Y-41747417D01*
X49041665Y-41747456D01*
X49042775Y-41747408D01*
X50074567Y-41747408D01*
X50125347Y-41765890D01*
G37*
%TD.AperFunction*%
%TA.AperFunction,Conductor*%
G36*
X52209906Y-52930143D02*
G01*
X52233010Y-52955356D01*
X52283522Y-53042845D01*
X52357154Y-53116477D01*
X52357156Y-53116478D01*
X52357157Y-53116479D01*
X52447343Y-53168548D01*
X52547931Y-53195500D01*
X52547933Y-53195500D01*
X52622659Y-53195500D01*
X52673439Y-53213982D01*
X52678520Y-53218639D01*
X52934130Y-53474249D01*
X52956968Y-53523225D01*
X52942982Y-53575423D01*
X52917770Y-53598526D01*
X52857153Y-53633523D01*
X52783522Y-53707154D01*
X52731452Y-53797341D01*
X52731451Y-53797345D01*
X52704500Y-53897928D01*
X52704500Y-54002071D01*
X52731451Y-54102654D01*
X52731452Y-54102658D01*
X52783522Y-54192845D01*
X52857154Y-54266477D01*
X52857156Y-54266478D01*
X52857157Y-54266479D01*
X52947343Y-54318548D01*
X53047931Y-54345500D01*
X53047933Y-54345500D01*
X53152067Y-54345500D01*
X53152069Y-54345500D01*
X53234055Y-54323532D01*
X53287887Y-54328242D01*
X53326098Y-54366453D01*
X53333500Y-54399840D01*
X53333500Y-64036365D01*
X53315018Y-64087145D01*
X53310361Y-64092226D01*
X52410361Y-64992226D01*
X52361385Y-65015064D01*
X52309187Y-65001078D01*
X52278192Y-64956812D01*
X52275500Y-64936365D01*
X52275500Y-64239731D01*
X52293982Y-64188951D01*
X52298639Y-64183870D01*
X52776886Y-63705623D01*
X52776887Y-63705622D01*
X52813501Y-63617228D01*
X52813501Y-63521551D01*
X52813501Y-55325163D01*
X52803974Y-55302161D01*
X52795396Y-55281451D01*
X52776889Y-55236771D01*
X52776884Y-55236764D01*
X52686234Y-55146114D01*
X52656768Y-55133909D01*
X52597839Y-55109500D01*
X52597838Y-55109500D01*
X52597837Y-55109500D01*
X52401545Y-55109500D01*
X52350765Y-55091018D01*
X52345684Y-55086361D01*
X52292845Y-55033522D01*
X52202658Y-54981452D01*
X52202654Y-54981451D01*
X52102071Y-54954500D01*
X52102069Y-54954500D01*
X51997931Y-54954500D01*
X51997928Y-54954500D01*
X51892341Y-54982792D01*
X51891811Y-54980814D01*
X51845716Y-54982810D01*
X51802856Y-54949897D01*
X51790500Y-54907475D01*
X51790500Y-53289951D01*
X51808982Y-53239171D01*
X51813627Y-53234101D01*
X52108735Y-52938993D01*
X52157709Y-52916157D01*
X52209906Y-52930143D01*
G37*
%TD.AperFunction*%
%TA.AperFunction,Conductor*%
G36*
X44776017Y-52543838D02*
G01*
X44794500Y-52594619D01*
X44794500Y-55744771D01*
X44794500Y-55840449D01*
X44818909Y-55899378D01*
X44831114Y-55928844D01*
X44831116Y-55928846D01*
X48572361Y-59670089D01*
X48595199Y-59719065D01*
X48595500Y-59725950D01*
X48595500Y-63486580D01*
X48577018Y-63537360D01*
X48530218Y-63564380D01*
X48477000Y-63554996D01*
X48460639Y-63542441D01*
X44248639Y-59330441D01*
X44225801Y-59281465D01*
X44225500Y-59274580D01*
X44225500Y-52797341D01*
X44243982Y-52746561D01*
X44248639Y-52741480D01*
X44371480Y-52618639D01*
X44420456Y-52595801D01*
X44427341Y-52595500D01*
X44502067Y-52595500D01*
X44502069Y-52595500D01*
X44602657Y-52568548D01*
X44676000Y-52526202D01*
X44729218Y-52516819D01*
X44776017Y-52543838D01*
G37*
%TD.AperFunction*%
%TA.AperFunction,Conductor*%
G36*
X45394000Y-54823819D02*
G01*
X45410361Y-54836374D01*
X48860361Y-58286374D01*
X48883199Y-58335350D01*
X48883500Y-58342235D01*
X48883500Y-59110269D01*
X48865018Y-59161049D01*
X48818218Y-59188069D01*
X48765000Y-59178685D01*
X48748639Y-59166130D01*
X45298639Y-55716130D01*
X45275801Y-55667154D01*
X45275500Y-55660269D01*
X45275500Y-54892235D01*
X45293982Y-54841455D01*
X45340782Y-54814435D01*
X45394000Y-54823819D01*
G37*
%TD.AperFunction*%
%TA.AperFunction,Conductor*%
G36*
X46659000Y-52860535D02*
G01*
X46675361Y-52873090D01*
X48786361Y-54984090D01*
X48809199Y-55033066D01*
X48809500Y-55039951D01*
X48809500Y-56098455D01*
X48791018Y-56149235D01*
X48786361Y-56154316D01*
X48733522Y-56207154D01*
X48681452Y-56297341D01*
X48681451Y-56297345D01*
X48654500Y-56397928D01*
X48654500Y-56502069D01*
X48655905Y-56507313D01*
X48651191Y-56561146D01*
X48612977Y-56599355D01*
X48559143Y-56604061D01*
X48523734Y-56583615D01*
X47668639Y-55728520D01*
X47645801Y-55679544D01*
X47645500Y-55672659D01*
X47645500Y-55597933D01*
X47645499Y-55597928D01*
X47626028Y-55525261D01*
X47618548Y-55497343D01*
X47566479Y-55407157D01*
X47566478Y-55407156D01*
X47566477Y-55407154D01*
X47492845Y-55333522D01*
X47402658Y-55281452D01*
X47402654Y-55281451D01*
X47302071Y-55254500D01*
X47302069Y-55254500D01*
X47197931Y-55254500D01*
X47197928Y-55254500D01*
X47097345Y-55281451D01*
X47097341Y-55281452D01*
X47007154Y-55333522D01*
X46933522Y-55407154D01*
X46885388Y-55490525D01*
X46843991Y-55525261D01*
X46789952Y-55525261D01*
X46761111Y-55506886D01*
X45763639Y-54509414D01*
X45740801Y-54460438D01*
X45740500Y-54453553D01*
X45740500Y-54101545D01*
X45746397Y-54085340D01*
X45747900Y-54068161D01*
X45757793Y-54054030D01*
X45758982Y-54050765D01*
X45763636Y-54045686D01*
X45776626Y-54032695D01*
X45825601Y-54009856D01*
X45877799Y-54023840D01*
X45908796Y-54068105D01*
X45908797Y-54068108D01*
X45931451Y-54152656D01*
X45931452Y-54152658D01*
X45983522Y-54242845D01*
X46057154Y-54316477D01*
X46057156Y-54316478D01*
X46057157Y-54316479D01*
X46147343Y-54368548D01*
X46247931Y-54395500D01*
X46247933Y-54395500D01*
X46352067Y-54395500D01*
X46352069Y-54395500D01*
X46452657Y-54368548D01*
X46542843Y-54316479D01*
X46616479Y-54242843D01*
X46668548Y-54152657D01*
X46695500Y-54052069D01*
X46695500Y-53947931D01*
X46668548Y-53847343D01*
X46616479Y-53757157D01*
X46616478Y-53757156D01*
X46616477Y-53757154D01*
X46563639Y-53704316D01*
X46540801Y-53655340D01*
X46540500Y-53648455D01*
X46540500Y-52928951D01*
X46558982Y-52878171D01*
X46605782Y-52851151D01*
X46659000Y-52860535D01*
G37*
%TD.AperFunction*%
%TA.AperFunction,Conductor*%
G36*
X62090280Y-25399982D02*
G01*
X62117300Y-25446782D01*
X62118500Y-25460500D01*
X62118500Y-44506067D01*
X62100018Y-44556847D01*
X62053218Y-44583867D01*
X62000000Y-44574483D01*
X61965264Y-44533087D01*
X61962018Y-44521479D01*
X61961926Y-44521018D01*
X61960986Y-44516291D01*
X61941314Y-44468800D01*
X61904466Y-44379841D01*
X61904463Y-44379835D01*
X61882751Y-44347341D01*
X61852057Y-44301403D01*
X61822409Y-44257031D01*
X61822403Y-44257024D01*
X61717975Y-44152596D01*
X61717968Y-44152590D01*
X61595164Y-44070536D01*
X61595158Y-44070533D01*
X61458716Y-44014016D01*
X61458710Y-44014014D01*
X61313849Y-43985200D01*
X61166151Y-43985200D01*
X61162782Y-43985200D01*
X61112002Y-43966718D01*
X61084982Y-43919918D01*
X61086473Y-43885755D01*
X61095500Y-43852069D01*
X61095500Y-43747931D01*
X61068548Y-43647343D01*
X61067282Y-43645151D01*
X61016477Y-43557154D01*
X60942845Y-43483522D01*
X60859475Y-43435388D01*
X60824739Y-43393991D01*
X60824739Y-43339952D01*
X60843113Y-43311111D01*
X60903769Y-43250455D01*
X60966455Y-43187767D01*
X61015431Y-43164930D01*
X61042763Y-43167321D01*
X61093911Y-43181025D01*
X61147931Y-43195500D01*
X61147933Y-43195500D01*
X61252067Y-43195500D01*
X61252069Y-43195500D01*
X61352657Y-43168548D01*
X61442843Y-43116479D01*
X61516479Y-43042843D01*
X61568548Y-42952657D01*
X61595500Y-42852069D01*
X61595500Y-42747931D01*
X61568548Y-42647343D01*
X61565121Y-42641408D01*
X61549487Y-42614329D01*
X61516479Y-42557157D01*
X61516478Y-42557156D01*
X61516477Y-42557154D01*
X61442845Y-42483522D01*
X61352658Y-42431452D01*
X61352654Y-42431451D01*
X61252071Y-42404500D01*
X61252069Y-42404500D01*
X61147931Y-42404500D01*
X61147928Y-42404500D01*
X61047345Y-42431451D01*
X61047341Y-42431452D01*
X60957154Y-42483522D01*
X60883519Y-42557157D01*
X60843214Y-42626966D01*
X60830660Y-42643326D01*
X60011116Y-43462870D01*
X60011114Y-43462873D01*
X59990034Y-43513767D01*
X59975923Y-43547834D01*
X59975921Y-43547837D01*
X59974501Y-43551266D01*
X59974500Y-43551268D01*
X59974500Y-44864667D01*
X59974500Y-44960345D01*
X59991423Y-45001200D01*
X60011114Y-45048740D01*
X60011116Y-45048742D01*
X61436361Y-46473986D01*
X61459199Y-46522962D01*
X61459500Y-46529847D01*
X61459500Y-62660819D01*
X61451108Y-62683875D01*
X61444282Y-62707432D01*
X61441970Y-62708981D01*
X61441018Y-62711599D01*
X61419767Y-62723867D01*
X61399398Y-62737525D01*
X61396630Y-62737226D01*
X61394218Y-62738619D01*
X61370056Y-62734358D01*
X61345671Y-62731727D01*
X61343076Y-62729601D01*
X61341000Y-62729235D01*
X61323519Y-62715538D01*
X61317999Y-62709790D01*
X61316479Y-62707157D01*
X61291075Y-62681753D01*
X61290519Y-62681174D01*
X61279886Y-62657111D01*
X61268801Y-62633340D01*
X61268737Y-62631882D01*
X61268677Y-62631746D01*
X61268724Y-62631583D01*
X61268500Y-62626455D01*
X61268500Y-51730163D01*
X61268500Y-51730162D01*
X61267508Y-51727765D01*
X61267504Y-51727755D01*
X61231888Y-51641770D01*
X61231883Y-51641763D01*
X60518639Y-50928519D01*
X60495801Y-50879543D01*
X60495500Y-50872658D01*
X60495500Y-50797933D01*
X60495499Y-50797928D01*
X60491448Y-50782810D01*
X60468548Y-50697343D01*
X60467483Y-50695499D01*
X60416477Y-50607154D01*
X60342845Y-50533522D01*
X60252658Y-50481452D01*
X60252654Y-50481451D01*
X60152071Y-50454500D01*
X60152069Y-50454500D01*
X60145545Y-50454500D01*
X60094765Y-50436018D01*
X60067745Y-50389218D01*
X60077129Y-50336000D01*
X60089684Y-50319639D01*
X60116477Y-50292845D01*
X60116479Y-50292843D01*
X60168548Y-50202657D01*
X60195500Y-50102069D01*
X60195500Y-49997931D01*
X60168548Y-49897343D01*
X60116479Y-49807157D01*
X60116478Y-49807156D01*
X60116477Y-49807154D01*
X60065183Y-49755860D01*
X60042345Y-49706884D01*
X60056331Y-49654686D01*
X60065177Y-49644144D01*
X60066479Y-49642843D01*
X60118548Y-49552657D01*
X60145500Y-49452069D01*
X60145500Y-49347931D01*
X60118548Y-49247343D01*
X60066479Y-49157157D01*
X60066478Y-49157156D01*
X60066477Y-49157154D01*
X59992845Y-49083522D01*
X59902658Y-49031452D01*
X59902654Y-49031451D01*
X59802071Y-49004500D01*
X59802069Y-49004500D01*
X59697931Y-49004500D01*
X59697928Y-49004500D01*
X59597345Y-49031451D01*
X59597341Y-49031452D01*
X59507154Y-49083522D01*
X59433522Y-49157154D01*
X59381452Y-49247341D01*
X59381451Y-49247345D01*
X59354500Y-49347928D01*
X59354500Y-49452071D01*
X59381451Y-49552654D01*
X59381452Y-49552658D01*
X59433522Y-49642845D01*
X59484815Y-49694138D01*
X59507653Y-49743114D01*
X59493667Y-49795312D01*
X59484827Y-49805849D01*
X59483523Y-49807152D01*
X59483523Y-49807153D01*
X59431452Y-49897341D01*
X59431451Y-49897345D01*
X59404500Y-49997928D01*
X59404500Y-50102071D01*
X59431451Y-50202654D01*
X59431452Y-50202658D01*
X59483522Y-50292845D01*
X59557154Y-50366477D01*
X59557156Y-50366478D01*
X59557157Y-50366479D01*
X59647343Y-50418548D01*
X59747931Y-50445500D01*
X59747933Y-50445500D01*
X59754455Y-50445500D01*
X59805235Y-50463982D01*
X59832255Y-50510782D01*
X59822871Y-50564000D01*
X59810316Y-50580361D01*
X59783522Y-50607154D01*
X59731452Y-50697341D01*
X59731451Y-50697345D01*
X59704500Y-50797928D01*
X59704500Y-50902071D01*
X59731451Y-51002654D01*
X59731452Y-51002658D01*
X59783522Y-51092845D01*
X59857154Y-51166477D01*
X59857156Y-51166478D01*
X59857157Y-51166479D01*
X59947343Y-51218548D01*
X60047931Y-51245500D01*
X60047933Y-51245500D01*
X60122659Y-51245500D01*
X60173439Y-51263982D01*
X60178520Y-51268639D01*
X60764361Y-51854480D01*
X60787199Y-51903456D01*
X60787500Y-51910341D01*
X60787500Y-62571279D01*
X60769018Y-62622059D01*
X60759642Y-62631034D01*
X60683522Y-62707154D01*
X60631452Y-62797341D01*
X60631451Y-62797345D01*
X60604500Y-62897928D01*
X60604500Y-63002071D01*
X60631451Y-63102654D01*
X60631452Y-63102658D01*
X60683522Y-63192845D01*
X60757154Y-63266477D01*
X60757156Y-63266478D01*
X60757157Y-63266479D01*
X60847343Y-63318548D01*
X60947931Y-63345500D01*
X60947933Y-63345500D01*
X61052067Y-63345500D01*
X61052069Y-63345500D01*
X61152657Y-63318548D01*
X61242843Y-63266479D01*
X61316479Y-63192843D01*
X61316483Y-63192835D01*
X61317821Y-63191093D01*
X61318948Y-63190374D01*
X61320141Y-63189182D01*
X61320405Y-63189446D01*
X61363394Y-63162054D01*
X61416972Y-63169103D01*
X61453484Y-63208941D01*
X61459500Y-63239180D01*
X61459500Y-64898455D01*
X61441018Y-64949235D01*
X61436361Y-64954316D01*
X61383522Y-65007154D01*
X61331452Y-65097341D01*
X61331451Y-65097345D01*
X61304500Y-65197928D01*
X61304500Y-65302071D01*
X61331451Y-65402654D01*
X61331452Y-65402658D01*
X61383522Y-65492845D01*
X61457154Y-65566477D01*
X61457156Y-65566478D01*
X61457157Y-65566479D01*
X61547343Y-65618548D01*
X61647931Y-65645500D01*
X61647933Y-65645500D01*
X61752067Y-65645500D01*
X61752069Y-65645500D01*
X61852657Y-65618548D01*
X61942843Y-65566479D01*
X61961391Y-65547931D01*
X61983639Y-65525684D01*
X62032615Y-65502846D01*
X62084813Y-65516832D01*
X62115808Y-65561098D01*
X62118500Y-65581545D01*
X62118500Y-82039500D01*
X62100018Y-82090280D01*
X62053218Y-82117300D01*
X62039500Y-82118500D01*
X37960500Y-82118500D01*
X37909720Y-82100018D01*
X37882700Y-82053218D01*
X37881500Y-82039500D01*
X37881500Y-80716708D01*
X46453280Y-80716708D01*
X46453280Y-80820851D01*
X46480231Y-80921434D01*
X46480232Y-80921438D01*
X46532302Y-81011625D01*
X46605934Y-81085257D01*
X46605936Y-81085258D01*
X46605937Y-81085259D01*
X46696123Y-81137328D01*
X46796711Y-81164280D01*
X46796713Y-81164280D01*
X46900847Y-81164280D01*
X46900849Y-81164280D01*
X47001437Y-81137328D01*
X47091623Y-81085259D01*
X47165259Y-81011623D01*
X47217328Y-80921437D01*
X47244280Y-80820849D01*
X47244280Y-80716711D01*
X47217328Y-80616123D01*
X47165259Y-80525937D01*
X47165258Y-80525936D01*
X47165257Y-80525934D01*
X47091625Y-80452302D01*
X47001438Y-80400232D01*
X47001434Y-80400231D01*
X46900851Y-80373280D01*
X46900849Y-80373280D01*
X46796711Y-80373280D01*
X46796708Y-80373280D01*
X46696125Y-80400231D01*
X46696121Y-80400232D01*
X46605934Y-80452302D01*
X46532302Y-80525934D01*
X46480232Y-80616121D01*
X46480231Y-80616125D01*
X46453280Y-80716708D01*
X37881500Y-80716708D01*
X37881500Y-79979000D01*
X37899982Y-79928220D01*
X37946782Y-79901200D01*
X37960500Y-79900000D01*
X38050000Y-79900000D01*
X38050000Y-78679000D01*
X38068482Y-78628220D01*
X38115282Y-78601200D01*
X38129000Y-78600000D01*
X38771000Y-78600000D01*
X38821780Y-78618482D01*
X38848800Y-78665282D01*
X38850000Y-78679000D01*
X38850000Y-79900000D01*
X39150000Y-79900000D01*
X39150000Y-78679000D01*
X39168482Y-78628220D01*
X39215282Y-78601200D01*
X39229000Y-78600000D01*
X39871000Y-78600000D01*
X39921780Y-78618482D01*
X39948800Y-78665282D01*
X39950000Y-78679000D01*
X39950000Y-79900000D01*
X41650000Y-79900000D01*
X41650000Y-70779000D01*
X41668482Y-70728220D01*
X41715282Y-70701200D01*
X41729000Y-70700000D01*
X43650000Y-70700000D01*
X43650000Y-68700000D01*
X41729000Y-68700000D01*
X41678220Y-68681518D01*
X41651200Y-68634718D01*
X41650000Y-68621000D01*
X41650000Y-67900000D01*
X39950000Y-67900000D01*
X39950000Y-69121000D01*
X39931518Y-69171780D01*
X39884718Y-69198800D01*
X39871000Y-69200000D01*
X39229000Y-69200000D01*
X39178220Y-69181518D01*
X39151200Y-69134718D01*
X39150000Y-69121000D01*
X39150000Y-67900000D01*
X38850000Y-67900000D01*
X38850000Y-69121000D01*
X38831518Y-69171780D01*
X38784718Y-69198800D01*
X38771000Y-69200000D01*
X38129000Y-69200000D01*
X38078220Y-69181518D01*
X38051200Y-69134718D01*
X38050000Y-69121000D01*
X38050000Y-67900000D01*
X37960500Y-67900000D01*
X37909720Y-67881518D01*
X37882700Y-67834718D01*
X37881500Y-67821000D01*
X37881500Y-49847928D01*
X42404500Y-49847928D01*
X42404500Y-49952071D01*
X42431451Y-50052654D01*
X42431452Y-50052658D01*
X42483522Y-50142845D01*
X42557154Y-50216477D01*
X42557156Y-50216478D01*
X42557157Y-50216479D01*
X42647343Y-50268548D01*
X42747931Y-50295500D01*
X42747933Y-50295500D01*
X42852067Y-50295500D01*
X42852069Y-50295500D01*
X42952657Y-50268548D01*
X43042843Y-50216479D01*
X43116479Y-50142843D01*
X43168548Y-50052657D01*
X43195500Y-49952069D01*
X43195500Y-49847931D01*
X43168548Y-49747343D01*
X43168095Y-49746559D01*
X43122102Y-49666896D01*
X43116479Y-49657157D01*
X43116478Y-49657156D01*
X43116477Y-49657154D01*
X43042845Y-49583522D01*
X42952658Y-49531452D01*
X42952654Y-49531451D01*
X42852071Y-49504500D01*
X42852069Y-49504500D01*
X42747931Y-49504500D01*
X42747928Y-49504500D01*
X42647345Y-49531451D01*
X42647341Y-49531452D01*
X42557154Y-49583522D01*
X42483522Y-49657154D01*
X42431452Y-49747341D01*
X42431451Y-49747345D01*
X42404500Y-49847928D01*
X37881500Y-49847928D01*
X37881500Y-42947928D01*
X41104500Y-42947928D01*
X41104500Y-43052071D01*
X41131451Y-43152654D01*
X41131452Y-43152658D01*
X41183522Y-43242845D01*
X41236361Y-43295684D01*
X41259199Y-43344660D01*
X41259500Y-43351545D01*
X41259500Y-46952161D01*
X41259500Y-47047839D01*
X41272045Y-47078125D01*
X41296114Y-47136234D01*
X41296116Y-47136236D01*
X44131361Y-49971479D01*
X44154199Y-50020455D01*
X44154500Y-50027340D01*
X44154500Y-50102071D01*
X44181451Y-50202654D01*
X44181452Y-50202658D01*
X44233522Y-50292845D01*
X44307154Y-50366477D01*
X44307156Y-50366478D01*
X44307157Y-50366479D01*
X44397343Y-50418548D01*
X44497931Y-50445500D01*
X44497933Y-50445500D01*
X44602067Y-50445500D01*
X44602069Y-50445500D01*
X44695054Y-50420585D01*
X44748887Y-50425295D01*
X44787098Y-50463506D01*
X44794500Y-50496893D01*
X44794500Y-51805380D01*
X44776018Y-51856160D01*
X44729218Y-51883180D01*
X44676000Y-51873796D01*
X44602658Y-51831452D01*
X44602654Y-51831451D01*
X44502071Y-51804500D01*
X44502069Y-51804500D01*
X44397931Y-51804500D01*
X44397928Y-51804500D01*
X44297345Y-51831451D01*
X44297341Y-51831452D01*
X44207154Y-51883522D01*
X44133522Y-51957154D01*
X44081452Y-52047341D01*
X44081451Y-52047345D01*
X44054500Y-52147928D01*
X44054500Y-52222657D01*
X44036018Y-52273437D01*
X44031362Y-52278518D01*
X43905565Y-52404316D01*
X43781114Y-52528767D01*
X43749253Y-52605690D01*
X43747674Y-52609501D01*
X43747672Y-52609504D01*
X43744500Y-52617160D01*
X43744500Y-52617162D01*
X43744500Y-59359082D01*
X43744500Y-59454760D01*
X43768909Y-59513689D01*
X43781114Y-59543155D01*
X43781116Y-59543157D01*
X48260360Y-64022400D01*
X48283198Y-64071376D01*
X48283499Y-64078261D01*
X48283499Y-72802162D01*
X48283499Y-73126160D01*
X48283499Y-73221838D01*
X48320113Y-73310232D01*
X48731361Y-73721480D01*
X48754199Y-73770456D01*
X48754500Y-73777341D01*
X48754500Y-73852071D01*
X48781451Y-73952654D01*
X48781452Y-73952658D01*
X48833522Y-74042845D01*
X48907154Y-74116477D01*
X48981747Y-74159544D01*
X48997343Y-74168548D01*
X49097931Y-74195500D01*
X49097933Y-74195500D01*
X49202067Y-74195500D01*
X49202069Y-74195500D01*
X49269903Y-74177324D01*
X49307659Y-74167208D01*
X49308190Y-74169191D01*
X49354257Y-74167181D01*
X49397129Y-74200078D01*
X49409500Y-74242524D01*
X49409500Y-80267657D01*
X49391018Y-80318437D01*
X49386361Y-80323518D01*
X49028518Y-80681361D01*
X48979542Y-80704199D01*
X48972657Y-80704500D01*
X48897928Y-80704500D01*
X48797345Y-80731451D01*
X48797341Y-80731452D01*
X48707154Y-80783522D01*
X48633522Y-80857154D01*
X48581452Y-80947341D01*
X48581451Y-80947345D01*
X48554500Y-81047928D01*
X48554500Y-81152071D01*
X48581451Y-81252654D01*
X48581452Y-81252658D01*
X48633522Y-81342845D01*
X48707154Y-81416477D01*
X48707156Y-81416478D01*
X48707157Y-81416479D01*
X48797343Y-81468548D01*
X48897931Y-81495500D01*
X48897933Y-81495500D01*
X49002067Y-81495500D01*
X49002069Y-81495500D01*
X49102657Y-81468548D01*
X49192843Y-81416479D01*
X49266479Y-81342843D01*
X49318548Y-81252657D01*
X49345500Y-81152069D01*
X49345500Y-81077340D01*
X49363982Y-81026560D01*
X49368639Y-81021479D01*
X49853885Y-80536233D01*
X49853886Y-80536232D01*
X49890500Y-80447838D01*
X49890500Y-71717162D01*
X49869382Y-71666178D01*
X49852608Y-71625682D01*
X49850250Y-71571694D01*
X49864661Y-71547977D01*
X49863326Y-71546953D01*
X49866476Y-71542846D01*
X49866479Y-71542843D01*
X49918548Y-71452657D01*
X49945500Y-71352069D01*
X49945500Y-71247931D01*
X49918548Y-71147343D01*
X49895670Y-71107717D01*
X49886286Y-71054499D01*
X49913306Y-71007700D01*
X49964086Y-70989217D01*
X49984529Y-70991909D01*
X49997931Y-70995500D01*
X49997933Y-70995500D01*
X50102067Y-70995500D01*
X50102069Y-70995500D01*
X50202657Y-70968548D01*
X50292843Y-70916479D01*
X50366479Y-70842843D01*
X50397084Y-70789832D01*
X50438480Y-70755097D01*
X50492519Y-70755097D01*
X50533916Y-70789833D01*
X50544500Y-70829333D01*
X50544500Y-71566350D01*
X50526018Y-71617130D01*
X50510861Y-71629851D01*
X50511261Y-71630372D01*
X50507153Y-71633523D01*
X50433522Y-71707154D01*
X50381452Y-71797341D01*
X50381451Y-71797345D01*
X50354500Y-71897928D01*
X50354500Y-72002071D01*
X50381451Y-72102654D01*
X50381452Y-72102658D01*
X50433522Y-72192845D01*
X50507154Y-72266477D01*
X50507156Y-72266478D01*
X50507157Y-72266479D01*
X50597343Y-72318548D01*
X50697931Y-72345500D01*
X50697933Y-72345500D01*
X50802067Y-72345500D01*
X50802069Y-72345500D01*
X50902657Y-72318548D01*
X50992843Y-72266479D01*
X51066479Y-72192843D01*
X51118548Y-72102657D01*
X51145500Y-72002069D01*
X51145500Y-71897931D01*
X51118548Y-71797343D01*
X51066479Y-71707157D01*
X51066478Y-71707156D01*
X51066477Y-71707154D01*
X51048639Y-71689316D01*
X51025801Y-71640340D01*
X51025500Y-71633455D01*
X51025500Y-69601269D01*
X51025500Y-69601268D01*
X51001085Y-69542323D01*
X50988886Y-69512873D01*
X50988883Y-69512869D01*
X50228639Y-68752625D01*
X50205801Y-68703649D01*
X50205500Y-68696764D01*
X50205500Y-65795340D01*
X50223982Y-65744560D01*
X50228639Y-65739479D01*
X51659639Y-64308479D01*
X51708615Y-64285641D01*
X51760813Y-64299627D01*
X51791808Y-64343893D01*
X51794500Y-64364340D01*
X51794500Y-76787161D01*
X51794500Y-76882839D01*
X51818909Y-76941768D01*
X51831114Y-76971234D01*
X51831115Y-76971235D01*
X52781361Y-77921479D01*
X52804199Y-77970455D01*
X52804500Y-77977340D01*
X52804500Y-78052071D01*
X52831451Y-78152654D01*
X52831452Y-78152658D01*
X52883522Y-78242845D01*
X52957154Y-78316477D01*
X52957156Y-78316478D01*
X52957157Y-78316479D01*
X53047343Y-78368548D01*
X53147931Y-78395500D01*
X53147933Y-78395500D01*
X53252067Y-78395500D01*
X53252069Y-78395500D01*
X53352657Y-78368548D01*
X53442843Y-78316479D01*
X53516479Y-78242843D01*
X53568548Y-78152657D01*
X53595500Y-78052069D01*
X53595500Y-77947931D01*
X53582496Y-77899399D01*
X53587206Y-77845567D01*
X53625417Y-77807356D01*
X53679251Y-77802646D01*
X53702535Y-77814127D01*
X53702673Y-77813890D01*
X53706300Y-77815984D01*
X53706892Y-77816276D01*
X53707154Y-77816477D01*
X53707156Y-77816478D01*
X53707157Y-77816479D01*
X53797343Y-77868548D01*
X53897931Y-77895500D01*
X53897933Y-77895500D01*
X54002067Y-77895500D01*
X54002069Y-77895500D01*
X54102657Y-77868548D01*
X54192843Y-77816479D01*
X54266479Y-77742843D01*
X54318548Y-77652657D01*
X54345500Y-77552069D01*
X54345500Y-77477340D01*
X54351398Y-77461132D01*
X54352902Y-77443953D01*
X54362792Y-77429828D01*
X54363982Y-77426560D01*
X54368639Y-77421479D01*
X54369139Y-77420979D01*
X54418115Y-77398141D01*
X54470313Y-77412127D01*
X54480861Y-77420979D01*
X55181361Y-78121479D01*
X55204199Y-78170455D01*
X55204500Y-78177340D01*
X55204500Y-78252071D01*
X55231451Y-78352654D01*
X55231452Y-78352658D01*
X55283522Y-78442845D01*
X55357154Y-78516477D01*
X55357156Y-78516478D01*
X55357157Y-78516479D01*
X55447343Y-78568548D01*
X55547931Y-78595500D01*
X55547933Y-78595500D01*
X55652067Y-78595500D01*
X55652069Y-78595500D01*
X55752657Y-78568548D01*
X55842843Y-78516479D01*
X55916479Y-78442843D01*
X55968548Y-78352657D01*
X55995500Y-78252069D01*
X55995500Y-78147931D01*
X55968548Y-78047343D01*
X55916479Y-77957157D01*
X55916478Y-77957156D01*
X55916477Y-77957154D01*
X55842845Y-77883522D01*
X55752658Y-77831452D01*
X55752654Y-77831451D01*
X55652071Y-77804500D01*
X55652069Y-77804500D01*
X55577340Y-77804500D01*
X55526560Y-77786018D01*
X55521479Y-77781361D01*
X54610639Y-76870520D01*
X54587801Y-76821544D01*
X54587500Y-76814659D01*
X54587500Y-74768341D01*
X54605982Y-74717561D01*
X54652782Y-74690541D01*
X54706000Y-74699925D01*
X54722361Y-74712480D01*
X55781361Y-75771480D01*
X55804199Y-75820456D01*
X55804500Y-75827341D01*
X55804500Y-75902071D01*
X55831451Y-76002654D01*
X55831452Y-76002658D01*
X55883522Y-76092845D01*
X55957154Y-76166477D01*
X55957156Y-76166478D01*
X55957157Y-76166479D01*
X56047343Y-76218548D01*
X56147931Y-76245500D01*
X56147933Y-76245500D01*
X56252067Y-76245500D01*
X56252069Y-76245500D01*
X56352657Y-76218548D01*
X56442843Y-76166479D01*
X56516479Y-76092843D01*
X56568548Y-76002657D01*
X56595500Y-75902069D01*
X56595500Y-75797931D01*
X56568548Y-75697343D01*
X56516479Y-75607157D01*
X56516478Y-75607156D01*
X56516477Y-75607154D01*
X56442845Y-75533522D01*
X56352658Y-75481452D01*
X56352654Y-75481451D01*
X56252071Y-75454500D01*
X56252069Y-75454500D01*
X56177341Y-75454500D01*
X56126561Y-75436018D01*
X56121480Y-75431361D01*
X54898639Y-74208520D01*
X54875801Y-74159544D01*
X54875500Y-74152659D01*
X54875500Y-67502252D01*
X54893982Y-67451472D01*
X54940782Y-67424452D01*
X54974945Y-67425943D01*
X55047931Y-67445500D01*
X55047933Y-67445500D01*
X55152067Y-67445500D01*
X55152069Y-67445500D01*
X55252657Y-67418548D01*
X55342843Y-67366479D01*
X55342845Y-67366477D01*
X55395684Y-67313639D01*
X55444660Y-67290801D01*
X55451545Y-67290500D01*
X57247837Y-67290500D01*
X57247839Y-67290500D01*
X57336233Y-67253886D01*
X58653886Y-65936233D01*
X58690500Y-65847839D01*
X58690500Y-65752161D01*
X58690500Y-65221341D01*
X58698633Y-65198994D01*
X58704787Y-65176028D01*
X58707746Y-65173955D01*
X58708982Y-65170561D01*
X58729573Y-65158672D01*
X58749053Y-65145033D01*
X58752652Y-65145347D01*
X58755782Y-65143541D01*
X58779203Y-65147670D01*
X58802887Y-65149743D01*
X58806903Y-65152555D01*
X58809000Y-65152925D01*
X58825361Y-65165480D01*
X58831361Y-65171480D01*
X58854199Y-65220456D01*
X58854500Y-65227341D01*
X58854500Y-65302071D01*
X58881451Y-65402654D01*
X58881452Y-65402658D01*
X58933522Y-65492845D01*
X59007154Y-65566477D01*
X59007156Y-65566478D01*
X59007157Y-65566479D01*
X59097343Y-65618548D01*
X59197931Y-65645500D01*
X59197933Y-65645500D01*
X59302067Y-65645500D01*
X59302069Y-65645500D01*
X59402657Y-65618548D01*
X59492843Y-65566479D01*
X59566479Y-65492843D01*
X59618548Y-65402657D01*
X59645500Y-65302069D01*
X59645500Y-65197931D01*
X59618548Y-65097343D01*
X59613554Y-65088694D01*
X59566477Y-65007154D01*
X59492845Y-64933522D01*
X59402658Y-64881452D01*
X59402654Y-64881451D01*
X59302071Y-64854500D01*
X59302069Y-64854500D01*
X59227341Y-64854500D01*
X59176561Y-64836018D01*
X59171480Y-64831361D01*
X59035639Y-64695520D01*
X59012801Y-64646544D01*
X59012500Y-64639659D01*
X59012500Y-54760341D01*
X59030982Y-54709561D01*
X59035639Y-54704480D01*
X59988885Y-53751234D01*
X59988886Y-53751233D01*
X60025500Y-53662839D01*
X60025500Y-53567162D01*
X60025500Y-53037162D01*
X60018624Y-53020560D01*
X60004406Y-52986233D01*
X59988887Y-52948768D01*
X59988883Y-52948763D01*
X59035639Y-51995519D01*
X59012801Y-51946543D01*
X59012500Y-51939658D01*
X59012500Y-47986999D01*
X59030982Y-47936219D01*
X59077782Y-47909199D01*
X59091500Y-47907999D01*
X59152067Y-47907999D01*
X59152069Y-47907999D01*
X59252657Y-47881047D01*
X59342843Y-47828978D01*
X59416479Y-47755342D01*
X59468548Y-47665156D01*
X59495500Y-47564568D01*
X59495500Y-47460430D01*
X59468548Y-47359842D01*
X59468051Y-47358982D01*
X59416477Y-47269653D01*
X59342845Y-47196021D01*
X59252658Y-47143951D01*
X59252654Y-47143950D01*
X59152071Y-47116999D01*
X59152069Y-47116999D01*
X59091500Y-47116999D01*
X59040720Y-47098517D01*
X59013700Y-47051717D01*
X59012500Y-47037999D01*
X59012500Y-43746233D01*
X59030982Y-43695453D01*
X59035616Y-43690395D01*
X59456680Y-43269330D01*
X59473035Y-43256782D01*
X59483994Y-43250455D01*
X59542843Y-43216479D01*
X59542844Y-43216478D01*
X59542845Y-43216478D01*
X59616477Y-43142845D01*
X59616479Y-43142843D01*
X59668548Y-43052657D01*
X59695500Y-42952069D01*
X59695500Y-42847931D01*
X59668548Y-42747343D01*
X59616479Y-42657157D01*
X59616478Y-42657156D01*
X59616477Y-42657154D01*
X59542845Y-42583522D01*
X59452658Y-42531452D01*
X59452654Y-42531451D01*
X59352071Y-42504500D01*
X59352069Y-42504500D01*
X59247931Y-42504500D01*
X59247928Y-42504500D01*
X59147345Y-42531451D01*
X59147341Y-42531452D01*
X59057154Y-42583522D01*
X58983522Y-42657154D01*
X58931452Y-42747341D01*
X58931451Y-42747345D01*
X58904500Y-42847928D01*
X58904500Y-42952071D01*
X58932678Y-43057236D01*
X58927968Y-43111070D01*
X58912232Y-43133543D01*
X58568114Y-43477661D01*
X58537626Y-43551267D01*
X58531500Y-43566055D01*
X58531500Y-47022264D01*
X58513018Y-47073044D01*
X58508361Y-47078125D01*
X58411116Y-47175369D01*
X58411111Y-47175376D01*
X58379101Y-47252655D01*
X58379102Y-47252656D01*
X58379102Y-47252657D01*
X58374500Y-47263767D01*
X58374500Y-47665554D01*
X58374500Y-47761232D01*
X58411114Y-47849626D01*
X58470687Y-47909199D01*
X58508361Y-47946872D01*
X58531199Y-47995848D01*
X58531500Y-48002734D01*
X58531500Y-48469007D01*
X58513018Y-48519787D01*
X58466218Y-48546807D01*
X58413001Y-48537424D01*
X58402655Y-48531451D01*
X58302071Y-48504500D01*
X58302069Y-48504500D01*
X58197931Y-48504500D01*
X58197928Y-48504500D01*
X58097345Y-48531451D01*
X58097341Y-48531452D01*
X58007154Y-48583522D01*
X57933522Y-48657154D01*
X57881452Y-48747341D01*
X57881451Y-48747345D01*
X57854500Y-48847928D01*
X57854500Y-48952071D01*
X57881451Y-49052654D01*
X57881452Y-49052657D01*
X57908451Y-49099421D01*
X57910243Y-49109584D01*
X57916215Y-49118001D01*
X57914799Y-49135423D01*
X57917835Y-49152638D01*
X57912573Y-49162822D01*
X57911839Y-49171863D01*
X57896542Y-49193852D01*
X57896241Y-49194435D01*
X57896080Y-49194597D01*
X57833521Y-49257157D01*
X57832437Y-49259032D01*
X57827369Y-49264165D01*
X57807134Y-49273753D01*
X57788245Y-49285781D01*
X57783164Y-49285111D01*
X57778535Y-49287305D01*
X57756871Y-49281643D01*
X57734670Y-49278716D01*
X57731663Y-49277066D01*
X57652658Y-49231452D01*
X57652654Y-49231451D01*
X57552071Y-49204500D01*
X57552069Y-49204500D01*
X57447931Y-49204500D01*
X57447928Y-49204500D01*
X57347345Y-49231451D01*
X57347341Y-49231452D01*
X57257154Y-49283522D01*
X57204316Y-49336361D01*
X57155340Y-49359199D01*
X57148455Y-49359500D01*
X56001545Y-49359500D01*
X55950765Y-49341018D01*
X55945684Y-49336361D01*
X55942845Y-49333522D01*
X55852658Y-49281452D01*
X55852654Y-49281451D01*
X55752071Y-49254500D01*
X55752069Y-49254500D01*
X55647931Y-49254500D01*
X55647928Y-49254500D01*
X55547345Y-49281451D01*
X55547341Y-49281452D01*
X55457154Y-49333522D01*
X55383522Y-49407154D01*
X55331452Y-49497341D01*
X55331451Y-49497345D01*
X55304500Y-49597928D01*
X55304500Y-49702071D01*
X55331451Y-49802654D01*
X55331452Y-49802658D01*
X55383522Y-49892845D01*
X55457154Y-49966477D01*
X55457156Y-49966478D01*
X55457157Y-49966479D01*
X55547343Y-50018548D01*
X55647931Y-50045500D01*
X55647933Y-50045500D01*
X55752067Y-50045500D01*
X55752069Y-50045500D01*
X55852657Y-50018548D01*
X55942843Y-49966479D01*
X56016479Y-49892843D01*
X56023894Y-49879998D01*
X56065291Y-49845264D01*
X56092310Y-49840500D01*
X57148455Y-49840500D01*
X57199235Y-49858982D01*
X57204316Y-49863639D01*
X57257154Y-49916477D01*
X57257156Y-49916478D01*
X57257157Y-49916479D01*
X57347343Y-49968548D01*
X57447931Y-49995500D01*
X57447933Y-49995500D01*
X57552067Y-49995500D01*
X57552069Y-49995500D01*
X57652657Y-49968548D01*
X57742843Y-49916479D01*
X57779323Y-49879999D01*
X57820141Y-49839182D01*
X57821082Y-49840123D01*
X57829311Y-49834880D01*
X57839338Y-49822932D01*
X57851400Y-49820805D01*
X57861731Y-49814223D01*
X57877196Y-49816257D01*
X57892556Y-49813550D01*
X57912902Y-49820955D01*
X57915308Y-49821272D01*
X57918325Y-49822927D01*
X57928332Y-49828704D01*
X57933321Y-49831585D01*
X57968055Y-49872982D01*
X57968054Y-49927022D01*
X57933320Y-49968415D01*
X57921867Y-49975027D01*
X57907153Y-49983523D01*
X57833522Y-50057154D01*
X57781452Y-50147341D01*
X57781451Y-50147345D01*
X57754500Y-50247928D01*
X57754500Y-50352071D01*
X57781451Y-50452654D01*
X57781452Y-50452658D01*
X57833522Y-50542845D01*
X57907154Y-50616477D01*
X57907156Y-50616478D01*
X57907157Y-50616479D01*
X57997343Y-50668548D01*
X58097931Y-50695500D01*
X58097933Y-50695500D01*
X58202067Y-50695500D01*
X58202069Y-50695500D01*
X58302657Y-50668548D01*
X58392843Y-50616479D01*
X58392845Y-50616477D01*
X58396639Y-50612684D01*
X58445615Y-50589846D01*
X58497813Y-50603832D01*
X58528808Y-50648098D01*
X58531500Y-50668545D01*
X58531500Y-52024161D01*
X58531500Y-52119839D01*
X58545781Y-52154316D01*
X58568114Y-52208234D01*
X58568116Y-52208236D01*
X59521361Y-53161480D01*
X59544199Y-53210456D01*
X59544500Y-53217341D01*
X59544500Y-53482659D01*
X59526018Y-53533439D01*
X59521361Y-53538520D01*
X58825361Y-54234520D01*
X58776385Y-54257358D01*
X58724187Y-54243372D01*
X58693192Y-54199106D01*
X58690500Y-54178659D01*
X58690500Y-53888301D01*
X58690500Y-53888300D01*
X58653886Y-53799906D01*
X58586232Y-53732252D01*
X57421133Y-52567153D01*
X56252149Y-51398168D01*
X56229311Y-51349192D01*
X56239594Y-51302807D01*
X56259436Y-51268439D01*
X56268548Y-51252657D01*
X56295500Y-51152069D01*
X56295500Y-51047931D01*
X56268548Y-50947343D01*
X56260568Y-50933522D01*
X56230505Y-50881451D01*
X56216479Y-50857157D01*
X56216478Y-50857156D01*
X56216477Y-50857154D01*
X56142845Y-50783522D01*
X56052658Y-50731452D01*
X56052654Y-50731451D01*
X55952071Y-50704500D01*
X55952069Y-50704500D01*
X55847931Y-50704500D01*
X55847928Y-50704500D01*
X55747345Y-50731451D01*
X55747341Y-50731452D01*
X55657154Y-50783522D01*
X55580861Y-50859816D01*
X55531885Y-50882654D01*
X55479687Y-50868668D01*
X55469139Y-50859816D01*
X55442845Y-50833522D01*
X55352658Y-50781452D01*
X55352654Y-50781451D01*
X55252071Y-50754500D01*
X55252069Y-50754500D01*
X55147931Y-50754500D01*
X55147928Y-50754500D01*
X55042341Y-50782792D01*
X55041811Y-50780814D01*
X54995716Y-50782810D01*
X54952856Y-50749897D01*
X54940500Y-50707475D01*
X54940500Y-47852163D01*
X54940499Y-47852159D01*
X54930897Y-47828976D01*
X54930897Y-47828975D01*
X54903887Y-47763769D01*
X54903882Y-47763762D01*
X54288048Y-47147928D01*
X54804500Y-47147928D01*
X54804500Y-47252071D01*
X54831451Y-47352654D01*
X54831452Y-47352658D01*
X54883522Y-47442845D01*
X54957154Y-47516477D01*
X54957156Y-47516478D01*
X54957157Y-47516479D01*
X55047343Y-47568548D01*
X55147931Y-47595500D01*
X55147933Y-47595500D01*
X55252067Y-47595500D01*
X55252069Y-47595500D01*
X55352657Y-47568548D01*
X55442843Y-47516479D01*
X55516479Y-47442843D01*
X55568548Y-47352657D01*
X55595500Y-47252069D01*
X55595500Y-47147931D01*
X55568548Y-47047343D01*
X55516479Y-46957157D01*
X55516478Y-46957156D01*
X55516477Y-46957154D01*
X55442845Y-46883522D01*
X55352658Y-46831452D01*
X55352654Y-46831451D01*
X55252071Y-46804500D01*
X55252069Y-46804500D01*
X55147931Y-46804500D01*
X55147928Y-46804500D01*
X55047345Y-46831451D01*
X55047341Y-46831452D01*
X54957154Y-46883522D01*
X54883522Y-46957154D01*
X54831452Y-47047341D01*
X54831451Y-47047345D01*
X54804500Y-47147928D01*
X54288048Y-47147928D01*
X54036234Y-46896114D01*
X53984158Y-46874544D01*
X53947839Y-46859500D01*
X53947838Y-46859500D01*
X53947837Y-46859500D01*
X53001545Y-46859500D01*
X52950765Y-46841018D01*
X52945684Y-46836361D01*
X52892845Y-46783522D01*
X52802658Y-46731452D01*
X52802654Y-46731451D01*
X52702071Y-46704500D01*
X52702069Y-46704500D01*
X52597931Y-46704500D01*
X52597928Y-46704500D01*
X52497345Y-46731451D01*
X52497341Y-46731452D01*
X52409000Y-46782457D01*
X52355782Y-46791841D01*
X52308983Y-46764821D01*
X52290500Y-46714041D01*
X52290500Y-45677151D01*
X55410200Y-45677151D01*
X55410200Y-45824848D01*
X55439014Y-45969710D01*
X55439016Y-45969716D01*
X55495533Y-46106158D01*
X55495536Y-46106164D01*
X55577590Y-46228968D01*
X55577596Y-46228975D01*
X55682024Y-46333403D01*
X55682030Y-46333408D01*
X55804836Y-46415464D01*
X55804841Y-46415466D01*
X55941283Y-46471983D01*
X55941286Y-46471984D01*
X55941291Y-46471986D01*
X56086151Y-46500800D01*
X56233849Y-46500800D01*
X56378709Y-46471986D01*
X56515164Y-46415464D01*
X56637970Y-46333408D01*
X56742408Y-46228970D01*
X56824464Y-46106164D01*
X56880986Y-45969709D01*
X56909800Y-45824849D01*
X56909800Y-45677151D01*
X56880986Y-45532291D01*
X56875253Y-45518451D01*
X56824466Y-45395841D01*
X56824463Y-45395835D01*
X56742409Y-45273031D01*
X56742403Y-45273024D01*
X56637975Y-45168596D01*
X56637968Y-45168590D01*
X56515164Y-45086536D01*
X56515158Y-45086533D01*
X56378716Y-45030016D01*
X56378710Y-45030014D01*
X56233849Y-45001200D01*
X56086151Y-45001200D01*
X55941289Y-45030014D01*
X55941283Y-45030016D01*
X55804841Y-45086533D01*
X55804835Y-45086536D01*
X55682031Y-45168590D01*
X55682024Y-45168596D01*
X55577596Y-45273024D01*
X55577590Y-45273031D01*
X55495536Y-45395835D01*
X55495533Y-45395841D01*
X55439016Y-45532283D01*
X55439014Y-45532289D01*
X55410200Y-45677151D01*
X52290500Y-45677151D01*
X52290500Y-44682340D01*
X52308982Y-44631560D01*
X52313628Y-44626490D01*
X52771479Y-44168638D01*
X52820455Y-44145801D01*
X52827340Y-44145500D01*
X52902067Y-44145500D01*
X52902069Y-44145500D01*
X53002657Y-44118548D01*
X53092843Y-44066479D01*
X53166479Y-43992843D01*
X53218548Y-43902657D01*
X53245500Y-43802069D01*
X53245500Y-43697931D01*
X53231358Y-43645151D01*
X55410200Y-43645151D01*
X55410200Y-43792849D01*
X55417295Y-43828519D01*
X55439014Y-43937710D01*
X55439016Y-43937716D01*
X55495533Y-44074158D01*
X55495536Y-44074164D01*
X55577590Y-44196968D01*
X55577596Y-44196975D01*
X55682024Y-44301403D01*
X55682030Y-44301408D01*
X55804836Y-44383464D01*
X55804841Y-44383466D01*
X55941283Y-44439983D01*
X55941286Y-44439984D01*
X55941291Y-44439986D01*
X56086151Y-44468800D01*
X56233849Y-44468800D01*
X56378709Y-44439986D01*
X56515164Y-44383464D01*
X56637970Y-44301408D01*
X56742408Y-44196970D01*
X56824464Y-44074164D01*
X56880986Y-43937709D01*
X56909800Y-43792849D01*
X56909800Y-43645151D01*
X56880986Y-43500291D01*
X56873273Y-43481671D01*
X56824466Y-43363841D01*
X56824463Y-43363835D01*
X56813836Y-43347931D01*
X56782321Y-43300765D01*
X56742409Y-43241031D01*
X56742403Y-43241024D01*
X56637975Y-43136596D01*
X56637968Y-43136590D01*
X56515164Y-43054536D01*
X56515158Y-43054533D01*
X56378716Y-42998016D01*
X56378710Y-42998014D01*
X56233849Y-42969200D01*
X56086151Y-42969200D01*
X55941289Y-42998014D01*
X55941283Y-42998016D01*
X55804841Y-43054533D01*
X55804835Y-43054536D01*
X55682031Y-43136590D01*
X55682024Y-43136596D01*
X55577596Y-43241024D01*
X55577590Y-43241031D01*
X55495536Y-43363835D01*
X55495533Y-43363841D01*
X55439016Y-43500283D01*
X55439014Y-43500289D01*
X55412748Y-43632341D01*
X55410200Y-43645151D01*
X53231358Y-43645151D01*
X53218548Y-43597343D01*
X53166479Y-43507157D01*
X53166478Y-43507156D01*
X53166477Y-43507154D01*
X53092845Y-43433522D01*
X53002658Y-43381452D01*
X53002654Y-43381451D01*
X52902071Y-43354500D01*
X52902069Y-43354500D01*
X52797931Y-43354500D01*
X52797928Y-43354500D01*
X52697345Y-43381451D01*
X52697341Y-43381452D01*
X52607154Y-43433522D01*
X52533522Y-43507154D01*
X52481452Y-43597341D01*
X52481451Y-43597345D01*
X52454500Y-43697928D01*
X52454500Y-43772658D01*
X52436018Y-43823438D01*
X52431361Y-43828519D01*
X51925361Y-44334519D01*
X51876385Y-44357357D01*
X51824187Y-44343371D01*
X51793192Y-44299105D01*
X51790500Y-44278658D01*
X51790500Y-42802163D01*
X51790499Y-42802159D01*
X51771860Y-42757158D01*
X51753887Y-42713768D01*
X51753883Y-42713763D01*
X50343142Y-41303022D01*
X50293169Y-41282323D01*
X50254747Y-41266408D01*
X50254746Y-41266408D01*
X50254745Y-41266408D01*
X49042775Y-41266408D01*
X48991995Y-41247926D01*
X48986914Y-41243269D01*
X48934075Y-41190430D01*
X48843888Y-41138360D01*
X48843884Y-41138359D01*
X48743301Y-41111408D01*
X48743299Y-41111408D01*
X48639161Y-41111408D01*
X48639158Y-41111408D01*
X48538575Y-41138359D01*
X48538571Y-41138360D01*
X48448386Y-41190429D01*
X48379329Y-41259486D01*
X48330353Y-41282323D01*
X48278155Y-41268337D01*
X48255051Y-41243122D01*
X48252707Y-41239062D01*
X48179075Y-41165430D01*
X48088888Y-41113360D01*
X48088884Y-41113359D01*
X47988301Y-41086408D01*
X47988299Y-41086408D01*
X47884161Y-41086408D01*
X47884158Y-41086408D01*
X47783575Y-41113359D01*
X47783571Y-41113360D01*
X47693384Y-41165430D01*
X47619752Y-41239062D01*
X47567682Y-41329249D01*
X47567681Y-41329253D01*
X47540730Y-41429836D01*
X47540730Y-41533979D01*
X47567681Y-41634562D01*
X47567682Y-41634566D01*
X47619752Y-41724753D01*
X47693384Y-41798385D01*
X47693386Y-41798386D01*
X47693387Y-41798387D01*
X47783573Y-41850456D01*
X47884161Y-41877408D01*
X47884163Y-41877408D01*
X47988295Y-41877408D01*
X47988299Y-41877408D01*
X47988302Y-41877406D01*
X47991566Y-41876977D01*
X48044325Y-41888667D01*
X48057747Y-41899438D01*
X48354104Y-42195794D01*
X48442498Y-42232408D01*
X48459567Y-42232408D01*
X48510347Y-42250890D01*
X48515428Y-42255547D01*
X49836361Y-43576480D01*
X49859199Y-43625456D01*
X49859500Y-43632341D01*
X49859500Y-51217659D01*
X49853601Y-51233866D01*
X49852098Y-51251046D01*
X49842207Y-51265170D01*
X49841018Y-51268439D01*
X49836361Y-51273520D01*
X49828520Y-51281361D01*
X49779544Y-51304199D01*
X49772659Y-51304500D01*
X49697928Y-51304500D01*
X49597345Y-51331451D01*
X49597341Y-51331452D01*
X49507154Y-51383522D01*
X49433523Y-51457153D01*
X49432175Y-51458911D01*
X49431048Y-51459628D01*
X49429859Y-51460818D01*
X49429595Y-51460554D01*
X49386599Y-51487946D01*
X49333022Y-51480893D01*
X49296514Y-51441052D01*
X49290500Y-51410819D01*
X49290500Y-43602163D01*
X49290500Y-43602162D01*
X49290263Y-43601588D01*
X49253886Y-43513767D01*
X49253885Y-43513766D01*
X49253883Y-43513763D01*
X48418142Y-42678022D01*
X48367768Y-42657157D01*
X48329747Y-42641408D01*
X48329746Y-42641408D01*
X48329745Y-42641408D01*
X47187775Y-42641408D01*
X47136995Y-42622926D01*
X47131914Y-42618269D01*
X47079075Y-42565430D01*
X46988888Y-42513360D01*
X46988884Y-42513359D01*
X46888301Y-42486408D01*
X46888299Y-42486408D01*
X46784161Y-42486408D01*
X46784158Y-42486408D01*
X46683575Y-42513359D01*
X46683571Y-42513360D01*
X46593384Y-42565430D01*
X46519752Y-42639062D01*
X46467682Y-42729249D01*
X46467681Y-42729253D01*
X46440730Y-42829836D01*
X46440730Y-42933979D01*
X46467681Y-43034562D01*
X46467682Y-43034566D01*
X46519752Y-43124753D01*
X46593384Y-43198385D01*
X46593386Y-43198386D01*
X46593387Y-43198387D01*
X46624723Y-43216479D01*
X46678184Y-43247345D01*
X46683573Y-43250456D01*
X46784161Y-43277408D01*
X46784163Y-43277408D01*
X46888297Y-43277408D01*
X46888299Y-43277408D01*
X46988887Y-43250456D01*
X47079073Y-43198387D01*
X47089770Y-43187690D01*
X47131914Y-43145547D01*
X47180890Y-43122709D01*
X47187775Y-43122408D01*
X47565481Y-43122408D01*
X47616261Y-43140890D01*
X47643281Y-43187690D01*
X47633897Y-43240908D01*
X47630182Y-43247341D01*
X47630181Y-43247345D01*
X47603230Y-43347928D01*
X47603230Y-43452071D01*
X47630181Y-43552654D01*
X47630182Y-43552658D01*
X47682252Y-43642845D01*
X47755883Y-43716476D01*
X47755885Y-43716477D01*
X47755887Y-43716479D01*
X47769999Y-43724626D01*
X47804735Y-43766019D01*
X47809500Y-43793042D01*
X47809500Y-47591792D01*
X47805308Y-47603307D01*
X47805843Y-47615550D01*
X47796350Y-47627919D01*
X47791018Y-47642572D01*
X47780405Y-47648699D01*
X47772945Y-47658421D01*
X47757722Y-47661795D01*
X47744218Y-47669592D01*
X47732149Y-47667464D01*
X47720186Y-47670116D01*
X47706355Y-47662915D01*
X47691000Y-47660208D01*
X47682469Y-47650480D01*
X47672253Y-47645162D01*
X47657519Y-47622029D01*
X47657513Y-47622022D01*
X47651205Y-47606791D01*
X47649949Y-47603760D01*
X47649099Y-47601707D01*
X47649095Y-47601633D01*
X47646196Y-47557382D01*
X47644824Y-47557202D01*
X47645500Y-47552068D01*
X47645500Y-47447933D01*
X47645499Y-47447928D01*
X47618548Y-47347343D01*
X47566479Y-47257157D01*
X47566478Y-47257156D01*
X47566477Y-47257154D01*
X47492845Y-47183522D01*
X47402658Y-47131452D01*
X47402654Y-47131451D01*
X47302071Y-47104500D01*
X47302069Y-47104500D01*
X47197931Y-47104500D01*
X47197928Y-47104500D01*
X47097345Y-47131451D01*
X47097341Y-47131452D01*
X47007154Y-47183522D01*
X46933522Y-47257154D01*
X46881452Y-47347341D01*
X46881451Y-47347345D01*
X46854500Y-47447928D01*
X46854500Y-47528991D01*
X46836018Y-47579771D01*
X46789218Y-47606791D01*
X46755061Y-47605301D01*
X46752074Y-47604501D01*
X46752071Y-47604500D01*
X46752069Y-47604500D01*
X46647931Y-47604500D01*
X46647928Y-47604500D01*
X46547345Y-47631451D01*
X46547341Y-47631452D01*
X46457154Y-47683522D01*
X46383522Y-47757154D01*
X46331452Y-47847341D01*
X46331451Y-47847345D01*
X46304500Y-47947928D01*
X46304500Y-48022659D01*
X46286018Y-48073439D01*
X46281361Y-48078520D01*
X44831116Y-49528764D01*
X44831114Y-49528767D01*
X44800714Y-49602161D01*
X44794500Y-49617162D01*
X44794500Y-49620249D01*
X44791234Y-49629564D01*
X44777430Y-49646415D01*
X44766127Y-49665039D01*
X44760652Y-49666896D01*
X44756990Y-49671368D01*
X44735583Y-49675404D01*
X44714955Y-49682405D01*
X44705566Y-49681064D01*
X44703887Y-49681381D01*
X44702558Y-49680634D01*
X44696238Y-49679732D01*
X44602071Y-49654500D01*
X44602069Y-49654500D01*
X44527340Y-49654500D01*
X44476560Y-49636018D01*
X44471479Y-49631361D01*
X41938733Y-47098614D01*
X41888047Y-47047928D01*
X43904500Y-47047928D01*
X43904500Y-47152071D01*
X43931451Y-47252654D01*
X43931452Y-47252657D01*
X43983522Y-47342845D01*
X44057154Y-47416477D01*
X44057156Y-47416478D01*
X44057157Y-47416479D01*
X44099660Y-47441018D01*
X44105594Y-47444444D01*
X44140330Y-47485840D01*
X44140330Y-47539880D01*
X44121956Y-47568721D01*
X44083521Y-47607156D01*
X44031452Y-47697341D01*
X44031451Y-47697345D01*
X44004500Y-47797928D01*
X44004500Y-47902071D01*
X44031451Y-48002654D01*
X44031452Y-48002658D01*
X44083522Y-48092845D01*
X44157154Y-48166477D01*
X44157156Y-48166478D01*
X44157157Y-48166479D01*
X44247343Y-48218548D01*
X44347931Y-48245500D01*
X44347933Y-48245500D01*
X44452067Y-48245500D01*
X44452069Y-48245500D01*
X44552657Y-48218548D01*
X44642843Y-48166479D01*
X44716479Y-48092843D01*
X44768548Y-48002657D01*
X44795500Y-47902069D01*
X44795500Y-47797931D01*
X44768548Y-47697343D01*
X44760568Y-47683522D01*
X44722255Y-47617162D01*
X44716479Y-47607157D01*
X44716478Y-47607156D01*
X44716477Y-47607154D01*
X44642845Y-47533522D01*
X44594405Y-47505555D01*
X44559669Y-47464158D01*
X44559669Y-47410119D01*
X44578042Y-47381279D01*
X44616479Y-47342843D01*
X44668548Y-47252657D01*
X44695500Y-47152069D01*
X44695500Y-47047931D01*
X44668548Y-46947343D01*
X44616479Y-46857157D01*
X44616478Y-46857156D01*
X44616477Y-46857154D01*
X44542845Y-46783522D01*
X44452658Y-46731452D01*
X44452654Y-46731451D01*
X44352071Y-46704500D01*
X44352069Y-46704500D01*
X44247931Y-46704500D01*
X44247928Y-46704500D01*
X44147345Y-46731451D01*
X44147341Y-46731452D01*
X44057154Y-46783522D01*
X43983522Y-46857154D01*
X43931452Y-46947341D01*
X43931451Y-46947345D01*
X43904500Y-47047928D01*
X41888047Y-47047928D01*
X41763639Y-46923520D01*
X41740801Y-46874544D01*
X41740500Y-46867659D01*
X41740500Y-44447928D01*
X46604500Y-44447928D01*
X46604500Y-44552071D01*
X46631451Y-44652654D01*
X46631452Y-44652658D01*
X46683522Y-44742845D01*
X46757154Y-44816477D01*
X46757156Y-44816478D01*
X46757157Y-44816479D01*
X46847343Y-44868548D01*
X46947931Y-44895500D01*
X46947933Y-44895500D01*
X47052067Y-44895500D01*
X47052069Y-44895500D01*
X47152657Y-44868548D01*
X47242843Y-44816479D01*
X47316479Y-44742843D01*
X47368548Y-44652657D01*
X47395500Y-44552069D01*
X47395500Y-44447931D01*
X47368548Y-44347343D01*
X47316479Y-44257157D01*
X47316478Y-44257156D01*
X47316477Y-44257154D01*
X47242845Y-44183522D01*
X47152658Y-44131452D01*
X47152654Y-44131451D01*
X47052071Y-44104500D01*
X47052069Y-44104500D01*
X46947931Y-44104500D01*
X46947928Y-44104500D01*
X46847345Y-44131451D01*
X46847341Y-44131452D01*
X46757154Y-44183522D01*
X46683522Y-44257154D01*
X46631452Y-44347341D01*
X46631451Y-44347345D01*
X46604500Y-44447928D01*
X41740500Y-44447928D01*
X41740500Y-43351545D01*
X41758982Y-43300765D01*
X41763639Y-43295684D01*
X41816477Y-43242845D01*
X41816479Y-43242843D01*
X41868548Y-43152657D01*
X41895500Y-43052069D01*
X41895500Y-42947931D01*
X41868548Y-42847343D01*
X41816479Y-42757157D01*
X41816478Y-42757156D01*
X41816477Y-42757154D01*
X41742845Y-42683522D01*
X41652658Y-42631452D01*
X41652654Y-42631451D01*
X41552071Y-42604500D01*
X41552069Y-42604500D01*
X41447931Y-42604500D01*
X41447928Y-42604500D01*
X41347345Y-42631451D01*
X41347341Y-42631452D01*
X41257154Y-42683522D01*
X41183522Y-42757154D01*
X41131452Y-42847341D01*
X41131451Y-42847345D01*
X41104500Y-42947928D01*
X37881500Y-42947928D01*
X37881500Y-41529836D01*
X44440731Y-41529836D01*
X44440731Y-41633979D01*
X44467682Y-41734562D01*
X44467683Y-41734566D01*
X44519753Y-41824753D01*
X44593385Y-41898385D01*
X44593387Y-41898386D01*
X44593388Y-41898387D01*
X44683574Y-41950456D01*
X44784162Y-41977408D01*
X44784164Y-41977408D01*
X44888298Y-41977408D01*
X44888300Y-41977408D01*
X44988888Y-41950456D01*
X45079074Y-41898387D01*
X45152710Y-41824751D01*
X45204779Y-41734565D01*
X45231731Y-41633977D01*
X45231731Y-41529839D01*
X45204779Y-41429251D01*
X45152710Y-41339065D01*
X45152709Y-41339064D01*
X45152708Y-41339062D01*
X45079076Y-41265430D01*
X44988889Y-41213360D01*
X44988885Y-41213359D01*
X44888302Y-41186408D01*
X44888300Y-41186408D01*
X44784162Y-41186408D01*
X44784159Y-41186408D01*
X44683576Y-41213359D01*
X44683572Y-41213360D01*
X44593385Y-41265430D01*
X44519753Y-41339062D01*
X44467683Y-41429249D01*
X44467682Y-41429253D01*
X44440731Y-41529836D01*
X37881500Y-41529836D01*
X37881500Y-40529836D01*
X41640730Y-40529836D01*
X41640730Y-40633979D01*
X41667681Y-40734562D01*
X41667682Y-40734566D01*
X41719752Y-40824753D01*
X41793384Y-40898385D01*
X41793386Y-40898386D01*
X41793387Y-40898387D01*
X41883573Y-40950456D01*
X41984161Y-40977408D01*
X41984163Y-40977408D01*
X42088297Y-40977408D01*
X42088299Y-40977408D01*
X42188887Y-40950456D01*
X42279073Y-40898387D01*
X42352709Y-40824751D01*
X42404778Y-40734565D01*
X42431730Y-40633977D01*
X42431730Y-40529839D01*
X42404778Y-40429251D01*
X42352709Y-40339065D01*
X42352708Y-40339064D01*
X42352707Y-40339062D01*
X42279075Y-40265430D01*
X42188888Y-40213360D01*
X42188884Y-40213359D01*
X42088301Y-40186408D01*
X42088299Y-40186408D01*
X41984161Y-40186408D01*
X41984158Y-40186408D01*
X41883575Y-40213359D01*
X41883571Y-40213360D01*
X41793384Y-40265430D01*
X41719752Y-40339062D01*
X41667682Y-40429249D01*
X41667681Y-40429253D01*
X41640730Y-40529836D01*
X37881500Y-40529836D01*
X37881500Y-39584394D01*
X48560708Y-39584394D01*
X48560708Y-39688537D01*
X48587659Y-39789120D01*
X48587660Y-39789124D01*
X48639730Y-39879311D01*
X48713362Y-39952943D01*
X48713364Y-39952944D01*
X48713365Y-39952945D01*
X48803551Y-40005014D01*
X48904139Y-40031966D01*
X48904141Y-40031966D01*
X49008275Y-40031966D01*
X49008277Y-40031966D01*
X49108865Y-40005014D01*
X49199051Y-39952945D01*
X49272687Y-39879309D01*
X49324756Y-39789123D01*
X49351708Y-39688535D01*
X49351708Y-39584397D01*
X49324756Y-39483809D01*
X49272687Y-39393623D01*
X49272686Y-39393622D01*
X49272685Y-39393620D01*
X49199053Y-39319988D01*
X49108866Y-39267918D01*
X49108862Y-39267917D01*
X49008279Y-39240966D01*
X49008277Y-39240966D01*
X48904139Y-39240966D01*
X48904136Y-39240966D01*
X48803553Y-39267917D01*
X48803549Y-39267918D01*
X48713362Y-39319988D01*
X48639730Y-39393620D01*
X48587660Y-39483807D01*
X48587659Y-39483811D01*
X48560708Y-39584394D01*
X37881500Y-39584394D01*
X37881500Y-36959836D01*
X47240731Y-36959836D01*
X47240731Y-37063979D01*
X47267682Y-37164562D01*
X47267683Y-37164566D01*
X47319753Y-37254753D01*
X47393385Y-37328385D01*
X47393387Y-37328386D01*
X47393388Y-37328387D01*
X47483574Y-37380456D01*
X47584162Y-37407408D01*
X47584164Y-37407408D01*
X47688298Y-37407408D01*
X47688300Y-37407408D01*
X47788888Y-37380456D01*
X47879074Y-37328387D01*
X47952710Y-37254751D01*
X48004779Y-37164565D01*
X48031731Y-37063977D01*
X48031731Y-36959839D01*
X48004779Y-36859251D01*
X47952710Y-36769065D01*
X47952709Y-36769064D01*
X47952708Y-36769062D01*
X47879076Y-36695430D01*
X47788889Y-36643360D01*
X47788885Y-36643359D01*
X47688302Y-36616408D01*
X47688300Y-36616408D01*
X47584162Y-36616408D01*
X47584159Y-36616408D01*
X47483576Y-36643359D01*
X47483572Y-36643360D01*
X47393385Y-36695430D01*
X47319753Y-36769062D01*
X47267683Y-36859249D01*
X47267682Y-36859253D01*
X47240731Y-36959836D01*
X37881500Y-36959836D01*
X37881500Y-35996698D01*
X40363844Y-35996698D01*
X40363844Y-36100841D01*
X40390795Y-36201424D01*
X40390796Y-36201428D01*
X40442866Y-36291615D01*
X40516498Y-36365247D01*
X40516500Y-36365248D01*
X40516501Y-36365249D01*
X40606687Y-36417318D01*
X40707275Y-36444270D01*
X40707277Y-36444270D01*
X40811411Y-36444270D01*
X40811413Y-36444270D01*
X40912001Y-36417318D01*
X41002187Y-36365249D01*
X41075823Y-36291613D01*
X41127892Y-36201427D01*
X41154844Y-36100839D01*
X41154844Y-35996701D01*
X41127892Y-35896113D01*
X41075823Y-35805927D01*
X41075822Y-35805926D01*
X41075821Y-35805924D01*
X41002189Y-35732292D01*
X40912002Y-35680222D01*
X40911998Y-35680221D01*
X40900794Y-35677219D01*
X40811415Y-35653270D01*
X40811413Y-35653270D01*
X40707275Y-35653270D01*
X40707272Y-35653270D01*
X40606689Y-35680221D01*
X40606685Y-35680222D01*
X40516498Y-35732292D01*
X40442866Y-35805924D01*
X40390796Y-35896111D01*
X40390795Y-35896115D01*
X40363844Y-35996698D01*
X37881500Y-35996698D01*
X37881500Y-35606086D01*
X41640730Y-35606086D01*
X41640730Y-35710229D01*
X41667681Y-35810812D01*
X41667682Y-35810816D01*
X41719752Y-35901003D01*
X41793384Y-35974635D01*
X41793386Y-35974636D01*
X41793387Y-35974637D01*
X41883573Y-36026706D01*
X41984161Y-36053658D01*
X41984163Y-36053658D01*
X42088297Y-36053658D01*
X42088299Y-36053658D01*
X42188887Y-36026706D01*
X42252748Y-35989836D01*
X50980729Y-35989836D01*
X50980729Y-36093979D01*
X51007680Y-36194562D01*
X51007681Y-36194566D01*
X51059751Y-36284753D01*
X51133383Y-36358385D01*
X51133385Y-36358386D01*
X51133386Y-36358387D01*
X51223572Y-36410456D01*
X51324160Y-36437408D01*
X51324162Y-36437408D01*
X51428296Y-36437408D01*
X51428298Y-36437408D01*
X51528886Y-36410456D01*
X51619072Y-36358387D01*
X51692708Y-36284751D01*
X51744777Y-36194565D01*
X51771729Y-36093977D01*
X51771729Y-35989839D01*
X51744777Y-35889251D01*
X51692708Y-35799065D01*
X51692707Y-35799064D01*
X51692706Y-35799062D01*
X51619074Y-35725430D01*
X51528887Y-35673360D01*
X51528883Y-35673359D01*
X51428300Y-35646408D01*
X51428298Y-35646408D01*
X51324160Y-35646408D01*
X51324157Y-35646408D01*
X51223574Y-35673359D01*
X51223570Y-35673360D01*
X51133383Y-35725430D01*
X51059751Y-35799062D01*
X51007681Y-35889249D01*
X51007680Y-35889253D01*
X50980729Y-35989836D01*
X42252748Y-35989836D01*
X42279073Y-35974637D01*
X42279075Y-35974635D01*
X42324911Y-35928800D01*
X42352707Y-35901003D01*
X42352709Y-35901001D01*
X42404778Y-35810815D01*
X42431730Y-35710227D01*
X42431730Y-35606089D01*
X42404778Y-35505501D01*
X42352709Y-35415315D01*
X42352708Y-35415314D01*
X42352707Y-35415312D01*
X42279075Y-35341680D01*
X42188888Y-35289610D01*
X42188884Y-35289609D01*
X42088301Y-35262658D01*
X42088299Y-35262658D01*
X41984161Y-35262658D01*
X41984158Y-35262658D01*
X41883575Y-35289609D01*
X41883571Y-35289610D01*
X41793384Y-35341680D01*
X41719752Y-35415312D01*
X41667682Y-35505499D01*
X41667681Y-35505503D01*
X41640730Y-35606086D01*
X37881500Y-35606086D01*
X37881500Y-33463331D01*
X42441301Y-33463331D01*
X42441301Y-33567474D01*
X42468252Y-33668057D01*
X42468253Y-33668061D01*
X42520323Y-33758248D01*
X42593955Y-33831880D01*
X42593957Y-33831881D01*
X42593958Y-33831882D01*
X42684144Y-33883951D01*
X42784732Y-33910903D01*
X42784734Y-33910903D01*
X42888868Y-33910903D01*
X42888870Y-33910903D01*
X42989458Y-33883951D01*
X43079644Y-33831882D01*
X43153280Y-33758246D01*
X43205349Y-33668060D01*
X43232301Y-33567472D01*
X43232301Y-33463334D01*
X43205349Y-33362746D01*
X43153280Y-33272560D01*
X43153279Y-33272559D01*
X43153278Y-33272557D01*
X43079646Y-33198925D01*
X42989459Y-33146855D01*
X42989455Y-33146854D01*
X42888872Y-33119903D01*
X42888870Y-33119903D01*
X42784732Y-33119903D01*
X42784729Y-33119903D01*
X42684146Y-33146854D01*
X42684142Y-33146855D01*
X42593955Y-33198925D01*
X42520323Y-33272557D01*
X42468253Y-33362744D01*
X42468252Y-33362748D01*
X42441301Y-33463331D01*
X37881500Y-33463331D01*
X37881500Y-25460500D01*
X37899982Y-25409720D01*
X37946782Y-25382700D01*
X37960500Y-25381500D01*
X62039500Y-25381500D01*
X62090280Y-25399982D01*
G37*
%TD.AperFunction*%
%TD*%
M02*
