%TF.GenerationSoftware,KiCad,Pcbnew,9.0.1*%
%TF.CreationDate,2025-10-23T22:13:15-04:00*%
%TF.ProjectId,OshTeledongle,4f736854-656c-4656-946f-6e676c652e6b,rev?*%
%TF.SameCoordinates,Original*%
%TF.FileFunction,Copper,L1,Top*%
%TF.FilePolarity,Positive*%
%FSLAX46Y46*%
G04 Gerber Fmt 4.6, Leading zero omitted, Abs format (unit mm)*
G04 Created by KiCad (PCBNEW 9.0.1) date 2025-10-23 22:13:15*
%MOMM*%
%LPD*%
G01*
G04 APERTURE LIST*
G04 Aperture macros list*
%AMRoundRect*
0 Rectangle with rounded corners*
0 $1 Rounding radius*
0 $2 $3 $4 $5 $6 $7 $8 $9 X,Y pos of 4 corners*
0 Add a 4 corners polygon primitive as box body*
4,1,4,$2,$3,$4,$5,$6,$7,$8,$9,$2,$3,0*
0 Add four circle primitives for the rounded corners*
1,1,$1+$1,$2,$3*
1,1,$1+$1,$4,$5*
1,1,$1+$1,$6,$7*
1,1,$1+$1,$8,$9*
0 Add four rect primitives between the rounded corners*
20,1,$1+$1,$2,$3,$4,$5,0*
20,1,$1+$1,$4,$5,$6,$7,0*
20,1,$1+$1,$6,$7,$8,$9,0*
20,1,$1+$1,$8,$9,$2,$3,0*%
G04 Aperture macros list end*
%TA.AperFunction,SMDPad,CuDef*%
%ADD10RoundRect,0.140000X0.170000X-0.140000X0.170000X0.140000X-0.170000X0.140000X-0.170000X-0.140000X0*%
%TD*%
%TA.AperFunction,SMDPad,CuDef*%
%ADD11RoundRect,0.218750X-0.218750X-0.256250X0.218750X-0.256250X0.218750X0.256250X-0.218750X0.256250X0*%
%TD*%
%TA.AperFunction,SMDPad,CuDef*%
%ADD12RoundRect,0.140000X0.140000X0.170000X-0.140000X0.170000X-0.140000X-0.170000X0.140000X-0.170000X0*%
%TD*%
%TA.AperFunction,SMDPad,CuDef*%
%ADD13RoundRect,0.140000X-0.140000X-0.170000X0.140000X-0.170000X0.140000X0.170000X-0.140000X0.170000X0*%
%TD*%
%TA.AperFunction,ComponentPad*%
%ADD14C,5.600000*%
%TD*%
%TA.AperFunction,SMDPad,CuDef*%
%ADD15RoundRect,0.147500X-0.172500X0.147500X-0.172500X-0.147500X0.172500X-0.147500X0.172500X0.147500X0*%
%TD*%
%TA.AperFunction,SMDPad,CuDef*%
%ADD16RoundRect,0.140000X-0.170000X0.140000X-0.170000X-0.140000X0.170000X-0.140000X0.170000X0.140000X0*%
%TD*%
%TA.AperFunction,SMDPad,CuDef*%
%ADD17RoundRect,0.147500X-0.147500X-0.172500X0.147500X-0.172500X0.147500X0.172500X-0.147500X0.172500X0*%
%TD*%
%TA.AperFunction,SMDPad,CuDef*%
%ADD18RoundRect,0.135000X0.135000X0.185000X-0.135000X0.185000X-0.135000X-0.185000X0.135000X-0.185000X0*%
%TD*%
%TA.AperFunction,SMDPad,CuDef*%
%ADD19RoundRect,0.147500X0.172500X-0.147500X0.172500X0.147500X-0.172500X0.147500X-0.172500X-0.147500X0*%
%TD*%
%TA.AperFunction,SMDPad,CuDef*%
%ADD20R,1.500000X5.080000*%
%TD*%
%TA.AperFunction,SMDPad,CuDef*%
%ADD21R,3.000000X5.090000*%
%TD*%
%TA.AperFunction,SMDPad,CuDef*%
%ADD22RoundRect,0.135000X-0.135000X-0.185000X0.135000X-0.185000X0.135000X0.185000X-0.135000X0.185000X0*%
%TD*%
%TA.AperFunction,SMDPad,CuDef*%
%ADD23RoundRect,0.150000X0.425000X-0.150000X0.425000X0.150000X-0.425000X0.150000X-0.425000X-0.150000X0*%
%TD*%
%TA.AperFunction,SMDPad,CuDef*%
%ADD24RoundRect,0.075000X0.500000X-0.075000X0.500000X0.075000X-0.500000X0.075000X-0.500000X-0.075000X0*%
%TD*%
%TA.AperFunction,HeatsinkPad*%
%ADD25O,2.100000X1.000000*%
%TD*%
%TA.AperFunction,HeatsinkPad*%
%ADD26O,1.800000X1.000000*%
%TD*%
%TA.AperFunction,SMDPad,CuDef*%
%ADD27RoundRect,0.150000X0.150000X-0.512500X0.150000X0.512500X-0.150000X0.512500X-0.150000X-0.512500X0*%
%TD*%
%TA.AperFunction,SMDPad,CuDef*%
%ADD28RoundRect,0.075000X-0.662500X-0.075000X0.662500X-0.075000X0.662500X0.075000X-0.662500X0.075000X0*%
%TD*%
%TA.AperFunction,SMDPad,CuDef*%
%ADD29RoundRect,0.075000X-0.075000X-0.662500X0.075000X-0.662500X0.075000X0.662500X-0.075000X0.662500X0*%
%TD*%
%TA.AperFunction,ConnectorPad*%
%ADD30C,0.787400*%
%TD*%
%TA.AperFunction,SMDPad,CuDef*%
%ADD31RoundRect,0.250000X-0.350000X0.450000X-0.350000X-0.450000X0.350000X-0.450000X0.350000X0.450000X0*%
%TD*%
%TA.AperFunction,SMDPad,CuDef*%
%ADD32R,0.711200X1.498600*%
%TD*%
%TA.AperFunction,SMDPad,CuDef*%
%ADD33R,1.498600X0.711200*%
%TD*%
%TA.AperFunction,SMDPad,CuDef*%
%ADD34RoundRect,0.135000X-0.185000X0.135000X-0.185000X-0.135000X0.185000X-0.135000X0.185000X0.135000X0*%
%TD*%
%TA.AperFunction,SMDPad,CuDef*%
%ADD35RoundRect,0.062500X0.062500X-0.375000X0.062500X0.375000X-0.062500X0.375000X-0.062500X-0.375000X0*%
%TD*%
%TA.AperFunction,SMDPad,CuDef*%
%ADD36RoundRect,0.062500X0.375000X-0.062500X0.375000X0.062500X-0.375000X0.062500X-0.375000X-0.062500X0*%
%TD*%
%TA.AperFunction,HeatsinkPad*%
%ADD37R,3.450000X3.450000*%
%TD*%
%TA.AperFunction,ViaPad*%
%ADD38C,0.470000*%
%TD*%
%TA.AperFunction,Conductor*%
%ADD39C,0.160000*%
%TD*%
%TA.AperFunction,Conductor*%
%ADD40C,0.320000*%
%TD*%
%TA.AperFunction,Conductor*%
%ADD41C,0.419000*%
%TD*%
%TA.AperFunction,Conductor*%
%ADD42C,0.400000*%
%TD*%
%TA.AperFunction,Conductor*%
%ADD43C,0.380000*%
%TD*%
G04 APERTURE END LIST*
D10*
%TO.P,C12,1*%
%TO.N,GND*%
X44231615Y-42892347D03*
%TO.P,C12,2*%
%TO.N,+3V3*%
X44231615Y-41932347D03*
%TD*%
D11*
%TO.P,D2,1,K*%
%TO.N,GND*%
X40712500Y-55700000D03*
%TO.P,D2,2,A*%
%TO.N,Net-(D2-A)*%
X42287500Y-55700000D03*
%TD*%
D10*
%TO.P,C13,1*%
%TO.N,GND*%
X46102639Y-42952288D03*
%TO.P,C13,2*%
%TO.N,Net-(U8-DCPL)*%
X46102639Y-41992288D03*
%TD*%
D12*
%TO.P,C29,1*%
%TO.N,GND*%
X49086230Y-37011908D03*
%TO.P,C29,2*%
%TO.N,+3V3*%
X48126230Y-37011908D03*
%TD*%
D13*
%TO.P,C44,1*%
%TO.N,GND*%
X42540000Y-52000000D03*
%TO.P,C44,2*%
%TO.N,Net-(U3-VDDA)*%
X43500000Y-52000000D03*
%TD*%
D10*
%TO.P,C37,1*%
%TO.N,/LNA_N*%
X45536230Y-33481908D03*
%TO.P,C37,2*%
%TO.N,GND*%
X45536230Y-32521908D03*
%TD*%
D14*
%TO.P,H2,1,1*%
%TO.N,GND*%
X41000000Y-61800000D03*
%TD*%
D13*
%TO.P,C1,1*%
%TO.N,GND*%
X60040000Y-53412499D03*
%TO.P,C1,2*%
%TO.N,VBUS*%
X61000000Y-53412499D03*
%TD*%
D12*
%TO.P,C40,1*%
%TO.N,Net-(C40-Pad1)*%
X49089614Y-35153194D03*
%TO.P,C40,2*%
%TO.N,/PA*%
X48129614Y-35153194D03*
%TD*%
%TO.P,C35,1*%
%TO.N,GND*%
X52809240Y-36470868D03*
%TO.P,C35,2*%
%TO.N,+3V3*%
X51849240Y-36470868D03*
%TD*%
D13*
%TO.P,C25,1*%
%TO.N,GND*%
X39809753Y-42170572D03*
%TO.P,C25,2*%
%TO.N,Net-(U8-XOSC_Q2)*%
X40769753Y-42170572D03*
%TD*%
%TO.P,C32,1*%
%TO.N,GND*%
X38963227Y-34139688D03*
%TO.P,C32,2*%
%TO.N,Net-(U8-DCPL_PFD_CHP)*%
X39923227Y-34139688D03*
%TD*%
D12*
%TO.P,C28,1*%
%TO.N,GND*%
X49048940Y-38934594D03*
%TO.P,C28,2*%
%TO.N,+3V3*%
X48088940Y-38934594D03*
%TD*%
%TO.P,C2,1*%
%TO.N,GND*%
X60060000Y-48212499D03*
%TO.P,C2,2*%
%TO.N,+3V3*%
X59100000Y-48212499D03*
%TD*%
D15*
%TO.P,FB1,1*%
%TO.N,+3V3*%
X43500000Y-50015000D03*
%TO.P,FB1,2*%
%TO.N,Net-(U3-VDDA)*%
X43500000Y-50985000D03*
%TD*%
D16*
%TO.P,C41,1*%
%TO.N,Net-(C38-Pad2)*%
X51400896Y-33632866D03*
%TO.P,C41,2*%
%TO.N,Net-(C40-Pad1)*%
X51400896Y-34592866D03*
%TD*%
%TO.P,C39,1*%
%TO.N,Net-(C39-Pad1)*%
X47418607Y-32492265D03*
%TO.P,C39,2*%
%TO.N,/LNA_P*%
X47418607Y-33452265D03*
%TD*%
D17*
%TO.P,L5,1*%
%TO.N,Net-(C39-Pad1)*%
X48366230Y-32681908D03*
%TO.P,L5,2*%
%TO.N,/TRX_SW*%
X49336230Y-32681908D03*
%TD*%
D18*
%TO.P,R9,1*%
%TO.N,Net-(J4-D--PadA7)*%
X53219999Y-60300000D03*
%TO.P,R9,2*%
%TO.N,Net-(R9-Pad2)*%
X52200001Y-60300000D03*
%TD*%
D19*
%TO.P,L8,1*%
%TO.N,Net-(C42-Pad1)*%
X52236230Y-32581908D03*
%TO.P,L8,2*%
%TO.N,Net-(J3-In)*%
X52236230Y-31611908D03*
%TD*%
D13*
%TO.P,C43,1*%
%TO.N,GND*%
X42620000Y-53000000D03*
%TO.P,C43,2*%
%TO.N,Net-(U3-VDDA)*%
X43580000Y-53000000D03*
%TD*%
D12*
%TO.P,C47,1*%
%TO.N,+3V3*%
X47680000Y-81600000D03*
%TO.P,C47,2*%
%TO.N,GND*%
X46720000Y-81600000D03*
%TD*%
D20*
%TO.P,J3,1,In*%
%TO.N,Net-(J3-In)*%
X50000000Y-27557045D03*
D21*
%TO.P,J3,2,Ext*%
%TO.N,GND*%
X46500000Y-27562045D03*
X53500000Y-27562045D03*
%TD*%
D18*
%TO.P,R48,1*%
%TO.N,+3V3*%
X50986229Y-35541908D03*
%TO.P,R48,2*%
%TO.N,Net-(C31-Pad2)*%
X49966231Y-35541908D03*
%TD*%
D13*
%TO.P,C45,1*%
%TO.N,GND*%
X39070000Y-50900000D03*
%TO.P,C45,2*%
%TO.N,/PF1*%
X40030000Y-50900000D03*
%TD*%
%TO.P,C30,1*%
%TO.N,GND*%
X38959190Y-35084343D03*
%TO.P,C30,2*%
%TO.N,+3V3*%
X39919190Y-35084343D03*
%TD*%
D12*
%TO.P,C31,1*%
%TO.N,+3V3*%
X50936230Y-36481908D03*
%TO.P,C31,2*%
%TO.N,Net-(C31-Pad2)*%
X49976230Y-36481908D03*
%TD*%
D13*
%TO.P,C11,1*%
%TO.N,GND*%
X41336230Y-33181908D03*
%TO.P,C11,2*%
%TO.N,+3V3*%
X42296230Y-33181908D03*
%TD*%
D17*
%TO.P,L1,1*%
%TO.N,/LNA_N*%
X44636230Y-34381908D03*
%TO.P,L1,2*%
%TO.N,/LNA_P*%
X45606230Y-34381908D03*
%TD*%
D13*
%TO.P,C34,1*%
%TO.N,GND*%
X38959343Y-36048770D03*
%TO.P,C34,2*%
%TO.N,Net-(U8-DCPL_XOSC)*%
X39919343Y-36048770D03*
%TD*%
D18*
%TO.P,R12,1*%
%TO.N,GND*%
X49046229Y-37981908D03*
%TO.P,R12,2*%
%TO.N,Net-(U8-RBIAS)*%
X48026231Y-37981908D03*
%TD*%
D22*
%TO.P,R13,1*%
%TO.N,Net-(D2-A)*%
X43600000Y-55700000D03*
%TO.P,R13,2*%
%TO.N,Net-(U3-PC15)*%
X44620000Y-55700000D03*
%TD*%
D14*
%TO.P,H1,1,1*%
%TO.N,GND*%
X59000000Y-29000000D03*
%TD*%
D23*
%TO.P,J4,A1,GND*%
%TO.N,GND*%
X55145000Y-62520000D03*
%TO.P,J4,A4,VBUS*%
%TO.N,VBUS*%
X55145000Y-61720000D03*
D24*
%TO.P,J4,A5,CC1*%
%TO.N,Net-(J4-CC1)*%
X55145001Y-60570000D03*
%TO.P,J4,A6,D+*%
%TO.N,Net-(J4-D+-PadA6)*%
X55145000Y-59570000D03*
%TO.P,J4,A7,D-*%
%TO.N,Net-(J4-D--PadA7)*%
X55145000Y-59070000D03*
%TO.P,J4,A8,SBU1*%
%TO.N,unconnected-(J4-SBU1-PadA8)*%
X55145001Y-58070000D03*
D23*
%TO.P,J4,A9,VBUS*%
%TO.N,VBUS*%
X55145000Y-56920000D03*
%TO.P,J4,A12,GND*%
%TO.N,GND*%
X55145000Y-56120000D03*
%TO.P,J4,B1,GND*%
X55145000Y-56120000D03*
%TO.P,J4,B4,VBUS*%
%TO.N,VBUS*%
X55145000Y-56920000D03*
D24*
%TO.P,J4,B5,CC2*%
%TO.N,Net-(J4-CC2)*%
X55145000Y-57570000D03*
%TO.P,J4,B6,D+*%
%TO.N,Net-(J4-D+-PadA6)*%
X55145000Y-58570000D03*
%TO.P,J4,B7,D-*%
%TO.N,Net-(J4-D--PadA7)*%
X55145000Y-60070000D03*
%TO.P,J4,B8,SBU2*%
%TO.N,unconnected-(J4-SBU2-PadB8)*%
X55145000Y-61070000D03*
D23*
%TO.P,J4,B9,VBUS*%
%TO.N,VBUS*%
X55145000Y-61720000D03*
%TO.P,J4,B12,GND*%
%TO.N,GND*%
X55145000Y-62520000D03*
D25*
%TO.P,J4,S1,SHIELD*%
X55720000Y-63640000D03*
D26*
X59900000Y-63640000D03*
D25*
X55720000Y-55000000D03*
D26*
X59900000Y-55000000D03*
%TD*%
D27*
%TO.P,U1,1,VIN*%
%TO.N,VBUS*%
X59050001Y-51949999D03*
%TO.P,U1,2,GND*%
%TO.N,GND*%
X60000000Y-51949999D03*
%TO.P,U1,3,EN*%
%TO.N,VBUS*%
X60949999Y-51949999D03*
%TO.P,U1,4,NC*%
%TO.N,unconnected-(U1-NC-Pad4)*%
X60949999Y-49674999D03*
%TO.P,U1,5,VOUT*%
%TO.N,+3V3*%
X59050001Y-49674999D03*
%TD*%
D11*
%TO.P,D1,1,K*%
%TO.N,GND*%
X40700000Y-57300000D03*
%TO.P,D1,2,A*%
%TO.N,Net-(D1-A)*%
X42275000Y-57300000D03*
%TD*%
D13*
%TO.P,C14,1*%
%TO.N,GND*%
X38956230Y-33181908D03*
%TO.P,C14,2*%
%TO.N,+3V3*%
X39916230Y-33181908D03*
%TD*%
D17*
%TO.P,L7,1*%
%TO.N,Net-(C38-Pad2)*%
X50251230Y-32681908D03*
%TO.P,L7,2*%
%TO.N,Net-(C42-Pad1)*%
X51221230Y-32681908D03*
%TD*%
D18*
%TO.P,R2,1*%
%TO.N,Net-(J4-CC2)*%
X53300000Y-57800000D03*
%TO.P,R2,2*%
%TO.N,GND*%
X52280002Y-57800000D03*
%TD*%
D13*
%TO.P,C33,1*%
%TO.N,GND*%
X41336705Y-32222472D03*
%TO.P,C33,2*%
%TO.N,Net-(U8-DCPL_VCO)*%
X42296705Y-32222472D03*
%TD*%
D12*
%TO.P,C46,1*%
%TO.N,GND*%
X39960000Y-45650000D03*
%TO.P,C46,2*%
%TO.N,/PF0*%
X39000000Y-45650000D03*
%TD*%
D28*
%TO.P,U3,1,VBAT*%
%TO.N,+3V3*%
X45637500Y-47050000D03*
%TO.P,U3,2,PC13*%
%TO.N,/BT_P0_4*%
X45637500Y-47550000D03*
%TO.P,U3,3,PC14*%
%TO.N,/BT_SW_BTN*%
X45637500Y-48050000D03*
%TO.P,U3,4,PC15*%
%TO.N,Net-(U3-PC15)*%
X45637500Y-48550000D03*
%TO.P,U3,5,PF0*%
%TO.N,/PF0*%
X45637500Y-49050000D03*
%TO.P,U3,6,PF1*%
%TO.N,/PF1*%
X45637500Y-49550000D03*
%TO.P,U3,7,NRST*%
%TO.N,/NRST*%
X45637500Y-50050000D03*
%TO.P,U3,8,VSSA*%
%TO.N,GND*%
X45637500Y-50550000D03*
%TO.P,U3,9,VDDA*%
%TO.N,Net-(U3-VDDA)*%
X45637500Y-51050000D03*
%TO.P,U3,10,PA0*%
%TO.N,/CTS2*%
X45637500Y-51550000D03*
%TO.P,U3,11,PA1*%
%TO.N,/RTS2*%
X45637500Y-52050000D03*
%TO.P,U3,12,PA2*%
%TO.N,/TX2*%
X45637500Y-52550000D03*
D29*
%TO.P,U3,13,PA3*%
%TO.N,/RX2*%
X47050000Y-53962500D03*
%TO.P,U3,14,PA4*%
%TO.N,/VDIV*%
X47550000Y-53962500D03*
%TO.P,U3,15,PA5*%
%TO.N,/SCK2*%
X48050000Y-53962500D03*
%TO.P,U3,16,PA6*%
%TO.N,/MISO2*%
X48550000Y-53962500D03*
%TO.P,U3,17,PA7*%
%TO.N,/MOSI2*%
X49050000Y-53962500D03*
%TO.P,U3,18,PB0*%
%TO.N,Net-(U3-PB0)*%
X49550000Y-53962500D03*
%TO.P,U3,19,PB1*%
%TO.N,unconnected-(U3-PB1-Pad19)*%
X50050000Y-53962500D03*
%TO.P,U3,20,PB2*%
%TO.N,/BT_P3_1*%
X50550000Y-53962500D03*
%TO.P,U3,21,PB10*%
%TO.N,/RADIO_INT*%
X51050000Y-53962500D03*
%TO.P,U3,22,PB11*%
%TO.N,/CS_RADIO*%
X51550000Y-53962500D03*
%TO.P,U3,23,VSS*%
%TO.N,GND*%
X52050000Y-53962500D03*
%TO.P,U3,24,VDD*%
%TO.N,+3V3*%
X52550000Y-53962500D03*
D28*
%TO.P,U3,25,PB12*%
%TO.N,/BT_P3_7*%
X53962500Y-52550000D03*
%TO.P,U3,26,PB13*%
%TO.N,/BT_P3_6*%
X53962500Y-52050000D03*
%TO.P,U3,27,PB14*%
%TO.N,/BT_P3_4*%
X53962500Y-51550000D03*
%TO.P,U3,28,PB15*%
%TO.N,/BT_P3_3*%
X53962500Y-51050000D03*
%TO.P,U3,29,PA8*%
%TO.N,/BT_P3_2*%
X53962500Y-50550000D03*
%TO.P,U3,30,PA9*%
%TO.N,unconnected-(U3-PA9-Pad30)*%
X53962500Y-50050000D03*
%TO.P,U3,31,PA10*%
%TO.N,/BT_P2_4*%
X53962500Y-49550000D03*
%TO.P,U3,32,PA11*%
%TO.N,/USB_D-*%
X53962500Y-49050000D03*
%TO.P,U3,33,PA12*%
%TO.N,/USB_D+*%
X53962500Y-48550000D03*
%TO.P,U3,34,PA13*%
%TO.N,/SWDIO*%
X53962500Y-48050000D03*
%TO.P,U3,35,VSS*%
%TO.N,GND*%
X53962500Y-47550000D03*
%TO.P,U3,36,VDDIO2*%
%TO.N,+3V3*%
X53962500Y-47050000D03*
D29*
%TO.P,U3,37,PA14*%
%TO.N,/SWCLK*%
X52550000Y-45637500D03*
%TO.P,U3,38,PA15*%
%TO.N,/BT_NRST*%
X52050000Y-45637500D03*
%TO.P,U3,39,PB3*%
%TO.N,/BT_P2_0*%
X51550000Y-45637500D03*
%TO.P,U3,40,PB4*%
%TO.N,unconnected-(U3-PB4-Pad40)*%
X51050000Y-45637500D03*
%TO.P,U3,41,PB5*%
%TO.N,/BT_P0_5*%
X50550000Y-45637500D03*
%TO.P,U3,42,PB6*%
%TO.N,/BT_P1_5*%
X50050000Y-45637500D03*
%TO.P,U3,43,PB7*%
%TO.N,/BT_P1_2*%
X49550000Y-45637500D03*
%TO.P,U3,44,PF11*%
%TO.N,GND*%
X49050000Y-45637500D03*
%TO.P,U3,45,PB8*%
%TO.N,unconnected-(U3-PB8-Pad45)*%
X48550000Y-45637500D03*
%TO.P,U3,46,PB9*%
%TO.N,/BT_WAKE*%
X48050000Y-45637500D03*
%TO.P,U3,47,VSS*%
%TO.N,GND*%
X47550000Y-45637500D03*
%TO.P,U3,48,VDD*%
%TO.N,+3V3*%
X47050000Y-45637500D03*
%TD*%
D30*
%TO.P,J2,1,VCC*%
%TO.N,+3V3*%
X59970000Y-44100000D03*
%TO.P,J2,2,SWDIO*%
%TO.N,/SWDIO*%
X59970000Y-45370000D03*
%TO.P,J2,3,~{RESET}*%
%TO.N,/NRST*%
X58700000Y-44100000D03*
%TO.P,J2,4,SWCLK*%
%TO.N,/SWCLK*%
X58700000Y-45370000D03*
%TO.P,J2,5,GND*%
%TO.N,GND*%
X57430000Y-44100000D03*
%TO.P,J2,6,SWO*%
%TO.N,unconnected-(J2-SWO-Pad6)*%
X57430000Y-45370000D03*
%TD*%
D12*
%TO.P,C36,1*%
%TO.N,GND*%
X52807963Y-35530152D03*
%TO.P,C36,2*%
%TO.N,+3V3*%
X51847963Y-35530152D03*
%TD*%
D13*
%TO.P,C27,1*%
%TO.N,Net-(U8-LPF1)*%
X41336801Y-34115403D03*
%TO.P,C27,2*%
%TO.N,Net-(U8-LPF0)*%
X42296801Y-34115403D03*
%TD*%
D10*
%TO.P,C15,1*%
%TO.N,GND*%
X45162403Y-42941355D03*
%TO.P,C15,2*%
%TO.N,+3V3*%
X45162403Y-41981355D03*
%TD*%
D31*
%TO.P,Y1,1,1*%
%TO.N,Net-(U8-XOSC_Q1)*%
X38609753Y-38470571D03*
%TO.P,Y1,2,2*%
%TO.N,GND*%
X38609753Y-40670571D03*
%TO.P,Y1,3,3*%
%TO.N,Net-(U8-XOSC_Q2)*%
X40309753Y-40670571D03*
%TO.P,Y1,4,4*%
%TO.N,GND*%
X40309753Y-38470571D03*
%TD*%
D19*
%TO.P,L6,1*%
%TO.N,Net-(C40-Pad1)*%
X50462438Y-34617749D03*
%TO.P,L6,2*%
%TO.N,Net-(C38-Pad2)*%
X50462438Y-33647749D03*
%TD*%
D15*
%TO.P,L4,1*%
%TO.N,GND*%
X46476574Y-32461331D03*
%TO.P,L4,2*%
%TO.N,/LNA_P*%
X46476574Y-33431331D03*
%TD*%
D31*
%TO.P,Y2,1,1*%
%TO.N,/PF0*%
X38700000Y-47200000D03*
%TO.P,Y2,2,2*%
%TO.N,GND*%
X38700000Y-49400000D03*
%TO.P,Y2,3,3*%
%TO.N,/PF1*%
X40400000Y-49400000D03*
%TO.P,Y2,4,4*%
%TO.N,GND*%
X40400000Y-47200000D03*
%TD*%
D16*
%TO.P,C42,1*%
%TO.N,Net-(C42-Pad1)*%
X52318494Y-33628651D03*
%TO.P,C42,2*%
%TO.N,GND*%
X52318494Y-34588651D03*
%TD*%
D12*
%TO.P,C26,1*%
%TO.N,GND*%
X39689753Y-36970573D03*
%TO.P,C26,2*%
%TO.N,Net-(U8-XOSC_Q1)*%
X38729753Y-36970573D03*
%TD*%
D27*
%TO.P,U2,1*%
%TO.N,Net-(R9-Pad2)*%
X49050002Y-62925000D03*
%TO.P,U2,2*%
%TO.N,GND*%
X50000001Y-62925000D03*
%TO.P,U2,3*%
%TO.N,Net-(R10-Pad2)*%
X50950000Y-62925000D03*
%TO.P,U2,4*%
%TO.N,/USB_D+*%
X50950000Y-60650000D03*
%TO.P,U2,5*%
%TO.N,VBUS*%
X50000001Y-60650000D03*
%TO.P,U2,6*%
%TO.N,/USB_D-*%
X49050002Y-60650000D03*
%TD*%
D32*
%TO.P,U4,1,GND*%
%TO.N,GND*%
X38449000Y-79399830D03*
%TO.P,U4,2,GND*%
X39548820Y-79399829D03*
%TO.P,U4,3,GND*%
X45748960Y-79399829D03*
%TO.P,U4,4,BAT_IN*%
%TO.N,+3V3*%
X46848780Y-79399830D03*
%TO.P,U4,5,SW_BTN*%
%TO.N,/BT_SW_BTN*%
X47948600Y-79399830D03*
%TO.P,U4,6,LDO33_O*%
%TO.N,Net-(U4-LDO33_O)*%
X49048420Y-79399830D03*
%TO.P,U4,7,VDD_IO*%
X50148240Y-79399830D03*
%TO.P,U4,8,LDO18_O*%
%TO.N,unconnected-(U4-LDO18_O-Pad8)*%
X51248059Y-79399830D03*
%TO.P,U4,9,WAKEUP*%
%TO.N,/BT_WAKE*%
X52347881Y-79399830D03*
%TO.P,U4,10,PMULDO_O*%
%TO.N,unconnected-(U4-PMULDO_O-Pad10)*%
X53447700Y-79399830D03*
%TO.P,U4,11,P0_4*%
%TO.N,/BT_P0_4*%
X54547520Y-79399830D03*
%TO.P,U4,12,P1_5*%
%TO.N,/BT_P1_5*%
X55647340Y-79399830D03*
%TO.P,U4,13,P1_2*%
%TO.N,/BT_P1_2*%
X56747160Y-79399830D03*
%TO.P,U4,14,P1_3*%
%TO.N,unconnected-(U4-P1_3-Pad14)*%
X57846980Y-79399829D03*
D33*
%TO.P,U4,15,P1_7/CTS*%
%TO.N,/RTS2*%
X59150000Y-77198920D03*
%TO.P,U4,16,P0_5*%
%TO.N,/BT_P0_5*%
X59150000Y-76099100D03*
%TO.P,U4,17,P0_0/RTS*%
%TO.N,/CTS2*%
X59150000Y-74999280D03*
%TO.P,U4,18,P2_0*%
%TO.N,/BT_P2_0*%
X59150000Y-73899460D03*
%TO.P,U4,19,P2_4*%
%TO.N,/BT_P2_4*%
X59150000Y-72799640D03*
%TO.P,U4,20,EAN*%
%TO.N,unconnected-(U4-EAN-Pad20)*%
X59150000Y-71699820D03*
%TO.P,U4,21,\u002ARST_N*%
%TO.N,/BT_NRST*%
X59150000Y-70600000D03*
D32*
%TO.P,U4,22,RXD*%
%TO.N,/TX2*%
X57846980Y-68399091D03*
%TO.P,U4,23,TXD*%
%TO.N,/RX2*%
X56747160Y-68399090D03*
%TO.P,U4,24,P3_1*%
%TO.N,/BT_P3_1*%
X55647340Y-68399090D03*
%TO.P,U4,25,P3_2*%
%TO.N,/BT_P3_2*%
X54547520Y-68399090D03*
%TO.P,U4,26,P3_3*%
%TO.N,/BT_P3_3*%
X53447700Y-68399090D03*
%TO.P,U4,27,P3_4*%
%TO.N,/BT_P3_4*%
X52347881Y-68399090D03*
%TO.P,U4,28,P3_6*%
%TO.N,/BT_P3_6*%
X51248059Y-68399090D03*
%TO.P,U4,29,P3_7*%
%TO.N,/BT_P3_7*%
X50148240Y-68399090D03*
%TO.P,U4,30,LED*%
%TO.N,unconnected-(U4-LED-Pad30)*%
X49048420Y-68399090D03*
%TO.P,U4,31,GND*%
%TO.N,GND*%
X47948600Y-68399090D03*
%TO.P,U4,32,GND*%
X39548820Y-68399091D03*
%TO.P,U4,33,GND*%
X38449000Y-68399090D03*
%TD*%
D17*
%TO.P,L2,1*%
%TO.N,/PA*%
X48136230Y-36079408D03*
%TO.P,L2,2*%
%TO.N,Net-(C31-Pad2)*%
X49106230Y-36079408D03*
%TD*%
D34*
%TO.P,R1,1*%
%TO.N,Net-(J4-CC1)*%
X53300000Y-62780002D03*
%TO.P,R1,2*%
%TO.N,GND*%
X53300000Y-63800000D03*
%TD*%
D18*
%TO.P,R10,1*%
%TO.N,Net-(J4-D+-PadA6)*%
X53200000Y-59200000D03*
%TO.P,R10,2*%
%TO.N,Net-(R10-Pad2)*%
X52180002Y-59200000D03*
%TD*%
D22*
%TO.P,R11,1*%
%TO.N,Net-(D1-A)*%
X43577500Y-57300000D03*
%TO.P,R11,2*%
%TO.N,Net-(U3-PB0)*%
X44597500Y-57300000D03*
%TD*%
D13*
%TO.P,C38,1*%
%TO.N,/TRX_SW*%
X48594634Y-33667497D03*
%TO.P,C38,2*%
%TO.N,Net-(C38-Pad2)*%
X49554634Y-33667497D03*
%TD*%
D34*
%TO.P,R3,1*%
%TO.N,GND*%
X60750000Y-69540001D03*
%TO.P,R3,2*%
%TO.N,/BT_NRST*%
X60750000Y-70559999D03*
%TD*%
D35*
%TO.P,U8,1,VDD_GUARD*%
%TO.N,+3V3*%
X42723730Y-40656908D03*
%TO.P,U8,2,~{RESET}*%
%TO.N,/NRST*%
X43223730Y-40656908D03*
%TO.P,U8,3,GPIO3*%
%TO.N,/RADIO_MARC_ISR*%
X43723730Y-40656908D03*
%TO.P,U8,4,GPIO2*%
%TO.N,/RADIO_INT*%
X44223730Y-40656908D03*
%TO.P,U8,5,DVDD*%
%TO.N,+3V3*%
X44723730Y-40656908D03*
%TO.P,U8,6,DCPL*%
%TO.N,Net-(U8-DCPL)*%
X45223730Y-40656908D03*
%TO.P,U8,7,SI*%
%TO.N,/MOSI2*%
X45723730Y-40656908D03*
%TO.P,U8,8,SCLK*%
%TO.N,/SCK2*%
X46223730Y-40656908D03*
D36*
%TO.P,U8,9,SO(GPIO1)*%
%TO.N,/MISO2*%
X46911230Y-39969408D03*
%TO.P,U8,10,GPIO0*%
%TO.N,unconnected-(U8-GPIO0-Pad10)*%
X46911230Y-39469408D03*
%TO.P,U8,11,~{CS}*%
%TO.N,/CS_RADIO*%
X46911230Y-38969408D03*
%TO.P,U8,12,DVDD*%
%TO.N,+3V3*%
X46911230Y-38469408D03*
%TO.P,U8,13,AVDD_IF*%
X46911230Y-37969408D03*
%TO.P,U8,14,RBIAS*%
%TO.N,Net-(U8-RBIAS)*%
X46911230Y-37469408D03*
%TO.P,U8,15,AVDD_RF*%
%TO.N,+3V3*%
X46911230Y-36969408D03*
%TO.P,U8,16*%
%TO.N,N/C*%
X46911230Y-36469408D03*
D35*
%TO.P,U8,17,PA*%
%TO.N,/PA*%
X46223730Y-35781908D03*
%TO.P,U8,18,TRX_SW*%
%TO.N,/TRX_SW*%
X45723730Y-35781908D03*
%TO.P,U8,19,LNA_P*%
%TO.N,/LNA_P*%
X45223730Y-35781908D03*
%TO.P,U8,20,LNA_N*%
%TO.N,/LNA_N*%
X44723730Y-35781908D03*
%TO.P,U8,21,DCPL_VCO*%
%TO.N,Net-(U8-DCPL_VCO)*%
X44223730Y-35781908D03*
%TO.P,U8,22,AVDD_SYNTH1*%
%TO.N,+3V3*%
X43723730Y-35781908D03*
%TO.P,U8,23,LPF0*%
%TO.N,Net-(U8-LPF0)*%
X43223730Y-35781908D03*
%TO.P,U8,24,LPF1*%
%TO.N,Net-(U8-LPF1)*%
X42723730Y-35781908D03*
D36*
%TO.P,U8,25,AVDD_PFD_CHP*%
%TO.N,+3V3*%
X42036230Y-36469408D03*
%TO.P,U8,26,DCPL_PFD_CHP*%
%TO.N,Net-(U8-DCPL_PFD_CHP)*%
X42036230Y-36969408D03*
%TO.P,U8,27,AVDD_SYNTH2*%
%TO.N,+3V3*%
X42036230Y-37469408D03*
%TO.P,U8,28,AVDD_XOSC*%
X42036230Y-37969408D03*
%TO.P,U8,29,DCPL_XOSC*%
%TO.N,Net-(U8-DCPL_XOSC)*%
X42036230Y-38469408D03*
%TO.P,U8,30,XOSC_Q1*%
%TO.N,Net-(U8-XOSC_Q1)*%
X42036230Y-38969408D03*
%TO.P,U8,31,XOSC_Q2*%
%TO.N,Net-(U8-XOSC_Q2)*%
X42036230Y-39469408D03*
%TO.P,U8,32,EXT_XOSC*%
%TO.N,GND*%
X42036230Y-39969408D03*
D37*
%TO.P,U8,33,GND_EP*%
X44473730Y-38219408D03*
%TD*%
D19*
%TO.P,L3,1*%
%TO.N,/LNA_N*%
X44571574Y-33462732D03*
%TO.P,L3,2*%
%TO.N,Net-(C39-Pad1)*%
X44571574Y-32492732D03*
%TD*%
D38*
%TO.N,VBUS*%
X51450000Y-58550000D03*
X50450000Y-59400000D03*
%TO.N,GND*%
X44747138Y-65521724D03*
X46350000Y-67700000D03*
X38196230Y-35961907D03*
X38350000Y-66450000D03*
X43400000Y-77800000D03*
X45736230Y-38281908D03*
X50250000Y-63850000D03*
X46400000Y-77150000D03*
X39900000Y-52150000D03*
X40236230Y-37381908D03*
X53356230Y-36481908D03*
X45405267Y-81640473D03*
X43950000Y-27350000D03*
X42700000Y-26350000D03*
X55750000Y-25950000D03*
X43950000Y-26000000D03*
X52000000Y-42200000D03*
X38166230Y-33301908D03*
X45700000Y-45000000D03*
X47750000Y-74050000D03*
X47433597Y-65694348D03*
X43900000Y-28850000D03*
X42650000Y-80550000D03*
X39786230Y-42951908D03*
X45577891Y-69643117D03*
X59300000Y-53400000D03*
X58700000Y-53400000D03*
X54550000Y-43850000D03*
X38750000Y-81400000D03*
X42900000Y-67600000D03*
X45536230Y-32071908D03*
X40500000Y-44500000D03*
X53456230Y-35181909D03*
X49706230Y-38861908D03*
X38850000Y-44400000D03*
X47300000Y-52500000D03*
X38900000Y-52350000D03*
X55600000Y-27250000D03*
X43100000Y-45100000D03*
X43150000Y-72500000D03*
X49726230Y-38081908D03*
X49550000Y-50750000D03*
X44550000Y-43450000D03*
X43400000Y-75300000D03*
X41900000Y-52900000D03*
X41150000Y-28500000D03*
X39848938Y-81338381D03*
X43136230Y-38281909D03*
X44336230Y-39481908D03*
X47300000Y-70400000D03*
X39536231Y-37611908D03*
X42850000Y-28350000D03*
X50250000Y-52400000D03*
X50870754Y-55781987D03*
X38316230Y-41871908D03*
X40850000Y-45400000D03*
X57750000Y-47250000D03*
X38200000Y-50950000D03*
X51800000Y-57800000D03*
X46436230Y-32071908D03*
X43600000Y-43050000D03*
X50250000Y-42650000D03*
X49550000Y-44500000D03*
X46050000Y-75100000D03*
X43136230Y-39481908D03*
X52500000Y-64300000D03*
X59850000Y-42500000D03*
X48550000Y-50900000D03*
X38186230Y-34011908D03*
X48550000Y-44450000D03*
X41800000Y-52000000D03*
X42150000Y-27400000D03*
X48300000Y-55700000D03*
X41200000Y-27000000D03*
X42450000Y-65650000D03*
X42200000Y-29300000D03*
X40716800Y-33115403D03*
X44150000Y-74050000D03*
X53036230Y-34581908D03*
X44450000Y-54200000D03*
X60850000Y-68850000D03*
X45736230Y-39481908D03*
X45700000Y-43450000D03*
X44536230Y-36981908D03*
X46350000Y-56450000D03*
X45736230Y-36981908D03*
X38146230Y-35251908D03*
X56700000Y-47250000D03*
X40686230Y-32161909D03*
X45329744Y-80691042D03*
X41850000Y-25900000D03*
X47350000Y-46800000D03*
X39800000Y-66400000D03*
X46150000Y-65700000D03*
X46000000Y-72400000D03*
X42600000Y-81700000D03*
X50250000Y-57200000D03*
X49656230Y-37281908D03*
X55600000Y-29650000D03*
X43136230Y-36981908D03*
X44473730Y-38219408D03*
X39009753Y-41770572D03*
%TO.N,+3V3*%
X59750000Y-49400000D03*
X44300000Y-47100000D03*
X44836231Y-41581908D03*
X42036230Y-40581908D03*
X46848780Y-80768780D03*
X58250000Y-48900000D03*
X53100000Y-53950000D03*
X59100000Y-47512499D03*
X42036230Y-35658158D03*
X58150000Y-49500000D03*
X47636231Y-37011908D03*
X42800000Y-49900000D03*
X51376229Y-36041908D03*
X59800000Y-50050000D03*
X42836801Y-33515403D03*
X60700000Y-43800000D03*
X55200000Y-47200000D03*
X47000000Y-44500000D03*
X48956208Y-39636466D03*
X40759344Y-36048770D03*
X58150000Y-50300000D03*
%TO.N,/NRST*%
X52400000Y-49950000D03*
X41500000Y-43000000D03*
X52850000Y-43750000D03*
X44550000Y-50050000D03*
%TO.N,/SCK2*%
X48050000Y-52450000D03*
X47998730Y-43400000D03*
%TO.N,/MISO2*%
X47936230Y-41481908D03*
X49750000Y-51700000D03*
%TO.N,/MOSI2*%
X49050000Y-52700000D03*
X46836230Y-42881908D03*
%TO.N,/CS_RADIO*%
X48691230Y-41506908D03*
X51550000Y-52500000D03*
%TO.N,/RADIO_INT*%
X50950000Y-43650000D03*
X50950000Y-51900000D03*
%TO.N,Net-(U3-PC15)*%
X46950000Y-48600000D03*
X46300000Y-54000000D03*
%TO.N,/TX2*%
X45500000Y-53750000D03*
X49550000Y-71300000D03*
%TO.N,/BT_SW_BTN*%
X46700000Y-48000000D03*
X48950000Y-81100000D03*
%TO.N,/CTS2*%
X50750000Y-71950000D03*
X52200000Y-51250000D03*
%TO.N,/BT_P0_5*%
X52650000Y-47100000D03*
X56200000Y-75850000D03*
%TO.N,/BT_NRST*%
X59300000Y-42900000D03*
X59250000Y-65250000D03*
%TO.N,/BT_P3_2*%
X55900000Y-51100000D03*
X55100000Y-67050000D03*
%TO.N,/BT_P1_5*%
X55600000Y-78200000D03*
X52600000Y-47750000D03*
%TO.N,/BT_P3_7*%
X52550000Y-65750000D03*
X52600000Y-52800000D03*
%TO.N,/BT_P3_1*%
X50450000Y-55300000D03*
X50300000Y-69850000D03*
%TO.N,/BT_P0_4*%
X53200000Y-78000000D03*
X47250000Y-47500000D03*
X49050000Y-56450000D03*
X52050000Y-55350000D03*
X44400000Y-47850000D03*
%TO.N,/BT_P3_4*%
X57250000Y-65100000D03*
X55300000Y-52050000D03*
%TO.N,/RTS2*%
X49150000Y-73800000D03*
X44450000Y-52200000D03*
%TO.N,/BT_P3_3*%
X55200000Y-51150000D03*
X57750000Y-65600000D03*
%TO.N,/BT_P3_6*%
X53050000Y-66350000D03*
X52388460Y-51968265D03*
%TO.N,/BT_P2_4*%
X60100000Y-50850000D03*
X55700000Y-49650000D03*
X57500000Y-49600000D03*
X61000000Y-62950000D03*
%TO.N,/BT_WAKE*%
X53550000Y-76800000D03*
X52600000Y-49350000D03*
%TO.N,/RX2*%
X50050000Y-70600000D03*
X47250000Y-55650000D03*
%TO.N,/BT_P2_0*%
X61200000Y-42800000D03*
X61700000Y-65250000D03*
%TO.N,/BT_P1_2*%
X53950000Y-77500000D03*
X52750000Y-48700000D03*
%TD*%
D39*
%TO.N,VBUS*%
X50000001Y-59849999D02*
X50450000Y-59400000D01*
X53394138Y-57242000D02*
X53908000Y-57242000D01*
D40*
X55513000Y-61720000D02*
X54975000Y-61720000D01*
D39*
X53384138Y-57252000D02*
X53394138Y-57242000D01*
D40*
X58000000Y-54200000D02*
X58000000Y-53000000D01*
D39*
X53908000Y-57242000D02*
X54150000Y-57000000D01*
D40*
X61000000Y-53412499D02*
X60212499Y-54200000D01*
X58000000Y-55803518D02*
X58000000Y-54200000D01*
X60212499Y-54200000D02*
X58000000Y-54200000D01*
D39*
X61000000Y-52000000D02*
X60949999Y-51949999D01*
X52600000Y-58550000D02*
X52906450Y-58243550D01*
X53010900Y-57252000D02*
X53384138Y-57252000D01*
X54150000Y-57000000D02*
X54319000Y-57000000D01*
X52802000Y-58139100D02*
X52802000Y-57460900D01*
X61000000Y-53412499D02*
X61000000Y-52000000D01*
X50000001Y-60650000D02*
X50000001Y-59849999D01*
X52802000Y-57460900D02*
X53010900Y-57252000D01*
D40*
X58000000Y-53000000D02*
X59050001Y-51949999D01*
D39*
X52906450Y-58243550D02*
X52802000Y-58139100D01*
X55551000Y-61720000D02*
X54975000Y-61720000D01*
X54319000Y-57000000D02*
X54399000Y-56920000D01*
D40*
X56211000Y-57592518D02*
X58000000Y-55803518D01*
D39*
X51450000Y-58550000D02*
X52600000Y-58550000D01*
X54399000Y-56920000D02*
X55420000Y-56920000D01*
%TO.N,GND*%
X39824894Y-36970572D02*
X39689753Y-36970572D01*
X38316230Y-40964094D02*
X38609753Y-40670571D01*
X59325002Y-53400000D02*
X59300000Y-53400000D01*
X38872481Y-35961908D02*
X38959343Y-36048771D01*
X42620000Y-53000000D02*
X42000000Y-53000000D01*
X43757653Y-42892347D02*
X43600000Y-43050000D01*
X60040000Y-53412499D02*
X59337501Y-53412499D01*
X49536230Y-38981908D02*
X49726230Y-38791908D01*
X38826205Y-33181908D02*
X38956230Y-33181908D01*
X59337501Y-53412499D02*
X59325002Y-53400000D01*
X38166230Y-33301908D02*
X38706205Y-33301908D01*
X44436230Y-42881908D02*
X44236230Y-42881908D01*
X39786230Y-42951908D02*
X39786230Y-42194095D01*
X40746793Y-32222472D02*
X40686230Y-32161909D01*
D41*
X52807963Y-35530152D02*
X53107987Y-35530152D01*
D39*
X45336230Y-42941908D02*
X44396230Y-42941908D01*
X39009753Y-41770572D02*
X39009753Y-41070571D01*
X40236230Y-37381908D02*
X39824894Y-36970572D01*
X49626230Y-37981909D02*
X49726230Y-38081908D01*
D41*
X52809240Y-36470868D02*
X53345190Y-36470868D01*
D39*
X40783306Y-33181909D02*
X40716800Y-33115403D01*
X60750000Y-68950000D02*
X60850000Y-68850000D01*
X44396230Y-42941908D02*
X44336230Y-42881908D01*
X38196230Y-35961907D02*
X38872481Y-35961908D01*
X60750000Y-69540001D02*
X60750000Y-68950000D01*
D41*
X53029487Y-34588651D02*
X53036230Y-34581908D01*
D39*
X52280002Y-57800000D02*
X51800000Y-57800000D01*
X45416230Y-42861908D02*
X45336230Y-42941908D01*
X50000001Y-63600001D02*
X50000001Y-62925000D01*
X38450261Y-34139688D02*
X38963227Y-34139688D01*
X49636230Y-37991908D02*
X49726230Y-38081908D01*
X41336705Y-32222471D02*
X40746793Y-32222472D01*
D41*
X53107987Y-35530152D02*
X53456230Y-35181909D01*
D39*
X38394917Y-35084344D02*
X38959190Y-35084344D01*
X40309753Y-37670572D02*
X40309752Y-38470571D01*
X53300000Y-63800000D02*
X53000000Y-63800000D01*
X38196230Y-35283031D02*
X38394917Y-35084344D01*
X39536230Y-37697048D02*
X40309752Y-38470571D01*
X44231615Y-42892347D02*
X43757653Y-42892347D01*
X40236230Y-37597049D02*
X40309753Y-37670572D01*
X41336230Y-33181908D02*
X40783306Y-33181909D01*
X49086229Y-37011908D02*
X49266231Y-37011908D01*
X38166230Y-33855657D02*
X38450261Y-34139688D01*
D41*
X53345190Y-36470868D02*
X53356230Y-36481908D01*
D39*
X42036230Y-39969408D02*
X42723730Y-39969408D01*
X39536231Y-37611908D02*
X39536230Y-37697048D01*
X45173337Y-42952288D02*
X45162404Y-42941355D01*
X39786230Y-42194095D02*
X39809753Y-42170572D01*
X49086230Y-38981908D02*
X49536230Y-38981908D01*
X38316230Y-41871908D02*
X38316230Y-40964094D01*
X42540000Y-52000000D02*
X41800000Y-52000000D01*
X39009753Y-41070571D02*
X38609753Y-40670571D01*
X49900000Y-63750000D02*
X50000001Y-63649999D01*
X46102639Y-42952288D02*
X45173337Y-42952288D01*
X42000000Y-53000000D02*
X41900000Y-52900000D01*
X45104730Y-42999029D02*
X45162404Y-42941355D01*
X49046231Y-37981908D02*
X49626230Y-37981909D01*
X49266231Y-37011908D02*
X49636231Y-37381908D01*
X50250000Y-63850000D02*
X50000001Y-63600001D01*
X40236230Y-37381908D02*
X40236230Y-37597049D01*
X42723730Y-39969408D02*
X44473730Y-38219408D01*
X38706205Y-33301908D02*
X38826205Y-33181908D01*
D41*
X52318494Y-34588651D02*
X53029487Y-34588651D01*
D39*
X53000000Y-63800000D02*
X52500000Y-64300000D01*
X50000001Y-63649999D02*
X50000001Y-62925000D01*
%TO.N,+3V3*%
X42036230Y-35658158D02*
X40431227Y-34053155D01*
D41*
X51376229Y-36041908D02*
X50936230Y-36481908D01*
D39*
X42503306Y-33181908D02*
X42836801Y-33515403D01*
X42036230Y-37969408D02*
X42036230Y-37469408D01*
X40431227Y-34053155D02*
X40431227Y-33696905D01*
X47613730Y-38469408D02*
X46911230Y-38469408D01*
D41*
X51849240Y-36470868D02*
X51805189Y-36470868D01*
D39*
X40836230Y-36706907D02*
X40836230Y-36125656D01*
X40836230Y-36125656D02*
X40759344Y-36048770D01*
D42*
X59050001Y-49674999D02*
X58324999Y-49674999D01*
D39*
X55050000Y-47050000D02*
X55200000Y-47200000D01*
X46911230Y-37969408D02*
X46911230Y-38469408D01*
X60400000Y-44100000D02*
X60700000Y-43800000D01*
X44350000Y-47050000D02*
X44300000Y-47100000D01*
D41*
X51376229Y-36041908D02*
X51376229Y-35931908D01*
D39*
X48956208Y-39636466D02*
X48490788Y-39636466D01*
D42*
X58775001Y-49674999D02*
X58150000Y-50300000D01*
D41*
X51847963Y-35570174D02*
X51376229Y-36041908D01*
D42*
X58324999Y-49674999D02*
X58150000Y-49500000D01*
D39*
X46911230Y-36969408D02*
X47593730Y-36969407D01*
X42296230Y-33181908D02*
X42503306Y-33181908D01*
X43723730Y-34969408D02*
X42836801Y-34082479D01*
X48490788Y-39636466D02*
X48126230Y-39271908D01*
X44231615Y-41932347D02*
X44485791Y-41932347D01*
D42*
X59050001Y-49674999D02*
X58775001Y-49674999D01*
D39*
X43500000Y-50015000D02*
X42915000Y-50015000D01*
D42*
X59050001Y-49674999D02*
X59475001Y-49674999D01*
D39*
X48126229Y-38981908D02*
X47613730Y-38469408D01*
D42*
X59050001Y-49674999D02*
X59424999Y-49674999D01*
X59475001Y-49674999D02*
X59750000Y-49400000D01*
X59024999Y-49674999D02*
X58250000Y-48900000D01*
D39*
X39919190Y-35084344D02*
X39919190Y-35208617D01*
X53100000Y-53950000D02*
X53087500Y-53962500D01*
X47680000Y-81600000D02*
X46848780Y-80768780D01*
X47636231Y-37011908D02*
X48126230Y-37011908D01*
X45162404Y-41981355D02*
X45162404Y-41908082D01*
X39919190Y-35208617D02*
X40759344Y-36048770D01*
X47593730Y-36969407D02*
X47636231Y-37011908D01*
X46573731Y-38481908D02*
X47036229Y-38481908D01*
X59100000Y-48212499D02*
X59100000Y-47512499D01*
X42915000Y-50015000D02*
X42800000Y-49900000D01*
D41*
X51376229Y-35931908D02*
X50986229Y-35541908D01*
X51847963Y-35530152D02*
X51847963Y-35570174D01*
D39*
X59050001Y-49674999D02*
X59050001Y-48262498D01*
X45162404Y-41908082D02*
X44836231Y-41581908D01*
X53962500Y-47050000D02*
X55050000Y-47050000D01*
X45637500Y-47050000D02*
X44350000Y-47050000D01*
X47050000Y-45637500D02*
X47050000Y-44550000D01*
X59050001Y-48262498D02*
X59100000Y-48212499D01*
X42036230Y-37469408D02*
X41598731Y-37469407D01*
X42036230Y-36469408D02*
X42036230Y-35658158D01*
X40431227Y-33696905D02*
X39916230Y-33181908D01*
X42836801Y-34082479D02*
X42836801Y-33515403D01*
X46848780Y-80768780D02*
X46848780Y-79399830D01*
X59970000Y-44100000D02*
X60400000Y-44100000D01*
X53087500Y-53962500D02*
X52550000Y-53962500D01*
X44485791Y-41932347D02*
X44836231Y-41581908D01*
X44836231Y-41581908D02*
X44723731Y-41469408D01*
D41*
X51805189Y-36470868D02*
X51376229Y-36041908D01*
D39*
X42111230Y-40656908D02*
X42036230Y-40581908D01*
X42723730Y-40656908D02*
X42111230Y-40656908D01*
X43723730Y-35781908D02*
X43723730Y-34969408D01*
D42*
X59050001Y-49674999D02*
X59024999Y-49674999D01*
D39*
X47050000Y-44550000D02*
X47000000Y-44500000D01*
X44723731Y-41469408D02*
X44723730Y-40656908D01*
X41598731Y-37469407D02*
X40836230Y-36706907D01*
D42*
X59424999Y-49674999D02*
X59800000Y-50050000D01*
D39*
X48126230Y-39271908D02*
X48126229Y-38981908D01*
%TO.N,Net-(U8-DCPL)*%
X46102638Y-41992288D02*
X46024624Y-41992287D01*
X45223730Y-40656908D02*
X45223729Y-41113379D01*
X45223729Y-41113379D02*
X46102638Y-41992288D01*
%TO.N,Net-(U8-XOSC_Q2)*%
X40769754Y-41130571D02*
X40309753Y-40670570D01*
X42036230Y-39469407D02*
X41598731Y-39469408D01*
X40397568Y-40670571D02*
X40309753Y-40670570D01*
X40769753Y-42170572D02*
X40769754Y-41130571D01*
X41598731Y-39469408D02*
X40397568Y-40670571D01*
%TO.N,Net-(U8-XOSC_Q1)*%
X41169568Y-39398572D02*
X41598732Y-38969408D01*
X38609753Y-38470571D02*
X39537753Y-39398571D01*
X38729753Y-36970572D02*
X38729753Y-38350572D01*
X41598732Y-38969408D02*
X42036230Y-38969408D01*
X39537753Y-39398571D02*
X41169568Y-39398572D01*
%TO.N,Net-(U8-LPF0)*%
X43223730Y-35781908D02*
X43223729Y-35042332D01*
X43223729Y-35042332D02*
X42296801Y-34115403D01*
%TO.N,Net-(U8-LPF1)*%
X42723730Y-35502332D02*
X41336801Y-34115403D01*
X42723730Y-35781908D02*
X42723730Y-35502332D01*
D41*
%TO.N,Net-(C31-Pad2)*%
X49573730Y-36079408D02*
X49106230Y-36079408D01*
X49976230Y-36481908D02*
X49573730Y-36079408D01*
X49966231Y-35541908D02*
X49966231Y-36471909D01*
X49966231Y-36471909D02*
X49976230Y-36481908D01*
D39*
%TO.N,Net-(U8-DCPL_PFD_CHP)*%
X42036231Y-36969408D02*
X41686168Y-36969408D01*
X41370730Y-36653971D02*
X41370730Y-35587191D01*
X41370730Y-35587191D02*
X39923227Y-34139688D01*
X41686168Y-36969408D02*
X41370730Y-36653971D01*
%TO.N,Net-(U8-DCPL_VCO)*%
X44051730Y-35172409D02*
X44051730Y-34833546D01*
X44223730Y-35781908D02*
X44223730Y-35344409D01*
X43336230Y-34118046D02*
X43336230Y-33261996D01*
X44223730Y-35344409D02*
X44051730Y-35172409D01*
X44051730Y-34833546D02*
X43336230Y-34118046D01*
X43336230Y-33261996D02*
X42296705Y-32222471D01*
%TO.N,Net-(U8-DCPL_XOSC)*%
X41137752Y-37577179D02*
X39919342Y-36358769D01*
X41137753Y-38008430D02*
X41137752Y-37577179D01*
X42036230Y-38469408D02*
X41598731Y-38469408D01*
X41598731Y-38469408D02*
X41137753Y-38008430D01*
X39919342Y-36358769D02*
X39919343Y-36048770D01*
D43*
%TO.N,/LNA_N*%
X44723730Y-35023730D02*
X44723730Y-35781908D01*
D41*
X44636230Y-33527388D02*
X44571574Y-33462732D01*
D43*
X44636230Y-34381908D02*
X44636230Y-34936230D01*
D41*
X44636230Y-34381908D02*
X44636230Y-33527388D01*
X45517054Y-33462732D02*
X45536230Y-33481908D01*
X44571574Y-33462732D02*
X45517054Y-33462732D01*
D43*
X44636230Y-34936230D02*
X44723730Y-35023730D01*
D41*
%TO.N,/TRX_SW*%
X48594634Y-33638329D02*
X48594634Y-33667497D01*
D43*
X47383775Y-34878356D02*
X46150779Y-34878356D01*
X48594634Y-33667497D02*
X47383775Y-34878356D01*
X46150779Y-34878356D02*
X45739730Y-35289405D01*
D41*
X49336230Y-32681908D02*
X49336230Y-32896733D01*
X49336230Y-32896733D02*
X48594634Y-33638329D01*
D43*
X45739730Y-35289405D02*
X45739730Y-35765908D01*
D41*
%TO.N,Net-(C38-Pad2)*%
X50462438Y-33647749D02*
X49574382Y-33647749D01*
X50251230Y-33436541D02*
X50462438Y-33647749D01*
X50251230Y-32681908D02*
X50251230Y-33436541D01*
X51386013Y-33647749D02*
X51400896Y-33632866D01*
X50462438Y-33647749D02*
X51386013Y-33647749D01*
X49574382Y-33647749D02*
X49554634Y-33667497D01*
%TO.N,Net-(C39-Pad1)*%
X46683749Y-31477408D02*
X47418607Y-32212266D01*
X44571574Y-32195814D02*
X45289980Y-31477408D01*
X44571574Y-32492732D02*
X44571574Y-32195814D01*
X47418607Y-32492265D02*
X48176587Y-32492265D01*
X47418607Y-32212266D02*
X47418607Y-32492265D01*
X45289980Y-31477408D02*
X46683749Y-31477408D01*
X48176587Y-32492265D02*
X48366230Y-32681908D01*
D43*
%TO.N,/LNA_P*%
X45606230Y-34543770D02*
X45231730Y-34918270D01*
D41*
X45901229Y-34381908D02*
X46476574Y-33806563D01*
D43*
X45231730Y-34918270D02*
X45231730Y-35781908D01*
D41*
X45606230Y-34381908D02*
X45901229Y-34381908D01*
X46476574Y-33806563D02*
X46476574Y-33431331D01*
X46497508Y-33452265D02*
X46476574Y-33431331D01*
X47418607Y-33452265D02*
X46497508Y-33452265D01*
D43*
X45606230Y-34381908D02*
X45606230Y-34543770D01*
%TO.N,/PA*%
X46247730Y-35757908D02*
X46247730Y-35781908D01*
X46850000Y-35750000D02*
X46255638Y-35750000D01*
D41*
X48129614Y-36072792D02*
X48136230Y-36079408D01*
X47838730Y-35781908D02*
X46881908Y-35781908D01*
X48129614Y-35153194D02*
X48129614Y-36072792D01*
X48136230Y-36079408D02*
X47838730Y-35781908D01*
D43*
X46255638Y-35750000D02*
X46247730Y-35757908D01*
D41*
%TO.N,Net-(C40-Pad1)*%
X51400896Y-34592866D02*
X50487321Y-34592866D01*
X50487321Y-34592866D02*
X50462438Y-34617749D01*
X49625059Y-34617749D02*
X50462438Y-34617749D01*
X49089614Y-35153194D02*
X49625059Y-34617749D01*
%TO.N,Net-(C42-Pad1)*%
X51321230Y-32581908D02*
X51221230Y-32681908D01*
X52236230Y-32581908D02*
X51321230Y-32581908D01*
X52236230Y-32581908D02*
X52236230Y-33546387D01*
X52236230Y-33546387D02*
X52318494Y-33628651D01*
D39*
%TO.N,/SWDIO*%
X59970000Y-45956605D02*
X59970000Y-45370000D01*
X53962500Y-48050000D02*
X57876605Y-48050000D01*
X57876605Y-48050000D02*
X59970000Y-45956605D01*
%TO.N,/SWCLK*%
X57468700Y-46601300D02*
X53513800Y-46601300D01*
X53513800Y-46601300D02*
X52550000Y-45637500D01*
X58700000Y-45370000D02*
X57468700Y-46601300D01*
%TO.N,/NRST*%
X43223729Y-41006970D02*
X43223730Y-40656908D01*
X43223730Y-41094407D02*
X43223730Y-40656908D01*
X45637500Y-50050000D02*
X52300000Y-50050000D01*
X57468700Y-42868700D02*
X58700000Y-44100000D01*
X41559068Y-42759068D02*
X43223730Y-41094407D01*
X53731300Y-42868700D02*
X57468700Y-42868700D01*
X52300000Y-50050000D02*
X52400000Y-49950000D01*
X41559068Y-42759068D02*
X41500000Y-42818136D01*
X52850000Y-43750000D02*
X53731300Y-42868700D01*
X41500000Y-42818136D02*
X41500000Y-43000000D01*
X44550000Y-50050000D02*
X45637500Y-50050000D01*
X41500000Y-42818137D02*
X41559068Y-42759068D01*
D41*
%TO.N,Net-(J3-In)*%
X50000000Y-30450000D02*
X51161908Y-31611908D01*
X51161908Y-31611908D02*
X52236230Y-31611908D01*
X50000000Y-27557045D02*
X50000000Y-30450000D01*
D39*
%TO.N,Net-(R9-Pad2)*%
X49689273Y-62034500D02*
X49050002Y-62673771D01*
X52200001Y-60619999D02*
X50785500Y-62034500D01*
X52200001Y-60300000D02*
X52200001Y-60619999D01*
X49050002Y-62673771D02*
X49050002Y-62925000D01*
X50785500Y-62034500D02*
X49689273Y-62034500D01*
%TO.N,Net-(R10-Pad2)*%
X52698001Y-61176999D02*
X50950000Y-62925000D01*
X52180002Y-59200000D02*
X52698001Y-59717999D01*
X52698001Y-59717999D02*
X52698001Y-61176999D01*
%TO.N,Net-(U8-RBIAS)*%
X47861228Y-37981908D02*
X48026230Y-37981908D01*
X46911230Y-37469407D02*
X47348729Y-37469408D01*
X47348729Y-37469408D02*
X47861228Y-37981908D01*
%TO.N,/USB_D+*%
X57000000Y-49800000D02*
X55750000Y-48550000D01*
X55750000Y-48550000D02*
X53962500Y-48550000D01*
X57000000Y-52850000D02*
X57000000Y-49800000D01*
X55985862Y-53864138D02*
X57000000Y-52850000D01*
X50949999Y-57964107D02*
X55049968Y-53864138D01*
X50950000Y-60650000D02*
X50949999Y-57964107D01*
X55049968Y-53864138D02*
X55985862Y-53864138D01*
%TO.N,/USB_D-*%
X56600000Y-50950002D02*
X56600000Y-52700000D01*
X53962500Y-49050000D02*
X55842706Y-49050000D01*
X55900000Y-53400000D02*
X55000000Y-53400000D01*
X56550000Y-49757294D02*
X56550000Y-50900002D01*
X55842706Y-49050000D02*
X56550000Y-49757294D01*
X56574999Y-50925001D02*
X56600000Y-50950001D01*
X56550000Y-50900002D02*
X56574999Y-50925001D01*
X56574999Y-50925001D02*
X56600000Y-50950002D01*
X56600000Y-52700000D02*
X55900000Y-53400000D01*
X55000000Y-53400000D02*
X49050001Y-59349999D01*
X49050001Y-59349999D02*
X49050002Y-60650000D01*
%TO.N,/PF1*%
X40400000Y-49400000D02*
X43740126Y-49400000D01*
X43740126Y-49400000D02*
X43890126Y-49550000D01*
X40030000Y-49770000D02*
X40400000Y-49400000D01*
X40030000Y-50900000D02*
X40030000Y-49770000D01*
X43890126Y-49550000D02*
X45637500Y-49550000D01*
%TO.N,/SCK2*%
X47998730Y-42431908D02*
X46223730Y-40656908D01*
X48050000Y-52450000D02*
X48050000Y-53962500D01*
X47998730Y-43400000D02*
X47998730Y-42431908D01*
%TO.N,/RADIO_MARC_ISR*%
X43723730Y-40994408D02*
X43723730Y-40656908D01*
%TO.N,/MISO2*%
X48550000Y-52514106D02*
X49364106Y-51700000D01*
X47961230Y-40406908D02*
X47523730Y-39969408D01*
X47961230Y-41456908D02*
X47961230Y-40406908D01*
X49364106Y-51700000D02*
X49750000Y-51700000D01*
X48550000Y-53962500D02*
X48550000Y-52514106D01*
X47523730Y-39969408D02*
X46911230Y-39969408D01*
X47936230Y-41481908D02*
X47961230Y-41456908D01*
%TO.N,/MOSI2*%
X46011231Y-41381908D02*
X45723730Y-41094407D01*
X46336230Y-41381908D02*
X46011231Y-41381908D01*
X49050000Y-52700000D02*
X49050000Y-53962500D01*
X46836230Y-42881908D02*
X46836230Y-41881908D01*
X46836230Y-41881908D02*
X46336230Y-41381908D01*
X45723730Y-41094407D02*
X45723730Y-40656908D01*
%TO.N,/CS_RADIO*%
X51550000Y-52500000D02*
X51550000Y-53962500D01*
X48691230Y-41506908D02*
X48691230Y-40523290D01*
X47348729Y-38969408D02*
X46911231Y-38969408D01*
X47576730Y-39197409D02*
X47348729Y-38969408D01*
X48691230Y-40523290D02*
X47576730Y-39408790D01*
X47576730Y-39408790D02*
X47576730Y-39197409D01*
%TO.N,/RADIO_INT*%
X43250000Y-43950000D02*
X42650000Y-43350000D01*
X51050000Y-52000000D02*
X50950000Y-51900000D01*
X42650000Y-42679650D02*
X44223730Y-41105920D01*
X50950000Y-43650000D02*
X50650000Y-43950000D01*
X42650000Y-43350000D02*
X42650000Y-42679650D01*
X44223730Y-41105920D02*
X44223730Y-40656908D01*
X51050000Y-53962500D02*
X51050000Y-52000000D01*
X50650000Y-43950000D02*
X43250000Y-43950000D01*
%TO.N,Net-(U3-VDDA)*%
X43565000Y-51050000D02*
X43500000Y-50985000D01*
X43500000Y-52920000D02*
X43580000Y-53000000D01*
X43500000Y-52000000D02*
X43500000Y-52920000D01*
X43500000Y-52000000D02*
X43500000Y-50985000D01*
X45637500Y-51050000D02*
X43565000Y-51050000D01*
%TO.N,Net-(D1-A)*%
X43577500Y-57300000D02*
X42275000Y-57300000D01*
%TO.N,Net-(D2-A)*%
X43600000Y-55700000D02*
X42287500Y-55700000D01*
%TO.N,Net-(U3-PB0)*%
X49550000Y-55150000D02*
X49550000Y-53962500D01*
X44597500Y-57300000D02*
X47400000Y-57300000D01*
X47400000Y-57300000D02*
X49550000Y-55150000D01*
%TO.N,Net-(U3-PC15)*%
X45687500Y-48600000D02*
X45637500Y-48550000D01*
X44620000Y-55700000D02*
X46300000Y-54020000D01*
X46950000Y-48600000D02*
X45687500Y-48600000D01*
X46300000Y-54020000D02*
X46300000Y-54000000D01*
%TO.N,/TX2*%
X55339771Y-71300000D02*
X49550000Y-71300000D01*
X45500000Y-53750000D02*
X45500000Y-52687500D01*
X57846980Y-68399091D02*
X57846980Y-68792791D01*
X45500000Y-52687500D02*
X45637500Y-52550000D01*
X57846980Y-68792791D02*
X55339771Y-71300000D01*
%TO.N,/BT_SW_BTN*%
X45687500Y-48000000D02*
X45637500Y-48050000D01*
X47948600Y-80098600D02*
X48950000Y-81100000D01*
X47948600Y-79399830D02*
X47948600Y-80098600D01*
X46700000Y-48000000D02*
X45687500Y-48000000D01*
%TO.N,/CTS2*%
X49385244Y-51215000D02*
X49050244Y-51550000D01*
X52200000Y-51250000D02*
X52000000Y-51250000D01*
X52000000Y-51250000D02*
X51965000Y-51215000D01*
X53799280Y-74999280D02*
X50750000Y-71950000D01*
X51965000Y-51215000D02*
X49385244Y-51215000D01*
X59150000Y-74999280D02*
X53799280Y-74999280D01*
X49050244Y-51550000D02*
X45637500Y-51550000D01*
%TO.N,/BT_P0_5*%
X56449100Y-76099100D02*
X56200000Y-75850000D01*
X59150000Y-76099100D02*
X56449100Y-76099100D01*
X50550000Y-46374999D02*
X51275001Y-47100000D01*
X51275001Y-47100000D02*
X52650000Y-47100000D01*
X50550000Y-45637500D02*
X50550000Y-46374999D01*
%TO.N,/BT_NRST*%
X52050000Y-43864106D02*
X52050000Y-45637500D01*
X60709999Y-70600000D02*
X60750000Y-70559999D01*
X59150000Y-70600000D02*
X59150000Y-65350000D01*
X53373406Y-42540700D02*
X52050000Y-43864106D01*
X59150000Y-65350000D02*
X59250000Y-65250000D01*
X59300000Y-42900000D02*
X58940700Y-42540700D01*
X58940700Y-42540700D02*
X53373406Y-42540700D01*
X59150000Y-70600000D02*
X60709999Y-70600000D01*
%TO.N,/BT_P3_2*%
X55350000Y-50550000D02*
X55900000Y-51100000D01*
X54547520Y-67602480D02*
X54547520Y-68399090D01*
X53962500Y-50550000D02*
X55350000Y-50550000D01*
X55100000Y-67050000D02*
X54547520Y-67602480D01*
%TO.N,/BT_P1_5*%
X50050000Y-46374999D02*
X51425001Y-47750000D01*
X55600000Y-79352490D02*
X55647340Y-79399830D01*
X51425001Y-47750000D02*
X52600000Y-47750000D01*
X50050000Y-45637500D02*
X50050000Y-46374999D01*
X55600000Y-78200000D02*
X55600000Y-79352490D01*
%TO.N,/BT_P3_7*%
X51450000Y-65750000D02*
X50148240Y-67051760D01*
X50148240Y-67051760D02*
X50148240Y-68399090D01*
X52550000Y-65750000D02*
X51450000Y-65750000D01*
X53962500Y-52550000D02*
X52850000Y-52550000D01*
X52850000Y-52550000D02*
X52600000Y-52800000D01*
%TO.N,/BT_P3_1*%
X54740130Y-69700000D02*
X55647340Y-68792790D01*
X55647340Y-68792790D02*
X55647340Y-68399090D01*
X50450000Y-69700000D02*
X54740130Y-69700000D01*
X50450000Y-55300000D02*
X50550000Y-55200000D01*
X50550000Y-55200000D02*
X50550000Y-53962500D01*
X50300000Y-69850000D02*
X50450000Y-69700000D01*
%TO.N,/BT_P0_4*%
X45687500Y-47500000D02*
X45637500Y-47550000D01*
X54547520Y-79006130D02*
X53541390Y-78000000D01*
X45637500Y-47550000D02*
X44700000Y-47550000D01*
X52050000Y-55350000D02*
X50950000Y-56450000D01*
X50950000Y-56450000D02*
X49050000Y-56450000D01*
X54547520Y-79399830D02*
X54547520Y-79006130D01*
X47250000Y-47500000D02*
X45687500Y-47500000D01*
X44700000Y-47550000D02*
X44400000Y-47850000D01*
X53541390Y-78000000D02*
X53200000Y-78000000D01*
%TO.N,/BT_P3_4*%
X52550000Y-68196971D02*
X52347881Y-68399090D01*
X53962500Y-51550000D02*
X54800000Y-51550000D01*
X52347881Y-68005390D02*
X52347881Y-68399090D01*
X57250000Y-65100000D02*
X56750000Y-65100000D01*
X56488000Y-65362000D02*
X54991271Y-65362000D01*
X56750000Y-65100000D02*
X56488000Y-65362000D01*
X54800000Y-51550000D02*
X55300000Y-52050000D01*
X54991271Y-65362000D02*
X52347881Y-68005390D01*
%TO.N,/RTS2*%
X45637500Y-52050000D02*
X44600000Y-52050000D01*
X44600000Y-52050000D02*
X44450000Y-52200000D01*
X50850000Y-75500000D02*
X52800000Y-75500000D01*
X52800000Y-75500000D02*
X54550000Y-75500000D01*
X49150000Y-73800000D02*
X50850000Y-75500000D01*
X56248920Y-77198920D02*
X59150000Y-77198920D01*
X54550000Y-75500000D02*
X56248920Y-77198920D01*
%TO.N,/BT_P3_3*%
X55803090Y-65650000D02*
X53447700Y-68005390D01*
X55200000Y-51150000D02*
X55100000Y-51050000D01*
X53447700Y-68005390D02*
X53447700Y-68399090D01*
X55100000Y-51050000D02*
X53962500Y-51050000D01*
X57700000Y-65650000D02*
X55803090Y-65650000D01*
X57750000Y-65600000D02*
X57700000Y-65650000D01*
%TO.N,/BT_P3_6*%
X51800000Y-66350000D02*
X51248059Y-66901941D01*
X52715847Y-51915847D02*
X52850000Y-52050000D01*
X52850000Y-52050000D02*
X53962500Y-52050000D01*
X52388460Y-51968265D02*
X52513465Y-51968265D01*
X53050000Y-66350000D02*
X51800000Y-66350000D01*
X52513465Y-51968265D02*
X52565883Y-51915847D01*
X52565883Y-51915847D02*
X52715847Y-51915847D01*
X51248059Y-66901941D02*
X51248059Y-68399090D01*
%TO.N,/BT_P2_4*%
X61335000Y-65570894D02*
X61028000Y-65263894D01*
X59150000Y-72799640D02*
X59543700Y-72799640D01*
X61335000Y-71008340D02*
X61335000Y-65570894D01*
X57500000Y-50335894D02*
X58014106Y-50850000D01*
X55700000Y-49650000D02*
X54062500Y-49650000D01*
X53225001Y-49550000D02*
X53962500Y-49550000D01*
X61028000Y-62978000D02*
X61000000Y-62950000D01*
X57500000Y-49600000D02*
X57500000Y-50335894D01*
X58014106Y-50850000D02*
X60100000Y-50850000D01*
X61028000Y-65263894D02*
X61028000Y-62978000D01*
X59543700Y-72799640D02*
X61335000Y-71008340D01*
X54062500Y-49650000D02*
X53962500Y-49550000D01*
%TO.N,/BT_WAKE*%
X48050000Y-46374999D02*
X51025001Y-49350000D01*
X48050000Y-45637500D02*
X48050000Y-46374999D01*
X51025001Y-49350000D02*
X52600000Y-49350000D01*
X52347881Y-78002119D02*
X52347881Y-79399830D01*
X53550000Y-76800000D02*
X52347881Y-78002119D01*
%TO.N,/RX2*%
X54939950Y-70600000D02*
X50050000Y-70600000D01*
X56747160Y-68792790D02*
X54939950Y-70600000D01*
X56747160Y-68399090D02*
X56747160Y-68792790D01*
X47250000Y-55650000D02*
X47050000Y-55450000D01*
X47050000Y-55450000D02*
X47050000Y-53962500D01*
%TO.N,/BT_P2_0*%
X59611080Y-73899460D02*
X59150000Y-73899460D01*
X51550000Y-43900244D02*
X53435244Y-42015000D01*
X61700000Y-71810540D02*
X59611080Y-73899460D01*
X60415000Y-42015000D02*
X61200000Y-42800000D01*
X51550000Y-45637500D02*
X51550000Y-43900244D01*
X61700000Y-65250000D02*
X61700000Y-71810540D01*
X53435244Y-42015000D02*
X60415000Y-42015000D01*
%TO.N,Net-(J4-D--PadA7)*%
X55950000Y-59915000D02*
X55795000Y-60070000D01*
X54975000Y-59070000D02*
X55701000Y-59070000D01*
X55701000Y-59070000D02*
X55950000Y-59319000D01*
X55795000Y-60070000D02*
X54230000Y-60070000D01*
X54000000Y-60300000D02*
X53219999Y-60300000D01*
X54230000Y-60070000D02*
X54000000Y-60300000D01*
X55950000Y-59319000D02*
X55950000Y-59915000D01*
%TO.N,Net-(J4-CC1)*%
X53300000Y-62780002D02*
X53300000Y-61909414D01*
X53300000Y-61909414D02*
X54639414Y-60570000D01*
X54639414Y-60570000D02*
X55145001Y-60570000D01*
%TO.N,Net-(J4-D+-PadA6)*%
X53200000Y-59200000D02*
X54008000Y-59200000D01*
X54975000Y-58570000D02*
X54249000Y-58570000D01*
X54008000Y-59200000D02*
X54127000Y-59319000D01*
X54127000Y-58692000D02*
X54127000Y-59319000D01*
X54249000Y-58570000D02*
X54127000Y-58692000D01*
X54378000Y-59570000D02*
X54975000Y-59570000D01*
X54127000Y-59319000D02*
X54378000Y-59570000D01*
%TO.N,Net-(J4-CC2)*%
X53530000Y-57570000D02*
X53300000Y-57800000D01*
X54975000Y-57570000D02*
X53530000Y-57570000D01*
%TO.N,/PF0*%
X41532922Y-49050000D02*
X45637500Y-49050000D01*
X39000000Y-45650000D02*
X39000000Y-46900000D01*
X38700000Y-47200000D02*
X39650000Y-48150000D01*
X40632922Y-48150000D02*
X41532922Y-49050000D01*
X39650000Y-48150000D02*
X40632922Y-48150000D01*
X39000000Y-46900000D02*
X38700000Y-47200000D01*
%TO.N,/BT_P1_2*%
X49550000Y-45637500D02*
X49550000Y-46374999D01*
X56747160Y-78689550D02*
X56747160Y-79399830D01*
X53950000Y-77500000D02*
X55557610Y-77500000D01*
X55557610Y-77500000D02*
X56747160Y-78689550D01*
X49550000Y-46374999D02*
X51875001Y-48700000D01*
X51875001Y-48700000D02*
X52750000Y-48700000D01*
D42*
%TO.N,Net-(U4-LDO33_O)*%
X50148240Y-79399830D02*
X49048420Y-79399830D01*
%TD*%
%TA.AperFunction,Conductor*%
%TO.N,VBUS*%
G36*
X54543967Y-56574084D02*
G01*
X54618607Y-56610573D01*
X54686740Y-56620500D01*
X54686743Y-56620500D01*
X55603679Y-56620500D01*
X55661870Y-56639407D01*
X55689414Y-56669998D01*
X55756285Y-56785821D01*
X55864179Y-56893715D01*
X55864181Y-56893716D01*
X55864183Y-56893718D01*
X55996318Y-56970006D01*
X55996319Y-56970006D01*
X55996322Y-56970008D01*
X56143707Y-57009500D01*
X56143708Y-57009500D01*
X56296292Y-57009500D01*
X56296293Y-57009500D01*
X56443678Y-56970008D01*
X56443680Y-56970006D01*
X56443682Y-56970006D01*
X56575816Y-56893718D01*
X56575816Y-56893717D01*
X56575821Y-56893715D01*
X56683715Y-56785821D01*
X56692659Y-56770330D01*
X56715264Y-56731178D01*
X56760733Y-56690237D01*
X56821583Y-56683841D01*
X56874571Y-56714434D01*
X56899458Y-56770330D01*
X56900000Y-56780678D01*
X56900000Y-61859322D01*
X56881093Y-61917513D01*
X56831593Y-61953477D01*
X56770407Y-61953477D01*
X56720907Y-61917513D01*
X56715264Y-61908822D01*
X56683718Y-61854183D01*
X56683716Y-61854181D01*
X56683715Y-61854179D01*
X56575821Y-61746285D01*
X56575818Y-61746283D01*
X56575816Y-61746281D01*
X56443681Y-61669993D01*
X56443682Y-61669993D01*
X56412532Y-61661646D01*
X56296293Y-61630500D01*
X56143707Y-61630500D01*
X56078720Y-61647913D01*
X55996317Y-61669993D01*
X55864183Y-61746281D01*
X55756284Y-61854180D01*
X55689416Y-61970000D01*
X55674035Y-61983848D01*
X55661870Y-62000593D01*
X55651807Y-62003862D01*
X55643946Y-62010941D01*
X55603679Y-62019500D01*
X55406491Y-62019500D01*
X55404471Y-62019479D01*
X54546102Y-62001961D01*
X54488309Y-61981871D01*
X54453363Y-61931647D01*
X54449126Y-61903882D01*
X54447693Y-61746281D01*
X54445524Y-61507745D01*
X54463902Y-61449389D01*
X54513072Y-61412976D01*
X54563833Y-61409752D01*
X54617867Y-61420500D01*
X55672132Y-61420499D01*
X55752495Y-61404515D01*
X55843624Y-61343624D01*
X55904515Y-61252495D01*
X55920500Y-61172133D01*
X55920499Y-60967868D01*
X55904515Y-60887505D01*
X55896161Y-60875002D01*
X55879552Y-60816114D01*
X55896161Y-60764998D01*
X55904516Y-60752495D01*
X55920501Y-60672133D01*
X55920500Y-60467868D01*
X55908214Y-60406097D01*
X55915406Y-60345336D01*
X55939246Y-60313053D01*
X55946902Y-60306192D01*
X55967231Y-60294456D01*
X56019456Y-60242231D01*
X56019457Y-60242228D01*
X56122228Y-60139457D01*
X56122231Y-60139456D01*
X56174456Y-60087231D01*
X56211384Y-60023269D01*
X56230500Y-59951928D01*
X56230500Y-59282072D01*
X56211384Y-59210731D01*
X56174456Y-59146769D01*
X56174453Y-59146766D01*
X56122231Y-59094543D01*
X56122231Y-59094544D01*
X55912164Y-58884477D01*
X55884387Y-58829960D01*
X55893958Y-58769528D01*
X55899847Y-58759479D01*
X55904515Y-58752495D01*
X55920500Y-58672133D01*
X55920499Y-58467868D01*
X55906556Y-58397769D01*
X55904515Y-58387505D01*
X55904514Y-58387503D01*
X55896161Y-58375002D01*
X55879552Y-58316114D01*
X55896161Y-58264998D01*
X55904516Y-58252495D01*
X55920501Y-58172133D01*
X55920500Y-57967868D01*
X55904516Y-57887505D01*
X55896160Y-57875000D01*
X55879552Y-57816114D01*
X55896160Y-57764998D01*
X55904515Y-57752495D01*
X55920500Y-57672133D01*
X55920499Y-57467868D01*
X55919278Y-57461731D01*
X55904515Y-57387505D01*
X55904514Y-57387503D01*
X55843626Y-57296379D01*
X55843624Y-57296376D01*
X55843620Y-57296373D01*
X55752497Y-57235486D01*
X55752496Y-57235485D01*
X55752495Y-57235485D01*
X55672133Y-57219500D01*
X55672132Y-57219500D01*
X54617870Y-57219500D01*
X54617863Y-57219501D01*
X54527942Y-57237387D01*
X54527374Y-57234532D01*
X54481709Y-57238118D01*
X54429546Y-57206139D01*
X54406143Y-57149606D01*
X54405843Y-57142758D01*
X54402551Y-56780678D01*
X54401490Y-56663923D01*
X54419868Y-56605564D01*
X54469039Y-56569151D01*
X54530222Y-56568595D01*
X54543967Y-56574084D01*
G37*
%TD.AperFunction*%
%TD*%
%TA.AperFunction,Conductor*%
%TO.N,GND*%
G36*
X47971780Y-25399982D02*
G01*
X47998800Y-25446782D01*
X48000000Y-25460500D01*
X48000000Y-30171000D01*
X47981518Y-30221780D01*
X47934718Y-30248800D01*
X47921000Y-30250000D01*
X37960500Y-30250000D01*
X37909720Y-30231518D01*
X37882700Y-30184718D01*
X37881500Y-30171000D01*
X37881500Y-25460500D01*
X37899982Y-25409720D01*
X37946782Y-25382700D01*
X37960500Y-25381500D01*
X47921000Y-25381500D01*
X47971780Y-25399982D01*
G37*
%TD.AperFunction*%
%TD*%
%TA.AperFunction,Conductor*%
%TO.N,GND*%
G36*
X62091587Y-44904535D02*
G01*
X62117580Y-44951912D01*
X62118500Y-44963932D01*
X62118500Y-64918455D01*
X62100018Y-64969235D01*
X62053218Y-64996255D01*
X62000000Y-64986871D01*
X61983639Y-64974316D01*
X61942845Y-64933522D01*
X61852658Y-64881452D01*
X61852654Y-64881451D01*
X61752071Y-64854500D01*
X61752069Y-64854500D01*
X61647931Y-64854500D01*
X61647928Y-64854500D01*
X61547345Y-64881451D01*
X61547341Y-64881452D01*
X61457154Y-64933522D01*
X61403361Y-64987316D01*
X61354385Y-65010154D01*
X61302187Y-64996168D01*
X61271192Y-64951902D01*
X61268500Y-64931455D01*
X61268500Y-63273544D01*
X61286982Y-63222764D01*
X61291640Y-63217682D01*
X61316477Y-63192845D01*
X61316479Y-63192843D01*
X61368548Y-63102657D01*
X61395500Y-63002069D01*
X61395500Y-62897931D01*
X61368548Y-62797343D01*
X61362322Y-62786560D01*
X61341219Y-62750008D01*
X61316479Y-62707157D01*
X61316478Y-62707156D01*
X61316477Y-62707154D01*
X61242845Y-62633522D01*
X61152658Y-62581452D01*
X61152654Y-62581451D01*
X61052071Y-62554500D01*
X61052069Y-62554500D01*
X60947931Y-62554500D01*
X60947928Y-62554500D01*
X60847345Y-62581451D01*
X60847341Y-62581452D01*
X60757154Y-62633522D01*
X60683522Y-62707154D01*
X60631452Y-62797341D01*
X60631451Y-62797345D01*
X60604500Y-62897928D01*
X60604500Y-63002071D01*
X60631451Y-63102654D01*
X60631452Y-63102658D01*
X60683522Y-63192845D01*
X60760818Y-63270141D01*
X60759828Y-63271130D01*
X60785625Y-63311613D01*
X60787500Y-63328720D01*
X60787500Y-65216055D01*
X60787500Y-65311733D01*
X60824114Y-65400127D01*
X60949671Y-65525684D01*
X61071361Y-65647373D01*
X61094199Y-65696350D01*
X61094500Y-65703235D01*
X61094500Y-70054189D01*
X61076018Y-70104969D01*
X61029218Y-70131989D01*
X61006396Y-70132663D01*
X60979123Y-70129499D01*
X60520883Y-70129499D01*
X60520871Y-70129500D01*
X60496173Y-70132365D01*
X60395109Y-70176989D01*
X60395103Y-70176993D01*
X60316994Y-70255102D01*
X60316989Y-70255108D01*
X60291689Y-70312410D01*
X60288608Y-70315619D01*
X60287836Y-70320000D01*
X60270206Y-70334792D01*
X60254270Y-70351398D01*
X60248941Y-70352636D01*
X60246440Y-70354736D01*
X60219420Y-70359500D01*
X60138800Y-70359500D01*
X60088020Y-70341018D01*
X60061000Y-70294218D01*
X60059800Y-70280500D01*
X60059800Y-70228594D01*
X60050487Y-70181776D01*
X60015014Y-70128685D01*
X59968081Y-70097327D01*
X59961924Y-70093213D01*
X59961923Y-70093212D01*
X59915106Y-70083900D01*
X59469500Y-70083900D01*
X59418720Y-70065418D01*
X59391700Y-70018618D01*
X59390500Y-70004900D01*
X59390500Y-65671177D01*
X59408982Y-65620397D01*
X59429998Y-65602762D01*
X59492843Y-65566479D01*
X59566479Y-65492843D01*
X59618548Y-65402657D01*
X59645500Y-65302069D01*
X59645500Y-65197931D01*
X59618548Y-65097343D01*
X59566479Y-65007157D01*
X59566478Y-65007156D01*
X59566477Y-65007154D01*
X59492845Y-64933522D01*
X59402658Y-64881452D01*
X59402654Y-64881451D01*
X59302071Y-64854500D01*
X59302069Y-64854500D01*
X59197931Y-64854500D01*
X59197928Y-64854500D01*
X59097345Y-64881451D01*
X59097341Y-64881452D01*
X59007154Y-64933522D01*
X58933522Y-65007154D01*
X58881452Y-65097341D01*
X58881451Y-65097345D01*
X58854500Y-65197928D01*
X58854500Y-65302071D01*
X58875770Y-65381451D01*
X58881452Y-65402657D01*
X58898916Y-65432906D01*
X58909500Y-65472405D01*
X58909500Y-70004900D01*
X58891018Y-70055680D01*
X58844218Y-70082700D01*
X58830500Y-70083900D01*
X58384894Y-70083900D01*
X58338076Y-70093212D01*
X58284985Y-70128685D01*
X58249512Y-70181776D01*
X58240200Y-70228594D01*
X58240200Y-70971405D01*
X58249512Y-71018223D01*
X58284987Y-71071315D01*
X58304306Y-71084224D01*
X58336261Y-71127803D01*
X58332727Y-71181726D01*
X58304306Y-71215596D01*
X58284987Y-71228504D01*
X58249512Y-71281596D01*
X58240200Y-71328414D01*
X58240200Y-72071225D01*
X58249512Y-72118043D01*
X58284987Y-72171135D01*
X58304306Y-72184044D01*
X58336261Y-72227623D01*
X58332727Y-72281546D01*
X58304306Y-72315416D01*
X58284987Y-72328324D01*
X58249512Y-72381416D01*
X58240200Y-72428234D01*
X58240200Y-73171045D01*
X58249512Y-73217863D01*
X58284987Y-73270955D01*
X58304306Y-73283864D01*
X58336261Y-73327443D01*
X58332727Y-73381366D01*
X58304306Y-73415236D01*
X58284987Y-73428144D01*
X58249512Y-73481236D01*
X58240200Y-73528054D01*
X58240200Y-74270865D01*
X58249512Y-74317683D01*
X58284987Y-74370775D01*
X58304306Y-74383684D01*
X58336261Y-74427263D01*
X58332727Y-74481186D01*
X58304306Y-74515056D01*
X58284987Y-74527964D01*
X58249512Y-74581056D01*
X58240200Y-74627874D01*
X58240200Y-74679780D01*
X58221718Y-74730560D01*
X58174918Y-74757580D01*
X58161200Y-74758780D01*
X53931621Y-74758780D01*
X53880841Y-74740298D01*
X53875760Y-74735641D01*
X51168639Y-72028520D01*
X51145801Y-71979544D01*
X51145500Y-71972659D01*
X51145500Y-71897933D01*
X51145499Y-71897928D01*
X51134902Y-71858379D01*
X51118548Y-71797343D01*
X51066479Y-71707157D01*
X51066478Y-71707156D01*
X51066477Y-71707154D01*
X51034684Y-71675361D01*
X51011846Y-71626385D01*
X51025832Y-71574187D01*
X51070098Y-71543192D01*
X51090545Y-71540500D01*
X55387608Y-71540500D01*
X55387610Y-71540500D01*
X55476004Y-71503886D01*
X57647860Y-69332030D01*
X57696836Y-69309192D01*
X57703721Y-69308891D01*
X58218386Y-69308891D01*
X58265204Y-69299578D01*
X58318294Y-69264105D01*
X58353767Y-69211015D01*
X58363080Y-69164197D01*
X58363080Y-67633985D01*
X58353767Y-67587167D01*
X58331203Y-67553397D01*
X58318294Y-67534076D01*
X58278564Y-67507531D01*
X58265204Y-67498604D01*
X58265203Y-67498603D01*
X58218386Y-67489291D01*
X57475574Y-67489291D01*
X57428756Y-67498603D01*
X57375666Y-67534076D01*
X57362756Y-67553398D01*
X57319176Y-67585351D01*
X57265252Y-67581816D01*
X57231384Y-67553396D01*
X57218475Y-67534077D01*
X57218474Y-67534076D01*
X57165384Y-67498603D01*
X57165383Y-67498602D01*
X57118566Y-67489290D01*
X56375754Y-67489290D01*
X56328936Y-67498602D01*
X56275844Y-67534077D01*
X56262936Y-67553396D01*
X56219357Y-67585351D01*
X56165434Y-67581817D01*
X56131564Y-67553396D01*
X56118655Y-67534077D01*
X56118654Y-67534076D01*
X56065564Y-67498603D01*
X56065563Y-67498602D01*
X56018746Y-67489290D01*
X55410755Y-67489290D01*
X55359975Y-67470808D01*
X55332955Y-67424008D01*
X55342339Y-67370790D01*
X55354894Y-67354429D01*
X55416477Y-67292845D01*
X55416479Y-67292843D01*
X55468548Y-67202657D01*
X55495500Y-67102069D01*
X55495500Y-66997931D01*
X55468548Y-66897343D01*
X55416479Y-66807157D01*
X55416478Y-66807156D01*
X55416477Y-66807154D01*
X55342845Y-66733522D01*
X55252490Y-66681355D01*
X55217754Y-66639958D01*
X55217754Y-66585919D01*
X55236127Y-66557080D01*
X55879569Y-65913639D01*
X55928545Y-65890801D01*
X55935430Y-65890500D01*
X57448455Y-65890500D01*
X57499235Y-65908982D01*
X57504316Y-65913639D01*
X57507154Y-65916477D01*
X57507156Y-65916478D01*
X57507157Y-65916479D01*
X57597343Y-65968548D01*
X57697931Y-65995500D01*
X57697933Y-65995500D01*
X57802067Y-65995500D01*
X57802069Y-65995500D01*
X57902657Y-65968548D01*
X57992843Y-65916479D01*
X58066479Y-65842843D01*
X58118548Y-65752657D01*
X58145500Y-65652069D01*
X58145500Y-65547931D01*
X58118548Y-65447343D01*
X58110568Y-65433522D01*
X58066477Y-65357154D01*
X57992845Y-65283522D01*
X57902658Y-65231452D01*
X57902654Y-65231451D01*
X57802071Y-65204500D01*
X57802069Y-65204500D01*
X57724500Y-65204500D01*
X57673720Y-65186018D01*
X57646700Y-65139218D01*
X57645500Y-65125500D01*
X57645500Y-65047933D01*
X57645499Y-65047928D01*
X57635378Y-65010154D01*
X57618548Y-64947343D01*
X57610568Y-64933522D01*
X57580505Y-64881451D01*
X57566479Y-64857157D01*
X57566478Y-64857156D01*
X57566477Y-64857154D01*
X57492845Y-64783522D01*
X57402658Y-64731452D01*
X57402654Y-64731451D01*
X57302071Y-64704500D01*
X57302069Y-64704500D01*
X57197931Y-64704500D01*
X57197928Y-64704500D01*
X57097345Y-64731451D01*
X57097341Y-64731452D01*
X57007154Y-64783522D01*
X56954316Y-64836361D01*
X56905340Y-64859199D01*
X56898455Y-64859500D01*
X56797839Y-64859500D01*
X56702161Y-64859500D01*
X56649167Y-64881451D01*
X56613766Y-64896114D01*
X56562540Y-64947341D01*
X56411519Y-65098361D01*
X56362544Y-65121199D01*
X56355659Y-65121500D01*
X55039110Y-65121500D01*
X54943432Y-65121500D01*
X54900657Y-65139218D01*
X54855036Y-65158114D01*
X54855034Y-65158116D01*
X53580361Y-66432790D01*
X53531385Y-66455628D01*
X53479187Y-66441642D01*
X53448192Y-66397376D01*
X53445500Y-66376929D01*
X53445500Y-66297933D01*
X53445499Y-66297928D01*
X53418548Y-66197343D01*
X53366479Y-66107157D01*
X53366478Y-66107156D01*
X53366477Y-66107154D01*
X53292845Y-66033522D01*
X53202658Y-65981452D01*
X53202654Y-65981451D01*
X53102071Y-65954500D01*
X53102069Y-65954500D01*
X53007611Y-65954500D01*
X52956831Y-65936018D01*
X52929811Y-65889218D01*
X52931303Y-65855054D01*
X52945499Y-65802071D01*
X52945500Y-65802069D01*
X52945500Y-65697931D01*
X52918548Y-65597343D01*
X52866479Y-65507157D01*
X52866478Y-65507156D01*
X52866477Y-65507154D01*
X52792845Y-65433522D01*
X52702658Y-65381452D01*
X52702654Y-65381451D01*
X52602071Y-65354500D01*
X52602069Y-65354500D01*
X52497931Y-65354500D01*
X52497928Y-65354500D01*
X52397345Y-65381451D01*
X52397341Y-65381452D01*
X52307154Y-65433522D01*
X52254316Y-65486361D01*
X52205340Y-65509199D01*
X52198455Y-65509500D01*
X51497839Y-65509500D01*
X51402162Y-65509500D01*
X51357965Y-65527807D01*
X51313766Y-65546114D01*
X49944356Y-66915524D01*
X49944354Y-66915527D01*
X49910224Y-66997926D01*
X49910223Y-66997927D01*
X49907740Y-67003921D01*
X49907740Y-67410290D01*
X49889258Y-67461070D01*
X49842458Y-67488090D01*
X49828740Y-67489290D01*
X49776834Y-67489290D01*
X49730016Y-67498602D01*
X49676924Y-67534077D01*
X49664016Y-67553396D01*
X49620437Y-67585351D01*
X49566514Y-67581817D01*
X49532644Y-67553396D01*
X49519735Y-67534077D01*
X49519734Y-67534076D01*
X49466644Y-67498603D01*
X49466643Y-67498602D01*
X49419826Y-67489290D01*
X48677014Y-67489290D01*
X48630196Y-67498602D01*
X48577105Y-67534075D01*
X48541632Y-67587166D01*
X48532320Y-67633984D01*
X48532320Y-69164195D01*
X48541632Y-69211013D01*
X48577105Y-69264104D01*
X48603651Y-69281840D01*
X48630196Y-69299577D01*
X48677014Y-69308890D01*
X49419826Y-69308890D01*
X49466644Y-69299577D01*
X49519734Y-69264104D01*
X49532643Y-69244784D01*
X49576221Y-69212829D01*
X49630145Y-69216362D01*
X49664017Y-69244784D01*
X49676924Y-69264102D01*
X49676926Y-69264104D01*
X49730016Y-69299577D01*
X49776834Y-69308890D01*
X50191291Y-69308890D01*
X50242071Y-69327372D01*
X50269091Y-69374172D01*
X50259707Y-69427390D01*
X50218311Y-69462126D01*
X50211737Y-69464198D01*
X50147345Y-69481451D01*
X50147341Y-69481452D01*
X50057154Y-69533522D01*
X49983522Y-69607154D01*
X49931452Y-69697341D01*
X49931451Y-69697345D01*
X49904500Y-69797928D01*
X49904500Y-69902071D01*
X49931451Y-70002654D01*
X49931452Y-70002658D01*
X49983522Y-70092845D01*
X49985072Y-70094865D01*
X49985533Y-70096327D01*
X49986110Y-70097327D01*
X49985888Y-70097454D01*
X50001319Y-70146404D01*
X49980635Y-70196328D01*
X49942840Y-70219261D01*
X49897345Y-70231451D01*
X49897341Y-70231452D01*
X49807154Y-70283522D01*
X49733522Y-70357154D01*
X49681452Y-70447341D01*
X49681451Y-70447345D01*
X49654500Y-70547928D01*
X49654500Y-70652071D01*
X49681451Y-70752654D01*
X49681452Y-70752658D01*
X49704329Y-70792282D01*
X49713713Y-70845501D01*
X49686693Y-70892300D01*
X49635913Y-70910782D01*
X49615468Y-70908090D01*
X49602069Y-70904500D01*
X49497931Y-70904500D01*
X49497928Y-70904500D01*
X49397345Y-70931451D01*
X49397341Y-70931452D01*
X49307154Y-70983522D01*
X49233522Y-71057154D01*
X49181452Y-71147341D01*
X49181451Y-71147345D01*
X49154500Y-71247928D01*
X49154500Y-71352071D01*
X49181451Y-71452654D01*
X49181452Y-71452658D01*
X49233522Y-71542845D01*
X49307154Y-71616477D01*
X49307156Y-71616478D01*
X49307157Y-71616479D01*
X49397343Y-71668548D01*
X49497931Y-71695500D01*
X49497933Y-71695500D01*
X49602067Y-71695500D01*
X49602069Y-71695500D01*
X49702657Y-71668548D01*
X49792843Y-71616479D01*
X49803540Y-71605782D01*
X49845684Y-71563639D01*
X49894660Y-71540801D01*
X49901545Y-71540500D01*
X50409455Y-71540500D01*
X50460235Y-71558982D01*
X50487255Y-71605782D01*
X50477871Y-71659000D01*
X50465316Y-71675361D01*
X50433522Y-71707154D01*
X50381452Y-71797341D01*
X50381451Y-71797345D01*
X50354500Y-71897928D01*
X50354500Y-72002071D01*
X50381451Y-72102654D01*
X50381452Y-72102658D01*
X50433522Y-72192845D01*
X50507154Y-72266477D01*
X50507156Y-72266478D01*
X50507157Y-72266479D01*
X50597343Y-72318548D01*
X50697931Y-72345500D01*
X50697933Y-72345500D01*
X50772659Y-72345500D01*
X50823439Y-72363982D01*
X50828520Y-72368639D01*
X53584519Y-75124639D01*
X53607357Y-75173615D01*
X53593371Y-75225813D01*
X53549105Y-75256808D01*
X53528658Y-75259500D01*
X50982341Y-75259500D01*
X50931561Y-75241018D01*
X50926480Y-75236361D01*
X49568639Y-73878520D01*
X49545801Y-73829544D01*
X49545500Y-73822659D01*
X49545500Y-73747933D01*
X49545499Y-73747928D01*
X49518548Y-73647343D01*
X49466479Y-73557157D01*
X49466478Y-73557156D01*
X49466477Y-73557154D01*
X49392845Y-73483522D01*
X49302658Y-73431452D01*
X49302654Y-73431451D01*
X49202071Y-73404500D01*
X49202069Y-73404500D01*
X49097931Y-73404500D01*
X49097928Y-73404500D01*
X48997345Y-73431451D01*
X48997341Y-73431452D01*
X48907154Y-73483522D01*
X48833522Y-73557154D01*
X48781452Y-73647341D01*
X48781451Y-73647345D01*
X48754500Y-73747928D01*
X48754500Y-73852071D01*
X48781451Y-73952654D01*
X48781452Y-73952658D01*
X48833522Y-74042845D01*
X48907154Y-74116477D01*
X48907156Y-74116478D01*
X48907157Y-74116479D01*
X48997343Y-74168548D01*
X49097931Y-74195500D01*
X49097933Y-74195500D01*
X49172659Y-74195500D01*
X49223439Y-74213982D01*
X49228520Y-74218639D01*
X50713763Y-75703883D01*
X50713765Y-75703885D01*
X50713766Y-75703885D01*
X50713767Y-75703886D01*
X50802161Y-75740500D01*
X50802162Y-75740500D01*
X52752162Y-75740500D01*
X54417659Y-75740500D01*
X54468439Y-75758982D01*
X54473520Y-75763639D01*
X56112686Y-77402805D01*
X56112687Y-77402805D01*
X56112688Y-77402806D01*
X56201082Y-77439420D01*
X56296759Y-77439420D01*
X58161200Y-77439420D01*
X58211980Y-77457902D01*
X58239000Y-77504702D01*
X58240200Y-77518420D01*
X58240200Y-77570325D01*
X58249512Y-77617143D01*
X58284985Y-77670234D01*
X58311531Y-77687970D01*
X58338076Y-77705707D01*
X58384894Y-77715020D01*
X59915106Y-77715020D01*
X59961924Y-77705707D01*
X60015014Y-77670234D01*
X60050487Y-77617144D01*
X60059800Y-77570326D01*
X60059800Y-76827514D01*
X60050487Y-76780696D01*
X60015014Y-76727606D01*
X60015011Y-76727604D01*
X59995694Y-76714697D01*
X59963739Y-76671119D01*
X59967272Y-76617195D01*
X59995694Y-76583323D01*
X59995936Y-76583161D01*
X60015014Y-76570414D01*
X60050487Y-76517324D01*
X60059800Y-76470506D01*
X60059800Y-75727694D01*
X60050487Y-75680876D01*
X60015014Y-75627786D01*
X60015011Y-75627784D01*
X59995694Y-75614877D01*
X59963739Y-75571299D01*
X59967272Y-75517375D01*
X59995694Y-75483503D01*
X59995936Y-75483341D01*
X60015014Y-75470594D01*
X60050487Y-75417504D01*
X60059800Y-75370686D01*
X60059800Y-74627874D01*
X60050487Y-74581056D01*
X60015014Y-74527966D01*
X60015011Y-74527964D01*
X59995694Y-74515057D01*
X59963739Y-74471479D01*
X59967272Y-74417555D01*
X59995694Y-74383683D01*
X59995936Y-74383521D01*
X60015014Y-74370774D01*
X60050487Y-74317684D01*
X60059800Y-74270866D01*
X60059800Y-73823581D01*
X60078282Y-73772801D01*
X60082939Y-73767720D01*
X61903885Y-71946774D01*
X61903886Y-71946773D01*
X61940500Y-71858379D01*
X61940500Y-71762701D01*
X61940500Y-65601545D01*
X61946398Y-65585337D01*
X61947902Y-65568158D01*
X61957792Y-65554033D01*
X61958982Y-65550765D01*
X61963639Y-65545684D01*
X61983639Y-65525684D01*
X62032615Y-65502846D01*
X62084813Y-65516832D01*
X62115808Y-65561098D01*
X62118500Y-65581545D01*
X62118500Y-82039500D01*
X62100018Y-82090280D01*
X62053218Y-82117300D01*
X62039500Y-82118500D01*
X48087194Y-82118500D01*
X48036414Y-82100018D01*
X48009394Y-82053218D01*
X48018778Y-82000000D01*
X48031333Y-81983639D01*
X48072201Y-81942770D01*
X48072206Y-81942765D01*
X48117585Y-81839991D01*
X48120500Y-81814865D01*
X48120499Y-81385136D01*
X48117585Y-81360009D01*
X48072206Y-81257235D01*
X48072203Y-81257232D01*
X48072201Y-81257229D01*
X47992770Y-81177798D01*
X47992767Y-81177796D01*
X47992765Y-81177794D01*
X47889991Y-81132415D01*
X47877428Y-81130957D01*
X47864866Y-81129500D01*
X47864865Y-81129500D01*
X47582341Y-81129500D01*
X47531561Y-81111018D01*
X47526480Y-81106361D01*
X47267419Y-80847300D01*
X47244581Y-80798324D01*
X47244280Y-80791439D01*
X47244280Y-80716713D01*
X47244279Y-80716708D01*
X47217328Y-80616123D01*
X47165259Y-80525937D01*
X47165258Y-80525936D01*
X47165257Y-80525934D01*
X47112419Y-80473096D01*
X47105131Y-80457468D01*
X47094044Y-80444255D01*
X47091048Y-80427268D01*
X47089581Y-80424120D01*
X47089280Y-80417235D01*
X47089280Y-80388630D01*
X47107762Y-80337850D01*
X47154562Y-80310830D01*
X47168280Y-80309630D01*
X47220186Y-80309630D01*
X47267004Y-80300317D01*
X47320094Y-80264844D01*
X47333004Y-80245523D01*
X47376581Y-80213569D01*
X47430505Y-80217102D01*
X47464377Y-80245524D01*
X47477284Y-80264842D01*
X47477286Y-80264844D01*
X47530376Y-80300317D01*
X47577194Y-80309630D01*
X47786789Y-80309630D01*
X47837569Y-80328112D01*
X47842650Y-80332769D01*
X48531361Y-81021479D01*
X48554199Y-81070455D01*
X48554500Y-81077340D01*
X48554500Y-81152071D01*
X48581451Y-81252654D01*
X48581452Y-81252658D01*
X48633522Y-81342845D01*
X48707154Y-81416477D01*
X48707156Y-81416478D01*
X48707157Y-81416479D01*
X48797343Y-81468548D01*
X48897931Y-81495500D01*
X48897933Y-81495500D01*
X49002067Y-81495500D01*
X49002069Y-81495500D01*
X49102657Y-81468548D01*
X49192843Y-81416479D01*
X49266479Y-81342843D01*
X49318548Y-81252657D01*
X49345500Y-81152069D01*
X49345500Y-81047931D01*
X49318548Y-80947343D01*
X49266479Y-80857157D01*
X49266478Y-80857156D01*
X49266477Y-80857154D01*
X49192845Y-80783522D01*
X49102658Y-80731452D01*
X49102654Y-80731451D01*
X49002071Y-80704500D01*
X49002069Y-80704500D01*
X48927340Y-80704500D01*
X48876560Y-80686018D01*
X48871490Y-80681372D01*
X48634608Y-80444489D01*
X48611772Y-80395515D01*
X48625758Y-80343317D01*
X48670024Y-80312322D01*
X48690471Y-80309630D01*
X49419826Y-80309630D01*
X49466644Y-80300317D01*
X49519734Y-80264844D01*
X49532644Y-80245523D01*
X49576221Y-80213569D01*
X49630145Y-80217102D01*
X49664017Y-80245524D01*
X49676924Y-80264842D01*
X49676926Y-80264844D01*
X49730016Y-80300317D01*
X49776834Y-80309630D01*
X50519646Y-80309630D01*
X50566464Y-80300317D01*
X50619554Y-80264844D01*
X50632463Y-80245523D01*
X50676040Y-80213570D01*
X50729963Y-80217102D01*
X50763835Y-80245524D01*
X50776743Y-80264842D01*
X50776744Y-80264842D01*
X50776745Y-80264844D01*
X50829835Y-80300317D01*
X50876653Y-80309630D01*
X51619465Y-80309630D01*
X51666283Y-80300317D01*
X51719373Y-80264844D01*
X51732283Y-80245521D01*
X51775862Y-80213567D01*
X51829786Y-80217101D01*
X51863656Y-80245521D01*
X51876567Y-80264844D01*
X51929657Y-80300317D01*
X51976475Y-80309630D01*
X52719287Y-80309630D01*
X52766105Y-80300317D01*
X52819195Y-80264844D01*
X52832104Y-80245523D01*
X52875681Y-80213570D01*
X52929604Y-80217102D01*
X52963476Y-80245524D01*
X52976384Y-80264842D01*
X52976385Y-80264842D01*
X52976386Y-80264844D01*
X53029476Y-80300317D01*
X53076294Y-80309630D01*
X53819106Y-80309630D01*
X53865924Y-80300317D01*
X53919014Y-80264844D01*
X53931924Y-80245523D01*
X53975501Y-80213569D01*
X54029425Y-80217102D01*
X54063297Y-80245524D01*
X54076204Y-80264842D01*
X54076206Y-80264844D01*
X54129296Y-80300317D01*
X54176114Y-80309630D01*
X54918926Y-80309630D01*
X54965744Y-80300317D01*
X55018834Y-80264844D01*
X55031744Y-80245523D01*
X55075321Y-80213569D01*
X55129245Y-80217102D01*
X55163117Y-80245524D01*
X55176024Y-80264842D01*
X55176026Y-80264844D01*
X55229116Y-80300317D01*
X55275934Y-80309630D01*
X56018746Y-80309630D01*
X56065564Y-80300317D01*
X56118654Y-80264844D01*
X56131564Y-80245523D01*
X56175141Y-80213569D01*
X56229065Y-80217102D01*
X56262937Y-80245524D01*
X56275844Y-80264842D01*
X56275846Y-80264844D01*
X56328936Y-80300317D01*
X56375754Y-80309630D01*
X57118566Y-80309630D01*
X57165384Y-80300317D01*
X57218474Y-80264844D01*
X57231384Y-80245523D01*
X57274961Y-80213569D01*
X57328885Y-80217102D01*
X57362756Y-80245523D01*
X57375664Y-80264841D01*
X57375665Y-80264841D01*
X57375666Y-80264843D01*
X57428756Y-80300316D01*
X57475574Y-80309629D01*
X58218386Y-80309629D01*
X58265204Y-80300316D01*
X58318294Y-80264843D01*
X58353767Y-80211753D01*
X58363080Y-80164935D01*
X58363080Y-78634723D01*
X58353767Y-78587905D01*
X58345959Y-78576219D01*
X58318294Y-78534814D01*
X58265205Y-78499343D01*
X58265204Y-78499342D01*
X58265203Y-78499341D01*
X58218386Y-78490029D01*
X57475574Y-78490029D01*
X57428756Y-78499341D01*
X57375664Y-78534816D01*
X57362754Y-78554137D01*
X57319174Y-78586090D01*
X57265251Y-78582555D01*
X57231382Y-78554135D01*
X57227902Y-78548926D01*
X57218474Y-78534816D01*
X57218471Y-78534814D01*
X57192106Y-78517198D01*
X57165384Y-78499343D01*
X57165383Y-78499342D01*
X57118566Y-78490030D01*
X56920480Y-78490030D01*
X56869700Y-78471548D01*
X56864619Y-78466891D01*
X56281251Y-77883523D01*
X55693845Y-77296116D01*
X55693844Y-77296114D01*
X55664378Y-77283909D01*
X55605449Y-77259500D01*
X55605448Y-77259500D01*
X55605447Y-77259500D01*
X54301545Y-77259500D01*
X54250765Y-77241018D01*
X54245684Y-77236361D01*
X54192845Y-77183522D01*
X54102658Y-77131452D01*
X54102654Y-77131451D01*
X54002071Y-77104500D01*
X54002069Y-77104500D01*
X53967713Y-77104500D01*
X53916933Y-77086018D01*
X53889913Y-77039218D01*
X53899297Y-76986000D01*
X53918548Y-76952657D01*
X53945500Y-76852069D01*
X53945500Y-76747931D01*
X53918548Y-76647343D01*
X53866479Y-76557157D01*
X53866478Y-76557156D01*
X53866477Y-76557154D01*
X53792845Y-76483522D01*
X53702658Y-76431452D01*
X53702654Y-76431451D01*
X53602071Y-76404500D01*
X53602069Y-76404500D01*
X53497931Y-76404500D01*
X53497928Y-76404500D01*
X53397345Y-76431451D01*
X53397341Y-76431452D01*
X53307154Y-76483522D01*
X53233522Y-76557154D01*
X53181452Y-76647341D01*
X53181451Y-76647345D01*
X53154500Y-76747928D01*
X53154500Y-76822658D01*
X53136018Y-76873438D01*
X53131361Y-76878519D01*
X52143997Y-77865883D01*
X52143994Y-77865887D01*
X52108263Y-77952153D01*
X52108259Y-77952161D01*
X52107381Y-77954277D01*
X52107381Y-78411030D01*
X52088899Y-78461810D01*
X52042099Y-78488830D01*
X52028381Y-78490030D01*
X51976475Y-78490030D01*
X51929657Y-78499342D01*
X51876566Y-78534816D01*
X51863656Y-78554138D01*
X51820076Y-78586092D01*
X51766153Y-78582558D01*
X51732284Y-78554138D01*
X51719373Y-78534816D01*
X51719370Y-78534814D01*
X51666283Y-78499343D01*
X51666282Y-78499342D01*
X51619465Y-78490030D01*
X50876653Y-78490030D01*
X50829835Y-78499342D01*
X50776745Y-78534815D01*
X50763835Y-78554137D01*
X50720255Y-78586090D01*
X50666331Y-78582555D01*
X50632462Y-78554135D01*
X50628982Y-78548926D01*
X50619554Y-78534816D01*
X50619551Y-78534814D01*
X50593186Y-78517198D01*
X50566464Y-78499343D01*
X50566463Y-78499342D01*
X50519646Y-78490030D01*
X49776834Y-78490030D01*
X49730016Y-78499342D01*
X49676924Y-78534817D01*
X49664016Y-78554136D01*
X49620437Y-78586091D01*
X49566514Y-78582557D01*
X49532644Y-78554136D01*
X49519735Y-78534817D01*
X49519734Y-78534816D01*
X49466644Y-78499343D01*
X49466643Y-78499342D01*
X49419826Y-78490030D01*
X48677014Y-78490030D01*
X48630196Y-78499342D01*
X48577104Y-78534817D01*
X48564196Y-78554136D01*
X48520617Y-78586091D01*
X48466694Y-78582557D01*
X48432824Y-78554136D01*
X48419915Y-78534817D01*
X48419914Y-78534816D01*
X48366824Y-78499343D01*
X48366823Y-78499342D01*
X48320006Y-78490030D01*
X47577194Y-78490030D01*
X47530376Y-78499342D01*
X47477284Y-78534817D01*
X47464376Y-78554136D01*
X47420797Y-78586091D01*
X47366874Y-78582557D01*
X47333004Y-78554136D01*
X47320095Y-78534817D01*
X47320094Y-78534816D01*
X47267004Y-78499343D01*
X47267003Y-78499342D01*
X47220186Y-78490030D01*
X46477374Y-78490030D01*
X46430556Y-78499342D01*
X46377465Y-78534815D01*
X46341992Y-78587906D01*
X46332680Y-78634724D01*
X46332680Y-80164935D01*
X46341992Y-80211753D01*
X46377465Y-80264844D01*
X46404011Y-80282580D01*
X46430556Y-80300317D01*
X46477374Y-80309630D01*
X46529280Y-80309630D01*
X46548567Y-80316649D01*
X46568780Y-80320214D01*
X46573361Y-80325674D01*
X46580060Y-80328112D01*
X46590321Y-80345886D01*
X46603516Y-80361610D01*
X46605325Y-80371873D01*
X46607080Y-80374912D01*
X46608280Y-80388629D01*
X46608280Y-80417235D01*
X46589798Y-80468015D01*
X46585141Y-80473096D01*
X46532302Y-80525934D01*
X46480232Y-80616121D01*
X46480231Y-80616125D01*
X46453280Y-80716708D01*
X46453280Y-80820851D01*
X46480231Y-80921434D01*
X46480232Y-80921438D01*
X46532302Y-81011625D01*
X46605934Y-81085257D01*
X46682564Y-81129500D01*
X46696123Y-81137328D01*
X46796711Y-81164280D01*
X46796713Y-81164280D01*
X46871438Y-81164280D01*
X46922218Y-81182762D01*
X46927299Y-81187418D01*
X47216361Y-81476479D01*
X47239199Y-81525456D01*
X47239500Y-81532341D01*
X47239500Y-81814858D01*
X47239501Y-81814870D01*
X47241686Y-81833709D01*
X47242415Y-81839991D01*
X47287794Y-81942765D01*
X47287796Y-81942767D01*
X47287798Y-81942770D01*
X47328667Y-81983639D01*
X47351505Y-82032615D01*
X47337519Y-82084813D01*
X47293253Y-82115808D01*
X47272806Y-82118500D01*
X37960500Y-82118500D01*
X37909720Y-82100018D01*
X37882700Y-82053218D01*
X37881500Y-82039500D01*
X37881500Y-79979000D01*
X37899982Y-79928220D01*
X37946782Y-79901200D01*
X37960500Y-79900000D01*
X38050000Y-79900000D01*
X38050000Y-78679000D01*
X38068482Y-78628220D01*
X38115282Y-78601200D01*
X38129000Y-78600000D01*
X38771000Y-78600000D01*
X38821780Y-78618482D01*
X38848800Y-78665282D01*
X38850000Y-78679000D01*
X38850000Y-79900000D01*
X39150000Y-79900000D01*
X39150000Y-78679000D01*
X39168482Y-78628220D01*
X39215282Y-78601200D01*
X39229000Y-78600000D01*
X39871000Y-78600000D01*
X39921780Y-78618482D01*
X39948800Y-78665282D01*
X39950000Y-78679000D01*
X39950000Y-79900000D01*
X41650000Y-79900000D01*
X41650000Y-70779000D01*
X41668482Y-70728220D01*
X41715282Y-70701200D01*
X41729000Y-70700000D01*
X43650000Y-70700000D01*
X43650000Y-68700000D01*
X41729000Y-68700000D01*
X41678220Y-68681518D01*
X41651200Y-68634718D01*
X41650000Y-68621000D01*
X41650000Y-67900000D01*
X39950000Y-67900000D01*
X39950000Y-69121000D01*
X39931518Y-69171780D01*
X39884718Y-69198800D01*
X39871000Y-69200000D01*
X39229000Y-69200000D01*
X39178220Y-69181518D01*
X39151200Y-69134718D01*
X39150000Y-69121000D01*
X39150000Y-67900000D01*
X38850000Y-67900000D01*
X38850000Y-69121000D01*
X38831518Y-69171780D01*
X38784718Y-69198800D01*
X38771000Y-69200000D01*
X38129000Y-69200000D01*
X38078220Y-69181518D01*
X38051200Y-69134718D01*
X38050000Y-69121000D01*
X38050000Y-67900000D01*
X37960500Y-67900000D01*
X37909720Y-67881518D01*
X37882700Y-67834718D01*
X37881500Y-67821000D01*
X37881500Y-57007756D01*
X41677000Y-57007756D01*
X41677000Y-57592237D01*
X41677001Y-57592244D01*
X41687740Y-57665962D01*
X41743328Y-57779668D01*
X41743332Y-57779674D01*
X41832825Y-57869167D01*
X41832829Y-57869170D01*
X41946537Y-57924759D01*
X41946538Y-57924759D01*
X41946540Y-57924760D01*
X42020257Y-57935500D01*
X42529742Y-57935499D01*
X42603460Y-57924760D01*
X42717171Y-57869170D01*
X42806670Y-57779671D01*
X42862260Y-57665960D01*
X42870688Y-57608109D01*
X42877830Y-57594839D01*
X42880447Y-57580000D01*
X42890240Y-57571782D01*
X42896299Y-57560525D01*
X42910298Y-57554950D01*
X42921843Y-57545264D01*
X42944788Y-57541218D01*
X42946505Y-57540535D01*
X42948863Y-57540500D01*
X43092505Y-57540500D01*
X43143285Y-57558982D01*
X43164774Y-57587590D01*
X43194489Y-57654890D01*
X43194494Y-57654896D01*
X43272603Y-57733005D01*
X43272608Y-57733009D01*
X43272609Y-57733010D01*
X43373673Y-57777634D01*
X43398377Y-57780500D01*
X43756622Y-57780499D01*
X43781327Y-57777634D01*
X43882391Y-57733010D01*
X43960510Y-57654891D01*
X44005134Y-57553827D01*
X44008000Y-57529123D01*
X44007999Y-57070878D01*
X44005134Y-57046173D01*
X43960510Y-56945109D01*
X43960507Y-56945106D01*
X43960505Y-56945103D01*
X43882396Y-56866994D01*
X43882390Y-56866989D01*
X43825950Y-56842068D01*
X43781327Y-56822366D01*
X43756623Y-56819500D01*
X43756622Y-56819500D01*
X43398383Y-56819500D01*
X43398371Y-56819501D01*
X43373673Y-56822366D01*
X43272609Y-56866990D01*
X43272603Y-56866994D01*
X43194494Y-56945103D01*
X43194489Y-56945109D01*
X43164774Y-57012410D01*
X43161693Y-57015619D01*
X43160921Y-57020000D01*
X43143291Y-57034792D01*
X43127355Y-57051398D01*
X43122026Y-57052636D01*
X43119525Y-57054736D01*
X43092505Y-57059500D01*
X42948862Y-57059500D01*
X42898082Y-57041018D01*
X42871062Y-56994218D01*
X42870687Y-56991889D01*
X42862260Y-56934040D01*
X42806670Y-56820329D01*
X42806669Y-56820328D01*
X42806667Y-56820325D01*
X42717174Y-56730832D01*
X42717170Y-56730829D01*
X42603462Y-56675240D01*
X42566601Y-56669870D01*
X42529743Y-56664500D01*
X42529741Y-56664500D01*
X42020262Y-56664500D01*
X42020255Y-56664501D01*
X41946537Y-56675240D01*
X41832831Y-56730828D01*
X41832825Y-56730832D01*
X41743332Y-56820325D01*
X41743329Y-56820329D01*
X41687740Y-56934037D01*
X41677000Y-57007756D01*
X37881500Y-57007756D01*
X37881500Y-55407756D01*
X41689500Y-55407756D01*
X41689500Y-55992237D01*
X41689501Y-55992244D01*
X41700240Y-56065962D01*
X41755828Y-56179668D01*
X41755832Y-56179674D01*
X41845325Y-56269167D01*
X41845329Y-56269170D01*
X41959037Y-56324759D01*
X41959038Y-56324759D01*
X41959040Y-56324760D01*
X42032757Y-56335500D01*
X42542242Y-56335499D01*
X42615960Y-56324760D01*
X42729671Y-56269170D01*
X42819170Y-56179671D01*
X42874760Y-56065960D01*
X42883188Y-56008109D01*
X42890330Y-55994839D01*
X42892947Y-55980000D01*
X42902740Y-55971782D01*
X42908799Y-55960525D01*
X42922798Y-55954950D01*
X42934343Y-55945264D01*
X42957288Y-55941218D01*
X42959005Y-55940535D01*
X42961363Y-55940500D01*
X43115005Y-55940500D01*
X43165785Y-55958982D01*
X43187274Y-55987590D01*
X43216989Y-56054890D01*
X43216994Y-56054896D01*
X43295103Y-56133005D01*
X43295108Y-56133009D01*
X43295109Y-56133010D01*
X43396173Y-56177634D01*
X43420877Y-56180500D01*
X43779122Y-56180499D01*
X43803827Y-56177634D01*
X43904891Y-56133010D01*
X43983010Y-56054891D01*
X44027634Y-55953827D01*
X44030500Y-55929123D01*
X44030499Y-55470878D01*
X44027634Y-55446173D01*
X43983010Y-55345109D01*
X43983007Y-55345106D01*
X43983005Y-55345103D01*
X43904896Y-55266994D01*
X43904890Y-55266989D01*
X43834918Y-55236094D01*
X43803827Y-55222366D01*
X43779123Y-55219500D01*
X43779122Y-55219500D01*
X43420883Y-55219500D01*
X43420871Y-55219501D01*
X43396173Y-55222366D01*
X43295109Y-55266990D01*
X43295103Y-55266994D01*
X43216994Y-55345103D01*
X43216989Y-55345109D01*
X43196335Y-55391889D01*
X43189528Y-55407306D01*
X43187274Y-55412410D01*
X43184193Y-55415619D01*
X43183421Y-55420000D01*
X43165791Y-55434792D01*
X43149855Y-55451398D01*
X43144526Y-55452636D01*
X43142025Y-55454736D01*
X43115005Y-55459500D01*
X42961362Y-55459500D01*
X42910582Y-55441018D01*
X42883562Y-55394218D01*
X42883187Y-55391889D01*
X42874760Y-55334040D01*
X42874506Y-55333521D01*
X42819171Y-55220331D01*
X42819167Y-55220325D01*
X42729674Y-55130832D01*
X42729670Y-55130829D01*
X42615962Y-55075240D01*
X42569279Y-55068439D01*
X42542243Y-55064500D01*
X42542241Y-55064500D01*
X42032762Y-55064500D01*
X42032755Y-55064501D01*
X41959037Y-55075240D01*
X41845331Y-55130828D01*
X41845325Y-55130832D01*
X41755832Y-55220325D01*
X41755829Y-55220329D01*
X41700240Y-55334037D01*
X41689500Y-55407756D01*
X37881500Y-55407756D01*
X37881500Y-47952758D01*
X37899982Y-47901978D01*
X37946782Y-47874958D01*
X38000000Y-47884342D01*
X38016361Y-47896897D01*
X38105703Y-47986239D01*
X38105705Y-47986240D01*
X38105706Y-47986241D01*
X38221567Y-48045275D01*
X38317693Y-48060500D01*
X39082306Y-48060499D01*
X39082308Y-48060499D01*
X39161746Y-48047918D01*
X39214793Y-48058229D01*
X39229961Y-48070080D01*
X39513767Y-48353886D01*
X39602161Y-48390500D01*
X39602162Y-48390500D01*
X39954655Y-48390500D01*
X40005435Y-48408982D01*
X40032455Y-48455782D01*
X40023071Y-48509000D01*
X39981675Y-48543736D01*
X39967014Y-48547527D01*
X39921567Y-48554725D01*
X39865052Y-48583521D01*
X39805703Y-48613760D01*
X39713760Y-48705703D01*
X39708061Y-48716888D01*
X39654725Y-48821567D01*
X39654725Y-48821568D01*
X39654723Y-48821573D01*
X39639501Y-48917681D01*
X39639500Y-48917697D01*
X39639500Y-49882303D01*
X39644463Y-49913639D01*
X39654725Y-49978433D01*
X39713759Y-50094294D01*
X39766361Y-50146896D01*
X39789199Y-50195871D01*
X39789500Y-50202757D01*
X39789500Y-50394409D01*
X39771018Y-50445189D01*
X39742410Y-50466678D01*
X39717233Y-50477794D01*
X39637798Y-50557229D01*
X39637794Y-50557235D01*
X39592415Y-50660009D01*
X39589500Y-50685133D01*
X39589500Y-51114858D01*
X39589501Y-51114870D01*
X39591686Y-51133709D01*
X39592415Y-51139991D01*
X39637794Y-51242765D01*
X39637796Y-51242767D01*
X39637798Y-51242770D01*
X39717229Y-51322201D01*
X39717232Y-51322203D01*
X39717235Y-51322206D01*
X39820009Y-51367585D01*
X39845135Y-51370500D01*
X40214864Y-51370499D01*
X40239991Y-51367585D01*
X40342765Y-51322206D01*
X40422206Y-51242765D01*
X40467585Y-51139991D01*
X40470500Y-51114865D01*
X40470499Y-50685136D01*
X40467585Y-50660009D01*
X40422206Y-50557235D01*
X40422203Y-50557232D01*
X40422201Y-50557229D01*
X40342766Y-50477794D01*
X40317590Y-50466678D01*
X40314380Y-50463597D01*
X40310000Y-50462825D01*
X40295207Y-50445195D01*
X40278602Y-50429259D01*
X40277363Y-50423930D01*
X40275264Y-50421429D01*
X40270500Y-50394409D01*
X40270500Y-50339499D01*
X40288982Y-50288719D01*
X40335782Y-50261699D01*
X40349500Y-50260499D01*
X40782303Y-50260499D01*
X40782306Y-50260499D01*
X40878433Y-50245275D01*
X40994294Y-50186241D01*
X41086241Y-50094294D01*
X41145275Y-49978433D01*
X41160500Y-49882307D01*
X41160500Y-49719500D01*
X41178982Y-49668720D01*
X41225782Y-49641700D01*
X41239500Y-49640500D01*
X42357476Y-49640500D01*
X42408256Y-49658982D01*
X42435276Y-49705782D01*
X42431315Y-49741945D01*
X42432792Y-49742341D01*
X42404500Y-49847928D01*
X42404500Y-49952071D01*
X42431451Y-50052654D01*
X42431452Y-50052658D01*
X42483522Y-50142845D01*
X42557154Y-50216477D01*
X42557156Y-50216478D01*
X42557157Y-50216479D01*
X42587920Y-50234240D01*
X42646615Y-50268128D01*
X42647343Y-50268548D01*
X42747931Y-50295500D01*
X42747933Y-50295500D01*
X42852067Y-50295500D01*
X42852069Y-50295500D01*
X42952657Y-50268548D01*
X42952668Y-50268541D01*
X42953165Y-50268336D01*
X42953504Y-50268321D01*
X42957659Y-50267208D01*
X42957905Y-50268128D01*
X43007152Y-50265970D01*
X43050030Y-50298860D01*
X43055677Y-50309407D01*
X43068997Y-50339573D01*
X43068999Y-50339577D01*
X43069001Y-50339579D01*
X43069003Y-50339582D01*
X43150417Y-50420996D01*
X43150420Y-50420998D01*
X43150423Y-50421001D01*
X43165666Y-50427731D01*
X43204654Y-50465150D01*
X43210468Y-50518876D01*
X43180388Y-50563769D01*
X43165668Y-50572267D01*
X43150430Y-50578996D01*
X43150423Y-50578999D01*
X43150417Y-50579003D01*
X43069003Y-50660417D01*
X43068997Y-50660425D01*
X43022488Y-50765759D01*
X43022488Y-50765761D01*
X43019500Y-50791514D01*
X43019500Y-51178485D01*
X43022488Y-51204238D01*
X43022488Y-51204240D01*
X43068997Y-51309574D01*
X43069003Y-51309582D01*
X43150417Y-51390996D01*
X43150426Y-51391003D01*
X43182443Y-51405139D01*
X43212409Y-51418370D01*
X43215617Y-51421449D01*
X43220000Y-51422222D01*
X43234796Y-51439855D01*
X43251397Y-51455787D01*
X43252635Y-51461115D01*
X43254736Y-51463618D01*
X43259500Y-51490638D01*
X43259500Y-51494409D01*
X43241018Y-51545189D01*
X43212410Y-51566678D01*
X43187233Y-51577794D01*
X43107798Y-51657229D01*
X43107794Y-51657235D01*
X43062415Y-51760009D01*
X43059500Y-51785133D01*
X43059500Y-52214858D01*
X43059501Y-52214870D01*
X43061686Y-52233709D01*
X43062415Y-52239991D01*
X43107794Y-52342765D01*
X43107795Y-52342766D01*
X43107798Y-52342770D01*
X43187229Y-52422201D01*
X43187231Y-52422202D01*
X43187235Y-52422206D01*
X43212409Y-52433321D01*
X43215618Y-52436401D01*
X43220000Y-52437174D01*
X43234794Y-52454805D01*
X43251397Y-52470739D01*
X43252635Y-52476067D01*
X43254736Y-52478570D01*
X43259500Y-52505590D01*
X43259500Y-52552806D01*
X43241018Y-52603586D01*
X43236361Y-52608667D01*
X43187798Y-52657229D01*
X43187794Y-52657235D01*
X43142415Y-52760009D01*
X43139500Y-52785133D01*
X43139500Y-53214858D01*
X43139501Y-53214870D01*
X43141686Y-53233709D01*
X43142415Y-53239991D01*
X43187794Y-53342765D01*
X43187796Y-53342767D01*
X43187798Y-53342770D01*
X43267229Y-53422201D01*
X43267232Y-53422203D01*
X43267235Y-53422206D01*
X43370009Y-53467585D01*
X43395135Y-53470500D01*
X43764864Y-53470499D01*
X43789991Y-53467585D01*
X43892765Y-53422206D01*
X43972206Y-53342765D01*
X44017585Y-53239991D01*
X44020500Y-53214865D01*
X44020499Y-52785136D01*
X44017585Y-52760009D01*
X43972206Y-52657235D01*
X43972203Y-52657232D01*
X43972201Y-52657229D01*
X43892770Y-52577798D01*
X43892766Y-52577795D01*
X43892765Y-52577794D01*
X43871822Y-52568547D01*
X43834836Y-52552216D01*
X43795848Y-52514797D01*
X43790034Y-52461071D01*
X43810885Y-52424085D01*
X43812763Y-52422206D01*
X43812765Y-52422206D01*
X43892206Y-52342765D01*
X43917778Y-52284848D01*
X43955195Y-52245862D01*
X44008921Y-52240047D01*
X44053814Y-52270127D01*
X44066354Y-52296312D01*
X44081451Y-52352656D01*
X44081452Y-52352658D01*
X44133522Y-52442845D01*
X44207154Y-52516477D01*
X44279000Y-52557958D01*
X44297343Y-52568548D01*
X44397931Y-52595500D01*
X44397933Y-52595500D01*
X44502067Y-52595500D01*
X44502069Y-52595500D01*
X44602657Y-52568548D01*
X44620999Y-52557957D01*
X44674216Y-52548573D01*
X44721016Y-52575591D01*
X44739500Y-52626371D01*
X44739500Y-52648195D01*
X44753163Y-52716888D01*
X44753164Y-52716889D01*
X44805213Y-52794786D01*
X44883110Y-52846835D01*
X44883111Y-52846836D01*
X44951804Y-52860500D01*
X45180500Y-52860500D01*
X45231280Y-52878982D01*
X45258300Y-52925782D01*
X45259500Y-52939500D01*
X45259500Y-53398455D01*
X45241018Y-53449235D01*
X45236361Y-53454316D01*
X45183522Y-53507154D01*
X45131452Y-53597341D01*
X45131451Y-53597345D01*
X45104500Y-53697928D01*
X45104500Y-53802071D01*
X45131451Y-53902654D01*
X45131452Y-53902658D01*
X45183522Y-53992845D01*
X45257154Y-54066477D01*
X45257156Y-54066478D01*
X45257157Y-54066479D01*
X45259833Y-54068024D01*
X45347216Y-54118475D01*
X45347343Y-54118548D01*
X45447931Y-54145500D01*
X45447933Y-54145500D01*
X45552067Y-54145500D01*
X45552069Y-54145500D01*
X45652657Y-54118548D01*
X45652657Y-54118547D01*
X45652929Y-54118475D01*
X45706762Y-54123185D01*
X45744973Y-54161396D01*
X45749683Y-54215230D01*
X45729236Y-54250644D01*
X44783519Y-55196361D01*
X44734543Y-55219199D01*
X44727658Y-55219500D01*
X44440883Y-55219500D01*
X44440871Y-55219501D01*
X44416173Y-55222366D01*
X44315109Y-55266990D01*
X44315103Y-55266994D01*
X44236994Y-55345103D01*
X44236989Y-55345109D01*
X44192366Y-55446173D01*
X44189500Y-55470874D01*
X44189500Y-55929116D01*
X44189501Y-55929128D01*
X44191373Y-55945264D01*
X44192366Y-55953827D01*
X44236990Y-56054891D01*
X44236992Y-56054893D01*
X44236994Y-56054896D01*
X44315103Y-56133005D01*
X44315108Y-56133009D01*
X44315109Y-56133010D01*
X44416173Y-56177634D01*
X44440877Y-56180500D01*
X44799122Y-56180499D01*
X44823827Y-56177634D01*
X44924891Y-56133010D01*
X45003010Y-56054891D01*
X45047634Y-55953827D01*
X45050500Y-55929123D01*
X45050499Y-55642339D01*
X45068981Y-55591560D01*
X45073627Y-55586490D01*
X46241479Y-54418639D01*
X46290455Y-54395801D01*
X46297340Y-54395500D01*
X46352067Y-54395500D01*
X46352069Y-54395500D01*
X46452657Y-54368548D01*
X46542843Y-54316479D01*
X46569224Y-54290098D01*
X46604639Y-54254684D01*
X46653615Y-54231846D01*
X46705813Y-54245832D01*
X46736808Y-54290098D01*
X46739500Y-54310545D01*
X46739500Y-54648195D01*
X46753163Y-54716888D01*
X46753164Y-54716889D01*
X46796186Y-54781275D01*
X46809500Y-54825165D01*
X46809500Y-55402161D01*
X46809500Y-55497839D01*
X46846114Y-55586233D01*
X46848487Y-55591961D01*
X46854500Y-55622193D01*
X46854500Y-55702071D01*
X46881451Y-55802654D01*
X46881452Y-55802658D01*
X46933522Y-55892845D01*
X47007154Y-55966477D01*
X47007156Y-55966478D01*
X47007157Y-55966479D01*
X47097343Y-56018548D01*
X47197931Y-56045500D01*
X47197933Y-56045500D01*
X47302067Y-56045500D01*
X47302069Y-56045500D01*
X47402657Y-56018548D01*
X47492843Y-55966479D01*
X47566479Y-55892843D01*
X47618548Y-55802657D01*
X47645500Y-55702069D01*
X47645500Y-55597931D01*
X47618548Y-55497343D01*
X47566479Y-55407157D01*
X47566478Y-55407156D01*
X47566477Y-55407154D01*
X47492845Y-55333522D01*
X47402658Y-55281452D01*
X47402656Y-55281451D01*
X47349053Y-55267089D01*
X47304787Y-55236094D01*
X47290500Y-55190781D01*
X47290500Y-54924676D01*
X47308982Y-54873896D01*
X47355782Y-54846876D01*
X47384911Y-54847193D01*
X47451804Y-54860500D01*
X47648196Y-54860500D01*
X47716888Y-54846836D01*
X47716890Y-54846835D01*
X47756109Y-54820629D01*
X47808599Y-54807783D01*
X47843891Y-54820629D01*
X47883109Y-54846835D01*
X47883111Y-54846836D01*
X47951804Y-54860500D01*
X48148196Y-54860500D01*
X48216888Y-54846836D01*
X48216890Y-54846835D01*
X48256109Y-54820629D01*
X48308599Y-54807783D01*
X48343891Y-54820629D01*
X48383109Y-54846835D01*
X48383111Y-54846836D01*
X48451804Y-54860500D01*
X48648196Y-54860500D01*
X48716888Y-54846836D01*
X48716890Y-54846835D01*
X48756109Y-54820629D01*
X48808599Y-54807783D01*
X48843891Y-54820629D01*
X48883109Y-54846835D01*
X48883111Y-54846836D01*
X48951804Y-54860500D01*
X49148196Y-54860500D01*
X49215088Y-54847194D01*
X49215990Y-54847332D01*
X49216782Y-54846876D01*
X49242585Y-54851425D01*
X49268498Y-54855414D01*
X49269100Y-54856101D01*
X49270000Y-54856260D01*
X49286841Y-54876330D01*
X49304129Y-54896043D01*
X49304343Y-54897188D01*
X49304736Y-54897656D01*
X49309500Y-54924676D01*
X49309500Y-55017659D01*
X49291018Y-55068439D01*
X49286361Y-55073520D01*
X47323520Y-57036361D01*
X47274544Y-57059199D01*
X47267659Y-57059500D01*
X45082495Y-57059500D01*
X45031715Y-57041018D01*
X45010226Y-57012410D01*
X44995192Y-56978362D01*
X44980510Y-56945109D01*
X44980505Y-56945103D01*
X44902396Y-56866994D01*
X44902390Y-56866989D01*
X44845950Y-56842068D01*
X44801327Y-56822366D01*
X44776623Y-56819500D01*
X44776622Y-56819500D01*
X44418383Y-56819500D01*
X44418371Y-56819501D01*
X44393673Y-56822366D01*
X44292609Y-56866990D01*
X44292603Y-56866994D01*
X44214494Y-56945103D01*
X44214489Y-56945109D01*
X44169866Y-57046173D01*
X44167000Y-57070874D01*
X44167000Y-57529116D01*
X44167001Y-57529128D01*
X44168873Y-57545264D01*
X44169866Y-57553827D01*
X44214490Y-57654891D01*
X44214492Y-57654893D01*
X44214494Y-57654896D01*
X44292603Y-57733005D01*
X44292608Y-57733009D01*
X44292609Y-57733010D01*
X44393673Y-57777634D01*
X44418377Y-57780500D01*
X44776622Y-57780499D01*
X44801327Y-57777634D01*
X44902391Y-57733010D01*
X44980510Y-57654891D01*
X45010226Y-57587589D01*
X45047645Y-57548602D01*
X45082495Y-57540500D01*
X47447837Y-57540500D01*
X47447839Y-57540500D01*
X47536233Y-57503886D01*
X48533138Y-56506979D01*
X48582112Y-56484143D01*
X48634309Y-56498129D01*
X48665305Y-56542395D01*
X48681451Y-56602656D01*
X48681452Y-56602658D01*
X48733522Y-56692845D01*
X48807154Y-56766477D01*
X48807156Y-56766478D01*
X48807157Y-56766479D01*
X48897343Y-56818548D01*
X48997931Y-56845500D01*
X48997933Y-56845500D01*
X49102067Y-56845500D01*
X49102069Y-56845500D01*
X49202657Y-56818548D01*
X49292843Y-56766479D01*
X49301150Y-56758172D01*
X49345684Y-56713639D01*
X49394660Y-56690801D01*
X49401545Y-56690500D01*
X50997837Y-56690500D01*
X50997839Y-56690500D01*
X51086233Y-56653886D01*
X51971479Y-55768638D01*
X51985707Y-55762004D01*
X51997317Y-55751427D01*
X52016519Y-55747636D01*
X52020455Y-55745801D01*
X52024120Y-55745566D01*
X52025738Y-55745500D01*
X52102069Y-55745500D01*
X52115776Y-55741827D01*
X52124534Y-55741470D01*
X52142428Y-55747168D01*
X52161140Y-55748805D01*
X52167481Y-55755146D01*
X52176026Y-55757867D01*
X52186071Y-55773736D01*
X52199352Y-55787016D01*
X52200133Y-55795949D01*
X52204930Y-55803526D01*
X52202425Y-55822137D01*
X52204063Y-55840849D01*
X52198644Y-55850233D01*
X52197723Y-55857083D01*
X52191323Y-55862913D01*
X52183615Y-55876265D01*
X48846117Y-59213763D01*
X48846115Y-59213766D01*
X48814519Y-59290048D01*
X48814518Y-59290050D01*
X48809501Y-59302161D01*
X48809501Y-59786562D01*
X48791019Y-59837342D01*
X48762412Y-59858830D01*
X48721489Y-59876899D01*
X48721485Y-59876902D01*
X48639407Y-59958980D01*
X48639403Y-59958986D01*
X48592514Y-60065179D01*
X48589502Y-60091142D01*
X48589502Y-61208850D01*
X48589503Y-61208862D01*
X48591356Y-61224835D01*
X48592514Y-61234820D01*
X48639403Y-61341014D01*
X48639405Y-61341016D01*
X48639407Y-61341019D01*
X48721482Y-61423094D01*
X48721485Y-61423096D01*
X48721488Y-61423099D01*
X48827682Y-61469988D01*
X48853645Y-61473000D01*
X49246358Y-61472999D01*
X49272322Y-61469988D01*
X49378516Y-61423099D01*
X49413955Y-61387660D01*
X49465778Y-61335838D01*
X49466972Y-61337032D01*
X49503764Y-61310698D01*
X49557644Y-61314849D01*
X49583511Y-61336551D01*
X49584225Y-61335838D01*
X49671481Y-61423094D01*
X49671484Y-61423096D01*
X49671487Y-61423099D01*
X49777681Y-61469988D01*
X49803644Y-61473000D01*
X50196357Y-61472999D01*
X50222321Y-61469988D01*
X50328515Y-61423099D01*
X50363954Y-61387660D01*
X50415777Y-61335838D01*
X50416971Y-61337032D01*
X50453763Y-61310698D01*
X50507643Y-61314849D01*
X50533510Y-61336551D01*
X50534224Y-61335838D01*
X50621480Y-61423094D01*
X50621483Y-61423096D01*
X50621486Y-61423099D01*
X50727680Y-61469988D01*
X50753643Y-61473000D01*
X50816158Y-61472999D01*
X50866936Y-61491481D01*
X50893957Y-61538280D01*
X50884574Y-61591498D01*
X50872019Y-61607860D01*
X50709020Y-61770861D01*
X50660044Y-61793699D01*
X50653158Y-61794000D01*
X49737112Y-61794000D01*
X49641435Y-61794000D01*
X49553041Y-61830614D01*
X49304775Y-62078877D01*
X49255799Y-62101714D01*
X49248641Y-62101830D01*
X49248641Y-62102000D01*
X48853651Y-62102000D01*
X48853639Y-62102001D01*
X48827682Y-62105012D01*
X48721488Y-62151901D01*
X48721482Y-62151905D01*
X48639407Y-62233980D01*
X48639403Y-62233986D01*
X48592514Y-62340179D01*
X48589502Y-62366142D01*
X48589502Y-63483850D01*
X48589503Y-63483862D01*
X48592083Y-63506110D01*
X48592514Y-63509820D01*
X48639403Y-63616014D01*
X48639405Y-63616016D01*
X48639407Y-63616019D01*
X48721482Y-63698094D01*
X48721485Y-63698096D01*
X48721488Y-63698099D01*
X48827682Y-63744988D01*
X48853645Y-63748000D01*
X49246358Y-63747999D01*
X49272322Y-63744988D01*
X49378516Y-63698099D01*
X49460601Y-63616014D01*
X49507490Y-63509820D01*
X49510502Y-63483857D01*
X49510501Y-62586110D01*
X49528983Y-62535331D01*
X49533618Y-62530272D01*
X49765753Y-62298137D01*
X49814728Y-62275301D01*
X49821613Y-62275000D01*
X50411379Y-62275000D01*
X50462159Y-62293482D01*
X50489179Y-62340282D01*
X50489852Y-62363110D01*
X50489500Y-62366137D01*
X50489500Y-63483850D01*
X50489501Y-63483862D01*
X50492081Y-63506110D01*
X50492512Y-63509820D01*
X50539401Y-63616014D01*
X50539403Y-63616016D01*
X50539405Y-63616019D01*
X50621480Y-63698094D01*
X50621483Y-63698096D01*
X50621486Y-63698099D01*
X50727680Y-63744988D01*
X50753643Y-63748000D01*
X51146356Y-63747999D01*
X51172320Y-63744988D01*
X51278514Y-63698099D01*
X51360599Y-63616014D01*
X51407488Y-63509820D01*
X51410500Y-63483857D01*
X51410499Y-62837339D01*
X51428981Y-62786560D01*
X51433627Y-62781490D01*
X52901887Y-61313231D01*
X52938501Y-61224837D01*
X52938501Y-61129160D01*
X52938501Y-60857318D01*
X52956983Y-60806538D01*
X53003783Y-60779518D01*
X53026607Y-60778845D01*
X53037077Y-60780059D01*
X53040876Y-60780500D01*
X53399121Y-60780499D01*
X53423826Y-60777634D01*
X53524890Y-60733010D01*
X53603009Y-60654891D01*
X53632725Y-60587589D01*
X53670144Y-60548602D01*
X53704994Y-60540500D01*
X54047837Y-60540500D01*
X54047839Y-60540500D01*
X54136233Y-60503886D01*
X54285239Y-60354879D01*
X54289315Y-60352978D01*
X54291650Y-60349131D01*
X54313399Y-60341748D01*
X54334212Y-60332043D01*
X54338558Y-60333207D01*
X54342821Y-60331761D01*
X54364225Y-60340084D01*
X54386410Y-60346029D01*
X54388991Y-60349715D01*
X54393186Y-60351347D01*
X54404233Y-60371483D01*
X54417406Y-60390295D01*
X54417586Y-60395822D01*
X54419179Y-60398724D01*
X54418580Y-60426154D01*
X54417157Y-60433308D01*
X54395536Y-60473757D01*
X53096116Y-61773178D01*
X53096113Y-61773182D01*
X53075815Y-61822188D01*
X53060434Y-61859322D01*
X53059500Y-61861576D01*
X53059500Y-61861577D01*
X53059500Y-62295007D01*
X53041018Y-62345787D01*
X53012410Y-62367276D01*
X52945109Y-62396991D01*
X52945103Y-62396996D01*
X52866994Y-62475105D01*
X52866989Y-62475111D01*
X52822366Y-62576175D01*
X52819500Y-62600876D01*
X52819500Y-62959118D01*
X52819501Y-62959130D01*
X52821956Y-62980299D01*
X52822366Y-62983829D01*
X52866990Y-63084893D01*
X52866992Y-63084895D01*
X52866994Y-63084898D01*
X52945103Y-63163007D01*
X52945108Y-63163011D01*
X52945109Y-63163012D01*
X53046173Y-63207636D01*
X53070877Y-63210502D01*
X53529122Y-63210501D01*
X53553827Y-63207636D01*
X53654891Y-63163012D01*
X53733010Y-63084893D01*
X53777634Y-62983829D01*
X53780500Y-62959125D01*
X53780499Y-62600880D01*
X53777634Y-62576175D01*
X53733010Y-62475111D01*
X53733007Y-62475108D01*
X53733005Y-62475105D01*
X53654896Y-62396996D01*
X53654890Y-62396991D01*
X53587590Y-62367276D01*
X53548602Y-62329857D01*
X53540500Y-62295007D01*
X53540500Y-62041754D01*
X53558982Y-61990974D01*
X53563639Y-61985893D01*
X53778671Y-61770861D01*
X54105791Y-61443740D01*
X54154766Y-61420903D01*
X54206963Y-61434889D01*
X54237959Y-61479155D01*
X54239519Y-61506468D01*
X54240247Y-61506519D01*
X54240032Y-61509606D01*
X54240032Y-61509612D01*
X54240032Y-61509613D01*
X54242408Y-61770861D01*
X54243634Y-61905743D01*
X54243634Y-61905745D01*
X54245978Y-61934883D01*
X54250190Y-61962486D01*
X54250460Y-61964209D01*
X54284678Y-62049017D01*
X54319627Y-62099245D01*
X54321937Y-62102000D01*
X54343296Y-62127478D01*
X54420834Y-62175978D01*
X54478627Y-62196068D01*
X54541909Y-62207418D01*
X55400278Y-62224936D01*
X55402335Y-62224968D01*
X55404355Y-62224989D01*
X55406491Y-62225000D01*
X55406495Y-62225000D01*
X55563458Y-62225000D01*
X55614238Y-62243482D01*
X55639766Y-62283553D01*
X55679991Y-62433677D01*
X55679992Y-62433679D01*
X55756286Y-62565823D01*
X55864176Y-62673713D01*
X55864178Y-62673714D01*
X55864179Y-62673715D01*
X55996322Y-62750008D01*
X56143707Y-62789500D01*
X56143709Y-62789500D01*
X56296291Y-62789500D01*
X56296293Y-62789500D01*
X56443678Y-62750008D01*
X56575821Y-62673715D01*
X56683715Y-62565821D01*
X56760008Y-62433678D01*
X56799500Y-62286293D01*
X56799500Y-62234073D01*
X56817982Y-62183293D01*
X56862378Y-62157660D01*
X56862260Y-62157192D01*
X56863910Y-62156776D01*
X56864782Y-62156273D01*
X56867160Y-62155957D01*
X56868280Y-62155674D01*
X56868287Y-62155674D01*
X56952383Y-62119730D01*
X57001883Y-62083766D01*
X57029628Y-62059525D01*
X57076536Y-61981015D01*
X57095443Y-61922824D01*
X57105500Y-61859322D01*
X57105500Y-57183994D01*
X57123982Y-57133214D01*
X57128628Y-57128144D01*
X58190284Y-56066487D01*
X58190294Y-56066480D01*
X58256460Y-56000314D01*
X58256464Y-56000310D01*
X58298659Y-55927227D01*
X58320500Y-55845713D01*
X58320500Y-54599500D01*
X58338982Y-54548720D01*
X58385782Y-54521700D01*
X58399500Y-54520500D01*
X60254692Y-54520500D01*
X60254693Y-54520500D01*
X60254694Y-54520500D01*
X60336208Y-54498659D01*
X60409291Y-54456464D01*
X60468963Y-54396792D01*
X60475461Y-54390294D01*
X60475468Y-54390284D01*
X60959616Y-53906137D01*
X61008592Y-53883299D01*
X61015477Y-53882998D01*
X61184858Y-53882998D01*
X61184864Y-53882998D01*
X61209991Y-53880084D01*
X61312765Y-53834705D01*
X61392206Y-53755264D01*
X61437585Y-53652490D01*
X61440500Y-53627364D01*
X61440499Y-53197635D01*
X61437585Y-53172508D01*
X61392206Y-53069734D01*
X61392203Y-53069731D01*
X61392201Y-53069728D01*
X61312766Y-52990293D01*
X61287590Y-52979177D01*
X61284380Y-52976096D01*
X61280000Y-52975324D01*
X61265207Y-52957694D01*
X61248602Y-52941758D01*
X61247363Y-52936429D01*
X61245264Y-52933928D01*
X61240500Y-52906908D01*
X61240500Y-52790779D01*
X61258982Y-52739999D01*
X61274856Y-52725603D01*
X61278509Y-52723099D01*
X61278513Y-52723098D01*
X61360598Y-52641013D01*
X61407487Y-52534819D01*
X61410499Y-52508856D01*
X61410498Y-51391143D01*
X61407487Y-51365179D01*
X61360598Y-51258985D01*
X61360595Y-51258982D01*
X61360593Y-51258979D01*
X61278518Y-51176904D01*
X61278515Y-51176902D01*
X61278513Y-51176900D01*
X61172319Y-51130011D01*
X61146356Y-51126999D01*
X61146354Y-51126999D01*
X60753648Y-51126999D01*
X60753636Y-51127000D01*
X60727679Y-51130011D01*
X60621485Y-51176900D01*
X60621479Y-51176904D01*
X60539404Y-51258979D01*
X60539400Y-51258985D01*
X60492511Y-51365178D01*
X60489499Y-51391141D01*
X60489499Y-52508849D01*
X60489500Y-52508861D01*
X60490384Y-52516479D01*
X60492511Y-52534819D01*
X60539400Y-52641013D01*
X60539402Y-52641015D01*
X60539404Y-52641018D01*
X60621479Y-52723093D01*
X60621482Y-52723095D01*
X60621485Y-52723098D01*
X60712410Y-52763245D01*
X60715618Y-52766324D01*
X60720000Y-52767097D01*
X60734796Y-52784730D01*
X60751397Y-52800663D01*
X60752635Y-52805989D01*
X60754736Y-52808493D01*
X60759500Y-52835513D01*
X60759500Y-52906908D01*
X60741018Y-52957688D01*
X60712410Y-52979177D01*
X60687233Y-52990293D01*
X60607798Y-53069728D01*
X60607794Y-53069734D01*
X60562415Y-53172508D01*
X60559500Y-53197632D01*
X60559500Y-53367021D01*
X60541018Y-53417801D01*
X60536372Y-53422870D01*
X60102882Y-53856361D01*
X60053907Y-53879199D01*
X60047022Y-53879500D01*
X58399500Y-53879500D01*
X58348720Y-53861018D01*
X58321700Y-53814218D01*
X58320500Y-53800500D01*
X58320500Y-53165477D01*
X58338982Y-53114697D01*
X58343627Y-53109627D01*
X58689236Y-52764018D01*
X58738211Y-52741181D01*
X58777006Y-52747612D01*
X58827678Y-52769986D01*
X58827679Y-52769986D01*
X58827681Y-52769987D01*
X58853644Y-52772999D01*
X59246357Y-52772998D01*
X59272321Y-52769987D01*
X59378515Y-52723098D01*
X59460600Y-52641013D01*
X59507489Y-52534819D01*
X59510501Y-52508856D01*
X59510500Y-51391143D01*
X59507489Y-51365179D01*
X59460600Y-51258985D01*
X59460597Y-51258982D01*
X59460595Y-51258979D01*
X59426977Y-51225361D01*
X59404139Y-51176385D01*
X59418125Y-51124187D01*
X59462391Y-51093192D01*
X59482838Y-51090500D01*
X59748455Y-51090500D01*
X59799235Y-51108982D01*
X59804316Y-51113639D01*
X59857154Y-51166477D01*
X59857156Y-51166478D01*
X59857157Y-51166479D01*
X59877952Y-51178485D01*
X59944469Y-51216889D01*
X59947343Y-51218548D01*
X60047931Y-51245500D01*
X60047933Y-51245500D01*
X60152067Y-51245500D01*
X60152069Y-51245500D01*
X60252657Y-51218548D01*
X60342843Y-51166479D01*
X60416479Y-51092843D01*
X60468548Y-51002657D01*
X60495500Y-50902069D01*
X60495500Y-50797931D01*
X60468548Y-50697343D01*
X60462009Y-50686018D01*
X60440172Y-50648195D01*
X60416479Y-50607157D01*
X60416478Y-50607156D01*
X60416477Y-50607154D01*
X60342845Y-50533522D01*
X60252658Y-50481452D01*
X60252654Y-50481451D01*
X60152071Y-50454500D01*
X60152069Y-50454500D01*
X60145545Y-50454500D01*
X60094765Y-50436018D01*
X60067745Y-50389218D01*
X60077129Y-50336000D01*
X60089684Y-50319639D01*
X60116477Y-50292845D01*
X60116479Y-50292843D01*
X60168548Y-50202657D01*
X60195500Y-50102069D01*
X60195500Y-49997931D01*
X60168548Y-49897343D01*
X60165431Y-49891945D01*
X60121861Y-49816479D01*
X60116479Y-49807157D01*
X60116478Y-49807156D01*
X60116477Y-49807154D01*
X60065183Y-49755860D01*
X60042345Y-49706884D01*
X60056331Y-49654686D01*
X60065177Y-49644144D01*
X60066479Y-49642843D01*
X60118548Y-49552657D01*
X60145500Y-49452069D01*
X60145500Y-49347931D01*
X60118548Y-49247343D01*
X60089681Y-49197343D01*
X60066478Y-49157155D01*
X60025464Y-49116141D01*
X60489499Y-49116141D01*
X60489499Y-50233849D01*
X60489500Y-50233861D01*
X60490824Y-50245274D01*
X60492511Y-50259819D01*
X60539400Y-50366013D01*
X60539402Y-50366015D01*
X60539404Y-50366018D01*
X60621479Y-50448093D01*
X60621482Y-50448095D01*
X60621485Y-50448098D01*
X60727679Y-50494987D01*
X60753642Y-50497999D01*
X61146355Y-50497998D01*
X61172319Y-50494987D01*
X61278513Y-50448098D01*
X61360598Y-50366013D01*
X61407487Y-50259819D01*
X61410499Y-50233856D01*
X61410498Y-49116143D01*
X61407487Y-49090179D01*
X61360598Y-48983985D01*
X61360595Y-48983982D01*
X61360593Y-48983979D01*
X61278518Y-48901904D01*
X61278515Y-48901902D01*
X61278513Y-48901900D01*
X61172319Y-48855011D01*
X61146356Y-48851999D01*
X61146354Y-48851999D01*
X60753648Y-48851999D01*
X60753636Y-48852000D01*
X60727679Y-48855011D01*
X60621485Y-48901900D01*
X60621479Y-48901904D01*
X60539404Y-48983979D01*
X60539400Y-48983985D01*
X60492511Y-49090178D01*
X60489499Y-49116141D01*
X60025464Y-49116141D01*
X59992845Y-49083522D01*
X59902658Y-49031452D01*
X59902654Y-49031451D01*
X59802071Y-49004500D01*
X59802069Y-49004500D01*
X59697931Y-49004500D01*
X59697928Y-49004500D01*
X59597345Y-49031451D01*
X59597343Y-49031451D01*
X59581297Y-49040716D01*
X59528079Y-49050099D01*
X59481280Y-49023078D01*
X59469529Y-49004208D01*
X59465684Y-48995500D01*
X59460600Y-48983985D01*
X59460596Y-48983981D01*
X59460595Y-48983979D01*
X59378520Y-48901904D01*
X59378517Y-48901902D01*
X59378515Y-48901900D01*
X59378512Y-48901898D01*
X59378511Y-48901898D01*
X59337590Y-48883829D01*
X59334381Y-48880749D01*
X59330001Y-48879977D01*
X59315202Y-48862341D01*
X59298603Y-48846410D01*
X59297364Y-48841083D01*
X59295265Y-48838581D01*
X59290501Y-48811561D01*
X59290501Y-48740165D01*
X59308983Y-48689385D01*
X59337588Y-48667898D01*
X59412765Y-48634705D01*
X59492206Y-48555264D01*
X59537585Y-48452490D01*
X59540500Y-48427364D01*
X59540499Y-47997635D01*
X59537585Y-47972508D01*
X59492206Y-47869734D01*
X59492203Y-47869731D01*
X59492201Y-47869728D01*
X59445191Y-47822718D01*
X59422353Y-47773742D01*
X59432636Y-47727357D01*
X59449627Y-47697928D01*
X59468548Y-47665156D01*
X59495500Y-47564568D01*
X59495500Y-47460430D01*
X59468548Y-47359842D01*
X59468051Y-47358982D01*
X59425935Y-47286034D01*
X59416479Y-47269656D01*
X59416478Y-47269655D01*
X59416477Y-47269653D01*
X59342846Y-47196022D01*
X59339721Y-47194218D01*
X59289267Y-47165088D01*
X59259473Y-47147886D01*
X59224738Y-47106489D01*
X59224739Y-47052450D01*
X59243111Y-47023611D01*
X60173886Y-46092837D01*
X60210500Y-46004443D01*
X60210500Y-45916692D01*
X60228982Y-45865912D01*
X60249997Y-45848278D01*
X60310287Y-45813470D01*
X60413470Y-45710287D01*
X60486432Y-45583913D01*
X60524200Y-45442962D01*
X60524200Y-45297038D01*
X60520758Y-45284192D01*
X60525467Y-45230361D01*
X60563678Y-45192149D01*
X60617512Y-45187439D01*
X60654064Y-45211008D01*
X60654847Y-45210226D01*
X60762024Y-45317403D01*
X60762030Y-45317408D01*
X60884836Y-45399464D01*
X60909065Y-45409500D01*
X61021283Y-45455983D01*
X61021286Y-45455984D01*
X61021291Y-45455986D01*
X61166151Y-45484800D01*
X61313849Y-45484800D01*
X61458709Y-45455986D01*
X61595164Y-45399464D01*
X61717970Y-45317408D01*
X61822408Y-45212970D01*
X61904464Y-45090164D01*
X61960986Y-44953709D01*
X61962018Y-44948522D01*
X61990051Y-44902322D01*
X62041222Y-44884951D01*
X62091587Y-44904535D01*
G37*
%TD.AperFunction*%
%TA.AperFunction,Conductor*%
G36*
X57359000Y-50538819D02*
G01*
X57375361Y-50551374D01*
X57607509Y-50783521D01*
X57810220Y-50986232D01*
X57877874Y-51053886D01*
X57966268Y-51090500D01*
X58617164Y-51090500D01*
X58667944Y-51108982D01*
X58694964Y-51155782D01*
X58685580Y-51209000D01*
X58673025Y-51225361D01*
X58639406Y-51258979D01*
X58639402Y-51258985D01*
X58592513Y-51365178D01*
X58589501Y-51391141D01*
X58589501Y-51924521D01*
X58571019Y-51975301D01*
X58566362Y-51980382D01*
X57803210Y-52743534D01*
X57803208Y-52743536D01*
X57786735Y-52760009D01*
X57743537Y-52803206D01*
X57743536Y-52803208D01*
X57717067Y-52849054D01*
X57701340Y-52876293D01*
X57679500Y-52957802D01*
X57679500Y-55638040D01*
X57661018Y-55688820D01*
X57656361Y-55693901D01*
X56934361Y-56415901D01*
X56885385Y-56438739D01*
X56833187Y-56424753D01*
X56802192Y-56380487D01*
X56799500Y-56360040D01*
X56799500Y-56353709D01*
X56799500Y-56353707D01*
X56760008Y-56206322D01*
X56748483Y-56186361D01*
X56687914Y-56081452D01*
X56683715Y-56074179D01*
X56683714Y-56074178D01*
X56683713Y-56074176D01*
X56575823Y-55966286D01*
X56443679Y-55889992D01*
X56443677Y-55889991D01*
X56296293Y-55850500D01*
X56143707Y-55850500D01*
X56143706Y-55850500D01*
X55996322Y-55889991D01*
X55996320Y-55889992D01*
X55864176Y-55966286D01*
X55756286Y-56074176D01*
X55679992Y-56206320D01*
X55679991Y-56206322D01*
X55639766Y-56356447D01*
X55608770Y-56400713D01*
X55563458Y-56415000D01*
X54707358Y-56415000D01*
X54695946Y-56414171D01*
X54692206Y-56413625D01*
X54668923Y-56406428D01*
X54634217Y-56389462D01*
X54620167Y-56383233D01*
X54606439Y-56377751D01*
X54606436Y-56377750D01*
X54528355Y-56363102D01*
X54467175Y-56363658D01*
X54430506Y-56367296D01*
X54430500Y-56367297D01*
X54346749Y-56403999D01*
X54346744Y-56404002D01*
X54297570Y-56440416D01*
X54270050Y-56464905D01*
X54270049Y-56464907D01*
X54223859Y-56543832D01*
X54223856Y-56543840D01*
X54205478Y-56602200D01*
X54205477Y-56602203D01*
X54195998Y-56665788D01*
X54196125Y-56679784D01*
X54178103Y-56730729D01*
X54131551Y-56758172D01*
X54117128Y-56759500D01*
X54102162Y-56759500D01*
X54013768Y-56796114D01*
X53831519Y-56978362D01*
X53782543Y-57001199D01*
X53775658Y-57001500D01*
X53346299Y-57001500D01*
X53336676Y-57005486D01*
X53306443Y-57011500D01*
X53058738Y-57011500D01*
X52963061Y-57011500D01*
X52906829Y-57034792D01*
X52874666Y-57048114D01*
X52598114Y-57324667D01*
X52598113Y-57324668D01*
X52571786Y-57388231D01*
X52571785Y-57388233D01*
X52561500Y-57413061D01*
X52561500Y-58186939D01*
X52562296Y-58190941D01*
X52562617Y-58191400D01*
X52562546Y-58192202D01*
X52563018Y-58194571D01*
X52562327Y-58194708D01*
X52560686Y-58213474D01*
X52561653Y-58235602D01*
X52558261Y-58241191D01*
X52557908Y-58245234D01*
X52542172Y-58267709D01*
X52523520Y-58286360D01*
X52474546Y-58309199D01*
X52467659Y-58309500D01*
X51801545Y-58309500D01*
X51750765Y-58291018D01*
X51745684Y-58286361D01*
X51692845Y-58233522D01*
X51602658Y-58181452D01*
X51602654Y-58181451D01*
X51502071Y-58154500D01*
X51502069Y-58154500D01*
X51397931Y-58154500D01*
X51397928Y-58154500D01*
X51292341Y-58182792D01*
X51291810Y-58180811D01*
X51290880Y-58180851D01*
X51283217Y-58185276D01*
X51264608Y-58181994D01*
X51245731Y-58182816D01*
X51238712Y-58177428D01*
X51229999Y-58175892D01*
X51217853Y-58161417D01*
X51202864Y-58149912D01*
X51200026Y-58140172D01*
X51195263Y-58134496D01*
X51190499Y-58107476D01*
X51190499Y-58096447D01*
X51208981Y-58045667D01*
X51213638Y-58040586D01*
X55126447Y-54127777D01*
X55175423Y-54104939D01*
X55182308Y-54104638D01*
X56033699Y-54104638D01*
X56033701Y-54104638D01*
X56122095Y-54068024D01*
X57203886Y-52986232D01*
X57240500Y-52897838D01*
X57240500Y-52802161D01*
X57240500Y-50607235D01*
X57258982Y-50556455D01*
X57305782Y-50529435D01*
X57359000Y-50538819D01*
G37*
%TD.AperFunction*%
%TA.AperFunction,Conductor*%
G36*
X56316972Y-51319103D02*
G01*
X56353484Y-51358941D01*
X56359500Y-51389180D01*
X56359500Y-52567659D01*
X56341018Y-52618439D01*
X56336361Y-52623520D01*
X55823520Y-53136361D01*
X55774544Y-53159199D01*
X55767659Y-53159500D01*
X55047838Y-53159500D01*
X54952161Y-53159500D01*
X54920757Y-53172508D01*
X54863765Y-53196114D01*
X54863763Y-53196116D01*
X52576265Y-55483615D01*
X52527289Y-55506453D01*
X52475091Y-55492467D01*
X52444096Y-55448201D01*
X52444096Y-55407308D01*
X52445500Y-55402069D01*
X52445500Y-55297931D01*
X52418548Y-55197343D01*
X52414759Y-55190781D01*
X52380148Y-55130832D01*
X52366479Y-55107157D01*
X52366478Y-55107156D01*
X52366477Y-55107154D01*
X52292845Y-55033522D01*
X52202658Y-54981452D01*
X52202654Y-54981451D01*
X52102071Y-54954500D01*
X52102069Y-54954500D01*
X51997931Y-54954500D01*
X51997928Y-54954500D01*
X51897345Y-54981451D01*
X51897341Y-54981452D01*
X51807154Y-55033522D01*
X51733522Y-55107154D01*
X51681452Y-55197341D01*
X51681451Y-55197345D01*
X51654500Y-55297928D01*
X51654500Y-55372658D01*
X51636018Y-55423438D01*
X51631361Y-55428519D01*
X50873520Y-56186361D01*
X50824544Y-56209199D01*
X50817659Y-56209500D01*
X49401545Y-56209500D01*
X49350765Y-56191018D01*
X49345684Y-56186361D01*
X49292845Y-56133522D01*
X49202658Y-56081452D01*
X49202656Y-56081451D01*
X49142395Y-56065305D01*
X49098129Y-56034310D01*
X49084143Y-55982112D01*
X49106978Y-55933140D01*
X49753886Y-55286233D01*
X49790500Y-55197839D01*
X49790500Y-55102162D01*
X49790500Y-54924676D01*
X49808982Y-54873896D01*
X49855782Y-54846876D01*
X49884911Y-54847193D01*
X49951804Y-54860500D01*
X50139455Y-54860500D01*
X50190235Y-54878982D01*
X50217255Y-54925782D01*
X50207871Y-54979000D01*
X50195316Y-54995361D01*
X50133522Y-55057154D01*
X50081452Y-55147341D01*
X50081451Y-55147345D01*
X50054500Y-55247928D01*
X50054500Y-55352071D01*
X50081451Y-55452654D01*
X50081452Y-55452658D01*
X50133522Y-55542845D01*
X50207154Y-55616477D01*
X50207156Y-55616478D01*
X50207157Y-55616479D01*
X50297343Y-55668548D01*
X50397931Y-55695500D01*
X50397933Y-55695500D01*
X50502067Y-55695500D01*
X50502069Y-55695500D01*
X50602657Y-55668548D01*
X50692843Y-55616479D01*
X50766479Y-55542843D01*
X50818548Y-55452657D01*
X50845500Y-55352069D01*
X50845500Y-55247931D01*
X50818548Y-55147343D01*
X50801082Y-55117091D01*
X50798900Y-55108947D01*
X50795264Y-55104614D01*
X50790500Y-55077594D01*
X50790500Y-54924676D01*
X50808982Y-54873896D01*
X50855782Y-54846876D01*
X50884911Y-54847193D01*
X50951804Y-54860500D01*
X51148196Y-54860500D01*
X51216888Y-54846836D01*
X51216890Y-54846835D01*
X51256109Y-54820629D01*
X51308599Y-54807783D01*
X51343891Y-54820629D01*
X51383109Y-54846835D01*
X51383111Y-54846836D01*
X51451804Y-54860500D01*
X51648196Y-54860500D01*
X51716888Y-54846836D01*
X51716889Y-54846835D01*
X51794786Y-54794786D01*
X51846835Y-54716889D01*
X51846836Y-54716888D01*
X51860500Y-54648195D01*
X51860500Y-53276804D01*
X51846836Y-53208111D01*
X51846835Y-53208110D01*
X51803814Y-53143724D01*
X51790500Y-53099834D01*
X51790500Y-52851545D01*
X51808982Y-52800765D01*
X51813639Y-52795684D01*
X51866477Y-52742845D01*
X51866479Y-52742843D01*
X51918548Y-52652657D01*
X51945500Y-52552069D01*
X51945500Y-52447931D01*
X51918548Y-52347343D01*
X51917838Y-52346114D01*
X51894225Y-52305214D01*
X51866479Y-52257157D01*
X51866478Y-52257156D01*
X51866477Y-52257154D01*
X51792845Y-52183522D01*
X51702658Y-52131452D01*
X51702654Y-52131451D01*
X51602071Y-52104500D01*
X51602069Y-52104500D01*
X51497931Y-52104500D01*
X51497928Y-52104500D01*
X51421875Y-52124878D01*
X51368041Y-52120168D01*
X51329830Y-52081956D01*
X51325121Y-52028125D01*
X51345500Y-51952069D01*
X51345500Y-51847931D01*
X51318548Y-51747343D01*
X51310568Y-51733522D01*
X51270322Y-51663814D01*
X51266479Y-51657157D01*
X51266478Y-51657156D01*
X51266477Y-51657154D01*
X51199684Y-51590361D01*
X51176846Y-51541385D01*
X51190832Y-51489187D01*
X51235098Y-51458192D01*
X51255545Y-51455500D01*
X51816350Y-51455500D01*
X51867130Y-51473982D01*
X51879848Y-51489136D01*
X51880370Y-51488737D01*
X51883522Y-51492845D01*
X51957154Y-51566477D01*
X52043683Y-51616435D01*
X52078419Y-51657832D01*
X52078419Y-51711871D01*
X52072599Y-51724351D01*
X52019912Y-51815606D01*
X52019911Y-51815610D01*
X51992960Y-51916193D01*
X51992960Y-52020336D01*
X52019911Y-52120919D01*
X52019912Y-52120923D01*
X52071982Y-52211110D01*
X52145614Y-52284742D01*
X52145616Y-52284743D01*
X52145617Y-52284744D01*
X52235803Y-52336813D01*
X52275110Y-52347345D01*
X52315046Y-52358046D01*
X52359313Y-52389041D01*
X52373299Y-52441239D01*
X52350462Y-52490215D01*
X52283521Y-52557156D01*
X52231452Y-52647341D01*
X52231451Y-52647345D01*
X52204500Y-52747928D01*
X52204500Y-52852071D01*
X52231451Y-52952654D01*
X52231452Y-52952658D01*
X52250837Y-52986233D01*
X52283521Y-53042843D01*
X52285672Y-53044994D01*
X52286450Y-53046661D01*
X52286674Y-53046953D01*
X52286609Y-53047002D01*
X52308514Y-53093967D01*
X52295501Y-53144749D01*
X52253164Y-53208110D01*
X52253163Y-53208111D01*
X52239500Y-53276804D01*
X52239500Y-54648195D01*
X52253163Y-54716888D01*
X52253164Y-54716889D01*
X52305213Y-54794786D01*
X52383110Y-54846835D01*
X52383111Y-54846836D01*
X52451804Y-54860500D01*
X52648196Y-54860500D01*
X52716888Y-54846836D01*
X52716889Y-54846835D01*
X52794786Y-54794786D01*
X52846835Y-54716889D01*
X52846836Y-54716888D01*
X52860500Y-54648195D01*
X52860500Y-54398233D01*
X52878982Y-54347453D01*
X52925782Y-54320433D01*
X52959946Y-54321925D01*
X53047931Y-54345500D01*
X53047933Y-54345500D01*
X53152067Y-54345500D01*
X53152069Y-54345500D01*
X53252657Y-54318548D01*
X53342843Y-54266479D01*
X53416479Y-54192843D01*
X53468548Y-54102657D01*
X53495500Y-54002069D01*
X53495500Y-53897931D01*
X53468548Y-53797343D01*
X53416479Y-53707157D01*
X53416478Y-53707156D01*
X53416477Y-53707154D01*
X53342845Y-53633522D01*
X53252658Y-53581452D01*
X53252654Y-53581451D01*
X53152071Y-53554500D01*
X53152069Y-53554500D01*
X53047931Y-53554500D01*
X53047928Y-53554500D01*
X52959946Y-53578074D01*
X52906112Y-53573364D01*
X52867901Y-53535152D01*
X52860500Y-53501766D01*
X52860500Y-53276804D01*
X52846836Y-53208112D01*
X52844554Y-53204697D01*
X52831708Y-53152207D01*
X52854377Y-53104944D01*
X52916479Y-53042843D01*
X52968548Y-52952657D01*
X52995342Y-52852658D01*
X52996308Y-52849054D01*
X53002365Y-52840402D01*
X53004200Y-52830000D01*
X53017411Y-52818914D01*
X53027303Y-52804787D01*
X53038426Y-52801279D01*
X53045596Y-52795264D01*
X53072616Y-52790500D01*
X53099835Y-52790500D01*
X53143725Y-52803814D01*
X53208110Y-52846835D01*
X53208111Y-52846836D01*
X53276804Y-52860500D01*
X54648196Y-52860500D01*
X54716888Y-52846836D01*
X54716889Y-52846835D01*
X54742085Y-52830000D01*
X54794786Y-52794786D01*
X54846836Y-52716888D01*
X54860500Y-52648196D01*
X54860500Y-52451804D01*
X54854986Y-52424085D01*
X54846836Y-52383111D01*
X54846835Y-52383109D01*
X54822115Y-52346115D01*
X54820628Y-52343890D01*
X54819349Y-52338661D01*
X54815460Y-52334938D01*
X54813049Y-52312920D01*
X54807783Y-52291401D01*
X54810020Y-52285253D01*
X54809579Y-52281220D01*
X54820629Y-52256109D01*
X54826058Y-52247984D01*
X54869638Y-52216032D01*
X54923561Y-52219568D01*
X54960158Y-52252377D01*
X54983522Y-52292845D01*
X55057154Y-52366477D01*
X55057156Y-52366478D01*
X55057157Y-52366479D01*
X55147343Y-52418548D01*
X55247931Y-52445500D01*
X55247933Y-52445500D01*
X55352067Y-52445500D01*
X55352069Y-52445500D01*
X55452657Y-52418548D01*
X55542843Y-52366479D01*
X55616479Y-52292843D01*
X55668548Y-52202657D01*
X55695500Y-52102069D01*
X55695500Y-51997931D01*
X55668548Y-51897343D01*
X55660568Y-51883522D01*
X55640018Y-51847928D01*
X55616479Y-51807157D01*
X55616478Y-51807156D01*
X55616477Y-51807154D01*
X55542845Y-51733522D01*
X55452658Y-51681452D01*
X55452654Y-51681451D01*
X55375862Y-51660875D01*
X55331595Y-51629880D01*
X55317609Y-51577682D01*
X55340446Y-51528706D01*
X55356805Y-51516152D01*
X55442843Y-51466479D01*
X55471810Y-51437512D01*
X55519139Y-51390184D01*
X55568115Y-51367346D01*
X55620313Y-51381332D01*
X55630861Y-51390184D01*
X55657154Y-51416477D01*
X55657156Y-51416478D01*
X55657157Y-51416479D01*
X55747343Y-51468548D01*
X55847931Y-51495500D01*
X55847933Y-51495500D01*
X55952067Y-51495500D01*
X55952069Y-51495500D01*
X56052657Y-51468548D01*
X56142843Y-51416479D01*
X56216479Y-51342843D01*
X56216483Y-51342835D01*
X56217821Y-51341093D01*
X56218948Y-51340374D01*
X56220141Y-51339182D01*
X56220405Y-51339446D01*
X56263394Y-51312054D01*
X56316972Y-51319103D01*
G37*
%TD.AperFunction*%
%TA.AperFunction,Conductor*%
G36*
X48793544Y-51808982D02*
G01*
X48820564Y-51855782D01*
X48811180Y-51909000D01*
X48798625Y-51925362D01*
X48494310Y-52229675D01*
X48445334Y-52252512D01*
X48393136Y-52238526D01*
X48370033Y-52213313D01*
X48366477Y-52207154D01*
X48292845Y-52133522D01*
X48202658Y-52081452D01*
X48202654Y-52081451D01*
X48102071Y-52054500D01*
X48102069Y-52054500D01*
X47997931Y-52054500D01*
X47997928Y-52054500D01*
X47897345Y-52081451D01*
X47897341Y-52081452D01*
X47807154Y-52133522D01*
X47733522Y-52207154D01*
X47681452Y-52297341D01*
X47681451Y-52297345D01*
X47654500Y-52397928D01*
X47654500Y-52502071D01*
X47681451Y-52602654D01*
X47681452Y-52602658D01*
X47733522Y-52692845D01*
X47786361Y-52745684D01*
X47809199Y-52794660D01*
X47809500Y-52801545D01*
X47809500Y-53000323D01*
X47791018Y-53051103D01*
X47744218Y-53078123D01*
X47715089Y-53077805D01*
X47648197Y-53064500D01*
X47648196Y-53064500D01*
X47451804Y-53064500D01*
X47383111Y-53078163D01*
X47383110Y-53078164D01*
X47343890Y-53104371D01*
X47291400Y-53117215D01*
X47256110Y-53104371D01*
X47216889Y-53078164D01*
X47216888Y-53078163D01*
X47148196Y-53064500D01*
X46951804Y-53064500D01*
X46883111Y-53078163D01*
X46883110Y-53078164D01*
X46805213Y-53130213D01*
X46753164Y-53208110D01*
X46753163Y-53208111D01*
X46739500Y-53276804D01*
X46739500Y-53689455D01*
X46721018Y-53740235D01*
X46674218Y-53767255D01*
X46621000Y-53757871D01*
X46604639Y-53745316D01*
X46542845Y-53683522D01*
X46452658Y-53631452D01*
X46452654Y-53631451D01*
X46352071Y-53604500D01*
X46352069Y-53604500D01*
X46247931Y-53604500D01*
X46247928Y-53604500D01*
X46147345Y-53631451D01*
X46147341Y-53631452D01*
X46057156Y-53683521D01*
X46023371Y-53717306D01*
X45974394Y-53740143D01*
X45922197Y-53726156D01*
X45891202Y-53681890D01*
X45878242Y-53633522D01*
X45868548Y-53597343D01*
X45816479Y-53507157D01*
X45816478Y-53507156D01*
X45816477Y-53507154D01*
X45763639Y-53454316D01*
X45740801Y-53405340D01*
X45740500Y-53398455D01*
X45740500Y-52939500D01*
X45758982Y-52888720D01*
X45805782Y-52861700D01*
X45819500Y-52860500D01*
X46323196Y-52860500D01*
X46391888Y-52846836D01*
X46391889Y-52846835D01*
X46417085Y-52830000D01*
X46469786Y-52794786D01*
X46521836Y-52716888D01*
X46535500Y-52648196D01*
X46535500Y-52451804D01*
X46529986Y-52424085D01*
X46521836Y-52383111D01*
X46521835Y-52383109D01*
X46497115Y-52346115D01*
X46495628Y-52343890D01*
X46482783Y-52291401D01*
X46495629Y-52256109D01*
X46497115Y-52253886D01*
X46514356Y-52228083D01*
X46521835Y-52216890D01*
X46521836Y-52216888D01*
X46535500Y-52148195D01*
X46535500Y-51951804D01*
X46533718Y-51942845D01*
X46522194Y-51884911D01*
X46530414Y-51831502D01*
X46571043Y-51795871D01*
X46599676Y-51790500D01*
X48742764Y-51790500D01*
X48793544Y-51808982D01*
G37*
%TD.AperFunction*%
%TA.AperFunction,Conductor*%
G36*
X50666801Y-51463633D02*
G01*
X50689768Y-51469787D01*
X50691840Y-51472746D01*
X50695235Y-51473982D01*
X50707123Y-51494573D01*
X50720763Y-51514053D01*
X50720448Y-51517652D01*
X50722255Y-51520782D01*
X50718125Y-51544203D01*
X50716053Y-51567887D01*
X50713240Y-51571903D01*
X50712871Y-51574000D01*
X50700316Y-51590361D01*
X50633522Y-51657154D01*
X50581452Y-51747341D01*
X50581451Y-51747345D01*
X50554500Y-51847928D01*
X50554500Y-51952071D01*
X50581451Y-52052654D01*
X50581452Y-52052658D01*
X50633522Y-52142845D01*
X50707154Y-52216477D01*
X50707156Y-52216478D01*
X50707157Y-52216479D01*
X50770000Y-52252761D01*
X50804736Y-52294157D01*
X50809500Y-52321177D01*
X50809500Y-53000323D01*
X50791018Y-53051103D01*
X50744218Y-53078123D01*
X50715089Y-53077805D01*
X50648197Y-53064500D01*
X50648196Y-53064500D01*
X50451804Y-53064500D01*
X50383111Y-53078163D01*
X50383110Y-53078164D01*
X50343890Y-53104371D01*
X50291400Y-53117215D01*
X50256110Y-53104371D01*
X50216889Y-53078164D01*
X50216888Y-53078163D01*
X50148196Y-53064500D01*
X49951804Y-53064500D01*
X49883111Y-53078163D01*
X49883110Y-53078164D01*
X49843890Y-53104371D01*
X49791400Y-53117215D01*
X49756110Y-53104371D01*
X49716889Y-53078164D01*
X49716888Y-53078163D01*
X49648196Y-53064500D01*
X49451804Y-53064500D01*
X49451803Y-53064500D01*
X49446804Y-53065494D01*
X49393394Y-53057270D01*
X49357766Y-53016639D01*
X49356591Y-52962612D01*
X49364557Y-52947712D01*
X49363890Y-52947327D01*
X49387226Y-52906908D01*
X49418548Y-52852657D01*
X49445500Y-52752069D01*
X49445500Y-52647931D01*
X49418548Y-52547343D01*
X49366479Y-52457157D01*
X49366478Y-52457156D01*
X49366477Y-52457154D01*
X49292845Y-52383522D01*
X49209475Y-52335388D01*
X49174739Y-52293991D01*
X49174739Y-52239952D01*
X49193114Y-52211111D01*
X49391590Y-52012635D01*
X49440566Y-51989797D01*
X49492764Y-52003783D01*
X49503312Y-52012635D01*
X49507154Y-52016477D01*
X49507156Y-52016478D01*
X49507157Y-52016479D01*
X49597343Y-52068548D01*
X49697931Y-52095500D01*
X49697933Y-52095500D01*
X49802067Y-52095500D01*
X49802069Y-52095500D01*
X49902657Y-52068548D01*
X49992843Y-52016479D01*
X50066479Y-51942843D01*
X50118548Y-51852657D01*
X50145500Y-51752069D01*
X50145500Y-51647931D01*
X50120585Y-51554945D01*
X50125295Y-51501113D01*
X50163506Y-51462902D01*
X50196893Y-51455500D01*
X50644455Y-51455500D01*
X50666801Y-51463633D01*
G37*
%TD.AperFunction*%
%TA.AperFunction,Conductor*%
G36*
X52937039Y-49609263D02*
G01*
X52945684Y-49607347D01*
X52962437Y-49616068D01*
X52980685Y-49620957D01*
X52987039Y-49628874D01*
X52993618Y-49632299D01*
X53008359Y-49655438D01*
X53021113Y-49686230D01*
X53021117Y-49686235D01*
X53088327Y-49753445D01*
X53111165Y-49802421D01*
X53098153Y-49853195D01*
X53078164Y-49883111D01*
X53078163Y-49883111D01*
X53064500Y-49951804D01*
X53064500Y-50148195D01*
X53078163Y-50216888D01*
X53078164Y-50216889D01*
X53104371Y-50256110D01*
X53117215Y-50308600D01*
X53104371Y-50343890D01*
X53078164Y-50383110D01*
X53078163Y-50383111D01*
X53064500Y-50451804D01*
X53064500Y-50648195D01*
X53078163Y-50716888D01*
X53078164Y-50716889D01*
X53104371Y-50756110D01*
X53117215Y-50808600D01*
X53104371Y-50843890D01*
X53078164Y-50883110D01*
X53078163Y-50883111D01*
X53065387Y-50947343D01*
X53064500Y-50951804D01*
X53064500Y-51148196D01*
X53066009Y-51155782D01*
X53078163Y-51216888D01*
X53078164Y-51216889D01*
X53104371Y-51256110D01*
X53117215Y-51308600D01*
X53104371Y-51343890D01*
X53078164Y-51383110D01*
X53078163Y-51383111D01*
X53070538Y-51421449D01*
X53064500Y-51451804D01*
X53064500Y-51648196D01*
X53066297Y-51657229D01*
X53077806Y-51715088D01*
X53077667Y-51715990D01*
X53078124Y-51716782D01*
X53073574Y-51742585D01*
X53069586Y-51768498D01*
X53068898Y-51769100D01*
X53068740Y-51770000D01*
X53048669Y-51786841D01*
X53028957Y-51804129D01*
X53027811Y-51804343D01*
X53027344Y-51804736D01*
X53000324Y-51809500D01*
X52982341Y-51809500D01*
X52931561Y-51791018D01*
X52926490Y-51786371D01*
X52852080Y-51711961D01*
X52763686Y-51675347D01*
X52763685Y-51675347D01*
X52763684Y-51675347D01*
X52687587Y-51675347D01*
X52646488Y-51663814D01*
X52638410Y-51658893D01*
X52631303Y-51651786D01*
X52544004Y-51601384D01*
X52543177Y-51600880D01*
X52526850Y-51580466D01*
X52510040Y-51560432D01*
X52510040Y-51559446D01*
X52509425Y-51558678D01*
X52510040Y-51532557D01*
X52510040Y-51506393D01*
X52510688Y-51505001D01*
X52510697Y-51504654D01*
X52511024Y-51504281D01*
X52515860Y-51493912D01*
X52516474Y-51492847D01*
X52516479Y-51492843D01*
X52568548Y-51402657D01*
X52595500Y-51302069D01*
X52595500Y-51197931D01*
X52568548Y-51097343D01*
X52566151Y-51093192D01*
X52533267Y-51036235D01*
X52516479Y-51007157D01*
X52516478Y-51007156D01*
X52516477Y-51007154D01*
X52442845Y-50933522D01*
X52352658Y-50881452D01*
X52352654Y-50881451D01*
X52252071Y-50854500D01*
X52252069Y-50854500D01*
X52147931Y-50854500D01*
X52147928Y-50854500D01*
X52047345Y-50881451D01*
X52047341Y-50881452D01*
X51957154Y-50933522D01*
X51939316Y-50951361D01*
X51890340Y-50974199D01*
X51883455Y-50974500D01*
X49433083Y-50974500D01*
X49337406Y-50974500D01*
X49285627Y-50995947D01*
X49249013Y-51011113D01*
X49249012Y-51011114D01*
X48973763Y-51286362D01*
X48924787Y-51309199D01*
X48917902Y-51309500D01*
X46599676Y-51309500D01*
X46548896Y-51291018D01*
X46521876Y-51244218D01*
X46522194Y-51215088D01*
X46531863Y-51166479D01*
X46535500Y-51148196D01*
X46535500Y-50951804D01*
X46521836Y-50883112D01*
X46521836Y-50883111D01*
X46521835Y-50883110D01*
X46469786Y-50805213D01*
X46391889Y-50753164D01*
X46391888Y-50753163D01*
X46323196Y-50739500D01*
X44951804Y-50739500D01*
X44883111Y-50753163D01*
X44883110Y-50753164D01*
X44818725Y-50796186D01*
X44774835Y-50809500D01*
X44048301Y-50809500D01*
X43997521Y-50791018D01*
X43976032Y-50762410D01*
X43973250Y-50756110D01*
X43931001Y-50660423D01*
X43930998Y-50660420D01*
X43930996Y-50660417D01*
X43849582Y-50579003D01*
X43849578Y-50579000D01*
X43849577Y-50578999D01*
X43849575Y-50578998D01*
X43849572Y-50578996D01*
X43834335Y-50572269D01*
X43795346Y-50534851D01*
X43789531Y-50481126D01*
X43819610Y-50436232D01*
X43834335Y-50427731D01*
X43842943Y-50423930D01*
X43849577Y-50421001D01*
X43931001Y-50339577D01*
X43977512Y-50234238D01*
X43980500Y-50208484D01*
X43980500Y-49869500D01*
X43998982Y-49818720D01*
X44045782Y-49791700D01*
X44059500Y-49790500D01*
X44107476Y-49790500D01*
X44158256Y-49808982D01*
X44185276Y-49855782D01*
X44181315Y-49891945D01*
X44182792Y-49892341D01*
X44154500Y-49997928D01*
X44154500Y-50102071D01*
X44181451Y-50202654D01*
X44181452Y-50202658D01*
X44233522Y-50292845D01*
X44307154Y-50366477D01*
X44307156Y-50366478D01*
X44307157Y-50366479D01*
X44397343Y-50418548D01*
X44497931Y-50445500D01*
X44497933Y-50445500D01*
X44602067Y-50445500D01*
X44602069Y-50445500D01*
X44702657Y-50418548D01*
X44792843Y-50366479D01*
X44795840Y-50363481D01*
X44844810Y-50340638D01*
X44875472Y-50345356D01*
X44875480Y-50345318D01*
X44876350Y-50345491D01*
X44881945Y-50346352D01*
X44883108Y-50346833D01*
X44883112Y-50346836D01*
X44951804Y-50360500D01*
X46323196Y-50360500D01*
X46391888Y-50346836D01*
X46391889Y-50346835D01*
X46392969Y-50346114D01*
X46449112Y-50308600D01*
X46456275Y-50303814D01*
X46500165Y-50290500D01*
X52177595Y-50290500D01*
X52217093Y-50301083D01*
X52247343Y-50318548D01*
X52347931Y-50345500D01*
X52347933Y-50345500D01*
X52452067Y-50345500D01*
X52452069Y-50345500D01*
X52552657Y-50318548D01*
X52642843Y-50266479D01*
X52716479Y-50192843D01*
X52768548Y-50102657D01*
X52795500Y-50002069D01*
X52795500Y-49897931D01*
X52768548Y-49797343D01*
X52768545Y-49797337D01*
X52766566Y-49792558D01*
X52768542Y-49791739D01*
X52760567Y-49746584D01*
X52787574Y-49699777D01*
X52798858Y-49691873D01*
X52842843Y-49666479D01*
X52879512Y-49629809D01*
X52887535Y-49626068D01*
X52892926Y-49619043D01*
X52911368Y-49614954D01*
X52928487Y-49606972D01*
X52937039Y-49609263D01*
G37*
%TD.AperFunction*%
%TA.AperFunction,Conductor*%
G36*
X40319365Y-41818482D02*
G01*
X40346385Y-41865282D01*
X40340854Y-41910908D01*
X40332169Y-41930578D01*
X40332168Y-41930581D01*
X40329253Y-41955705D01*
X40329253Y-42385430D01*
X40329254Y-42385442D01*
X40329321Y-42386018D01*
X40332168Y-42410563D01*
X40377547Y-42513337D01*
X40377549Y-42513339D01*
X40377551Y-42513342D01*
X40456982Y-42592773D01*
X40456985Y-42592775D01*
X40456988Y-42592778D01*
X40559762Y-42638157D01*
X40584888Y-42641072D01*
X40954617Y-42641071D01*
X40979744Y-42638157D01*
X41082518Y-42592778D01*
X41161959Y-42513337D01*
X41207338Y-42410563D01*
X41210253Y-42385437D01*
X41210252Y-41955708D01*
X41207338Y-41930581D01*
X41198652Y-41910909D01*
X41195049Y-41856990D01*
X41226947Y-41813370D01*
X41270921Y-41800000D01*
X41987296Y-41800000D01*
X42038076Y-41818482D01*
X42065096Y-41865282D01*
X42055712Y-41918500D01*
X42043157Y-41934860D01*
X41696971Y-42281046D01*
X41355183Y-42622834D01*
X41355171Y-42622846D01*
X41352846Y-42625170D01*
X41336498Y-42637713D01*
X41257153Y-42683523D01*
X41183522Y-42757154D01*
X41131452Y-42847341D01*
X41131451Y-42847345D01*
X41104500Y-42947928D01*
X41104500Y-43052071D01*
X41131451Y-43152654D01*
X41131452Y-43152658D01*
X41183522Y-43242845D01*
X41257154Y-43316477D01*
X41257156Y-43316478D01*
X41257157Y-43316479D01*
X41311628Y-43347928D01*
X41339181Y-43363836D01*
X41347343Y-43368548D01*
X41447931Y-43395500D01*
X41447933Y-43395500D01*
X41552067Y-43395500D01*
X41552069Y-43395500D01*
X41652657Y-43368548D01*
X41742843Y-43316479D01*
X41816479Y-43242843D01*
X41868548Y-43152657D01*
X41895500Y-43052069D01*
X41895500Y-42947931D01*
X41868548Y-42847343D01*
X41868546Y-42847341D01*
X41868172Y-42845942D01*
X41872882Y-42792108D01*
X41888616Y-42769637D01*
X42835116Y-41823138D01*
X42850743Y-41815851D01*
X42863957Y-41804764D01*
X42880943Y-41801768D01*
X42884092Y-41800301D01*
X42890977Y-41800000D01*
X42998809Y-41800000D01*
X43049589Y-41818482D01*
X43076609Y-41865282D01*
X43067225Y-41918500D01*
X43054670Y-41934861D01*
X42446116Y-42543414D01*
X42446111Y-42543421D01*
X42410997Y-42628196D01*
X42409500Y-42631810D01*
X42409500Y-42631812D01*
X42409500Y-43302161D01*
X42409500Y-43397839D01*
X42413360Y-43407157D01*
X42446114Y-43486234D01*
X43113765Y-44153885D01*
X43113766Y-44153885D01*
X43113767Y-44153886D01*
X43202161Y-44190500D01*
X43202162Y-44190500D01*
X46585173Y-44190500D01*
X46635953Y-44208982D01*
X46662973Y-44255782D01*
X46653589Y-44309000D01*
X46631452Y-44347341D01*
X46631451Y-44347345D01*
X46604500Y-44447928D01*
X46604500Y-44552071D01*
X46631451Y-44652654D01*
X46631452Y-44652658D01*
X46683522Y-44742845D01*
X46736523Y-44795846D01*
X46759361Y-44844822D01*
X46754645Y-44875472D01*
X46754682Y-44875480D01*
X46754515Y-44876316D01*
X46753652Y-44881930D01*
X46753165Y-44883105D01*
X46739500Y-44951804D01*
X46739500Y-46323195D01*
X46753163Y-46391888D01*
X46753164Y-46391889D01*
X46805213Y-46469786D01*
X46883110Y-46521835D01*
X46883111Y-46521836D01*
X46951804Y-46535500D01*
X47148196Y-46535500D01*
X47216888Y-46521836D01*
X47216889Y-46521835D01*
X47231676Y-46511955D01*
X47294786Y-46469786D01*
X47346836Y-46391888D01*
X47360500Y-46323196D01*
X47360500Y-44951804D01*
X47355151Y-44924912D01*
X47346836Y-44883111D01*
X47346835Y-44883110D01*
X47314058Y-44834055D01*
X47301214Y-44781564D01*
X47314760Y-44747829D01*
X47313890Y-44747327D01*
X47316479Y-44742843D01*
X47368548Y-44652657D01*
X47395500Y-44552069D01*
X47395500Y-44447931D01*
X47368548Y-44347343D01*
X47368547Y-44347341D01*
X47346411Y-44309000D01*
X47337027Y-44255782D01*
X47364047Y-44208982D01*
X47414827Y-44190500D01*
X50697837Y-44190500D01*
X50697839Y-44190500D01*
X50786233Y-44153886D01*
X50871479Y-44068638D01*
X50920455Y-44045801D01*
X50927341Y-44045500D01*
X51002067Y-44045500D01*
X51002069Y-44045500D01*
X51102657Y-44018548D01*
X51191003Y-43967541D01*
X51244217Y-43958158D01*
X51291017Y-43985177D01*
X51309500Y-44035957D01*
X51309500Y-44675323D01*
X51291018Y-44726103D01*
X51244218Y-44753123D01*
X51215089Y-44752805D01*
X51148197Y-44739500D01*
X51148196Y-44739500D01*
X50951804Y-44739500D01*
X50883111Y-44753163D01*
X50883110Y-44753164D01*
X50843890Y-44779371D01*
X50791400Y-44792215D01*
X50756110Y-44779371D01*
X50716889Y-44753164D01*
X50716888Y-44753163D01*
X50648196Y-44739500D01*
X50451804Y-44739500D01*
X50383111Y-44753163D01*
X50383110Y-44753164D01*
X50343890Y-44779371D01*
X50291400Y-44792215D01*
X50256110Y-44779371D01*
X50216889Y-44753164D01*
X50216888Y-44753163D01*
X50148196Y-44739500D01*
X49951804Y-44739500D01*
X49883111Y-44753163D01*
X49883110Y-44753164D01*
X49843890Y-44779371D01*
X49791400Y-44792215D01*
X49756110Y-44779371D01*
X49716889Y-44753164D01*
X49716888Y-44753163D01*
X49648196Y-44739500D01*
X49451804Y-44739500D01*
X49383111Y-44753163D01*
X49383110Y-44753164D01*
X49305213Y-44805213D01*
X49253164Y-44883110D01*
X49253163Y-44883111D01*
X49239500Y-44951804D01*
X49239500Y-46323195D01*
X49253163Y-46391888D01*
X49253164Y-46391889D01*
X49305213Y-46469785D01*
X49305214Y-46469786D01*
X49318103Y-46478398D01*
X49340467Y-46505648D01*
X49341792Y-46504764D01*
X49346115Y-46511234D01*
X51738766Y-48903885D01*
X51738767Y-48903885D01*
X51738768Y-48903886D01*
X51827162Y-48940500D01*
X51827163Y-48940500D01*
X52259455Y-48940500D01*
X52281801Y-48948633D01*
X52304768Y-48954787D01*
X52306840Y-48957746D01*
X52310235Y-48958982D01*
X52322123Y-48979573D01*
X52335763Y-48999053D01*
X52335448Y-49002652D01*
X52337255Y-49005782D01*
X52333125Y-49029203D01*
X52331053Y-49052887D01*
X52328240Y-49056903D01*
X52327871Y-49059000D01*
X52315316Y-49075361D01*
X52304316Y-49086361D01*
X52255340Y-49109199D01*
X52248455Y-49109500D01*
X51157341Y-49109500D01*
X51106561Y-49091018D01*
X51101480Y-49086361D01*
X48671317Y-46656197D01*
X48648479Y-46607221D01*
X48662465Y-46555023D01*
X48706731Y-46524028D01*
X48711745Y-46522858D01*
X48716888Y-46521836D01*
X48716889Y-46521835D01*
X48716890Y-46521835D01*
X48794786Y-46469786D01*
X48809849Y-46447242D01*
X48846836Y-46391888D01*
X48860500Y-46323196D01*
X48860500Y-44951804D01*
X48855151Y-44924912D01*
X48846836Y-44883111D01*
X48846835Y-44883110D01*
X48794786Y-44805213D01*
X48716889Y-44753164D01*
X48716888Y-44753163D01*
X48648196Y-44739500D01*
X48451804Y-44739500D01*
X48383111Y-44753163D01*
X48383110Y-44753164D01*
X48343890Y-44779371D01*
X48291400Y-44792215D01*
X48256110Y-44779371D01*
X48216889Y-44753164D01*
X48216888Y-44753163D01*
X48148196Y-44739500D01*
X47951804Y-44739500D01*
X47883111Y-44753163D01*
X47883110Y-44753164D01*
X47805213Y-44805213D01*
X47753164Y-44883110D01*
X47753163Y-44883111D01*
X47739500Y-44951804D01*
X47739500Y-46323195D01*
X47753163Y-46391888D01*
X47753164Y-46391889D01*
X47805213Y-46469785D01*
X47805214Y-46469786D01*
X47818103Y-46478398D01*
X47840467Y-46505648D01*
X47841792Y-46504764D01*
X47846115Y-46511234D01*
X50821115Y-49486232D01*
X50888769Y-49553886D01*
X50977163Y-49590500D01*
X52014041Y-49590500D01*
X52027130Y-49595264D01*
X52041060Y-49595264D01*
X52051730Y-49604217D01*
X52064821Y-49608982D01*
X52071786Y-49621046D01*
X52082457Y-49630000D01*
X52084875Y-49643718D01*
X52091841Y-49655782D01*
X52089422Y-49669500D01*
X52091841Y-49683218D01*
X52082457Y-49708999D01*
X52048024Y-49768641D01*
X52047239Y-49770000D01*
X52005843Y-49804736D01*
X51978823Y-49809500D01*
X46599676Y-49809500D01*
X46548896Y-49791018D01*
X46521876Y-49744218D01*
X46522194Y-49715088D01*
X46527934Y-49686230D01*
X46535500Y-49648196D01*
X46535500Y-49451804D01*
X46521836Y-49383112D01*
X46521836Y-49383111D01*
X46521835Y-49383109D01*
X46498327Y-49347928D01*
X46495628Y-49343890D01*
X46482783Y-49291401D01*
X46495629Y-49256109D01*
X46501487Y-49247343D01*
X46521836Y-49216888D01*
X46535500Y-49148196D01*
X46535500Y-48951804D01*
X46534913Y-48948854D01*
X46543130Y-48895446D01*
X46583756Y-48859813D01*
X46637782Y-48858630D01*
X46668255Y-48877578D01*
X46707154Y-48916477D01*
X46707156Y-48916478D01*
X46707157Y-48916479D01*
X46797343Y-48968548D01*
X46897931Y-48995500D01*
X46897933Y-48995500D01*
X47002067Y-48995500D01*
X47002069Y-48995500D01*
X47102657Y-48968548D01*
X47192843Y-48916479D01*
X47266479Y-48842843D01*
X47318548Y-48752657D01*
X47345500Y-48652069D01*
X47345500Y-48547931D01*
X47318548Y-48447343D01*
X47266479Y-48357157D01*
X47266478Y-48357156D01*
X47266477Y-48357154D01*
X47192845Y-48283522D01*
X47107330Y-48234150D01*
X47072594Y-48192753D01*
X47070522Y-48145289D01*
X47095500Y-48052069D01*
X47095500Y-47971008D01*
X47113982Y-47920228D01*
X47160782Y-47893208D01*
X47194944Y-47894699D01*
X47197931Y-47895500D01*
X47197933Y-47895500D01*
X47302067Y-47895500D01*
X47302069Y-47895500D01*
X47402657Y-47868548D01*
X47492843Y-47816479D01*
X47566479Y-47742843D01*
X47618548Y-47652657D01*
X47645500Y-47552069D01*
X47645500Y-47447931D01*
X47618548Y-47347343D01*
X47616151Y-47343192D01*
X47573695Y-47269656D01*
X47566479Y-47257157D01*
X47566478Y-47257156D01*
X47566477Y-47257154D01*
X47492845Y-47183522D01*
X47402658Y-47131452D01*
X47402654Y-47131451D01*
X47302071Y-47104500D01*
X47302069Y-47104500D01*
X47197931Y-47104500D01*
X47197928Y-47104500D01*
X47097345Y-47131451D01*
X47097341Y-47131452D01*
X47007154Y-47183522D01*
X46954316Y-47236361D01*
X46905340Y-47259199D01*
X46898455Y-47259500D01*
X46609622Y-47259500D01*
X46558842Y-47241018D01*
X46531822Y-47194218D01*
X46532140Y-47165088D01*
X46534729Y-47152071D01*
X46535500Y-47148196D01*
X46535500Y-46951804D01*
X46521972Y-46883794D01*
X46521836Y-46883111D01*
X46521835Y-46883110D01*
X46469786Y-46805213D01*
X46391889Y-46753164D01*
X46391888Y-46753163D01*
X46323196Y-46739500D01*
X44951804Y-46739500D01*
X44883111Y-46753163D01*
X44883110Y-46753164D01*
X44818725Y-46796186D01*
X44774835Y-46809500D01*
X44601545Y-46809500D01*
X44550765Y-46791018D01*
X44545684Y-46786361D01*
X44542845Y-46783522D01*
X44452658Y-46731452D01*
X44452654Y-46731451D01*
X44352071Y-46704500D01*
X44352069Y-46704500D01*
X44247931Y-46704500D01*
X44247928Y-46704500D01*
X44147345Y-46731451D01*
X44147341Y-46731452D01*
X44057154Y-46783522D01*
X43983522Y-46857154D01*
X43931452Y-46947341D01*
X43931451Y-46947345D01*
X43904500Y-47047928D01*
X43904500Y-47152071D01*
X43931451Y-47252654D01*
X43931452Y-47252658D01*
X43983522Y-47342845D01*
X44057154Y-47416477D01*
X44105594Y-47444444D01*
X44140330Y-47485840D01*
X44140330Y-47539880D01*
X44121956Y-47568721D01*
X44083521Y-47607156D01*
X44031452Y-47697341D01*
X44031451Y-47697345D01*
X44004500Y-47797928D01*
X44004500Y-47902071D01*
X44031451Y-48002654D01*
X44031452Y-48002658D01*
X44083522Y-48092845D01*
X44157154Y-48166477D01*
X44157156Y-48166478D01*
X44157157Y-48166479D01*
X44193213Y-48187296D01*
X44244469Y-48216889D01*
X44247343Y-48218548D01*
X44347931Y-48245500D01*
X44347933Y-48245500D01*
X44452067Y-48245500D01*
X44452069Y-48245500D01*
X44552657Y-48218548D01*
X44637331Y-48169660D01*
X44690549Y-48160277D01*
X44737348Y-48187296D01*
X44744718Y-48197674D01*
X44751663Y-48209343D01*
X44753164Y-48216888D01*
X44780517Y-48257825D01*
X44781572Y-48259597D01*
X44786256Y-48284247D01*
X44792215Y-48308600D01*
X44791340Y-48311003D01*
X44791660Y-48312686D01*
X44788995Y-48317445D01*
X44779371Y-48343890D01*
X44753164Y-48383110D01*
X44753163Y-48383111D01*
X44740388Y-48447341D01*
X44739500Y-48451804D01*
X44739500Y-48648196D01*
X44743419Y-48667896D01*
X44752806Y-48715088D01*
X44744586Y-48768498D01*
X44703957Y-48804129D01*
X44675324Y-48809500D01*
X41665263Y-48809500D01*
X41614483Y-48791018D01*
X41609402Y-48786361D01*
X40769158Y-47946116D01*
X40769156Y-47946114D01*
X40739690Y-47933909D01*
X40680761Y-47909500D01*
X40680760Y-47909500D01*
X40680759Y-47909500D01*
X39782341Y-47909500D01*
X39731561Y-47891018D01*
X39726480Y-47886361D01*
X39483638Y-47643519D01*
X39460800Y-47594543D01*
X39460499Y-47587658D01*
X39460499Y-46717694D01*
X39450759Y-46656197D01*
X39445275Y-46621567D01*
X39386241Y-46505706D01*
X39386240Y-46505705D01*
X39386239Y-46505703D01*
X39294295Y-46413759D01*
X39283634Y-46408327D01*
X39246780Y-46368805D01*
X39240500Y-46337938D01*
X39240500Y-46155590D01*
X39258982Y-46104810D01*
X39287589Y-46083321D01*
X39312765Y-46072206D01*
X39392206Y-45992765D01*
X39437585Y-45889991D01*
X39440500Y-45864865D01*
X39440499Y-45435136D01*
X39437585Y-45410009D01*
X39392206Y-45307235D01*
X39392203Y-45307232D01*
X39392201Y-45307229D01*
X39312770Y-45227798D01*
X39312767Y-45227796D01*
X39312765Y-45227794D01*
X39209991Y-45182415D01*
X39184865Y-45179500D01*
X39184864Y-45179500D01*
X38815141Y-45179500D01*
X38815129Y-45179501D01*
X38793149Y-45182050D01*
X38790009Y-45182415D01*
X38687235Y-45227794D01*
X38687229Y-45227798D01*
X38607798Y-45307229D01*
X38607794Y-45307235D01*
X38562415Y-45410009D01*
X38559500Y-45435133D01*
X38559500Y-45864858D01*
X38559501Y-45864870D01*
X38560222Y-45871082D01*
X38562415Y-45889991D01*
X38607794Y-45992765D01*
X38607796Y-45992767D01*
X38607798Y-45992770D01*
X38687229Y-46072201D01*
X38687231Y-46072202D01*
X38687235Y-46072206D01*
X38712409Y-46083321D01*
X38715618Y-46086401D01*
X38720000Y-46087174D01*
X38734794Y-46104805D01*
X38751397Y-46120739D01*
X38752635Y-46126067D01*
X38754736Y-46128570D01*
X38759500Y-46155590D01*
X38759500Y-46260500D01*
X38741018Y-46311280D01*
X38694218Y-46338300D01*
X38680500Y-46339500D01*
X38317696Y-46339500D01*
X38239656Y-46351860D01*
X38221567Y-46354725D01*
X38164698Y-46383700D01*
X38105703Y-46413760D01*
X38016361Y-46503103D01*
X37967385Y-46525941D01*
X37915187Y-46511955D01*
X37884192Y-46467689D01*
X37881500Y-46447242D01*
X37881500Y-41879000D01*
X37899982Y-41828220D01*
X37946782Y-41801200D01*
X37960500Y-41800000D01*
X40268585Y-41800000D01*
X40319365Y-41818482D01*
G37*
%TD.AperFunction*%
%TA.AperFunction,Conductor*%
G36*
X59387693Y-45388482D02*
G01*
X59414713Y-45435282D01*
X59415237Y-45438684D01*
X59415800Y-45442963D01*
X59453567Y-45583912D01*
X59453568Y-45583914D01*
X59526531Y-45710289D01*
X59629710Y-45813468D01*
X59631402Y-45814445D01*
X59632159Y-45815347D01*
X59633819Y-45816621D01*
X59633536Y-45816988D01*
X59666138Y-45855842D01*
X59666138Y-45909881D01*
X59647763Y-45938722D01*
X57800125Y-47786361D01*
X57751149Y-47809199D01*
X57744264Y-47809500D01*
X54825165Y-47809500D01*
X54781275Y-47796186D01*
X54716889Y-47753164D01*
X54716888Y-47753163D01*
X54648196Y-47739500D01*
X53276804Y-47739500D01*
X53208111Y-47753163D01*
X53208110Y-47753164D01*
X53123744Y-47809537D01*
X53123038Y-47808480D01*
X53081385Y-47827904D01*
X53029187Y-47813918D01*
X52998192Y-47769652D01*
X52995500Y-47749205D01*
X52995500Y-47697933D01*
X52995499Y-47697928D01*
X52991313Y-47682306D01*
X52968548Y-47597343D01*
X52967483Y-47595499D01*
X52949625Y-47564568D01*
X52916479Y-47507157D01*
X52915187Y-47505865D01*
X52914720Y-47504864D01*
X52913326Y-47503047D01*
X52913728Y-47502738D01*
X52908337Y-47491179D01*
X52897582Y-47479057D01*
X52897261Y-47467432D01*
X52892345Y-47456893D01*
X52896538Y-47441237D01*
X52896091Y-47425038D01*
X52904539Y-47411364D01*
X52906326Y-47404694D01*
X52909149Y-47400908D01*
X52911967Y-47397354D01*
X52966479Y-47342843D01*
X52996649Y-47290585D01*
X53000260Y-47286034D01*
X53018626Y-47274743D01*
X53035135Y-47260891D01*
X53041160Y-47260890D01*
X53046296Y-47257734D01*
X53067622Y-47260890D01*
X53089174Y-47260890D01*
X53094184Y-47264821D01*
X53099753Y-47265646D01*
X53110109Y-47277318D01*
X53127839Y-47291232D01*
X53130214Y-47294786D01*
X53208110Y-47346835D01*
X53208111Y-47346836D01*
X53276804Y-47360500D01*
X54648196Y-47360500D01*
X54716888Y-47346836D01*
X54727000Y-47340078D01*
X54779491Y-47327233D01*
X54827957Y-47351133D01*
X54839308Y-47366264D01*
X54883522Y-47442845D01*
X54957154Y-47516477D01*
X54957156Y-47516478D01*
X54957157Y-47516479D01*
X55047343Y-47568548D01*
X55147931Y-47595500D01*
X55147933Y-47595500D01*
X55252067Y-47595500D01*
X55252069Y-47595500D01*
X55352657Y-47568548D01*
X55442843Y-47516479D01*
X55516479Y-47442843D01*
X55568548Y-47352657D01*
X55595500Y-47252069D01*
X55595500Y-47147931D01*
X55568548Y-47047343D01*
X55518292Y-46960298D01*
X55508909Y-46907082D01*
X55535928Y-46860283D01*
X55586708Y-46841800D01*
X57516537Y-46841800D01*
X57516539Y-46841800D01*
X57604933Y-46805186D01*
X58483490Y-45926627D01*
X58532464Y-45903791D01*
X58559796Y-45906182D01*
X58627038Y-45924200D01*
X58627039Y-45924200D01*
X58772960Y-45924200D01*
X58772962Y-45924200D01*
X58913913Y-45886432D01*
X59040287Y-45813470D01*
X59143470Y-45710287D01*
X59216432Y-45583913D01*
X59254200Y-45442962D01*
X59254200Y-45442955D01*
X59254763Y-45438684D01*
X59261963Y-45424854D01*
X59264671Y-45409500D01*
X59274059Y-45401621D01*
X59279719Y-45390752D01*
X59294122Y-45384786D01*
X59306067Y-45374764D01*
X59327410Y-45371000D01*
X59329646Y-45370075D01*
X59333087Y-45370000D01*
X59336913Y-45370000D01*
X59387693Y-45388482D01*
G37*
%TD.AperFunction*%
%TA.AperFunction,Conductor*%
G36*
X55537651Y-43116079D02*
G01*
X55557497Y-43119355D01*
X55562421Y-43125094D01*
X55569530Y-43127682D01*
X55579587Y-43145102D01*
X55592685Y-43160368D01*
X55592768Y-43167931D01*
X55596550Y-43174482D01*
X55593057Y-43194289D01*
X55593278Y-43214404D01*
X55587791Y-43224152D01*
X55587166Y-43227700D01*
X55579821Y-43238314D01*
X55577589Y-43241033D01*
X55495536Y-43363835D01*
X55495533Y-43363841D01*
X55439016Y-43500283D01*
X55439014Y-43500289D01*
X55422449Y-43583568D01*
X55410200Y-43645151D01*
X55410200Y-43792849D01*
X55412151Y-43802657D01*
X55439014Y-43937710D01*
X55439016Y-43937716D01*
X55495533Y-44074158D01*
X55495536Y-44074164D01*
X55577590Y-44196968D01*
X55577596Y-44196975D01*
X55682024Y-44301403D01*
X55682031Y-44301409D01*
X55693392Y-44309000D01*
X55804836Y-44383464D01*
X55804841Y-44383466D01*
X55941283Y-44439983D01*
X55941286Y-44439984D01*
X55941291Y-44439986D01*
X56086151Y-44468800D01*
X56233849Y-44468800D01*
X56378709Y-44439986D01*
X56515164Y-44383464D01*
X56637970Y-44301408D01*
X56742408Y-44196970D01*
X56824464Y-44074164D01*
X56880986Y-43937709D01*
X56909800Y-43792849D01*
X56909800Y-43645151D01*
X56880986Y-43500291D01*
X56879765Y-43497344D01*
X56824466Y-43363841D01*
X56824463Y-43363835D01*
X56813836Y-43347931D01*
X56742408Y-43241030D01*
X56742405Y-43241027D01*
X56740179Y-43238314D01*
X56722255Y-43187334D01*
X56741293Y-43136759D01*
X56788386Y-43110254D01*
X56801250Y-43109200D01*
X57336359Y-43109200D01*
X57387139Y-43127682D01*
X57392220Y-43132339D01*
X58143370Y-43883489D01*
X58154535Y-43907433D01*
X58166099Y-43931308D01*
X58166035Y-43932095D01*
X58166208Y-43932465D01*
X58164110Y-43958672D01*
X58163971Y-43959222D01*
X58145800Y-44027038D01*
X58145800Y-44031259D01*
X58143514Y-44040322D01*
X58130765Y-44059110D01*
X58120281Y-44079248D01*
X58115859Y-44081079D01*
X58113172Y-44085040D01*
X58091328Y-44091238D01*
X58070354Y-44099925D01*
X58066913Y-44100000D01*
X57430000Y-44100000D01*
X57430000Y-44736913D01*
X57411518Y-44787693D01*
X57364718Y-44814713D01*
X57361316Y-44815237D01*
X57357036Y-44815800D01*
X57216087Y-44853567D01*
X57216085Y-44853568D01*
X57089710Y-44926531D01*
X56986531Y-45029710D01*
X56913568Y-45156085D01*
X56913567Y-45156087D01*
X56887337Y-45253980D01*
X56856341Y-45298246D01*
X56804143Y-45312232D01*
X56755167Y-45289394D01*
X56745341Y-45277420D01*
X56742408Y-45273030D01*
X56742407Y-45273029D01*
X56742403Y-45273024D01*
X56637975Y-45168596D01*
X56637968Y-45168590D01*
X56515164Y-45086536D01*
X56515158Y-45086533D01*
X56378716Y-45030016D01*
X56378710Y-45030014D01*
X56233849Y-45001200D01*
X56086151Y-45001200D01*
X55941289Y-45030014D01*
X55941283Y-45030016D01*
X55804841Y-45086533D01*
X55804835Y-45086536D01*
X55682031Y-45168590D01*
X55682024Y-45168596D01*
X55577596Y-45273024D01*
X55577590Y-45273031D01*
X55495536Y-45395835D01*
X55495533Y-45395841D01*
X55439016Y-45532283D01*
X55439014Y-45532289D01*
X55410200Y-45677151D01*
X55410200Y-45824848D01*
X55439014Y-45969710D01*
X55439016Y-45969716D01*
X55495533Y-46106158D01*
X55495536Y-46106164D01*
X55577589Y-46228966D01*
X55579821Y-46231686D01*
X55597745Y-46282666D01*
X55578707Y-46333241D01*
X55531614Y-46359746D01*
X55518750Y-46360800D01*
X53646141Y-46360800D01*
X53595361Y-46342318D01*
X53590280Y-46337661D01*
X52883639Y-45631020D01*
X52860801Y-45582044D01*
X52860500Y-45575159D01*
X52860500Y-44951804D01*
X52846836Y-44883111D01*
X52846835Y-44883110D01*
X52794786Y-44805213D01*
X52716889Y-44753164D01*
X52716888Y-44753163D01*
X52648196Y-44739500D01*
X52451804Y-44739500D01*
X52451803Y-44739500D01*
X52384911Y-44752805D01*
X52331501Y-44744584D01*
X52295871Y-44703955D01*
X52290500Y-44675323D01*
X52290500Y-43996446D01*
X52296398Y-43980240D01*
X52297901Y-43963060D01*
X52307793Y-43948932D01*
X52308982Y-43945666D01*
X52313627Y-43940596D01*
X52361112Y-43893111D01*
X52410085Y-43870275D01*
X52462283Y-43884261D01*
X52485387Y-43909473D01*
X52497994Y-43931308D01*
X52529108Y-43985200D01*
X52533523Y-43992846D01*
X52607154Y-44066477D01*
X52607156Y-44066478D01*
X52607157Y-44066479D01*
X52697343Y-44118548D01*
X52797931Y-44145500D01*
X52797933Y-44145500D01*
X52902067Y-44145500D01*
X52902069Y-44145500D01*
X53002657Y-44118548D01*
X53092843Y-44066479D01*
X53166479Y-43992843D01*
X53218548Y-43902657D01*
X53245500Y-43802069D01*
X53245500Y-43727340D01*
X53263982Y-43676560D01*
X53268639Y-43671479D01*
X53807779Y-43132339D01*
X53856755Y-43109501D01*
X53863640Y-43109200D01*
X55518750Y-43109200D01*
X55537651Y-43116079D01*
G37*
%TD.AperFunction*%
%TA.AperFunction,Conductor*%
G36*
X62090280Y-41818482D02*
G01*
X62117300Y-41865282D01*
X62118500Y-41879000D01*
X62118500Y-44506067D01*
X62100018Y-44556847D01*
X62053218Y-44583867D01*
X62000000Y-44574483D01*
X61965264Y-44533087D01*
X61962018Y-44521479D01*
X61961926Y-44521018D01*
X61960986Y-44516291D01*
X61941927Y-44470280D01*
X61904466Y-44379841D01*
X61904463Y-44379835D01*
X61882751Y-44347341D01*
X61822408Y-44257030D01*
X61822403Y-44257024D01*
X61717975Y-44152596D01*
X61717968Y-44152590D01*
X61595164Y-44070536D01*
X61595158Y-44070533D01*
X61458716Y-44014016D01*
X61458710Y-44014014D01*
X61313849Y-43985200D01*
X61166151Y-43985200D01*
X61162782Y-43985200D01*
X61112002Y-43966718D01*
X61084982Y-43919918D01*
X61086473Y-43885755D01*
X61095500Y-43852069D01*
X61095500Y-43747931D01*
X61068548Y-43647343D01*
X61067282Y-43645151D01*
X61016477Y-43557154D01*
X60942845Y-43483522D01*
X60852658Y-43431452D01*
X60852654Y-43431451D01*
X60752071Y-43404500D01*
X60752069Y-43404500D01*
X60647931Y-43404500D01*
X60647928Y-43404500D01*
X60547345Y-43431451D01*
X60547341Y-43431452D01*
X60457154Y-43483522D01*
X60383522Y-43557154D01*
X60361681Y-43594983D01*
X60320284Y-43629717D01*
X60266244Y-43629716D01*
X60253766Y-43623897D01*
X60183914Y-43583568D01*
X60183912Y-43583567D01*
X60042962Y-43545800D01*
X59897038Y-43545800D01*
X59897037Y-43545800D01*
X59756087Y-43583567D01*
X59756085Y-43583568D01*
X59629710Y-43656531D01*
X59526531Y-43759710D01*
X59453568Y-43886085D01*
X59453567Y-43886087D01*
X59415800Y-44027036D01*
X59415237Y-44031316D01*
X59408036Y-44045145D01*
X59405329Y-44060500D01*
X59395940Y-44068378D01*
X59390281Y-44079248D01*
X59375877Y-44085213D01*
X59363933Y-44095236D01*
X59342589Y-44098999D01*
X59340354Y-44099925D01*
X59336913Y-44100000D01*
X59333087Y-44100000D01*
X59282307Y-44081518D01*
X59255287Y-44034718D01*
X59254763Y-44031316D01*
X59254200Y-44027043D01*
X59254200Y-44027038D01*
X59216432Y-43886087D01*
X59143470Y-43759713D01*
X59143469Y-43759712D01*
X59143468Y-43759710D01*
X59040289Y-43656531D01*
X58913914Y-43583568D01*
X58913912Y-43583567D01*
X58772962Y-43545800D01*
X58627038Y-43545800D01*
X58627035Y-43545800D01*
X58559796Y-43563817D01*
X58505963Y-43559107D01*
X58483489Y-43543370D01*
X57856180Y-42916061D01*
X57833342Y-42867085D01*
X57847328Y-42814887D01*
X57891594Y-42783892D01*
X57912041Y-42781200D01*
X58808359Y-42781200D01*
X58824566Y-42787098D01*
X58841746Y-42788602D01*
X58855870Y-42798492D01*
X58859139Y-42799682D01*
X58864220Y-42804339D01*
X58881361Y-42821480D01*
X58904199Y-42870456D01*
X58904500Y-42877341D01*
X58904500Y-42952071D01*
X58931451Y-43052654D01*
X58931452Y-43052658D01*
X58983522Y-43142845D01*
X59057154Y-43216477D01*
X59057156Y-43216478D01*
X59057157Y-43216479D01*
X59147343Y-43268548D01*
X59247931Y-43295500D01*
X59247933Y-43295500D01*
X59352067Y-43295500D01*
X59352069Y-43295500D01*
X59452657Y-43268548D01*
X59542843Y-43216479D01*
X59616479Y-43142843D01*
X59668548Y-43052657D01*
X59695500Y-42952069D01*
X59695500Y-42847931D01*
X59668548Y-42747343D01*
X59616479Y-42657157D01*
X59616478Y-42657156D01*
X59616477Y-42657154D01*
X59542845Y-42583522D01*
X59452658Y-42531452D01*
X59452654Y-42531451D01*
X59352071Y-42504500D01*
X59352069Y-42504500D01*
X59277341Y-42504500D01*
X59261133Y-42498601D01*
X59243954Y-42497098D01*
X59229828Y-42487207D01*
X59226561Y-42486018D01*
X59221490Y-42481371D01*
X59130480Y-42390361D01*
X59107643Y-42341385D01*
X59121629Y-42289187D01*
X59165896Y-42258192D01*
X59186342Y-42255500D01*
X60282659Y-42255500D01*
X60333439Y-42273982D01*
X60338520Y-42278639D01*
X60781361Y-42721479D01*
X60804199Y-42770455D01*
X60804500Y-42777340D01*
X60804500Y-42852071D01*
X60831451Y-42952654D01*
X60831452Y-42952658D01*
X60883522Y-43042845D01*
X60957154Y-43116477D01*
X60957156Y-43116478D01*
X60957157Y-43116479D01*
X61047343Y-43168548D01*
X61147931Y-43195500D01*
X61147933Y-43195500D01*
X61252067Y-43195500D01*
X61252069Y-43195500D01*
X61352657Y-43168548D01*
X61442843Y-43116479D01*
X61516479Y-43042843D01*
X61568548Y-42952657D01*
X61595500Y-42852069D01*
X61595500Y-42747931D01*
X61568548Y-42647343D01*
X61564927Y-42641072D01*
X61521255Y-42565429D01*
X61516479Y-42557157D01*
X61516478Y-42557156D01*
X61516477Y-42557154D01*
X61442845Y-42483522D01*
X61352658Y-42431452D01*
X61352654Y-42431451D01*
X61252071Y-42404500D01*
X61252069Y-42404500D01*
X61177340Y-42404500D01*
X61126560Y-42386018D01*
X61121490Y-42381372D01*
X60674980Y-41934861D01*
X60652143Y-41885885D01*
X60666129Y-41833687D01*
X60710395Y-41802692D01*
X60730842Y-41800000D01*
X62039500Y-41800000D01*
X62090280Y-41818482D01*
G37*
%TD.AperFunction*%
%TA.AperFunction,Conductor*%
G36*
X47195230Y-41972333D02*
G01*
X47211591Y-41984888D01*
X47735091Y-42508388D01*
X47757929Y-42557364D01*
X47758230Y-42564249D01*
X47758230Y-43048455D01*
X47739748Y-43099235D01*
X47735091Y-43104316D01*
X47682252Y-43157154D01*
X47630182Y-43247341D01*
X47630181Y-43247345D01*
X47603230Y-43347928D01*
X47603230Y-43452071D01*
X47630181Y-43552654D01*
X47630182Y-43552658D01*
X47652319Y-43591000D01*
X47661703Y-43644218D01*
X47634683Y-43691018D01*
X47583903Y-43709500D01*
X43382341Y-43709500D01*
X43331561Y-43691018D01*
X43326480Y-43686361D01*
X42913639Y-43273520D01*
X42890801Y-43224544D01*
X42890500Y-43217659D01*
X42890500Y-42811990D01*
X42908982Y-42761210D01*
X42913628Y-42756140D01*
X43626256Y-42043511D01*
X43675230Y-42020675D01*
X43727427Y-42034661D01*
X43758423Y-42078927D01*
X43761115Y-42099370D01*
X43761115Y-42117203D01*
X43761116Y-42117217D01*
X43763301Y-42136056D01*
X43764030Y-42142338D01*
X43809409Y-42245112D01*
X43809411Y-42245114D01*
X43809413Y-42245117D01*
X43888844Y-42324548D01*
X43888847Y-42324550D01*
X43888850Y-42324553D01*
X43991624Y-42369932D01*
X44016750Y-42372847D01*
X44446479Y-42372846D01*
X44471606Y-42369932D01*
X44574380Y-42324553D01*
X44617887Y-42281045D01*
X44666862Y-42258208D01*
X44719060Y-42272194D01*
X44738920Y-42292257D01*
X44740197Y-42294121D01*
X44819632Y-42373556D01*
X44819635Y-42373558D01*
X44819638Y-42373561D01*
X44922412Y-42418940D01*
X44947538Y-42421855D01*
X45377267Y-42421854D01*
X45402394Y-42418940D01*
X45505168Y-42373561D01*
X45571193Y-42307535D01*
X45620168Y-42284698D01*
X45672366Y-42298684D01*
X45682915Y-42307536D01*
X45759868Y-42384489D01*
X45759871Y-42384491D01*
X45759874Y-42384494D01*
X45862648Y-42429873D01*
X45887774Y-42432788D01*
X46317503Y-42432787D01*
X46342630Y-42429873D01*
X46445404Y-42384494D01*
X46450243Y-42379655D01*
X46460869Y-42369030D01*
X46482413Y-42358983D01*
X46503012Y-42347091D01*
X46506571Y-42347718D01*
X46509845Y-42346192D01*
X46532810Y-42352345D01*
X46556230Y-42356475D01*
X46558552Y-42359242D01*
X46562043Y-42360178D01*
X46575681Y-42379655D01*
X46590966Y-42397871D01*
X46591817Y-42402701D01*
X46593038Y-42404444D01*
X46595730Y-42424891D01*
X46595730Y-42530363D01*
X46577248Y-42581143D01*
X46572591Y-42586224D01*
X46519752Y-42639062D01*
X46467682Y-42729249D01*
X46467681Y-42729253D01*
X46440730Y-42829836D01*
X46440730Y-42933979D01*
X46467681Y-43034562D01*
X46467682Y-43034566D01*
X46519752Y-43124753D01*
X46593384Y-43198385D01*
X46678184Y-43247345D01*
X46683573Y-43250456D01*
X46784161Y-43277408D01*
X46784163Y-43277408D01*
X46888297Y-43277408D01*
X46888299Y-43277408D01*
X46988887Y-43250456D01*
X47079073Y-43198387D01*
X47152709Y-43124751D01*
X47204778Y-43034565D01*
X47231730Y-42933977D01*
X47231730Y-42829839D01*
X47204778Y-42729251D01*
X47152709Y-42639065D01*
X47152708Y-42639064D01*
X47152707Y-42639062D01*
X47099869Y-42586224D01*
X47077031Y-42537248D01*
X47076730Y-42530363D01*
X47076730Y-42040749D01*
X47095212Y-41989969D01*
X47142012Y-41962949D01*
X47195230Y-41972333D01*
G37*
%TD.AperFunction*%
%TA.AperFunction,Conductor*%
G36*
X48443057Y-41818482D02*
G01*
X48448138Y-41823139D01*
X48448384Y-41823385D01*
X48448386Y-41823386D01*
X48448387Y-41823387D01*
X48538573Y-41875456D01*
X48639161Y-41902408D01*
X48639163Y-41902408D01*
X48743297Y-41902408D01*
X48743299Y-41902408D01*
X48843887Y-41875456D01*
X48934073Y-41823387D01*
X48934075Y-41823385D01*
X48934322Y-41823139D01*
X48934512Y-41823049D01*
X48938183Y-41820234D01*
X48938807Y-41821047D01*
X48983298Y-41800301D01*
X48990183Y-41800000D01*
X53119404Y-41800000D01*
X53170184Y-41818482D01*
X53197204Y-41865282D01*
X53187820Y-41918500D01*
X53175265Y-41934861D01*
X51477480Y-43632644D01*
X51428504Y-43655482D01*
X51376306Y-43641496D01*
X51345312Y-43597232D01*
X51318548Y-43497343D01*
X51310568Y-43483522D01*
X51266477Y-43407154D01*
X51192845Y-43333522D01*
X51102658Y-43281452D01*
X51102654Y-43281451D01*
X51002071Y-43254500D01*
X51002069Y-43254500D01*
X50897931Y-43254500D01*
X50897928Y-43254500D01*
X50797345Y-43281451D01*
X50797341Y-43281452D01*
X50707154Y-43333522D01*
X50633522Y-43407154D01*
X50581452Y-43497341D01*
X50581451Y-43497345D01*
X50554500Y-43597928D01*
X50554500Y-43630500D01*
X50536018Y-43681280D01*
X50489218Y-43708300D01*
X50475500Y-43709500D01*
X48413557Y-43709500D01*
X48362777Y-43691018D01*
X48335757Y-43644218D01*
X48345141Y-43591000D01*
X48364680Y-43557157D01*
X48367278Y-43552657D01*
X48394230Y-43452069D01*
X48394230Y-43347931D01*
X48367278Y-43247343D01*
X48315209Y-43157157D01*
X48315208Y-43157156D01*
X48315207Y-43157154D01*
X48262369Y-43104316D01*
X48239531Y-43055340D01*
X48239230Y-43048455D01*
X48239230Y-42384071D01*
X48238108Y-42381361D01*
X48234582Y-42372847D01*
X48202616Y-42295675D01*
X47919209Y-42012268D01*
X47896372Y-41963293D01*
X47910358Y-41911096D01*
X47954624Y-41880100D01*
X47975071Y-41877408D01*
X47988297Y-41877408D01*
X47988299Y-41877408D01*
X48088887Y-41850456D01*
X48157947Y-41810583D01*
X48197447Y-41800000D01*
X48392277Y-41800000D01*
X48443057Y-41818482D01*
G37*
%TD.AperFunction*%
%TD*%
%TA.AperFunction,Conductor*%
%TO.N,GND*%
G36*
X62090280Y-25399982D02*
G01*
X62117300Y-25446782D01*
X62118500Y-25460500D01*
X62118500Y-30171000D01*
X62100018Y-30221780D01*
X62053218Y-30248800D01*
X62039500Y-30250000D01*
X52079000Y-30250000D01*
X52028220Y-30231518D01*
X52001200Y-30184718D01*
X52000000Y-30171000D01*
X52000000Y-25460500D01*
X52018482Y-25409720D01*
X52065282Y-25382700D01*
X52079000Y-25381500D01*
X62039500Y-25381500D01*
X62090280Y-25399982D01*
G37*
%TD.AperFunction*%
%TD*%
M02*
