%TF.GenerationSoftware,KiCad,Pcbnew,9.0.1*%
%TF.CreationDate,2025-10-23T22:13:15-04:00*%
%TF.ProjectId,OshTeledongle,4f736854-656c-4656-946f-6e676c652e6b,rev?*%
%TF.SameCoordinates,Original*%
%TF.FileFunction,Legend,Top*%
%TF.FilePolarity,Positive*%
%FSLAX46Y46*%
G04 Gerber Fmt 4.6, Leading zero omitted, Abs format (unit mm)*
G04 Created by KiCad (PCBNEW 9.0.1) date 2025-10-23 22:13:15*
%MOMM*%
%LPD*%
G01*
G04 APERTURE LIST*
%ADD10C,0.150000*%
%ADD11C,0.120000*%
%ADD12C,0.152400*%
G04 APERTURE END LIST*
D10*
X38061905Y-56264819D02*
X38061905Y-55264819D01*
X38061905Y-55264819D02*
X38300000Y-55264819D01*
X38300000Y-55264819D02*
X38442857Y-55312438D01*
X38442857Y-55312438D02*
X38538095Y-55407676D01*
X38538095Y-55407676D02*
X38585714Y-55502914D01*
X38585714Y-55502914D02*
X38633333Y-55693390D01*
X38633333Y-55693390D02*
X38633333Y-55836247D01*
X38633333Y-55836247D02*
X38585714Y-56026723D01*
X38585714Y-56026723D02*
X38538095Y-56121961D01*
X38538095Y-56121961D02*
X38442857Y-56217200D01*
X38442857Y-56217200D02*
X38300000Y-56264819D01*
X38300000Y-56264819D02*
X38061905Y-56264819D01*
X39014286Y-55360057D02*
X39061905Y-55312438D01*
X39061905Y-55312438D02*
X39157143Y-55264819D01*
X39157143Y-55264819D02*
X39395238Y-55264819D01*
X39395238Y-55264819D02*
X39490476Y-55312438D01*
X39490476Y-55312438D02*
X39538095Y-55360057D01*
X39538095Y-55360057D02*
X39585714Y-55455295D01*
X39585714Y-55455295D02*
X39585714Y-55550533D01*
X39585714Y-55550533D02*
X39538095Y-55693390D01*
X39538095Y-55693390D02*
X38966667Y-56264819D01*
X38966667Y-56264819D02*
X39585714Y-56264819D01*
X40057142Y-52609580D02*
X40009523Y-52657200D01*
X40009523Y-52657200D02*
X39866666Y-52704819D01*
X39866666Y-52704819D02*
X39771428Y-52704819D01*
X39771428Y-52704819D02*
X39628571Y-52657200D01*
X39628571Y-52657200D02*
X39533333Y-52561961D01*
X39533333Y-52561961D02*
X39485714Y-52466723D01*
X39485714Y-52466723D02*
X39438095Y-52276247D01*
X39438095Y-52276247D02*
X39438095Y-52133390D01*
X39438095Y-52133390D02*
X39485714Y-51942914D01*
X39485714Y-51942914D02*
X39533333Y-51847676D01*
X39533333Y-51847676D02*
X39628571Y-51752438D01*
X39628571Y-51752438D02*
X39771428Y-51704819D01*
X39771428Y-51704819D02*
X39866666Y-51704819D01*
X39866666Y-51704819D02*
X40009523Y-51752438D01*
X40009523Y-51752438D02*
X40057142Y-51800057D01*
X40914285Y-52038152D02*
X40914285Y-52704819D01*
X40676190Y-51657200D02*
X40438095Y-52371485D01*
X40438095Y-52371485D02*
X41057142Y-52371485D01*
X41866666Y-52038152D02*
X41866666Y-52704819D01*
X41628571Y-51657200D02*
X41390476Y-52371485D01*
X41390476Y-52371485D02*
X42009523Y-52371485D01*
X41931009Y-50833333D02*
X41931009Y-51166666D01*
X42454819Y-51166666D02*
X41454819Y-51166666D01*
X41454819Y-51166666D02*
X41454819Y-50690476D01*
X41931009Y-49976190D02*
X41978628Y-49833333D01*
X41978628Y-49833333D02*
X42026247Y-49785714D01*
X42026247Y-49785714D02*
X42121485Y-49738095D01*
X42121485Y-49738095D02*
X42264342Y-49738095D01*
X42264342Y-49738095D02*
X42359580Y-49785714D01*
X42359580Y-49785714D02*
X42407200Y-49833333D01*
X42407200Y-49833333D02*
X42454819Y-49928571D01*
X42454819Y-49928571D02*
X42454819Y-50309523D01*
X42454819Y-50309523D02*
X41454819Y-50309523D01*
X41454819Y-50309523D02*
X41454819Y-49976190D01*
X41454819Y-49976190D02*
X41502438Y-49880952D01*
X41502438Y-49880952D02*
X41550057Y-49833333D01*
X41550057Y-49833333D02*
X41645295Y-49785714D01*
X41645295Y-49785714D02*
X41740533Y-49785714D01*
X41740533Y-49785714D02*
X41835771Y-49833333D01*
X41835771Y-49833333D02*
X41883390Y-49880952D01*
X41883390Y-49880952D02*
X41931009Y-49976190D01*
X41931009Y-49976190D02*
X41931009Y-50309523D01*
X42454819Y-48785714D02*
X42454819Y-49357142D01*
X42454819Y-49071428D02*
X41454819Y-49071428D01*
X41454819Y-49071428D02*
X41597676Y-49166666D01*
X41597676Y-49166666D02*
X41692914Y-49261904D01*
X41692914Y-49261904D02*
X41740533Y-49357142D01*
X52533333Y-61954819D02*
X52200000Y-61478628D01*
X51961905Y-61954819D02*
X51961905Y-60954819D01*
X51961905Y-60954819D02*
X52342857Y-60954819D01*
X52342857Y-60954819D02*
X52438095Y-61002438D01*
X52438095Y-61002438D02*
X52485714Y-61050057D01*
X52485714Y-61050057D02*
X52533333Y-61145295D01*
X52533333Y-61145295D02*
X52533333Y-61288152D01*
X52533333Y-61288152D02*
X52485714Y-61383390D01*
X52485714Y-61383390D02*
X52438095Y-61431009D01*
X52438095Y-61431009D02*
X52342857Y-61478628D01*
X52342857Y-61478628D02*
X51961905Y-61478628D01*
X53009524Y-61954819D02*
X53200000Y-61954819D01*
X53200000Y-61954819D02*
X53295238Y-61907200D01*
X53295238Y-61907200D02*
X53342857Y-61859580D01*
X53342857Y-61859580D02*
X53438095Y-61716723D01*
X53438095Y-61716723D02*
X53485714Y-61526247D01*
X53485714Y-61526247D02*
X53485714Y-61145295D01*
X53485714Y-61145295D02*
X53438095Y-61050057D01*
X53438095Y-61050057D02*
X53390476Y-61002438D01*
X53390476Y-61002438D02*
X53295238Y-60954819D01*
X53295238Y-60954819D02*
X53104762Y-60954819D01*
X53104762Y-60954819D02*
X53009524Y-61002438D01*
X53009524Y-61002438D02*
X52961905Y-61050057D01*
X52961905Y-61050057D02*
X52914286Y-61145295D01*
X52914286Y-61145295D02*
X52914286Y-61383390D01*
X52914286Y-61383390D02*
X52961905Y-61478628D01*
X52961905Y-61478628D02*
X53009524Y-61526247D01*
X53009524Y-61526247D02*
X53104762Y-61573866D01*
X53104762Y-61573866D02*
X53295238Y-61573866D01*
X53295238Y-61573866D02*
X53390476Y-61526247D01*
X53390476Y-61526247D02*
X53438095Y-61478628D01*
X53438095Y-61478628D02*
X53485714Y-61383390D01*
X42957142Y-54559580D02*
X42909523Y-54607200D01*
X42909523Y-54607200D02*
X42766666Y-54654819D01*
X42766666Y-54654819D02*
X42671428Y-54654819D01*
X42671428Y-54654819D02*
X42528571Y-54607200D01*
X42528571Y-54607200D02*
X42433333Y-54511961D01*
X42433333Y-54511961D02*
X42385714Y-54416723D01*
X42385714Y-54416723D02*
X42338095Y-54226247D01*
X42338095Y-54226247D02*
X42338095Y-54083390D01*
X42338095Y-54083390D02*
X42385714Y-53892914D01*
X42385714Y-53892914D02*
X42433333Y-53797676D01*
X42433333Y-53797676D02*
X42528571Y-53702438D01*
X42528571Y-53702438D02*
X42671428Y-53654819D01*
X42671428Y-53654819D02*
X42766666Y-53654819D01*
X42766666Y-53654819D02*
X42909523Y-53702438D01*
X42909523Y-53702438D02*
X42957142Y-53750057D01*
X43814285Y-53988152D02*
X43814285Y-54654819D01*
X43576190Y-53607200D02*
X43338095Y-54321485D01*
X43338095Y-54321485D02*
X43957142Y-54321485D01*
X44242857Y-53654819D02*
X44861904Y-53654819D01*
X44861904Y-53654819D02*
X44528571Y-54035771D01*
X44528571Y-54035771D02*
X44671428Y-54035771D01*
X44671428Y-54035771D02*
X44766666Y-54083390D01*
X44766666Y-54083390D02*
X44814285Y-54131009D01*
X44814285Y-54131009D02*
X44861904Y-54226247D01*
X44861904Y-54226247D02*
X44861904Y-54464342D01*
X44861904Y-54464342D02*
X44814285Y-54559580D01*
X44814285Y-54559580D02*
X44766666Y-54607200D01*
X44766666Y-54607200D02*
X44671428Y-54654819D01*
X44671428Y-54654819D02*
X44385714Y-54654819D01*
X44385714Y-54654819D02*
X44290476Y-54607200D01*
X44290476Y-54607200D02*
X44242857Y-54559580D01*
X49107142Y-81509580D02*
X49059523Y-81557200D01*
X49059523Y-81557200D02*
X48916666Y-81604819D01*
X48916666Y-81604819D02*
X48821428Y-81604819D01*
X48821428Y-81604819D02*
X48678571Y-81557200D01*
X48678571Y-81557200D02*
X48583333Y-81461961D01*
X48583333Y-81461961D02*
X48535714Y-81366723D01*
X48535714Y-81366723D02*
X48488095Y-81176247D01*
X48488095Y-81176247D02*
X48488095Y-81033390D01*
X48488095Y-81033390D02*
X48535714Y-80842914D01*
X48535714Y-80842914D02*
X48583333Y-80747676D01*
X48583333Y-80747676D02*
X48678571Y-80652438D01*
X48678571Y-80652438D02*
X48821428Y-80604819D01*
X48821428Y-80604819D02*
X48916666Y-80604819D01*
X48916666Y-80604819D02*
X49059523Y-80652438D01*
X49059523Y-80652438D02*
X49107142Y-80700057D01*
X49964285Y-80938152D02*
X49964285Y-81604819D01*
X49726190Y-80557200D02*
X49488095Y-81271485D01*
X49488095Y-81271485D02*
X50107142Y-81271485D01*
X50392857Y-80604819D02*
X51059523Y-80604819D01*
X51059523Y-80604819D02*
X50630952Y-81604819D01*
X38959580Y-53392857D02*
X39007200Y-53440476D01*
X39007200Y-53440476D02*
X39054819Y-53583333D01*
X39054819Y-53583333D02*
X39054819Y-53678571D01*
X39054819Y-53678571D02*
X39007200Y-53821428D01*
X39007200Y-53821428D02*
X38911961Y-53916666D01*
X38911961Y-53916666D02*
X38816723Y-53964285D01*
X38816723Y-53964285D02*
X38626247Y-54011904D01*
X38626247Y-54011904D02*
X38483390Y-54011904D01*
X38483390Y-54011904D02*
X38292914Y-53964285D01*
X38292914Y-53964285D02*
X38197676Y-53916666D01*
X38197676Y-53916666D02*
X38102438Y-53821428D01*
X38102438Y-53821428D02*
X38054819Y-53678571D01*
X38054819Y-53678571D02*
X38054819Y-53583333D01*
X38054819Y-53583333D02*
X38102438Y-53440476D01*
X38102438Y-53440476D02*
X38150057Y-53392857D01*
X38388152Y-52535714D02*
X39054819Y-52535714D01*
X38007200Y-52773809D02*
X38721485Y-53011904D01*
X38721485Y-53011904D02*
X38721485Y-52392857D01*
X38054819Y-51535714D02*
X38054819Y-52011904D01*
X38054819Y-52011904D02*
X38531009Y-52059523D01*
X38531009Y-52059523D02*
X38483390Y-52011904D01*
X38483390Y-52011904D02*
X38435771Y-51916666D01*
X38435771Y-51916666D02*
X38435771Y-51678571D01*
X38435771Y-51678571D02*
X38483390Y-51583333D01*
X38483390Y-51583333D02*
X38531009Y-51535714D01*
X38531009Y-51535714D02*
X38626247Y-51488095D01*
X38626247Y-51488095D02*
X38864342Y-51488095D01*
X38864342Y-51488095D02*
X38959580Y-51535714D01*
X38959580Y-51535714D02*
X39007200Y-51583333D01*
X39007200Y-51583333D02*
X39054819Y-51678571D01*
X39054819Y-51678571D02*
X39054819Y-51916666D01*
X39054819Y-51916666D02*
X39007200Y-52011904D01*
X39007200Y-52011904D02*
X38959580Y-52059523D01*
X45957142Y-56254819D02*
X45623809Y-55778628D01*
X45385714Y-56254819D02*
X45385714Y-55254819D01*
X45385714Y-55254819D02*
X45766666Y-55254819D01*
X45766666Y-55254819D02*
X45861904Y-55302438D01*
X45861904Y-55302438D02*
X45909523Y-55350057D01*
X45909523Y-55350057D02*
X45957142Y-55445295D01*
X45957142Y-55445295D02*
X45957142Y-55588152D01*
X45957142Y-55588152D02*
X45909523Y-55683390D01*
X45909523Y-55683390D02*
X45861904Y-55731009D01*
X45861904Y-55731009D02*
X45766666Y-55778628D01*
X45766666Y-55778628D02*
X45385714Y-55778628D01*
X46909523Y-56254819D02*
X46338095Y-56254819D01*
X46623809Y-56254819D02*
X46623809Y-55254819D01*
X46623809Y-55254819D02*
X46528571Y-55397676D01*
X46528571Y-55397676D02*
X46433333Y-55492914D01*
X46433333Y-55492914D02*
X46338095Y-55540533D01*
X47242857Y-55254819D02*
X47861904Y-55254819D01*
X47861904Y-55254819D02*
X47528571Y-55635771D01*
X47528571Y-55635771D02*
X47671428Y-55635771D01*
X47671428Y-55635771D02*
X47766666Y-55683390D01*
X47766666Y-55683390D02*
X47814285Y-55731009D01*
X47814285Y-55731009D02*
X47861904Y-55826247D01*
X47861904Y-55826247D02*
X47861904Y-56064342D01*
X47861904Y-56064342D02*
X47814285Y-56159580D01*
X47814285Y-56159580D02*
X47766666Y-56207200D01*
X47766666Y-56207200D02*
X47671428Y-56254819D01*
X47671428Y-56254819D02*
X47385714Y-56254819D01*
X47385714Y-56254819D02*
X47290476Y-56207200D01*
X47290476Y-56207200D02*
X47242857Y-56159580D01*
X57054819Y-51574403D02*
X57864342Y-51574403D01*
X57864342Y-51574403D02*
X57959580Y-51526784D01*
X57959580Y-51526784D02*
X58007200Y-51479165D01*
X58007200Y-51479165D02*
X58054819Y-51383927D01*
X58054819Y-51383927D02*
X58054819Y-51193451D01*
X58054819Y-51193451D02*
X58007200Y-51098213D01*
X58007200Y-51098213D02*
X57959580Y-51050594D01*
X57959580Y-51050594D02*
X57864342Y-51002975D01*
X57864342Y-51002975D02*
X57054819Y-51002975D01*
X58054819Y-50002975D02*
X58054819Y-50574403D01*
X58054819Y-50288689D02*
X57054819Y-50288689D01*
X57054819Y-50288689D02*
X57197676Y-50383927D01*
X57197676Y-50383927D02*
X57292914Y-50479165D01*
X57292914Y-50479165D02*
X57340533Y-50574403D01*
X38249405Y-57654819D02*
X38249405Y-56654819D01*
X38249405Y-56654819D02*
X38487500Y-56654819D01*
X38487500Y-56654819D02*
X38630357Y-56702438D01*
X38630357Y-56702438D02*
X38725595Y-56797676D01*
X38725595Y-56797676D02*
X38773214Y-56892914D01*
X38773214Y-56892914D02*
X38820833Y-57083390D01*
X38820833Y-57083390D02*
X38820833Y-57226247D01*
X38820833Y-57226247D02*
X38773214Y-57416723D01*
X38773214Y-57416723D02*
X38725595Y-57511961D01*
X38725595Y-57511961D02*
X38630357Y-57607200D01*
X38630357Y-57607200D02*
X38487500Y-57654819D01*
X38487500Y-57654819D02*
X38249405Y-57654819D01*
X39773214Y-57654819D02*
X39201786Y-57654819D01*
X39487500Y-57654819D02*
X39487500Y-56654819D01*
X39487500Y-56654819D02*
X39392262Y-56797676D01*
X39392262Y-56797676D02*
X39297024Y-56892914D01*
X39297024Y-56892914D02*
X39201786Y-56940533D01*
X52433333Y-57054819D02*
X52100000Y-56578628D01*
X51861905Y-57054819D02*
X51861905Y-56054819D01*
X51861905Y-56054819D02*
X52242857Y-56054819D01*
X52242857Y-56054819D02*
X52338095Y-56102438D01*
X52338095Y-56102438D02*
X52385714Y-56150057D01*
X52385714Y-56150057D02*
X52433333Y-56245295D01*
X52433333Y-56245295D02*
X52433333Y-56388152D01*
X52433333Y-56388152D02*
X52385714Y-56483390D01*
X52385714Y-56483390D02*
X52338095Y-56531009D01*
X52338095Y-56531009D02*
X52242857Y-56578628D01*
X52242857Y-56578628D02*
X51861905Y-56578628D01*
X52814286Y-56150057D02*
X52861905Y-56102438D01*
X52861905Y-56102438D02*
X52957143Y-56054819D01*
X52957143Y-56054819D02*
X53195238Y-56054819D01*
X53195238Y-56054819D02*
X53290476Y-56102438D01*
X53290476Y-56102438D02*
X53338095Y-56150057D01*
X53338095Y-56150057D02*
X53385714Y-56245295D01*
X53385714Y-56245295D02*
X53385714Y-56340533D01*
X53385714Y-56340533D02*
X53338095Y-56483390D01*
X53338095Y-56483390D02*
X52766667Y-57054819D01*
X52766667Y-57054819D02*
X53385714Y-57054819D01*
X38907142Y-44809580D02*
X38859523Y-44857200D01*
X38859523Y-44857200D02*
X38716666Y-44904819D01*
X38716666Y-44904819D02*
X38621428Y-44904819D01*
X38621428Y-44904819D02*
X38478571Y-44857200D01*
X38478571Y-44857200D02*
X38383333Y-44761961D01*
X38383333Y-44761961D02*
X38335714Y-44666723D01*
X38335714Y-44666723D02*
X38288095Y-44476247D01*
X38288095Y-44476247D02*
X38288095Y-44333390D01*
X38288095Y-44333390D02*
X38335714Y-44142914D01*
X38335714Y-44142914D02*
X38383333Y-44047676D01*
X38383333Y-44047676D02*
X38478571Y-43952438D01*
X38478571Y-43952438D02*
X38621428Y-43904819D01*
X38621428Y-43904819D02*
X38716666Y-43904819D01*
X38716666Y-43904819D02*
X38859523Y-43952438D01*
X38859523Y-43952438D02*
X38907142Y-44000057D01*
X39764285Y-44238152D02*
X39764285Y-44904819D01*
X39526190Y-43857200D02*
X39288095Y-44571485D01*
X39288095Y-44571485D02*
X39907142Y-44571485D01*
X40716666Y-43904819D02*
X40526190Y-43904819D01*
X40526190Y-43904819D02*
X40430952Y-43952438D01*
X40430952Y-43952438D02*
X40383333Y-44000057D01*
X40383333Y-44000057D02*
X40288095Y-44142914D01*
X40288095Y-44142914D02*
X40240476Y-44333390D01*
X40240476Y-44333390D02*
X40240476Y-44714342D01*
X40240476Y-44714342D02*
X40288095Y-44809580D01*
X40288095Y-44809580D02*
X40335714Y-44857200D01*
X40335714Y-44857200D02*
X40430952Y-44904819D01*
X40430952Y-44904819D02*
X40621428Y-44904819D01*
X40621428Y-44904819D02*
X40716666Y-44857200D01*
X40716666Y-44857200D02*
X40764285Y-44809580D01*
X40764285Y-44809580D02*
X40811904Y-44714342D01*
X40811904Y-44714342D02*
X40811904Y-44476247D01*
X40811904Y-44476247D02*
X40764285Y-44381009D01*
X40764285Y-44381009D02*
X40716666Y-44333390D01*
X40716666Y-44333390D02*
X40621428Y-44285771D01*
X40621428Y-44285771D02*
X40430952Y-44285771D01*
X40430952Y-44285771D02*
X40335714Y-44333390D01*
X40335714Y-44333390D02*
X40288095Y-44381009D01*
X40288095Y-44381009D02*
X40240476Y-44476247D01*
X53638095Y-44654819D02*
X53638095Y-45464342D01*
X53638095Y-45464342D02*
X53685714Y-45559580D01*
X53685714Y-45559580D02*
X53733333Y-45607200D01*
X53733333Y-45607200D02*
X53828571Y-45654819D01*
X53828571Y-45654819D02*
X54019047Y-45654819D01*
X54019047Y-45654819D02*
X54114285Y-45607200D01*
X54114285Y-45607200D02*
X54161904Y-45559580D01*
X54161904Y-45559580D02*
X54209523Y-45464342D01*
X54209523Y-45464342D02*
X54209523Y-44654819D01*
X54590476Y-44654819D02*
X55209523Y-44654819D01*
X55209523Y-44654819D02*
X54876190Y-45035771D01*
X54876190Y-45035771D02*
X55019047Y-45035771D01*
X55019047Y-45035771D02*
X55114285Y-45083390D01*
X55114285Y-45083390D02*
X55161904Y-45131009D01*
X55161904Y-45131009D02*
X55209523Y-45226247D01*
X55209523Y-45226247D02*
X55209523Y-45464342D01*
X55209523Y-45464342D02*
X55161904Y-45559580D01*
X55161904Y-45559580D02*
X55114285Y-45607200D01*
X55114285Y-45607200D02*
X55019047Y-45654819D01*
X55019047Y-45654819D02*
X54733333Y-45654819D01*
X54733333Y-45654819D02*
X54638095Y-45607200D01*
X54638095Y-45607200D02*
X54590476Y-45559580D01*
X42228628Y-46376190D02*
X42704819Y-46376190D01*
X41704819Y-46709523D02*
X42228628Y-46376190D01*
X42228628Y-46376190D02*
X41704819Y-46042857D01*
X41800057Y-45757142D02*
X41752438Y-45709523D01*
X41752438Y-45709523D02*
X41704819Y-45614285D01*
X41704819Y-45614285D02*
X41704819Y-45376190D01*
X41704819Y-45376190D02*
X41752438Y-45280952D01*
X41752438Y-45280952D02*
X41800057Y-45233333D01*
X41800057Y-45233333D02*
X41895295Y-45185714D01*
X41895295Y-45185714D02*
X41990533Y-45185714D01*
X41990533Y-45185714D02*
X42133390Y-45233333D01*
X42133390Y-45233333D02*
X42704819Y-45804761D01*
X42704819Y-45804761D02*
X42704819Y-45185714D01*
X47054820Y-62549404D02*
X47864343Y-62549404D01*
X47864343Y-62549404D02*
X47959581Y-62501785D01*
X47959581Y-62501785D02*
X48007201Y-62454166D01*
X48007201Y-62454166D02*
X48054820Y-62358928D01*
X48054820Y-62358928D02*
X48054820Y-62168452D01*
X48054820Y-62168452D02*
X48007201Y-62073214D01*
X48007201Y-62073214D02*
X47959581Y-62025595D01*
X47959581Y-62025595D02*
X47864343Y-61977976D01*
X47864343Y-61977976D02*
X47054820Y-61977976D01*
X47150058Y-61549404D02*
X47102439Y-61501785D01*
X47102439Y-61501785D02*
X47054820Y-61406547D01*
X47054820Y-61406547D02*
X47054820Y-61168452D01*
X47054820Y-61168452D02*
X47102439Y-61073214D01*
X47102439Y-61073214D02*
X47150058Y-61025595D01*
X47150058Y-61025595D02*
X47245296Y-60977976D01*
X47245296Y-60977976D02*
X47340534Y-60977976D01*
X47340534Y-60977976D02*
X47483391Y-61025595D01*
X47483391Y-61025595D02*
X48054820Y-61597023D01*
X48054820Y-61597023D02*
X48054820Y-60977976D01*
X48104459Y-74661364D02*
X48913982Y-74661364D01*
X48913982Y-74661364D02*
X49009220Y-74613745D01*
X49009220Y-74613745D02*
X49056840Y-74566126D01*
X49056840Y-74566126D02*
X49104459Y-74470888D01*
X49104459Y-74470888D02*
X49104459Y-74280412D01*
X49104459Y-74280412D02*
X49056840Y-74185174D01*
X49056840Y-74185174D02*
X49009220Y-74137555D01*
X49009220Y-74137555D02*
X48913982Y-74089936D01*
X48913982Y-74089936D02*
X48104459Y-74089936D01*
X48437792Y-73185174D02*
X49104459Y-73185174D01*
X48056840Y-73423269D02*
X48771125Y-73661364D01*
X48771125Y-73661364D02*
X48771125Y-73042317D01*
X37903819Y-80784129D02*
X38141914Y-80784129D01*
X38046676Y-81022224D02*
X38141914Y-80784129D01*
X38141914Y-80784129D02*
X38046676Y-80546034D01*
X38332390Y-80926986D02*
X38141914Y-80784129D01*
X38141914Y-80784129D02*
X38332390Y-80641272D01*
X37903819Y-80784129D02*
X38141914Y-80784129D01*
X38046676Y-81022224D02*
X38141914Y-80784129D01*
X38141914Y-80784129D02*
X38046676Y-80546034D01*
X38332390Y-80926986D02*
X38141914Y-80784129D01*
X38141914Y-80784129D02*
X38332390Y-80641272D01*
X52754819Y-63456667D02*
X52278628Y-63790000D01*
X52754819Y-64028095D02*
X51754819Y-64028095D01*
X51754819Y-64028095D02*
X51754819Y-63647143D01*
X51754819Y-63647143D02*
X51802438Y-63551905D01*
X51802438Y-63551905D02*
X51850057Y-63504286D01*
X51850057Y-63504286D02*
X51945295Y-63456667D01*
X51945295Y-63456667D02*
X52088152Y-63456667D01*
X52088152Y-63456667D02*
X52183390Y-63504286D01*
X52183390Y-63504286D02*
X52231009Y-63551905D01*
X52231009Y-63551905D02*
X52278628Y-63647143D01*
X52278628Y-63647143D02*
X52278628Y-64028095D01*
X52754819Y-62504286D02*
X52754819Y-63075714D01*
X52754819Y-62790000D02*
X51754819Y-62790000D01*
X51754819Y-62790000D02*
X51897676Y-62885238D01*
X51897676Y-62885238D02*
X51992914Y-62980476D01*
X51992914Y-62980476D02*
X52040533Y-63075714D01*
X49557142Y-59554819D02*
X49223809Y-59078628D01*
X48985714Y-59554819D02*
X48985714Y-58554819D01*
X48985714Y-58554819D02*
X49366666Y-58554819D01*
X49366666Y-58554819D02*
X49461904Y-58602438D01*
X49461904Y-58602438D02*
X49509523Y-58650057D01*
X49509523Y-58650057D02*
X49557142Y-58745295D01*
X49557142Y-58745295D02*
X49557142Y-58888152D01*
X49557142Y-58888152D02*
X49509523Y-58983390D01*
X49509523Y-58983390D02*
X49461904Y-59031009D01*
X49461904Y-59031009D02*
X49366666Y-59078628D01*
X49366666Y-59078628D02*
X48985714Y-59078628D01*
X50509523Y-59554819D02*
X49938095Y-59554819D01*
X50223809Y-59554819D02*
X50223809Y-58554819D01*
X50223809Y-58554819D02*
X50128571Y-58697676D01*
X50128571Y-58697676D02*
X50033333Y-58792914D01*
X50033333Y-58792914D02*
X49938095Y-58840533D01*
X51128571Y-58554819D02*
X51223809Y-58554819D01*
X51223809Y-58554819D02*
X51319047Y-58602438D01*
X51319047Y-58602438D02*
X51366666Y-58650057D01*
X51366666Y-58650057D02*
X51414285Y-58745295D01*
X51414285Y-58745295D02*
X51461904Y-58935771D01*
X51461904Y-58935771D02*
X51461904Y-59173866D01*
X51461904Y-59173866D02*
X51414285Y-59364342D01*
X51414285Y-59364342D02*
X51366666Y-59459580D01*
X51366666Y-59459580D02*
X51319047Y-59507200D01*
X51319047Y-59507200D02*
X51223809Y-59554819D01*
X51223809Y-59554819D02*
X51128571Y-59554819D01*
X51128571Y-59554819D02*
X51033333Y-59507200D01*
X51033333Y-59507200D02*
X50985714Y-59459580D01*
X50985714Y-59459580D02*
X50938095Y-59364342D01*
X50938095Y-59364342D02*
X50890476Y-59173866D01*
X50890476Y-59173866D02*
X50890476Y-58935771D01*
X50890476Y-58935771D02*
X50938095Y-58745295D01*
X50938095Y-58745295D02*
X50985714Y-58650057D01*
X50985714Y-58650057D02*
X51033333Y-58602438D01*
X51033333Y-58602438D02*
X51128571Y-58554819D01*
X45844642Y-57864819D02*
X45511309Y-57388628D01*
X45273214Y-57864819D02*
X45273214Y-56864819D01*
X45273214Y-56864819D02*
X45654166Y-56864819D01*
X45654166Y-56864819D02*
X45749404Y-56912438D01*
X45749404Y-56912438D02*
X45797023Y-56960057D01*
X45797023Y-56960057D02*
X45844642Y-57055295D01*
X45844642Y-57055295D02*
X45844642Y-57198152D01*
X45844642Y-57198152D02*
X45797023Y-57293390D01*
X45797023Y-57293390D02*
X45749404Y-57341009D01*
X45749404Y-57341009D02*
X45654166Y-57388628D01*
X45654166Y-57388628D02*
X45273214Y-57388628D01*
X46797023Y-57864819D02*
X46225595Y-57864819D01*
X46511309Y-57864819D02*
X46511309Y-56864819D01*
X46511309Y-56864819D02*
X46416071Y-57007676D01*
X46416071Y-57007676D02*
X46320833Y-57102914D01*
X46320833Y-57102914D02*
X46225595Y-57150533D01*
X47749404Y-57864819D02*
X47177976Y-57864819D01*
X47463690Y-57864819D02*
X47463690Y-56864819D01*
X47463690Y-56864819D02*
X47368452Y-57007676D01*
X47368452Y-57007676D02*
X47273214Y-57102914D01*
X47273214Y-57102914D02*
X47177976Y-57150533D01*
X61504819Y-67766666D02*
X61028628Y-68099999D01*
X61504819Y-68338094D02*
X60504819Y-68338094D01*
X60504819Y-68338094D02*
X60504819Y-67957142D01*
X60504819Y-67957142D02*
X60552438Y-67861904D01*
X60552438Y-67861904D02*
X60600057Y-67814285D01*
X60600057Y-67814285D02*
X60695295Y-67766666D01*
X60695295Y-67766666D02*
X60838152Y-67766666D01*
X60838152Y-67766666D02*
X60933390Y-67814285D01*
X60933390Y-67814285D02*
X60981009Y-67861904D01*
X60981009Y-67861904D02*
X61028628Y-67957142D01*
X61028628Y-67957142D02*
X61028628Y-68338094D01*
X60504819Y-67433332D02*
X60504819Y-66814285D01*
X60504819Y-66814285D02*
X60885771Y-67147618D01*
X60885771Y-67147618D02*
X60885771Y-67004761D01*
X60885771Y-67004761D02*
X60933390Y-66909523D01*
X60933390Y-66909523D02*
X60981009Y-66861904D01*
X60981009Y-66861904D02*
X61076247Y-66814285D01*
X61076247Y-66814285D02*
X61314342Y-66814285D01*
X61314342Y-66814285D02*
X61409580Y-66861904D01*
X61409580Y-66861904D02*
X61457200Y-66909523D01*
X61457200Y-66909523D02*
X61504819Y-67004761D01*
X61504819Y-67004761D02*
X61504819Y-67290475D01*
X61504819Y-67290475D02*
X61457200Y-67385713D01*
X61457200Y-67385713D02*
X61409580Y-67433332D01*
D11*
%TO.C,C12*%
X43871615Y-42520183D02*
X43871615Y-42304511D01*
X44591615Y-42520183D02*
X44591615Y-42304511D01*
%TO.C,D2*%
X40015000Y-54965000D02*
X40015000Y-56435000D01*
X40015000Y-56435000D02*
X42300000Y-56435000D01*
X42300000Y-54965000D02*
X40015000Y-54965000D01*
%TO.C,C13*%
X45742639Y-42580124D02*
X45742639Y-42364452D01*
X46462639Y-42580124D02*
X46462639Y-42364452D01*
%TO.C,C29*%
X48714066Y-36651908D02*
X48498394Y-36651908D01*
X48714066Y-37371908D02*
X48498394Y-37371908D01*
%TO.C,C44*%
X42912164Y-51640000D02*
X43127836Y-51640000D01*
X42912164Y-52360000D02*
X43127836Y-52360000D01*
%TO.C,C37*%
X45176230Y-33109744D02*
X45176230Y-32894072D01*
X45896230Y-33109744D02*
X45896230Y-32894072D01*
%TO.C,C1*%
X60412164Y-53052499D02*
X60627836Y-53052499D01*
X60412164Y-53772499D02*
X60627836Y-53772499D01*
%TO.C,C40*%
X48717450Y-34793194D02*
X48501778Y-34793194D01*
X48717450Y-35513194D02*
X48501778Y-35513194D01*
%TO.C,C35*%
X52437076Y-36110868D02*
X52221404Y-36110868D01*
X52437076Y-36830868D02*
X52221404Y-36830868D01*
%TO.C,C25*%
X40181917Y-41810572D02*
X40397589Y-41810572D01*
X40181917Y-42530572D02*
X40397589Y-42530572D01*
%TO.C,C32*%
X39335391Y-33779688D02*
X39551063Y-33779688D01*
X39335391Y-34499688D02*
X39551063Y-34499688D01*
%TO.C,C28*%
X48676776Y-38574594D02*
X48461104Y-38574594D01*
X48676776Y-39294594D02*
X48461104Y-39294594D01*
%TO.C,C2*%
X59687836Y-47852499D02*
X59472164Y-47852499D01*
X59687836Y-48572499D02*
X59472164Y-48572499D01*
%TO.C,C41*%
X51040896Y-34005030D02*
X51040896Y-34220702D01*
X51760896Y-34005030D02*
X51760896Y-34220702D01*
%TO.C,C39*%
X47058607Y-32864429D02*
X47058607Y-33080101D01*
X47778607Y-32864429D02*
X47778607Y-33080101D01*
%TO.C,R9*%
X52863641Y-59920000D02*
X52556359Y-59920000D01*
X52863641Y-60680000D02*
X52556359Y-60680000D01*
%TO.C,C43*%
X42992164Y-52640000D02*
X43207836Y-52640000D01*
X42992164Y-53360000D02*
X43207836Y-53360000D01*
%TO.C,C47*%
X47307836Y-81240000D02*
X47092164Y-81240000D01*
X47307836Y-81960000D02*
X47092164Y-81960000D01*
%TO.C,J3*%
X49750000Y-31267045D02*
X50250000Y-31267045D01*
X50000000Y-30767045D02*
X49750000Y-31267045D01*
X50250000Y-31267045D02*
X50000000Y-30767045D01*
%TO.C,R48*%
X50629871Y-35161908D02*
X50322589Y-35161908D01*
X50629871Y-35921908D02*
X50322589Y-35921908D01*
%TO.C,C45*%
X39442164Y-50540000D02*
X39657836Y-50540000D01*
X39442164Y-51260000D02*
X39657836Y-51260000D01*
%TO.C,C30*%
X39331354Y-34724343D02*
X39547026Y-34724343D01*
X39331354Y-35444343D02*
X39547026Y-35444343D01*
%TO.C,C31*%
X50564066Y-36121908D02*
X50348394Y-36121908D01*
X50564066Y-36841908D02*
X50348394Y-36841908D01*
%TO.C,C11*%
X41708394Y-32821908D02*
X41924066Y-32821908D01*
X41708394Y-33541908D02*
X41924066Y-33541908D01*
%TO.C,C34*%
X39331507Y-35688770D02*
X39547179Y-35688770D01*
X39331507Y-36408770D02*
X39547179Y-36408770D01*
%TO.C,R12*%
X48689871Y-37601908D02*
X48382589Y-37601908D01*
X48689871Y-38361908D02*
X48382589Y-38361908D01*
%TO.C,R13*%
X43956359Y-55320000D02*
X44263641Y-55320000D01*
X43956359Y-56080000D02*
X44263641Y-56080000D01*
%TO.C,J4*%
X58725000Y-54650000D02*
X57025000Y-54650000D01*
X58725000Y-63990000D02*
X57025000Y-63990000D01*
%TO.C,U1*%
X58440000Y-49902499D02*
X58490000Y-49902499D01*
X58440000Y-51722499D02*
X58440000Y-49902499D01*
X58490000Y-51722499D02*
X58440000Y-51722499D01*
X59610000Y-49902499D02*
X60390000Y-49902499D01*
X61510000Y-49902499D02*
X61560000Y-49902499D01*
X61560000Y-49902499D02*
X61560000Y-51722499D01*
X61560000Y-51722499D02*
X61510000Y-51722499D01*
X58490000Y-52262499D02*
X58160000Y-52502499D01*
X58160000Y-52022499D01*
X58490000Y-52262499D01*
G36*
X58490000Y-52262499D02*
G01*
X58160000Y-52502499D01*
X58160000Y-52022499D01*
X58490000Y-52262499D01*
G37*
%TO.C,D1*%
X40002500Y-56565000D02*
X40002500Y-58035000D01*
X40002500Y-58035000D02*
X42287500Y-58035000D01*
X42287500Y-56565000D02*
X40002500Y-56565000D01*
%TO.C,C14*%
X39328394Y-32821908D02*
X39544066Y-32821908D01*
X39328394Y-33541908D02*
X39544066Y-33541908D01*
%TO.C,R2*%
X52943642Y-57420000D02*
X52636360Y-57420000D01*
X52943642Y-58180000D02*
X52636360Y-58180000D01*
%TO.C,C33*%
X41708869Y-31862472D02*
X41924541Y-31862472D01*
X41708869Y-32582472D02*
X41924541Y-32582472D01*
%TO.C,C46*%
X39587836Y-45290000D02*
X39372164Y-45290000D01*
X39587836Y-46010000D02*
X39372164Y-46010000D01*
%TO.C,U3*%
X46190000Y-46190000D02*
X46640000Y-46190000D01*
X46190000Y-46640000D02*
X46190000Y-46190000D01*
X46190000Y-53410000D02*
X46190000Y-52960000D01*
X46640000Y-53410000D02*
X46190000Y-53410000D01*
X52960000Y-46190000D02*
X53410000Y-46190000D01*
X53410000Y-46190000D02*
X53410000Y-46640000D01*
X53410000Y-52960000D02*
X53410000Y-53410000D01*
X53410000Y-53410000D02*
X52960000Y-53410000D01*
X45550000Y-46640000D02*
X45210000Y-46170000D01*
X45890000Y-46170000D01*
X45550000Y-46640000D01*
G36*
X45550000Y-46640000D02*
G01*
X45210000Y-46170000D01*
X45890000Y-46170000D01*
X45550000Y-46640000D01*
G37*
%TO.C,J2*%
X59970000Y-43465000D02*
X60605000Y-43465000D01*
X60605000Y-43465000D02*
X60605000Y-44100000D01*
%TO.C,C36*%
X52435799Y-35170152D02*
X52220127Y-35170152D01*
X52435799Y-35890152D02*
X52220127Y-35890152D01*
%TO.C,C27*%
X41708965Y-33755403D02*
X41924637Y-33755403D01*
X41708965Y-34475403D02*
X41924637Y-34475403D01*
%TO.C,C15*%
X44802403Y-42569191D02*
X44802403Y-42353519D01*
X45522403Y-42569191D02*
X45522403Y-42353519D01*
%TO.C,Y1*%
X37749752Y-37510571D02*
X37749752Y-41630571D01*
X41169754Y-37510571D02*
X37749752Y-37510571D01*
%TO.C,Y2*%
X37839999Y-46240000D02*
X37839999Y-50360000D01*
X41260001Y-46240000D02*
X37839999Y-46240000D01*
%TO.C,C42*%
X51958494Y-34000815D02*
X51958494Y-34216487D01*
X52678494Y-34000815D02*
X52678494Y-34216487D01*
%TO.C,C26*%
X39317589Y-36610573D02*
X39101917Y-36610573D01*
X39317589Y-37330573D02*
X39101917Y-37330573D01*
%TO.C,U2*%
X48440001Y-60877500D02*
X48490001Y-60877500D01*
X48440001Y-62697500D02*
X48440001Y-60877500D01*
X48490001Y-62697500D02*
X48440001Y-62697500D01*
X51510001Y-60877500D02*
X51560001Y-60877500D01*
X51560001Y-60877500D02*
X51560001Y-62697500D01*
X51560001Y-62697500D02*
X51510001Y-62697500D01*
X48490001Y-63237500D02*
X48160001Y-63477500D01*
X48160001Y-62997500D01*
X48490001Y-63237500D01*
G36*
X48490001Y-63237500D02*
G01*
X48160001Y-63477500D01*
X48160001Y-62997500D01*
X48490001Y-63237500D01*
G37*
D12*
%TO.C,U4*%
X37524440Y-67778060D02*
X37760660Y-67778060D01*
X37524440Y-80020860D02*
X37524440Y-67778060D01*
X37760660Y-80020860D02*
X37524440Y-80020860D01*
X40237160Y-67778060D02*
X47260260Y-67778061D01*
X45060620Y-80020860D02*
X40237160Y-80020860D01*
X58535320Y-67778060D02*
X59774840Y-67778060D01*
X59774840Y-67778060D02*
X59774840Y-69911660D01*
X59774840Y-77887260D02*
X59774840Y-80020860D01*
X59774840Y-80020860D02*
X58535320Y-80020860D01*
D11*
%TO.C,R1*%
X52920000Y-63136360D02*
X52920000Y-63443642D01*
X53680000Y-63136360D02*
X53680000Y-63443642D01*
%TO.C,R10*%
X52843642Y-58820000D02*
X52536360Y-58820000D01*
X52843642Y-59580000D02*
X52536360Y-59580000D01*
%TO.C,R11*%
X43933859Y-56920000D02*
X44241141Y-56920000D01*
X43933859Y-57680000D02*
X44241141Y-57680000D01*
%TO.C,C38*%
X48966798Y-33307497D02*
X49182470Y-33307497D01*
X48966798Y-34027497D02*
X49182470Y-34027497D01*
%TO.C,R3*%
X60370000Y-69896359D02*
X60370000Y-70203641D01*
X61130000Y-69896359D02*
X61130000Y-70203641D01*
%TO.C,U8*%
X41863730Y-35609408D02*
X42338730Y-35609408D01*
X41863730Y-36084408D02*
X41863730Y-35609408D01*
X41863730Y-40829408D02*
X41863730Y-40354408D01*
X42338730Y-40829408D02*
X41863730Y-40829408D01*
X46608730Y-35609408D02*
X47083730Y-35609408D01*
X47083730Y-35609408D02*
X47083730Y-36084408D01*
X47083730Y-40354408D02*
X47083730Y-40829408D01*
X47083730Y-40829408D02*
X46608730Y-40829408D01*
X42963730Y-41689408D02*
X42483730Y-41689408D01*
X42723730Y-41359408D01*
X42963730Y-41689408D01*
G36*
X42963730Y-41689408D02*
G01*
X42483730Y-41689408D01*
X42723730Y-41359408D01*
X42963730Y-41689408D01*
G37*
%TD*%
M02*
