%TF.GenerationSoftware,KiCad,Pcbnew,9.0.7*%
%TF.CreationDate,2026-05-16T18:23:08-04:00*%
%TF.ProjectId,OshTeledongle,4f736854-656c-4656-946f-6e676c652e6b,rev?*%
%TF.SameCoordinates,Original*%
%TF.FileFunction,Copper,L2,Inr*%
%TF.FilePolarity,Positive*%
%FSLAX46Y46*%
G04 Gerber Fmt 4.6, Leading zero omitted, Abs format (unit mm)*
G04 Created by KiCad (PCBNEW 9.0.7) date 2026-05-16 18:23:08*
%MOMM*%
%LPD*%
G01*
G04 APERTURE LIST*
G04 Aperture macros list*
%AMRoundRect*
0 Rectangle with rounded corners*
0 $1 Rounding radius*
0 $2 $3 $4 $5 $6 $7 $8 $9 X,Y pos of 4 corners*
0 Add a 4 corners polygon primitive as box body*
4,1,4,$2,$3,$4,$5,$6,$7,$8,$9,$2,$3,0*
0 Add four circle primitives for the rounded corners*
1,1,$1+$1,$2,$3*
1,1,$1+$1,$4,$5*
1,1,$1+$1,$6,$7*
1,1,$1+$1,$8,$9*
0 Add four rect primitives between the rounded corners*
20,1,$1+$1,$2,$3,$4,$5,0*
20,1,$1+$1,$4,$5,$6,$7,0*
20,1,$1+$1,$6,$7,$8,$9,0*
20,1,$1+$1,$8,$9,$2,$3,0*%
G04 Aperture macros list end*
%TA.AperFunction,HeatsinkPad*%
%ADD10O,2.100000X1.000000*%
%TD*%
%TA.AperFunction,HeatsinkPad*%
%ADD11O,1.800000X1.000000*%
%TD*%
%TA.AperFunction,ComponentPad*%
%ADD12C,5.600000*%
%TD*%
%TA.AperFunction,ComponentPad*%
%ADD13R,1.700000X1.700000*%
%TD*%
%TA.AperFunction,ComponentPad*%
%ADD14C,1.700000*%
%TD*%
%TA.AperFunction,ComponentPad*%
%ADD15RoundRect,0.250000X-0.625000X0.350000X-0.625000X-0.350000X0.625000X-0.350000X0.625000X0.350000X0*%
%TD*%
%TA.AperFunction,ComponentPad*%
%ADD16O,1.750000X1.200000*%
%TD*%
%TA.AperFunction,ComponentPad*%
%ADD17C,2.000000*%
%TD*%
%TA.AperFunction,ViaPad*%
%ADD18C,0.460000*%
%TD*%
G04 APERTURE END LIST*
D10*
%TO.N,GND*%
%TO.C,J4*%
X46922000Y-64202000D03*
D11*
X42742000Y-64202000D03*
D10*
X46922000Y-72842000D03*
D11*
X42742000Y-72842000D03*
%TD*%
D12*
%TO.N,GND*%
%TO.C,H2*%
X43000000Y-97000000D03*
%TD*%
%TO.N,GND*%
%TO.C,H1*%
X72000000Y-19000000D03*
%TD*%
%TO.N,GND*%
%TO.C,H3*%
X43000000Y-19000000D03*
%TD*%
D13*
%TO.N,Net-(J5-Pin_1)*%
%TO.C,J5*%
X45000000Y-43675000D03*
D14*
%TO.N,GND*%
X45000000Y-41135000D03*
%TD*%
D15*
%TO.N,V_CHARGE*%
%TO.C,J3*%
X42000000Y-90000000D03*
D16*
%TO.N,GND*%
X42000000Y-92000001D03*
%TD*%
D17*
%TO.N,*%
%TO.C,SW1*%
X73517500Y-86342500D03*
X67517501Y-86342500D03*
X73517500Y-98342500D03*
X67517500Y-98342500D03*
D14*
%TO.N,unconnected-(SW1-A-Pad1)*%
X69267500Y-88342500D03*
%TO.N,V_CHARGE*%
X69267500Y-92342500D03*
%TO.N,Net-(SW1-C)*%
X69267500Y-96342500D03*
%TD*%
D18*
%TO.N,GND*%
X43700000Y-87700000D03*
X52400000Y-91900000D03*
X60600000Y-24000000D03*
X59900000Y-71900000D03*
X73900000Y-55700000D03*
X50117000Y-66022000D03*
X47200000Y-89900000D03*
X68200000Y-32100000D03*
X67100000Y-35200000D03*
X56700000Y-53000000D03*
X44082121Y-74867698D03*
X67400000Y-61000000D03*
X52200000Y-34900000D03*
X73400000Y-77699999D03*
X66200000Y-59700000D03*
X51600000Y-54300000D03*
X52700000Y-29100000D03*
X67800000Y-27600000D03*
X49217000Y-63922001D03*
X72800000Y-69200000D03*
X67400000Y-36600000D03*
X72300000Y-89200000D03*
X65800000Y-64800000D03*
X50200000Y-92400000D03*
X67400000Y-65500000D03*
X68000000Y-47900000D03*
X49198468Y-39683237D03*
X68800000Y-40700000D03*
X41600000Y-79500000D03*
X55700000Y-76300000D03*
X67500000Y-77700000D03*
X65000000Y-93000000D03*
X71600000Y-72100000D03*
X46800000Y-37600000D03*
X55517000Y-66221999D03*
X44700000Y-48000000D03*
X62100000Y-47700000D03*
X71700000Y-36400000D03*
X65000000Y-46800000D03*
X62700000Y-33700000D03*
X60500000Y-91400000D03*
X59000000Y-89700000D03*
X60700000Y-36300000D03*
X53900000Y-56900000D03*
X66000000Y-41000000D03*
X53317000Y-62622000D03*
X72500000Y-44100000D03*
X70300000Y-32100000D03*
X69800000Y-67500000D03*
X66176696Y-27564123D03*
X54100000Y-83500000D03*
X71800000Y-39500000D03*
X46500000Y-28200000D03*
X55400000Y-90800000D03*
X59600000Y-66000000D03*
X46800000Y-85500000D03*
X55700000Y-25800000D03*
X52200000Y-39500000D03*
X50617000Y-70222000D03*
X70300000Y-52700000D03*
X69600000Y-62100000D03*
X62400000Y-52300000D03*
X72200000Y-95900000D03*
X70700000Y-44000000D03*
X60500000Y-85200000D03*
X67600000Y-39500000D03*
X47900000Y-54500000D03*
X71000000Y-62800000D03*
X62087500Y-60487501D03*
X70900000Y-76900000D03*
X68500000Y-44100000D03*
X47700000Y-51200000D03*
X66900000Y-77700000D03*
X63300000Y-55500000D03*
X62195747Y-44489153D03*
X73500000Y-66000000D03*
X71700000Y-32100000D03*
X48200000Y-43200000D03*
X50600000Y-80100000D03*
X50616999Y-68122000D03*
X55200000Y-46100000D03*
X57460855Y-39927873D03*
X64100000Y-61000000D03*
X70300000Y-36500000D03*
X51417000Y-65622000D03*
X73600000Y-49500000D03*
X51700000Y-60600000D03*
X64259064Y-27599635D03*
X52100000Y-90600000D03*
X69200000Y-77500001D03*
X45200000Y-51900000D03*
X57700000Y-92400000D03*
X73900000Y-24000000D03*
X47900000Y-96500000D03*
X61400000Y-92900000D03*
%TO.N,+3V3*%
X52200000Y-22700000D03*
X64800369Y-90000000D03*
X72347500Y-56127501D03*
X51700000Y-37400000D03*
X44800000Y-50800000D03*
X69087500Y-61487501D03*
X61600000Y-53300000D03*
X60787500Y-61487501D03*
X70000000Y-74800000D03*
X68287500Y-62387501D03*
X68700000Y-75100000D03*
%TO.N,V_CHARGE*%
X54300000Y-66100000D03*
%TO.N,Net-(D3-A)*%
X51300000Y-63200000D03*
X48600000Y-60000000D03*
%TO.N,/V_BATT*%
X65100000Y-55200000D03*
X56900000Y-56100000D03*
%TO.N,/NRST*%
X67900000Y-58000000D03*
X48700000Y-49400000D03*
%TO.N,/USB_D+*%
X59700000Y-59800000D03*
X55100000Y-68900000D03*
%TO.N,/USB_D-*%
X59700000Y-59000000D03*
X55200000Y-67200000D03*
%TO.N,Net-(J5-Pin_1)*%
X61900000Y-56900000D03*
%TO.N,/SCK2*%
X69500000Y-46000000D03*
X63100000Y-41500000D03*
%TO.N,/MISO2*%
X68800000Y-46700000D03*
X62700000Y-42900000D03*
%TO.N,Net-(U3-PC15)*%
X67900000Y-59600000D03*
X68000000Y-50500000D03*
%TO.N,/TX2*%
X53500000Y-76400000D03*
X66600000Y-55900000D03*
%TO.N,/BT_SW_BTN*%
X67400000Y-64400000D03*
X65500000Y-87400000D03*
%TO.N,/CTS2*%
X63700000Y-63600000D03*
X67300000Y-57300000D03*
%TO.N,/BT_NRST*%
X57300000Y-72900000D03*
X62100000Y-72300000D03*
%TO.N,/BT_P3_1*%
X53600000Y-81900000D03*
X64200000Y-55600000D03*
%TO.N,/RTS2*%
X67000000Y-56500000D03*
X64100000Y-73700000D03*
%TO.N,/BT_WAKE*%
X65600000Y-85200000D03*
X66900000Y-70000000D03*
%TO.N,/RX2*%
X65000000Y-56000000D03*
X53600000Y-80700000D03*
%TD*%
%TA.AperFunction,Conductor*%
%TO.N,GND*%
G36*
X71802060Y-16200608D02*
G01*
X71819902Y-16201543D01*
X72109415Y-16216716D01*
X72117617Y-16217578D01*
X72419551Y-16265399D01*
X72427613Y-16267113D01*
X72697115Y-16339326D01*
X72722895Y-16346234D01*
X72730761Y-16348789D01*
X73016151Y-16458340D01*
X73023697Y-16461700D01*
X73296057Y-16600475D01*
X73303214Y-16604607D01*
X73559590Y-16771099D01*
X73566280Y-16775960D01*
X73803844Y-16968336D01*
X73809989Y-16973869D01*
X74026130Y-17190010D01*
X74031663Y-17196155D01*
X74224039Y-17433719D01*
X74228900Y-17440409D01*
X74395392Y-17696785D01*
X74399526Y-17703946D01*
X74538297Y-17976298D01*
X74541661Y-17983852D01*
X74651210Y-18269240D01*
X74653765Y-18277104D01*
X74732883Y-18572372D01*
X74734602Y-18580461D01*
X74782419Y-18882371D01*
X74783284Y-18890594D01*
X74799392Y-19197939D01*
X74799500Y-19202074D01*
X74799500Y-31320500D01*
X74781018Y-31371280D01*
X74734218Y-31398300D01*
X74720500Y-31399500D01*
X73139882Y-31399500D01*
X73060118Y-31399500D01*
X72986426Y-31430024D01*
X72986424Y-31430025D01*
X72986421Y-31430027D01*
X72930027Y-31486421D01*
X72930025Y-31486424D01*
X72930024Y-31486425D01*
X72930024Y-31486426D01*
X72899500Y-31560118D01*
X72899500Y-44439882D01*
X72930024Y-44513574D01*
X72930025Y-44513575D01*
X72930027Y-44513578D01*
X72986421Y-44569972D01*
X72986424Y-44569974D01*
X72986426Y-44569976D01*
X73060118Y-44600500D01*
X73139882Y-44600500D01*
X74720500Y-44600500D01*
X74771280Y-44618982D01*
X74798300Y-44665782D01*
X74799500Y-44679500D01*
X74799500Y-86033848D01*
X74781018Y-86084628D01*
X74734218Y-86111648D01*
X74681000Y-86102264D01*
X74646264Y-86060868D01*
X74645367Y-86058261D01*
X74620277Y-85981044D01*
X74592977Y-85897023D01*
X74592973Y-85897016D01*
X74592972Y-85897012D01*
X74510047Y-85734265D01*
X74510043Y-85734259D01*
X74402684Y-85586492D01*
X74402679Y-85586485D01*
X74402674Y-85586480D01*
X74402669Y-85586474D01*
X74273525Y-85457330D01*
X74273519Y-85457325D01*
X74273515Y-85457321D01*
X74249365Y-85439775D01*
X74125740Y-85349956D01*
X74125734Y-85349952D01*
X73962987Y-85267027D01*
X73962974Y-85267022D01*
X73789259Y-85210578D01*
X73789242Y-85210574D01*
X73608842Y-85182001D01*
X73608837Y-85182000D01*
X73608833Y-85182000D01*
X73426167Y-85182000D01*
X73426163Y-85182000D01*
X73426157Y-85182001D01*
X73245757Y-85210574D01*
X73245740Y-85210578D01*
X73072025Y-85267022D01*
X73072012Y-85267027D01*
X72909265Y-85349952D01*
X72909259Y-85349956D01*
X72761492Y-85457315D01*
X72761474Y-85457330D01*
X72632330Y-85586474D01*
X72632315Y-85586492D01*
X72524956Y-85734259D01*
X72524952Y-85734265D01*
X72442027Y-85897012D01*
X72442022Y-85897025D01*
X72385578Y-86070740D01*
X72385574Y-86070757D01*
X72357001Y-86251157D01*
X72357000Y-86251171D01*
X72357000Y-86433828D01*
X72357001Y-86433842D01*
X72385574Y-86614242D01*
X72385578Y-86614259D01*
X72442022Y-86787974D01*
X72442027Y-86787987D01*
X72524952Y-86950734D01*
X72524956Y-86950740D01*
X72624334Y-87087522D01*
X72632321Y-87098515D01*
X72632325Y-87098519D01*
X72632330Y-87098525D01*
X72761474Y-87227669D01*
X72761480Y-87227674D01*
X72761485Y-87227679D01*
X72909266Y-87335048D01*
X72935838Y-87348587D01*
X73072012Y-87417972D01*
X73072016Y-87417973D01*
X73072023Y-87417977D01*
X73245749Y-87474424D01*
X73426167Y-87503000D01*
X73426172Y-87503000D01*
X73608828Y-87503000D01*
X73608833Y-87503000D01*
X73789251Y-87474424D01*
X73962977Y-87417977D01*
X74125734Y-87335048D01*
X74273515Y-87227679D01*
X74402679Y-87098515D01*
X74510048Y-86950734D01*
X74592977Y-86787977D01*
X74633927Y-86661945D01*
X74645367Y-86626738D01*
X74678637Y-86584155D01*
X74731495Y-86572920D01*
X74779209Y-86598290D01*
X74799452Y-86648394D01*
X74799500Y-86651151D01*
X74799500Y-98033848D01*
X74781018Y-98084628D01*
X74734218Y-98111648D01*
X74681000Y-98102264D01*
X74646264Y-98060868D01*
X74645367Y-98058261D01*
X74620277Y-97981044D01*
X74592977Y-97897023D01*
X74592973Y-97897016D01*
X74592972Y-97897012D01*
X74510047Y-97734265D01*
X74510043Y-97734259D01*
X74402684Y-97586492D01*
X74402679Y-97586485D01*
X74402674Y-97586480D01*
X74402669Y-97586474D01*
X74273525Y-97457330D01*
X74273519Y-97457325D01*
X74273515Y-97457321D01*
X74221511Y-97419538D01*
X74125740Y-97349956D01*
X74125734Y-97349952D01*
X73962987Y-97267027D01*
X73962974Y-97267022D01*
X73789259Y-97210578D01*
X73789242Y-97210574D01*
X73608842Y-97182001D01*
X73608837Y-97182000D01*
X73608833Y-97182000D01*
X73426167Y-97182000D01*
X73426163Y-97182000D01*
X73426157Y-97182001D01*
X73245757Y-97210574D01*
X73245740Y-97210578D01*
X73072025Y-97267022D01*
X73072012Y-97267027D01*
X72909265Y-97349952D01*
X72909259Y-97349956D01*
X72761492Y-97457315D01*
X72761474Y-97457330D01*
X72632330Y-97586474D01*
X72632315Y-97586492D01*
X72524956Y-97734259D01*
X72524952Y-97734265D01*
X72442027Y-97897012D01*
X72442022Y-97897025D01*
X72385578Y-98070740D01*
X72385574Y-98070757D01*
X72357001Y-98251157D01*
X72357000Y-98251171D01*
X72357000Y-98433828D01*
X72357001Y-98433842D01*
X72385574Y-98614242D01*
X72385578Y-98614259D01*
X72442022Y-98787974D01*
X72442027Y-98787987D01*
X72520981Y-98942941D01*
X72524952Y-98950734D01*
X72632321Y-99098515D01*
X72632325Y-99098519D01*
X72632330Y-99098525D01*
X72761474Y-99227669D01*
X72761480Y-99227674D01*
X72761485Y-99227679D01*
X72909266Y-99335048D01*
X72982145Y-99372181D01*
X73072012Y-99417972D01*
X73072016Y-99417973D01*
X73072023Y-99417977D01*
X73245749Y-99474424D01*
X73426167Y-99503000D01*
X73426172Y-99503000D01*
X73608828Y-99503000D01*
X73608833Y-99503000D01*
X73789251Y-99474424D01*
X73962977Y-99417977D01*
X74125734Y-99335048D01*
X74273515Y-99227679D01*
X74402679Y-99098515D01*
X74510048Y-98950734D01*
X74592977Y-98787977D01*
X74636318Y-98654587D01*
X74645367Y-98626738D01*
X74678637Y-98584155D01*
X74731495Y-98572920D01*
X74779209Y-98598290D01*
X74799452Y-98648394D01*
X74799500Y-98651151D01*
X74799500Y-99720500D01*
X74781018Y-99771280D01*
X74734218Y-99798300D01*
X74720500Y-99799500D01*
X64756490Y-99799500D01*
X64705710Y-99781018D01*
X64678690Y-99734218D01*
X64677490Y-99720500D01*
X64677490Y-98251171D01*
X66357000Y-98251171D01*
X66357000Y-98433828D01*
X66357001Y-98433842D01*
X66385574Y-98614242D01*
X66385578Y-98614259D01*
X66442022Y-98787974D01*
X66442027Y-98787987D01*
X66520981Y-98942941D01*
X66524952Y-98950734D01*
X66632321Y-99098515D01*
X66632325Y-99098519D01*
X66632330Y-99098525D01*
X66761474Y-99227669D01*
X66761480Y-99227674D01*
X66761485Y-99227679D01*
X66909266Y-99335048D01*
X66982145Y-99372181D01*
X67072012Y-99417972D01*
X67072016Y-99417973D01*
X67072023Y-99417977D01*
X67245749Y-99474424D01*
X67426167Y-99503000D01*
X67426172Y-99503000D01*
X67608828Y-99503000D01*
X67608833Y-99503000D01*
X67789251Y-99474424D01*
X67962977Y-99417977D01*
X68125734Y-99335048D01*
X68273515Y-99227679D01*
X68402679Y-99098515D01*
X68510048Y-98950734D01*
X68592977Y-98787977D01*
X68649424Y-98614251D01*
X68678000Y-98433833D01*
X68678000Y-98251167D01*
X68649424Y-98070749D01*
X68592977Y-97897023D01*
X68592973Y-97897016D01*
X68592972Y-97897012D01*
X68510047Y-97734265D01*
X68510043Y-97734259D01*
X68402684Y-97586492D01*
X68402679Y-97586485D01*
X68402674Y-97586480D01*
X68402669Y-97586474D01*
X68273525Y-97457330D01*
X68273519Y-97457325D01*
X68273515Y-97457321D01*
X68221511Y-97419538D01*
X68125740Y-97349956D01*
X68125734Y-97349952D01*
X67962987Y-97267027D01*
X67962974Y-97267022D01*
X67789259Y-97210578D01*
X67789242Y-97210574D01*
X67608842Y-97182001D01*
X67608837Y-97182000D01*
X67608833Y-97182000D01*
X67426167Y-97182000D01*
X67426163Y-97182000D01*
X67426157Y-97182001D01*
X67245757Y-97210574D01*
X67245740Y-97210578D01*
X67072025Y-97267022D01*
X67072012Y-97267027D01*
X66909265Y-97349952D01*
X66909259Y-97349956D01*
X66761492Y-97457315D01*
X66761474Y-97457330D01*
X66632330Y-97586474D01*
X66632315Y-97586492D01*
X66524956Y-97734259D01*
X66524952Y-97734265D01*
X66442027Y-97897012D01*
X66442022Y-97897025D01*
X66385578Y-98070740D01*
X66385574Y-98070757D01*
X66357001Y-98251157D01*
X66357000Y-98251171D01*
X64677490Y-98251171D01*
X64677490Y-96242974D01*
X68257000Y-96242974D01*
X68257000Y-96442025D01*
X68295833Y-96637253D01*
X68295834Y-96637257D01*
X68372004Y-96821145D01*
X68372007Y-96821151D01*
X68482592Y-96986654D01*
X68482598Y-96986661D01*
X68623338Y-97127401D01*
X68623344Y-97127406D01*
X68788849Y-97237993D01*
X68788854Y-97237995D01*
X68972742Y-97314165D01*
X68972744Y-97314165D01*
X68972748Y-97314167D01*
X69167974Y-97353000D01*
X69367026Y-97353000D01*
X69562252Y-97314167D01*
X69746151Y-97237993D01*
X69911656Y-97127406D01*
X70052406Y-96986656D01*
X70162993Y-96821151D01*
X70239167Y-96637252D01*
X70278000Y-96442026D01*
X70278000Y-96242974D01*
X70239167Y-96047748D01*
X70162993Y-95863849D01*
X70052406Y-95698344D01*
X70052401Y-95698338D01*
X69911661Y-95557598D01*
X69911654Y-95557592D01*
X69746151Y-95447007D01*
X69746145Y-95447004D01*
X69562257Y-95370834D01*
X69562253Y-95370833D01*
X69367026Y-95332000D01*
X69167974Y-95332000D01*
X68972746Y-95370833D01*
X68972742Y-95370834D01*
X68788854Y-95447004D01*
X68788848Y-95447007D01*
X68623345Y-95557592D01*
X68623338Y-95557598D01*
X68482598Y-95698338D01*
X68482592Y-95698345D01*
X68372007Y-95863848D01*
X68372004Y-95863854D01*
X68295834Y-96047742D01*
X68295833Y-96047746D01*
X68257000Y-96242974D01*
X64677490Y-96242974D01*
X64677490Y-95900000D01*
X54581140Y-95900000D01*
X54530360Y-95881518D01*
X54503340Y-95834718D01*
X54502140Y-95821000D01*
X54502140Y-93895499D01*
X54502139Y-93895499D01*
X52506097Y-93900000D01*
X52495965Y-95821417D01*
X52477215Y-95872099D01*
X52430274Y-95898871D01*
X52416966Y-95900000D01*
X50677490Y-95900000D01*
X50677490Y-99720500D01*
X50659008Y-99771280D01*
X50612208Y-99798300D01*
X50598490Y-99799500D01*
X43202074Y-99799500D01*
X43197939Y-99799392D01*
X42890594Y-99783284D01*
X42882371Y-99782419D01*
X42580461Y-99734602D01*
X42572372Y-99732883D01*
X42277104Y-99653765D01*
X42269240Y-99651210D01*
X41983852Y-99541661D01*
X41976298Y-99538297D01*
X41703946Y-99399526D01*
X41696785Y-99395392D01*
X41440409Y-99228900D01*
X41433719Y-99224039D01*
X41196155Y-99031663D01*
X41190010Y-99026130D01*
X40973869Y-98809989D01*
X40968336Y-98803844D01*
X40775960Y-98566280D01*
X40771099Y-98559590D01*
X40604607Y-98303214D01*
X40600473Y-98296053D01*
X40577604Y-98251171D01*
X40461700Y-98023697D01*
X40458338Y-98016147D01*
X40348789Y-97730759D01*
X40346234Y-97722895D01*
X40335094Y-97681322D01*
X40267113Y-97427613D01*
X40265399Y-97419551D01*
X40217578Y-97117617D01*
X40216716Y-97109415D01*
X40200608Y-96802059D01*
X40200500Y-96797925D01*
X40200500Y-91750001D01*
X40857096Y-91750001D01*
X41719670Y-91750001D01*
X41699925Y-91769746D01*
X41650556Y-91855256D01*
X41625000Y-91950631D01*
X41625000Y-92049371D01*
X41650556Y-92144746D01*
X41699925Y-92230256D01*
X41719670Y-92250001D01*
X40857096Y-92250001D01*
X40859585Y-92262519D01*
X40859588Y-92262527D01*
X40927427Y-92426305D01*
X40927430Y-92426311D01*
X41025922Y-92573716D01*
X41025928Y-92573723D01*
X41151277Y-92699072D01*
X41151284Y-92699078D01*
X41298689Y-92797570D01*
X41298695Y-92797573D01*
X41462475Y-92865413D01*
X41462479Y-92865414D01*
X41636358Y-92900001D01*
X41750000Y-92900001D01*
X41750000Y-92280331D01*
X41769745Y-92300076D01*
X41855255Y-92349445D01*
X41950630Y-92375001D01*
X42049370Y-92375001D01*
X42144745Y-92349445D01*
X42230255Y-92300076D01*
X42250000Y-92280331D01*
X42250000Y-92900001D01*
X42363642Y-92900001D01*
X42537520Y-92865414D01*
X42537524Y-92865413D01*
X42701304Y-92797573D01*
X42701310Y-92797570D01*
X42848715Y-92699078D01*
X42848722Y-92699072D01*
X42974071Y-92573723D01*
X42974077Y-92573716D01*
X43072569Y-92426311D01*
X43072572Y-92426305D01*
X43140411Y-92262527D01*
X43140414Y-92262519D01*
X43142904Y-92250001D01*
X42280330Y-92250001D01*
X42287357Y-92242974D01*
X68257000Y-92242974D01*
X68257000Y-92442025D01*
X68295833Y-92637253D01*
X68295834Y-92637257D01*
X68372004Y-92821145D01*
X68372007Y-92821151D01*
X68482592Y-92986654D01*
X68482598Y-92986661D01*
X68623338Y-93127401D01*
X68623344Y-93127406D01*
X68788849Y-93237993D01*
X68788854Y-93237995D01*
X68972742Y-93314165D01*
X68972744Y-93314165D01*
X68972748Y-93314167D01*
X69167974Y-93353000D01*
X69367026Y-93353000D01*
X69562252Y-93314167D01*
X69746151Y-93237993D01*
X69911656Y-93127406D01*
X70052406Y-92986656D01*
X70162993Y-92821151D01*
X70239167Y-92637252D01*
X70278000Y-92442026D01*
X70278000Y-92242974D01*
X70239167Y-92047748D01*
X70162993Y-91863849D01*
X70052406Y-91698344D01*
X70052401Y-91698338D01*
X69911661Y-91557598D01*
X69911654Y-91557592D01*
X69746151Y-91447007D01*
X69746145Y-91447004D01*
X69562257Y-91370834D01*
X69562253Y-91370833D01*
X69367026Y-91332000D01*
X69167974Y-91332000D01*
X68972746Y-91370833D01*
X68972742Y-91370834D01*
X68788854Y-91447004D01*
X68788848Y-91447007D01*
X68623345Y-91557592D01*
X68623338Y-91557598D01*
X68482598Y-91698338D01*
X68482592Y-91698345D01*
X68372007Y-91863848D01*
X68372004Y-91863854D01*
X68295834Y-92047742D01*
X68295833Y-92047746D01*
X68257000Y-92242974D01*
X42287357Y-92242974D01*
X42300075Y-92230256D01*
X42349444Y-92144746D01*
X42375000Y-92049371D01*
X42375000Y-91950631D01*
X42349444Y-91855256D01*
X42300075Y-91769746D01*
X42280330Y-91750001D01*
X43142904Y-91750001D01*
X43140414Y-91737482D01*
X43140411Y-91737474D01*
X43072572Y-91573696D01*
X43072569Y-91573690D01*
X42974077Y-91426285D01*
X42974071Y-91426278D01*
X42848722Y-91300929D01*
X42848715Y-91300923D01*
X42701310Y-91202431D01*
X42701304Y-91202428D01*
X42537524Y-91134588D01*
X42537520Y-91134587D01*
X42363642Y-91100001D01*
X42250000Y-91100001D01*
X42250000Y-91719671D01*
X42230255Y-91699926D01*
X42144745Y-91650557D01*
X42049370Y-91625001D01*
X41950630Y-91625001D01*
X41855255Y-91650557D01*
X41769745Y-91699926D01*
X41750000Y-91719671D01*
X41750000Y-91100001D01*
X41636358Y-91100001D01*
X41462479Y-91134587D01*
X41462475Y-91134588D01*
X41298695Y-91202428D01*
X41298689Y-91202431D01*
X41151284Y-91300923D01*
X41151277Y-91300929D01*
X41025928Y-91426278D01*
X41025922Y-91426285D01*
X40927430Y-91573690D01*
X40927427Y-91573696D01*
X40859588Y-91737474D01*
X40859585Y-91737482D01*
X40857096Y-91750001D01*
X40200500Y-91750001D01*
X40200500Y-89617697D01*
X40964500Y-89617697D01*
X40964500Y-90382303D01*
X40973995Y-90442253D01*
X40979725Y-90478433D01*
X41037676Y-90592169D01*
X41038760Y-90594296D01*
X41130703Y-90686239D01*
X41130705Y-90686240D01*
X41130706Y-90686241D01*
X41246567Y-90745275D01*
X41342693Y-90760500D01*
X42657306Y-90760499D01*
X42753433Y-90745275D01*
X42869294Y-90686241D01*
X42961241Y-90594294D01*
X43020275Y-90478433D01*
X43035500Y-90382307D01*
X43035499Y-89948587D01*
X64409869Y-89948587D01*
X64409869Y-90051412D01*
X64436480Y-90150725D01*
X64436481Y-90150729D01*
X64487892Y-90239775D01*
X64560593Y-90312476D01*
X64560595Y-90312477D01*
X64560596Y-90312478D01*
X64649641Y-90363888D01*
X64748959Y-90390500D01*
X64748961Y-90390500D01*
X64851777Y-90390500D01*
X64851779Y-90390500D01*
X64951097Y-90363888D01*
X65040142Y-90312478D01*
X65112847Y-90239773D01*
X65164257Y-90150728D01*
X65190869Y-90051410D01*
X65190869Y-89948590D01*
X65164257Y-89849272D01*
X65112847Y-89760227D01*
X65112846Y-89760226D01*
X65112845Y-89760224D01*
X65040144Y-89687523D01*
X64951098Y-89636112D01*
X64951094Y-89636111D01*
X64851781Y-89609500D01*
X64851779Y-89609500D01*
X64748959Y-89609500D01*
X64748956Y-89609500D01*
X64649643Y-89636111D01*
X64649639Y-89636112D01*
X64560593Y-89687523D01*
X64487892Y-89760224D01*
X64436481Y-89849270D01*
X64436480Y-89849274D01*
X64409869Y-89948587D01*
X43035499Y-89948587D01*
X43035499Y-89617694D01*
X43020275Y-89521567D01*
X42961241Y-89405706D01*
X42961240Y-89405705D01*
X42961239Y-89405703D01*
X42869296Y-89313760D01*
X42867169Y-89312676D01*
X42753433Y-89254725D01*
X42753429Y-89254724D01*
X42753426Y-89254723D01*
X42657318Y-89239501D01*
X42657310Y-89239500D01*
X42657307Y-89239500D01*
X42657302Y-89239500D01*
X41342696Y-89239500D01*
X41264656Y-89251860D01*
X41246567Y-89254725D01*
X41189698Y-89283700D01*
X41130703Y-89313760D01*
X41038760Y-89405703D01*
X41008700Y-89464698D01*
X40979725Y-89521567D01*
X40979725Y-89521568D01*
X40979723Y-89521573D01*
X40964501Y-89617681D01*
X40964500Y-89617697D01*
X40200500Y-89617697D01*
X40200500Y-88242974D01*
X68257000Y-88242974D01*
X68257000Y-88442025D01*
X68295833Y-88637253D01*
X68295834Y-88637257D01*
X68372004Y-88821145D01*
X68372007Y-88821151D01*
X68482592Y-88986654D01*
X68482598Y-88986661D01*
X68623338Y-89127401D01*
X68623344Y-89127406D01*
X68788849Y-89237993D01*
X68788854Y-89237995D01*
X68972742Y-89314165D01*
X68972744Y-89314165D01*
X68972748Y-89314167D01*
X69167974Y-89353000D01*
X69367026Y-89353000D01*
X69562252Y-89314167D01*
X69746151Y-89237993D01*
X69911656Y-89127406D01*
X70052406Y-88986656D01*
X70162993Y-88821151D01*
X70239167Y-88637252D01*
X70278000Y-88442026D01*
X70278000Y-88242974D01*
X70239167Y-88047748D01*
X70162993Y-87863849D01*
X70096201Y-87763888D01*
X70052407Y-87698345D01*
X70052401Y-87698338D01*
X69911661Y-87557598D01*
X69911654Y-87557592D01*
X69746151Y-87447007D01*
X69746145Y-87447004D01*
X69562257Y-87370834D01*
X69562253Y-87370833D01*
X69367026Y-87332000D01*
X69167974Y-87332000D01*
X68972746Y-87370833D01*
X68972742Y-87370834D01*
X68788854Y-87447004D01*
X68788848Y-87447007D01*
X68623345Y-87557592D01*
X68623338Y-87557598D01*
X68482598Y-87698338D01*
X68482592Y-87698345D01*
X68372007Y-87863848D01*
X68372004Y-87863854D01*
X68295834Y-88047742D01*
X68295833Y-88047746D01*
X68257000Y-88242974D01*
X40200500Y-88242974D01*
X40200500Y-87348587D01*
X65109500Y-87348587D01*
X65109500Y-87451412D01*
X65136111Y-87550725D01*
X65136112Y-87550729D01*
X65187523Y-87639775D01*
X65260224Y-87712476D01*
X65260226Y-87712477D01*
X65260227Y-87712478D01*
X65349272Y-87763888D01*
X65448590Y-87790500D01*
X65448592Y-87790500D01*
X65551408Y-87790500D01*
X65551410Y-87790500D01*
X65650728Y-87763888D01*
X65739773Y-87712478D01*
X65812478Y-87639773D01*
X65863888Y-87550728D01*
X65890500Y-87451410D01*
X65890500Y-87348590D01*
X65863888Y-87249272D01*
X65812478Y-87160227D01*
X65812477Y-87160226D01*
X65812476Y-87160224D01*
X65739775Y-87087523D01*
X65650729Y-87036112D01*
X65650725Y-87036111D01*
X65551412Y-87009500D01*
X65551410Y-87009500D01*
X65448590Y-87009500D01*
X65448587Y-87009500D01*
X65349274Y-87036111D01*
X65349270Y-87036112D01*
X65260224Y-87087523D01*
X65187523Y-87160224D01*
X65136112Y-87249270D01*
X65136111Y-87249274D01*
X65109500Y-87348587D01*
X40200500Y-87348587D01*
X40200500Y-86251171D01*
X66357001Y-86251171D01*
X66357001Y-86433828D01*
X66357002Y-86433842D01*
X66385575Y-86614242D01*
X66385579Y-86614259D01*
X66442023Y-86787974D01*
X66442028Y-86787987D01*
X66524953Y-86950734D01*
X66524957Y-86950740D01*
X66624335Y-87087522D01*
X66632322Y-87098515D01*
X66632326Y-87098519D01*
X66632331Y-87098525D01*
X66761475Y-87227669D01*
X66761481Y-87227674D01*
X66761486Y-87227679D01*
X66909267Y-87335048D01*
X66935839Y-87348587D01*
X67072013Y-87417972D01*
X67072017Y-87417973D01*
X67072024Y-87417977D01*
X67245750Y-87474424D01*
X67426168Y-87503000D01*
X67426173Y-87503000D01*
X67608829Y-87503000D01*
X67608834Y-87503000D01*
X67789252Y-87474424D01*
X67962978Y-87417977D01*
X68125735Y-87335048D01*
X68273516Y-87227679D01*
X68402680Y-87098515D01*
X68510049Y-86950734D01*
X68592978Y-86787977D01*
X68649425Y-86614251D01*
X68678001Y-86433833D01*
X68678001Y-86251167D01*
X68649425Y-86070749D01*
X68592978Y-85897023D01*
X68592974Y-85897016D01*
X68592973Y-85897012D01*
X68510048Y-85734265D01*
X68510044Y-85734259D01*
X68402685Y-85586492D01*
X68402680Y-85586485D01*
X68402675Y-85586480D01*
X68402670Y-85586474D01*
X68273526Y-85457330D01*
X68273520Y-85457325D01*
X68273516Y-85457321D01*
X68249366Y-85439775D01*
X68125741Y-85349956D01*
X68125735Y-85349952D01*
X67962988Y-85267027D01*
X67962975Y-85267022D01*
X67789260Y-85210578D01*
X67789243Y-85210574D01*
X67608843Y-85182001D01*
X67608838Y-85182000D01*
X67608834Y-85182000D01*
X67426168Y-85182000D01*
X67426164Y-85182000D01*
X67426158Y-85182001D01*
X67245758Y-85210574D01*
X67245741Y-85210578D01*
X67072026Y-85267022D01*
X67072013Y-85267027D01*
X66909266Y-85349952D01*
X66909260Y-85349956D01*
X66761493Y-85457315D01*
X66761475Y-85457330D01*
X66632331Y-85586474D01*
X66632316Y-85586492D01*
X66524957Y-85734259D01*
X66524953Y-85734265D01*
X66442028Y-85897012D01*
X66442023Y-85897025D01*
X66385579Y-86070740D01*
X66385575Y-86070757D01*
X66357002Y-86251157D01*
X66357001Y-86251171D01*
X40200500Y-86251171D01*
X40200500Y-85148587D01*
X65209500Y-85148587D01*
X65209500Y-85251412D01*
X65236111Y-85350725D01*
X65236112Y-85350729D01*
X65287523Y-85439775D01*
X65360224Y-85512476D01*
X65360226Y-85512477D01*
X65360227Y-85512478D01*
X65449272Y-85563888D01*
X65548590Y-85590500D01*
X65548592Y-85590500D01*
X65651408Y-85590500D01*
X65651410Y-85590500D01*
X65750728Y-85563888D01*
X65839773Y-85512478D01*
X65912478Y-85439773D01*
X65963888Y-85350728D01*
X65990500Y-85251410D01*
X65990500Y-85148590D01*
X65963888Y-85049272D01*
X65912478Y-84960227D01*
X65912477Y-84960226D01*
X65912476Y-84960224D01*
X65839775Y-84887523D01*
X65750729Y-84836112D01*
X65750725Y-84836111D01*
X65651412Y-84809500D01*
X65651410Y-84809500D01*
X65548590Y-84809500D01*
X65548587Y-84809500D01*
X65449274Y-84836111D01*
X65449270Y-84836112D01*
X65360224Y-84887523D01*
X65287523Y-84960224D01*
X65236112Y-85049270D01*
X65236111Y-85049274D01*
X65209500Y-85148587D01*
X40200500Y-85148587D01*
X40200500Y-81848587D01*
X53209500Y-81848587D01*
X53209500Y-81951412D01*
X53236111Y-82050725D01*
X53236112Y-82050729D01*
X53287523Y-82139775D01*
X53360224Y-82212476D01*
X53360226Y-82212477D01*
X53360227Y-82212478D01*
X53449272Y-82263888D01*
X53548590Y-82290500D01*
X53548592Y-82290500D01*
X53651408Y-82290500D01*
X53651410Y-82290500D01*
X53750728Y-82263888D01*
X53839773Y-82212478D01*
X53912478Y-82139773D01*
X53963888Y-82050728D01*
X53990500Y-81951410D01*
X53990500Y-81848590D01*
X53963888Y-81749272D01*
X53912478Y-81660227D01*
X53912477Y-81660226D01*
X53912476Y-81660224D01*
X53839775Y-81587523D01*
X53750729Y-81536112D01*
X53750725Y-81536111D01*
X53651412Y-81509500D01*
X53651410Y-81509500D01*
X53548590Y-81509500D01*
X53548587Y-81509500D01*
X53449274Y-81536111D01*
X53449270Y-81536112D01*
X53360224Y-81587523D01*
X53287523Y-81660224D01*
X53236112Y-81749270D01*
X53236111Y-81749274D01*
X53209500Y-81848587D01*
X40200500Y-81848587D01*
X40200500Y-80648587D01*
X53209500Y-80648587D01*
X53209500Y-80751412D01*
X53236111Y-80850725D01*
X53236112Y-80850729D01*
X53287523Y-80939775D01*
X53360224Y-81012476D01*
X53360226Y-81012477D01*
X53360227Y-81012478D01*
X53449272Y-81063888D01*
X53548590Y-81090500D01*
X53548592Y-81090500D01*
X53651408Y-81090500D01*
X53651410Y-81090500D01*
X53750728Y-81063888D01*
X53839773Y-81012478D01*
X53912478Y-80939773D01*
X53963888Y-80850728D01*
X53990500Y-80751410D01*
X53990500Y-80648590D01*
X53963888Y-80549272D01*
X53912478Y-80460227D01*
X53912477Y-80460226D01*
X53912476Y-80460224D01*
X53839775Y-80387523D01*
X53750729Y-80336112D01*
X53750725Y-80336111D01*
X53651412Y-80309500D01*
X53651410Y-80309500D01*
X53548590Y-80309500D01*
X53548587Y-80309500D01*
X53449274Y-80336111D01*
X53449270Y-80336112D01*
X53360224Y-80387523D01*
X53287523Y-80460224D01*
X53236112Y-80549270D01*
X53236111Y-80549274D01*
X53209500Y-80648587D01*
X40200500Y-80648587D01*
X40200500Y-76348587D01*
X53109500Y-76348587D01*
X53109500Y-76451412D01*
X53136111Y-76550725D01*
X53136112Y-76550729D01*
X53187523Y-76639775D01*
X53260224Y-76712476D01*
X53260226Y-76712477D01*
X53260227Y-76712478D01*
X53349272Y-76763888D01*
X53448590Y-76790500D01*
X53448592Y-76790500D01*
X53551408Y-76790500D01*
X53551410Y-76790500D01*
X53650728Y-76763888D01*
X53739773Y-76712478D01*
X53812478Y-76639773D01*
X53863888Y-76550728D01*
X53890500Y-76451410D01*
X53890500Y-76348590D01*
X53863888Y-76249272D01*
X53812478Y-76160227D01*
X53812477Y-76160226D01*
X53812476Y-76160224D01*
X53739775Y-76087523D01*
X53650729Y-76036112D01*
X53650725Y-76036111D01*
X53551412Y-76009500D01*
X53551410Y-76009500D01*
X53448590Y-76009500D01*
X53448587Y-76009500D01*
X53349274Y-76036111D01*
X53349270Y-76036112D01*
X53260224Y-76087523D01*
X53187523Y-76160224D01*
X53136112Y-76249270D01*
X53136111Y-76249274D01*
X53109500Y-76348587D01*
X40200500Y-76348587D01*
X40200500Y-75048587D01*
X68309500Y-75048587D01*
X68309500Y-75151412D01*
X68336111Y-75250725D01*
X68336112Y-75250729D01*
X68387523Y-75339775D01*
X68460224Y-75412476D01*
X68460226Y-75412477D01*
X68460227Y-75412478D01*
X68549272Y-75463888D01*
X68648590Y-75490500D01*
X68648592Y-75490500D01*
X68751408Y-75490500D01*
X68751410Y-75490500D01*
X68850728Y-75463888D01*
X68939773Y-75412478D01*
X69012478Y-75339773D01*
X69063888Y-75250728D01*
X69090500Y-75151410D01*
X69090500Y-75048590D01*
X69063888Y-74949272D01*
X69012478Y-74860227D01*
X69012477Y-74860226D01*
X69012476Y-74860224D01*
X68939775Y-74787523D01*
X68872336Y-74748587D01*
X69609500Y-74748587D01*
X69609500Y-74851412D01*
X69636111Y-74950725D01*
X69636112Y-74950729D01*
X69687523Y-75039775D01*
X69760224Y-75112476D01*
X69760226Y-75112477D01*
X69760227Y-75112478D01*
X69849272Y-75163888D01*
X69948590Y-75190500D01*
X69948592Y-75190500D01*
X70051408Y-75190500D01*
X70051410Y-75190500D01*
X70150728Y-75163888D01*
X70239773Y-75112478D01*
X70312478Y-75039773D01*
X70363888Y-74950728D01*
X70390500Y-74851410D01*
X70390500Y-74748590D01*
X70363888Y-74649272D01*
X70312478Y-74560227D01*
X70312477Y-74560226D01*
X70312476Y-74560224D01*
X70239775Y-74487523D01*
X70150729Y-74436112D01*
X70150725Y-74436111D01*
X70051412Y-74409500D01*
X70051410Y-74409500D01*
X69948590Y-74409500D01*
X69948587Y-74409500D01*
X69849274Y-74436111D01*
X69849270Y-74436112D01*
X69760224Y-74487523D01*
X69687523Y-74560224D01*
X69636112Y-74649270D01*
X69636111Y-74649274D01*
X69609500Y-74748587D01*
X68872336Y-74748587D01*
X68850729Y-74736112D01*
X68850725Y-74736111D01*
X68751412Y-74709500D01*
X68751410Y-74709500D01*
X68648590Y-74709500D01*
X68648587Y-74709500D01*
X68549274Y-74736111D01*
X68549270Y-74736112D01*
X68460224Y-74787523D01*
X68387523Y-74860224D01*
X68336112Y-74949270D01*
X68336111Y-74949274D01*
X68309500Y-75048587D01*
X40200500Y-75048587D01*
X40200500Y-73648587D01*
X63709500Y-73648587D01*
X63709500Y-73751412D01*
X63736111Y-73850725D01*
X63736112Y-73850729D01*
X63787523Y-73939775D01*
X63860224Y-74012476D01*
X63860226Y-74012477D01*
X63860227Y-74012478D01*
X63949272Y-74063888D01*
X64048590Y-74090500D01*
X64048592Y-74090500D01*
X64151408Y-74090500D01*
X64151410Y-74090500D01*
X64250728Y-74063888D01*
X64339773Y-74012478D01*
X64412478Y-73939773D01*
X64463888Y-73850728D01*
X64490500Y-73751410D01*
X64490500Y-73648590D01*
X64463888Y-73549272D01*
X64412478Y-73460227D01*
X64412477Y-73460226D01*
X64412476Y-73460224D01*
X64339775Y-73387523D01*
X64250729Y-73336112D01*
X64250725Y-73336111D01*
X64151412Y-73309500D01*
X64151410Y-73309500D01*
X64048590Y-73309500D01*
X64048587Y-73309500D01*
X63949274Y-73336111D01*
X63949270Y-73336112D01*
X63860224Y-73387523D01*
X63787523Y-73460224D01*
X63736112Y-73549270D01*
X63736111Y-73549274D01*
X63709500Y-73648587D01*
X40200500Y-73648587D01*
X40200500Y-72591999D01*
X41579638Y-72591999D01*
X41579639Y-72592000D01*
X42175012Y-72592000D01*
X42157795Y-72601940D01*
X42101940Y-72657795D01*
X42062444Y-72726204D01*
X42042000Y-72802504D01*
X42042000Y-72881496D01*
X42062444Y-72957796D01*
X42101940Y-73026205D01*
X42157795Y-73082060D01*
X42175012Y-73092000D01*
X41579638Y-73092000D01*
X41633046Y-73220936D01*
X41633049Y-73220942D01*
X41720597Y-73351968D01*
X41720603Y-73351975D01*
X41832024Y-73463396D01*
X41832031Y-73463402D01*
X41963057Y-73550950D01*
X41963063Y-73550953D01*
X42108644Y-73611255D01*
X42108648Y-73611256D01*
X42263207Y-73642000D01*
X42492000Y-73642000D01*
X42492000Y-73142000D01*
X42992000Y-73142000D01*
X42992000Y-73642000D01*
X43220793Y-73642000D01*
X43375351Y-73611256D01*
X43375355Y-73611255D01*
X43520936Y-73550953D01*
X43520942Y-73550950D01*
X43651968Y-73463402D01*
X43651975Y-73463396D01*
X43763396Y-73351975D01*
X43763402Y-73351968D01*
X43850950Y-73220942D01*
X43850953Y-73220936D01*
X43904361Y-73092000D01*
X43308988Y-73092000D01*
X43326205Y-73082060D01*
X43382060Y-73026205D01*
X43421556Y-72957796D01*
X43442000Y-72881496D01*
X43442000Y-72802504D01*
X43421556Y-72726204D01*
X43382060Y-72657795D01*
X43326205Y-72601940D01*
X43308988Y-72592000D01*
X43904361Y-72592000D01*
X43904361Y-72591999D01*
X45609638Y-72591999D01*
X45609639Y-72592000D01*
X46205012Y-72592000D01*
X46187795Y-72601940D01*
X46131940Y-72657795D01*
X46092444Y-72726204D01*
X46072000Y-72802504D01*
X46072000Y-72881496D01*
X46092444Y-72957796D01*
X46131940Y-73026205D01*
X46187795Y-73082060D01*
X46205012Y-73092000D01*
X45609638Y-73092000D01*
X45663046Y-73220936D01*
X45663049Y-73220942D01*
X45750597Y-73351968D01*
X45750603Y-73351975D01*
X45862024Y-73463396D01*
X45862031Y-73463402D01*
X45993057Y-73550950D01*
X45993063Y-73550953D01*
X46138644Y-73611255D01*
X46138648Y-73611256D01*
X46293207Y-73642000D01*
X46672000Y-73642000D01*
X46672000Y-73142000D01*
X47172000Y-73142000D01*
X47172000Y-73642000D01*
X47550793Y-73642000D01*
X47705351Y-73611256D01*
X47705355Y-73611255D01*
X47803923Y-73570426D01*
X47803926Y-73570425D01*
X47850943Y-73550949D01*
X47981968Y-73463402D01*
X47981975Y-73463396D01*
X48093396Y-73351975D01*
X48093402Y-73351968D01*
X48180950Y-73220942D01*
X48180953Y-73220936D01*
X48234361Y-73092000D01*
X47638988Y-73092000D01*
X47656205Y-73082060D01*
X47712060Y-73026205D01*
X47751556Y-72957796D01*
X47772000Y-72881496D01*
X47772000Y-72848587D01*
X56909500Y-72848587D01*
X56909500Y-72951412D01*
X56936111Y-73050725D01*
X56936112Y-73050729D01*
X56987523Y-73139775D01*
X57060224Y-73212476D01*
X57060226Y-73212477D01*
X57060227Y-73212478D01*
X57149272Y-73263888D01*
X57248590Y-73290500D01*
X57248592Y-73290500D01*
X57351408Y-73290500D01*
X57351410Y-73290500D01*
X57450728Y-73263888D01*
X57539773Y-73212478D01*
X57612478Y-73139773D01*
X57663888Y-73050728D01*
X57690500Y-72951410D01*
X57690500Y-72848590D01*
X57663888Y-72749272D01*
X57612478Y-72660227D01*
X57612477Y-72660226D01*
X57612476Y-72660224D01*
X57539775Y-72587523D01*
X57450729Y-72536112D01*
X57450725Y-72536111D01*
X57351412Y-72509500D01*
X57351410Y-72509500D01*
X57248590Y-72509500D01*
X57248587Y-72509500D01*
X57149274Y-72536111D01*
X57149270Y-72536112D01*
X57060224Y-72587523D01*
X56987523Y-72660224D01*
X56936112Y-72749270D01*
X56936111Y-72749274D01*
X56909500Y-72848587D01*
X47772000Y-72848587D01*
X47772000Y-72802504D01*
X47751556Y-72726204D01*
X47712060Y-72657795D01*
X47656205Y-72601940D01*
X47638988Y-72592000D01*
X48234361Y-72592000D01*
X48234361Y-72591999D01*
X48180953Y-72463063D01*
X48180950Y-72463057D01*
X48093402Y-72332031D01*
X48093396Y-72332024D01*
X48009959Y-72248587D01*
X61709500Y-72248587D01*
X61709500Y-72351412D01*
X61736111Y-72450725D01*
X61736112Y-72450729D01*
X61787523Y-72539775D01*
X61860224Y-72612476D01*
X61938718Y-72657795D01*
X61949272Y-72663888D01*
X62048590Y-72690500D01*
X62048592Y-72690500D01*
X62151408Y-72690500D01*
X62151410Y-72690500D01*
X62250728Y-72663888D01*
X62339773Y-72612478D01*
X62412478Y-72539773D01*
X62463888Y-72450728D01*
X62490500Y-72351410D01*
X62490500Y-72248590D01*
X62463888Y-72149272D01*
X62412478Y-72060227D01*
X62412477Y-72060226D01*
X62412476Y-72060224D01*
X62339775Y-71987523D01*
X62250729Y-71936112D01*
X62250725Y-71936111D01*
X62151412Y-71909500D01*
X62151410Y-71909500D01*
X62048590Y-71909500D01*
X62048587Y-71909500D01*
X61949274Y-71936111D01*
X61949270Y-71936112D01*
X61860224Y-71987523D01*
X61787523Y-72060224D01*
X61736112Y-72149270D01*
X61736111Y-72149274D01*
X61709500Y-72248587D01*
X48009959Y-72248587D01*
X47981975Y-72220603D01*
X47981968Y-72220597D01*
X47850942Y-72133049D01*
X47850936Y-72133046D01*
X47705355Y-72072744D01*
X47705351Y-72072743D01*
X47550793Y-72042000D01*
X47172000Y-72042000D01*
X47172000Y-72542000D01*
X46672000Y-72542000D01*
X46672000Y-72053161D01*
X46634899Y-72030072D01*
X46631316Y-72025503D01*
X46625861Y-72023518D01*
X46614980Y-72004673D01*
X46601552Y-71987549D01*
X46601744Y-71981746D01*
X46598841Y-71976718D01*
X46602620Y-71955286D01*
X46603340Y-71933539D01*
X46607216Y-71929217D01*
X46608225Y-71923500D01*
X46637141Y-71894584D01*
X46662708Y-71879822D01*
X46744665Y-71832505D01*
X46842505Y-71734665D01*
X46911688Y-71614836D01*
X46947500Y-71481183D01*
X46947500Y-71342817D01*
X46911688Y-71209164D01*
X46842505Y-71089335D01*
X46842504Y-71089334D01*
X46842503Y-71089332D01*
X46744667Y-70991496D01*
X46624837Y-70922312D01*
X46624833Y-70922311D01*
X46491185Y-70886500D01*
X46491183Y-70886500D01*
X46352817Y-70886500D01*
X46352814Y-70886500D01*
X46219166Y-70922311D01*
X46219162Y-70922312D01*
X46099332Y-70991496D01*
X46001496Y-71089332D01*
X45932312Y-71209162D01*
X45932311Y-71209166D01*
X45896500Y-71342814D01*
X45896500Y-71481185D01*
X45932311Y-71614833D01*
X45932312Y-71614837D01*
X46001496Y-71734667D01*
X46099332Y-71832503D01*
X46099334Y-71832504D01*
X46099335Y-71832505D01*
X46219164Y-71901688D01*
X46222561Y-71902598D01*
X46223985Y-71902980D01*
X46268252Y-71933975D01*
X46282238Y-71986173D01*
X46259401Y-72035149D01*
X46218951Y-72056770D01*
X46138648Y-72072743D01*
X46138644Y-72072744D01*
X45993063Y-72133046D01*
X45993057Y-72133049D01*
X45862031Y-72220597D01*
X45862024Y-72220603D01*
X45750603Y-72332024D01*
X45750597Y-72332031D01*
X45663049Y-72463057D01*
X45663046Y-72463063D01*
X45609638Y-72591999D01*
X43904361Y-72591999D01*
X43850953Y-72463063D01*
X43850950Y-72463057D01*
X43763402Y-72332031D01*
X43763396Y-72332024D01*
X43651975Y-72220603D01*
X43651968Y-72220597D01*
X43520942Y-72133049D01*
X43520936Y-72133046D01*
X43375355Y-72072744D01*
X43375351Y-72072743D01*
X43220793Y-72042000D01*
X42992000Y-72042000D01*
X42992000Y-72542000D01*
X42492000Y-72542000D01*
X42492000Y-72042000D01*
X42263207Y-72042000D01*
X42108648Y-72072743D01*
X42108644Y-72072744D01*
X41963063Y-72133046D01*
X41963057Y-72133049D01*
X41832031Y-72220597D01*
X41832024Y-72220603D01*
X41720603Y-72332024D01*
X41720597Y-72332031D01*
X41633049Y-72463057D01*
X41633046Y-72463063D01*
X41579638Y-72591999D01*
X40200500Y-72591999D01*
X40200500Y-69948587D01*
X66509500Y-69948587D01*
X66509500Y-70051412D01*
X66536111Y-70150725D01*
X66536112Y-70150729D01*
X66587523Y-70239775D01*
X66660224Y-70312476D01*
X66660226Y-70312477D01*
X66660227Y-70312478D01*
X66749272Y-70363888D01*
X66848590Y-70390500D01*
X66848592Y-70390500D01*
X66951408Y-70390500D01*
X66951410Y-70390500D01*
X67050728Y-70363888D01*
X67139773Y-70312478D01*
X67212478Y-70239773D01*
X67263888Y-70150728D01*
X67290500Y-70051410D01*
X67290500Y-69948590D01*
X67263888Y-69849272D01*
X67212478Y-69760227D01*
X67212477Y-69760226D01*
X67212476Y-69760224D01*
X67139775Y-69687523D01*
X67050729Y-69636112D01*
X67050725Y-69636111D01*
X66951412Y-69609500D01*
X66951410Y-69609500D01*
X66848590Y-69609500D01*
X66848587Y-69609500D01*
X66749274Y-69636111D01*
X66749270Y-69636112D01*
X66660224Y-69687523D01*
X66587523Y-69760224D01*
X66536112Y-69849270D01*
X66536111Y-69849274D01*
X66509500Y-69948587D01*
X40200500Y-69948587D01*
X40200500Y-68848587D01*
X54709500Y-68848587D01*
X54709500Y-68951412D01*
X54736111Y-69050725D01*
X54736112Y-69050729D01*
X54787523Y-69139775D01*
X54860224Y-69212476D01*
X54860226Y-69212477D01*
X54860227Y-69212478D01*
X54949272Y-69263888D01*
X55048590Y-69290500D01*
X55048592Y-69290500D01*
X55151408Y-69290500D01*
X55151410Y-69290500D01*
X55250728Y-69263888D01*
X55339773Y-69212478D01*
X55412478Y-69139773D01*
X55463888Y-69050728D01*
X55490500Y-68951410D01*
X55490500Y-68848590D01*
X55463888Y-68749272D01*
X55412478Y-68660227D01*
X55412477Y-68660226D01*
X55412476Y-68660224D01*
X55339775Y-68587523D01*
X55250729Y-68536112D01*
X55250725Y-68536111D01*
X55151412Y-68509500D01*
X55151410Y-68509500D01*
X55048590Y-68509500D01*
X55048587Y-68509500D01*
X54949274Y-68536111D01*
X54949270Y-68536112D01*
X54860224Y-68587523D01*
X54787523Y-68660224D01*
X54736112Y-68749270D01*
X54736111Y-68749274D01*
X54709500Y-68848587D01*
X40200500Y-68848587D01*
X40200500Y-67148587D01*
X54809500Y-67148587D01*
X54809500Y-67251412D01*
X54836111Y-67350725D01*
X54836112Y-67350729D01*
X54887523Y-67439775D01*
X54960224Y-67512476D01*
X54960226Y-67512477D01*
X54960227Y-67512478D01*
X55049272Y-67563888D01*
X55148590Y-67590500D01*
X55148592Y-67590500D01*
X55251408Y-67590500D01*
X55251410Y-67590500D01*
X55350728Y-67563888D01*
X55439773Y-67512478D01*
X55512478Y-67439773D01*
X55563888Y-67350728D01*
X55590500Y-67251410D01*
X55590500Y-67148590D01*
X55563888Y-67049272D01*
X55512478Y-66960227D01*
X55512477Y-66960226D01*
X55512476Y-66960224D01*
X55439775Y-66887523D01*
X55350729Y-66836112D01*
X55350725Y-66836111D01*
X55251412Y-66809500D01*
X55251410Y-66809500D01*
X55148590Y-66809500D01*
X55148587Y-66809500D01*
X55049274Y-66836111D01*
X55049270Y-66836112D01*
X54960224Y-66887523D01*
X54887523Y-66960224D01*
X54836112Y-67049270D01*
X54836111Y-67049274D01*
X54809500Y-67148587D01*
X40200500Y-67148587D01*
X40200500Y-63951999D01*
X41579638Y-63951999D01*
X41579639Y-63952000D01*
X42175012Y-63952000D01*
X42157795Y-63961940D01*
X42101940Y-64017795D01*
X42062444Y-64086204D01*
X42042000Y-64162504D01*
X42042000Y-64241496D01*
X42062444Y-64317796D01*
X42101940Y-64386205D01*
X42157795Y-64442060D01*
X42175012Y-64452000D01*
X41579638Y-64452000D01*
X41633046Y-64580936D01*
X41633049Y-64580942D01*
X41720597Y-64711968D01*
X41720603Y-64711975D01*
X41832024Y-64823396D01*
X41832031Y-64823402D01*
X41963057Y-64910950D01*
X41963063Y-64910953D01*
X42108644Y-64971255D01*
X42108648Y-64971256D01*
X42263207Y-65002000D01*
X42492000Y-65002000D01*
X42492000Y-64502000D01*
X42992000Y-64502000D01*
X42992000Y-65002000D01*
X43220793Y-65002000D01*
X43375351Y-64971256D01*
X43375355Y-64971255D01*
X43520936Y-64910953D01*
X43520942Y-64910950D01*
X43651968Y-64823402D01*
X43651975Y-64823396D01*
X43763396Y-64711975D01*
X43763402Y-64711968D01*
X43850950Y-64580942D01*
X43850953Y-64580936D01*
X43904361Y-64452000D01*
X43308988Y-64452000D01*
X43326205Y-64442060D01*
X43382060Y-64386205D01*
X43421556Y-64317796D01*
X43442000Y-64241496D01*
X43442000Y-64162504D01*
X43421556Y-64086204D01*
X43382060Y-64017795D01*
X43326205Y-63961940D01*
X43308988Y-63952000D01*
X43904361Y-63952000D01*
X43904361Y-63951999D01*
X45609638Y-63951999D01*
X45609639Y-63952000D01*
X46205012Y-63952000D01*
X46187795Y-63961940D01*
X46131940Y-64017795D01*
X46092444Y-64086204D01*
X46072000Y-64162504D01*
X46072000Y-64241496D01*
X46092444Y-64317796D01*
X46131940Y-64386205D01*
X46187795Y-64442060D01*
X46205012Y-64452000D01*
X45609638Y-64452000D01*
X45663046Y-64580936D01*
X45663049Y-64580942D01*
X45750597Y-64711968D01*
X45750603Y-64711975D01*
X45862024Y-64823396D01*
X45862031Y-64823402D01*
X45993057Y-64910950D01*
X45993063Y-64910953D01*
X46138644Y-64971255D01*
X46138649Y-64971257D01*
X46218950Y-64987229D01*
X46265149Y-65015262D01*
X46282520Y-65066433D01*
X46262935Y-65116799D01*
X46223992Y-65141017D01*
X46219170Y-65142309D01*
X46219162Y-65142312D01*
X46099332Y-65211496D01*
X46001496Y-65309332D01*
X45932312Y-65429162D01*
X45932311Y-65429166D01*
X45896500Y-65562814D01*
X45896500Y-65701185D01*
X45932311Y-65834833D01*
X45932312Y-65834837D01*
X46001496Y-65954667D01*
X46099332Y-66052503D01*
X46099334Y-66052504D01*
X46099335Y-66052505D01*
X46219164Y-66121688D01*
X46352817Y-66157500D01*
X46352819Y-66157500D01*
X46491181Y-66157500D01*
X46491183Y-66157500D01*
X46624836Y-66121688D01*
X46744665Y-66052505D01*
X46748583Y-66048587D01*
X53909500Y-66048587D01*
X53909500Y-66151412D01*
X53936111Y-66250725D01*
X53936112Y-66250729D01*
X53987523Y-66339775D01*
X54060224Y-66412476D01*
X54060226Y-66412477D01*
X54060227Y-66412478D01*
X54149272Y-66463888D01*
X54248590Y-66490500D01*
X54248592Y-66490500D01*
X54351408Y-66490500D01*
X54351410Y-66490500D01*
X54450728Y-66463888D01*
X54539773Y-66412478D01*
X54612478Y-66339773D01*
X54663888Y-66250728D01*
X54690500Y-66151410D01*
X54690500Y-66048590D01*
X54663888Y-65949272D01*
X54612478Y-65860227D01*
X54612477Y-65860226D01*
X54612476Y-65860224D01*
X54539775Y-65787523D01*
X54450729Y-65736112D01*
X54450725Y-65736111D01*
X54351412Y-65709500D01*
X54351410Y-65709500D01*
X54248590Y-65709500D01*
X54248587Y-65709500D01*
X54149274Y-65736111D01*
X54149270Y-65736112D01*
X54060224Y-65787523D01*
X53987523Y-65860224D01*
X53936112Y-65949270D01*
X53936111Y-65949274D01*
X53909500Y-66048587D01*
X46748583Y-66048587D01*
X46809620Y-65987551D01*
X46842503Y-65954667D01*
X46842505Y-65954665D01*
X46911688Y-65834836D01*
X46947500Y-65701183D01*
X46947500Y-65562817D01*
X46911688Y-65429164D01*
X46842505Y-65309335D01*
X46842504Y-65309334D01*
X46842503Y-65309332D01*
X46744667Y-65211496D01*
X46637141Y-65149416D01*
X46602405Y-65108020D01*
X46602405Y-65053980D01*
X46637141Y-65012584D01*
X46670302Y-65003698D01*
X46672000Y-65002001D01*
X46672000Y-64502000D01*
X47172000Y-64502000D01*
X47172000Y-65002000D01*
X47550793Y-65002000D01*
X47705351Y-64971256D01*
X47705355Y-64971255D01*
X47850936Y-64910953D01*
X47850942Y-64910950D01*
X47981968Y-64823402D01*
X47981975Y-64823396D01*
X48093396Y-64711975D01*
X48093402Y-64711968D01*
X48180950Y-64580942D01*
X48180953Y-64580936D01*
X48234361Y-64452000D01*
X47638988Y-64452000D01*
X47656205Y-64442060D01*
X47712060Y-64386205D01*
X47733779Y-64348587D01*
X67009500Y-64348587D01*
X67009500Y-64451412D01*
X67036111Y-64550725D01*
X67036112Y-64550729D01*
X67087523Y-64639775D01*
X67160224Y-64712476D01*
X67160226Y-64712477D01*
X67160227Y-64712478D01*
X67249272Y-64763888D01*
X67348590Y-64790500D01*
X67348592Y-64790500D01*
X67451408Y-64790500D01*
X67451410Y-64790500D01*
X67550728Y-64763888D01*
X67639773Y-64712478D01*
X67712478Y-64639773D01*
X67763888Y-64550728D01*
X67790500Y-64451410D01*
X67790500Y-64348590D01*
X67763888Y-64249272D01*
X67712478Y-64160227D01*
X67712477Y-64160226D01*
X67712476Y-64160224D01*
X67639775Y-64087523D01*
X67550729Y-64036112D01*
X67550725Y-64036111D01*
X67451412Y-64009500D01*
X67451410Y-64009500D01*
X67348590Y-64009500D01*
X67348587Y-64009500D01*
X67249274Y-64036111D01*
X67249270Y-64036112D01*
X67160224Y-64087523D01*
X67087523Y-64160224D01*
X67036112Y-64249270D01*
X67036111Y-64249274D01*
X67009500Y-64348587D01*
X47733779Y-64348587D01*
X47751556Y-64317796D01*
X47772000Y-64241496D01*
X47772000Y-64162504D01*
X47751556Y-64086204D01*
X47712060Y-64017795D01*
X47656205Y-63961940D01*
X47638988Y-63952000D01*
X48234361Y-63952000D01*
X48234361Y-63951999D01*
X48180953Y-63823063D01*
X48180950Y-63823057D01*
X48093402Y-63692031D01*
X48093396Y-63692024D01*
X47981975Y-63580603D01*
X47981968Y-63580597D01*
X47850942Y-63493049D01*
X47850936Y-63493046D01*
X47705355Y-63432744D01*
X47705351Y-63432743D01*
X47550793Y-63402000D01*
X47172000Y-63402000D01*
X47172000Y-63902000D01*
X46672000Y-63902000D01*
X46672000Y-63402000D01*
X46293207Y-63402000D01*
X46138648Y-63432743D01*
X46138644Y-63432744D01*
X45993063Y-63493046D01*
X45993057Y-63493049D01*
X45862031Y-63580597D01*
X45862024Y-63580603D01*
X45750603Y-63692024D01*
X45750597Y-63692031D01*
X45663049Y-63823057D01*
X45663046Y-63823063D01*
X45609638Y-63951999D01*
X43904361Y-63951999D01*
X43850953Y-63823063D01*
X43850950Y-63823057D01*
X43763402Y-63692031D01*
X43763396Y-63692024D01*
X43651975Y-63580603D01*
X43651968Y-63580597D01*
X43520942Y-63493049D01*
X43520936Y-63493046D01*
X43375355Y-63432744D01*
X43375351Y-63432743D01*
X43220793Y-63402000D01*
X42992000Y-63402000D01*
X42992000Y-63902000D01*
X42492000Y-63902000D01*
X42492000Y-63402000D01*
X42263207Y-63402000D01*
X42108648Y-63432743D01*
X42108644Y-63432744D01*
X41963063Y-63493046D01*
X41963057Y-63493049D01*
X41832031Y-63580597D01*
X41832024Y-63580603D01*
X41720603Y-63692024D01*
X41720597Y-63692031D01*
X41633049Y-63823057D01*
X41633046Y-63823063D01*
X41579638Y-63951999D01*
X40200500Y-63951999D01*
X40200500Y-63148587D01*
X50909500Y-63148587D01*
X50909500Y-63251412D01*
X50936111Y-63350725D01*
X50936112Y-63350729D01*
X50987523Y-63439775D01*
X51060224Y-63512476D01*
X51060226Y-63512477D01*
X51060227Y-63512478D01*
X51149272Y-63563888D01*
X51248590Y-63590500D01*
X51248592Y-63590500D01*
X51351408Y-63590500D01*
X51351410Y-63590500D01*
X51450728Y-63563888D01*
X51477230Y-63548587D01*
X63309500Y-63548587D01*
X63309500Y-63651412D01*
X63336111Y-63750725D01*
X63336112Y-63750729D01*
X63387523Y-63839775D01*
X63460224Y-63912476D01*
X63528679Y-63951999D01*
X63549272Y-63963888D01*
X63648590Y-63990500D01*
X63648592Y-63990500D01*
X63751408Y-63990500D01*
X63751410Y-63990500D01*
X63850728Y-63963888D01*
X63939773Y-63912478D01*
X64012478Y-63839773D01*
X64063888Y-63750728D01*
X64090500Y-63651410D01*
X64090500Y-63548590D01*
X64063888Y-63449272D01*
X64012478Y-63360227D01*
X64012477Y-63360226D01*
X64012476Y-63360224D01*
X63939775Y-63287523D01*
X63850729Y-63236112D01*
X63850725Y-63236111D01*
X63751412Y-63209500D01*
X63751410Y-63209500D01*
X63648590Y-63209500D01*
X63648587Y-63209500D01*
X63549274Y-63236111D01*
X63549270Y-63236112D01*
X63460224Y-63287523D01*
X63387523Y-63360224D01*
X63336112Y-63449270D01*
X63336111Y-63449274D01*
X63309500Y-63548587D01*
X51477230Y-63548587D01*
X51539773Y-63512478D01*
X51539775Y-63512476D01*
X51564701Y-63487551D01*
X51612476Y-63439775D01*
X51612478Y-63439773D01*
X51663888Y-63350728D01*
X51690500Y-63251410D01*
X51690500Y-63148590D01*
X51663888Y-63049272D01*
X51612478Y-62960227D01*
X51612477Y-62960226D01*
X51612476Y-62960224D01*
X51539775Y-62887523D01*
X51450729Y-62836112D01*
X51450725Y-62836111D01*
X51351412Y-62809500D01*
X51351410Y-62809500D01*
X51248590Y-62809500D01*
X51248587Y-62809500D01*
X51149274Y-62836111D01*
X51149270Y-62836112D01*
X51060224Y-62887523D01*
X50987523Y-62960224D01*
X50936112Y-63049270D01*
X50936111Y-63049274D01*
X50909500Y-63148587D01*
X40200500Y-63148587D01*
X40200500Y-62336088D01*
X67897000Y-62336088D01*
X67897000Y-62438913D01*
X67923611Y-62538226D01*
X67923612Y-62538230D01*
X67975023Y-62627276D01*
X68047724Y-62699977D01*
X68047726Y-62699978D01*
X68047727Y-62699979D01*
X68136772Y-62751389D01*
X68236090Y-62778001D01*
X68236092Y-62778001D01*
X68338908Y-62778001D01*
X68338910Y-62778001D01*
X68438228Y-62751389D01*
X68527273Y-62699979D01*
X68599978Y-62627274D01*
X68651388Y-62538229D01*
X68678000Y-62438911D01*
X68678000Y-62336091D01*
X68651388Y-62236773D01*
X68599978Y-62147728D01*
X68599977Y-62147727D01*
X68599976Y-62147725D01*
X68527275Y-62075024D01*
X68438229Y-62023613D01*
X68438225Y-62023612D01*
X68338912Y-61997001D01*
X68338910Y-61997001D01*
X68236090Y-61997001D01*
X68236087Y-61997001D01*
X68136774Y-62023612D01*
X68136770Y-62023613D01*
X68047724Y-62075024D01*
X67975023Y-62147725D01*
X67923612Y-62236771D01*
X67923611Y-62236775D01*
X67897000Y-62336088D01*
X40200500Y-62336088D01*
X40200500Y-61436088D01*
X60397000Y-61436088D01*
X60397000Y-61538913D01*
X60423611Y-61638226D01*
X60423612Y-61638230D01*
X60475023Y-61727276D01*
X60547724Y-61799977D01*
X60547726Y-61799978D01*
X60547727Y-61799979D01*
X60636772Y-61851389D01*
X60736090Y-61878001D01*
X60736092Y-61878001D01*
X60838908Y-61878001D01*
X60838910Y-61878001D01*
X60938228Y-61851389D01*
X61027273Y-61799979D01*
X61099978Y-61727274D01*
X61151388Y-61638229D01*
X61178000Y-61538911D01*
X61178000Y-61436091D01*
X61177999Y-61436088D01*
X68697000Y-61436088D01*
X68697000Y-61538913D01*
X68723611Y-61638226D01*
X68723612Y-61638230D01*
X68775023Y-61727276D01*
X68847724Y-61799977D01*
X68847726Y-61799978D01*
X68847727Y-61799979D01*
X68936772Y-61851389D01*
X69036090Y-61878001D01*
X69036092Y-61878001D01*
X69138908Y-61878001D01*
X69138910Y-61878001D01*
X69238228Y-61851389D01*
X69327273Y-61799979D01*
X69399978Y-61727274D01*
X69451388Y-61638229D01*
X69478000Y-61538911D01*
X69478000Y-61436091D01*
X69451388Y-61336773D01*
X69399978Y-61247728D01*
X69399977Y-61247727D01*
X69399976Y-61247725D01*
X69327275Y-61175024D01*
X69238229Y-61123613D01*
X69238225Y-61123612D01*
X69138912Y-61097001D01*
X69138910Y-61097001D01*
X69036090Y-61097001D01*
X69036087Y-61097001D01*
X68936774Y-61123612D01*
X68936770Y-61123613D01*
X68847724Y-61175024D01*
X68775023Y-61247725D01*
X68723612Y-61336771D01*
X68723611Y-61336775D01*
X68697000Y-61436088D01*
X61177999Y-61436088D01*
X61151388Y-61336773D01*
X61099978Y-61247728D01*
X61099977Y-61247727D01*
X61099976Y-61247725D01*
X61027275Y-61175024D01*
X60938229Y-61123613D01*
X60938225Y-61123612D01*
X60838912Y-61097001D01*
X60838910Y-61097001D01*
X60736090Y-61097001D01*
X60736087Y-61097001D01*
X60636774Y-61123612D01*
X60636770Y-61123613D01*
X60547724Y-61175024D01*
X60475023Y-61247725D01*
X60423612Y-61336771D01*
X60423611Y-61336775D01*
X60397000Y-61436088D01*
X40200500Y-61436088D01*
X40200500Y-59948587D01*
X48209500Y-59948587D01*
X48209500Y-60051412D01*
X48236111Y-60150725D01*
X48236112Y-60150729D01*
X48287523Y-60239775D01*
X48360224Y-60312476D01*
X48360226Y-60312477D01*
X48360227Y-60312478D01*
X48449272Y-60363888D01*
X48548590Y-60390500D01*
X48548592Y-60390500D01*
X48651408Y-60390500D01*
X48651410Y-60390500D01*
X48750728Y-60363888D01*
X48839773Y-60312478D01*
X48912478Y-60239773D01*
X48963888Y-60150728D01*
X48990500Y-60051410D01*
X48990500Y-59948590D01*
X48963888Y-59849272D01*
X48912478Y-59760227D01*
X48912477Y-59760226D01*
X48912476Y-59760224D01*
X48839775Y-59687523D01*
X48750729Y-59636112D01*
X48750725Y-59636111D01*
X48651412Y-59609500D01*
X48651410Y-59609500D01*
X48548590Y-59609500D01*
X48548587Y-59609500D01*
X48449274Y-59636111D01*
X48449270Y-59636112D01*
X48360224Y-59687523D01*
X48287523Y-59760224D01*
X48236112Y-59849270D01*
X48236111Y-59849274D01*
X48209500Y-59948587D01*
X40200500Y-59948587D01*
X40200500Y-58948587D01*
X59309500Y-58948587D01*
X59309500Y-59051412D01*
X59336111Y-59150725D01*
X59336112Y-59150729D01*
X59387523Y-59239775D01*
X59460223Y-59312475D01*
X59460225Y-59312476D01*
X59460227Y-59312478D01*
X59493320Y-59331584D01*
X59528055Y-59372981D01*
X59528054Y-59427020D01*
X59493320Y-59468416D01*
X59460223Y-59487524D01*
X59387523Y-59560224D01*
X59336112Y-59649270D01*
X59336111Y-59649274D01*
X59309500Y-59748587D01*
X59309500Y-59851412D01*
X59336111Y-59950725D01*
X59336112Y-59950729D01*
X59387523Y-60039775D01*
X59460224Y-60112476D01*
X59460226Y-60112477D01*
X59460227Y-60112478D01*
X59549272Y-60163888D01*
X59648590Y-60190500D01*
X59648592Y-60190500D01*
X59751408Y-60190500D01*
X59751410Y-60190500D01*
X59850728Y-60163888D01*
X59939773Y-60112478D01*
X60012478Y-60039773D01*
X60063888Y-59950728D01*
X60090500Y-59851410D01*
X60090500Y-59748590D01*
X60063888Y-59649272D01*
X60012478Y-59560227D01*
X60012477Y-59560226D01*
X60012476Y-59560224D01*
X60000839Y-59548587D01*
X67509500Y-59548587D01*
X67509500Y-59651412D01*
X67536111Y-59750725D01*
X67536112Y-59750729D01*
X67587523Y-59839775D01*
X67660224Y-59912476D01*
X67660226Y-59912477D01*
X67660227Y-59912478D01*
X67749272Y-59963888D01*
X67848590Y-59990500D01*
X67848592Y-59990500D01*
X67951408Y-59990500D01*
X67951410Y-59990500D01*
X68050728Y-59963888D01*
X68139773Y-59912478D01*
X68212478Y-59839773D01*
X68263888Y-59750728D01*
X68290500Y-59651410D01*
X68290500Y-59548590D01*
X68263888Y-59449272D01*
X68212478Y-59360227D01*
X68212477Y-59360226D01*
X68212476Y-59360224D01*
X68139775Y-59287523D01*
X68050729Y-59236112D01*
X68050725Y-59236111D01*
X67951412Y-59209500D01*
X67951410Y-59209500D01*
X67848590Y-59209500D01*
X67848587Y-59209500D01*
X67749274Y-59236111D01*
X67749270Y-59236112D01*
X67660224Y-59287523D01*
X67587523Y-59360224D01*
X67536112Y-59449270D01*
X67536111Y-59449274D01*
X67509500Y-59548587D01*
X60000839Y-59548587D01*
X59939775Y-59487523D01*
X59906680Y-59468416D01*
X59871944Y-59427020D01*
X59871944Y-59372981D01*
X59906680Y-59331584D01*
X59939773Y-59312478D01*
X60012478Y-59239773D01*
X60063888Y-59150728D01*
X60090500Y-59051410D01*
X60090500Y-58948590D01*
X60063888Y-58849272D01*
X60012478Y-58760227D01*
X60012477Y-58760226D01*
X60012476Y-58760224D01*
X59939775Y-58687523D01*
X59850729Y-58636112D01*
X59850725Y-58636111D01*
X59751412Y-58609500D01*
X59751410Y-58609500D01*
X59648590Y-58609500D01*
X59648587Y-58609500D01*
X59549274Y-58636111D01*
X59549270Y-58636112D01*
X59460224Y-58687523D01*
X59387523Y-58760224D01*
X59336112Y-58849270D01*
X59336111Y-58849274D01*
X59309500Y-58948587D01*
X40200500Y-58948587D01*
X40200500Y-56848587D01*
X61509500Y-56848587D01*
X61509500Y-56951412D01*
X61536111Y-57050725D01*
X61536112Y-57050729D01*
X61587523Y-57139775D01*
X61660224Y-57212476D01*
X61660226Y-57212477D01*
X61660227Y-57212478D01*
X61749272Y-57263888D01*
X61848590Y-57290500D01*
X61848592Y-57290500D01*
X61951408Y-57290500D01*
X61951410Y-57290500D01*
X62050728Y-57263888D01*
X62139773Y-57212478D01*
X62212478Y-57139773D01*
X62263888Y-57050728D01*
X62290500Y-56951410D01*
X62290500Y-56848590D01*
X62263888Y-56749272D01*
X62212478Y-56660227D01*
X62212477Y-56660226D01*
X62212476Y-56660224D01*
X62139775Y-56587523D01*
X62050729Y-56536112D01*
X62050725Y-56536111D01*
X61951412Y-56509500D01*
X61951410Y-56509500D01*
X61848590Y-56509500D01*
X61848587Y-56509500D01*
X61749274Y-56536111D01*
X61749270Y-56536112D01*
X61660224Y-56587523D01*
X61587523Y-56660224D01*
X61536112Y-56749270D01*
X61536111Y-56749274D01*
X61509500Y-56848587D01*
X40200500Y-56848587D01*
X40200500Y-56048587D01*
X56509500Y-56048587D01*
X56509500Y-56151412D01*
X56536111Y-56250725D01*
X56536112Y-56250729D01*
X56587523Y-56339775D01*
X56660224Y-56412476D01*
X56660226Y-56412477D01*
X56660227Y-56412478D01*
X56749272Y-56463888D01*
X56848590Y-56490500D01*
X56848592Y-56490500D01*
X56951408Y-56490500D01*
X56951410Y-56490500D01*
X57050728Y-56463888D01*
X57139773Y-56412478D01*
X57212478Y-56339773D01*
X57263888Y-56250728D01*
X57290500Y-56151410D01*
X57290500Y-56048590D01*
X57263888Y-55949272D01*
X57263495Y-55948592D01*
X57214576Y-55863861D01*
X57212478Y-55860227D01*
X57212477Y-55860226D01*
X57212476Y-55860224D01*
X57139775Y-55787523D01*
X57050729Y-55736112D01*
X57050725Y-55736111D01*
X56951412Y-55709500D01*
X56951410Y-55709500D01*
X56848590Y-55709500D01*
X56848587Y-55709500D01*
X56749274Y-55736111D01*
X56749270Y-55736112D01*
X56660224Y-55787523D01*
X56587523Y-55860224D01*
X56536112Y-55949270D01*
X56536111Y-55949274D01*
X56509500Y-56048587D01*
X40200500Y-56048587D01*
X40200500Y-55548587D01*
X63809500Y-55548587D01*
X63809500Y-55651412D01*
X63836111Y-55750725D01*
X63836112Y-55750729D01*
X63887523Y-55839775D01*
X63960224Y-55912476D01*
X63960226Y-55912477D01*
X63960227Y-55912478D01*
X64049272Y-55963888D01*
X64148590Y-55990500D01*
X64148592Y-55990500D01*
X64251408Y-55990500D01*
X64251410Y-55990500D01*
X64350728Y-55963888D01*
X64439773Y-55912478D01*
X64476365Y-55875885D01*
X64525340Y-55853048D01*
X64577538Y-55867033D01*
X64608534Y-55911299D01*
X64608540Y-55943243D01*
X64610176Y-55943459D01*
X64609500Y-55948592D01*
X64609500Y-56051412D01*
X64636111Y-56150725D01*
X64636112Y-56150729D01*
X64687523Y-56239775D01*
X64760224Y-56312476D01*
X64760226Y-56312477D01*
X64760227Y-56312478D01*
X64849272Y-56363888D01*
X64948590Y-56390500D01*
X64948592Y-56390500D01*
X65051408Y-56390500D01*
X65051410Y-56390500D01*
X65150728Y-56363888D01*
X65239773Y-56312478D01*
X65312478Y-56239773D01*
X65363888Y-56150728D01*
X65390500Y-56051410D01*
X65390500Y-55948590D01*
X65363888Y-55849272D01*
X65363495Y-55848592D01*
X65363492Y-55848587D01*
X66209500Y-55848587D01*
X66209500Y-55951412D01*
X66236111Y-56050725D01*
X66236112Y-56050729D01*
X66287523Y-56139775D01*
X66360224Y-56212476D01*
X66360226Y-56212477D01*
X66360227Y-56212478D01*
X66449272Y-56263888D01*
X66548590Y-56290500D01*
X66548592Y-56290500D01*
X66548905Y-56290500D01*
X66549082Y-56290564D01*
X66553726Y-56291176D01*
X66553590Y-56292205D01*
X66599685Y-56308982D01*
X66626705Y-56355782D01*
X66625213Y-56389946D01*
X66609500Y-56448587D01*
X66609500Y-56551412D01*
X66636111Y-56650725D01*
X66636112Y-56650729D01*
X66687523Y-56739775D01*
X66760224Y-56812476D01*
X66760226Y-56812477D01*
X66760227Y-56812478D01*
X66849272Y-56863888D01*
X66948590Y-56890500D01*
X66948592Y-56890500D01*
X66966526Y-56890500D01*
X67017306Y-56908982D01*
X67044326Y-56955782D01*
X67034942Y-57009000D01*
X67022387Y-57025361D01*
X66987523Y-57060224D01*
X66936112Y-57149270D01*
X66936111Y-57149274D01*
X66909500Y-57248587D01*
X66909500Y-57351412D01*
X66936111Y-57450725D01*
X66936112Y-57450729D01*
X66987523Y-57539775D01*
X67060224Y-57612476D01*
X67060226Y-57612477D01*
X67060227Y-57612478D01*
X67104982Y-57638317D01*
X67149268Y-57663886D01*
X67149272Y-57663888D01*
X67248590Y-57690500D01*
X67248592Y-57690500D01*
X67351408Y-57690500D01*
X67351410Y-57690500D01*
X67450728Y-57663888D01*
X67485095Y-57644045D01*
X67538313Y-57634661D01*
X67585113Y-57661680D01*
X67603596Y-57712460D01*
X67589104Y-57755162D01*
X67590111Y-57755743D01*
X67536112Y-57849270D01*
X67536111Y-57849274D01*
X67509500Y-57948587D01*
X67509500Y-58051412D01*
X67536111Y-58150725D01*
X67536112Y-58150729D01*
X67587523Y-58239775D01*
X67660224Y-58312476D01*
X67660226Y-58312477D01*
X67660227Y-58312478D01*
X67749272Y-58363888D01*
X67848590Y-58390500D01*
X67848592Y-58390500D01*
X67951408Y-58390500D01*
X67951410Y-58390500D01*
X68050728Y-58363888D01*
X68139773Y-58312478D01*
X68212478Y-58239773D01*
X68263888Y-58150728D01*
X68290500Y-58051410D01*
X68290500Y-57948590D01*
X68263888Y-57849272D01*
X68212478Y-57760227D01*
X68212477Y-57760226D01*
X68212476Y-57760224D01*
X68139775Y-57687523D01*
X68050729Y-57636112D01*
X68050725Y-57636111D01*
X67951412Y-57609500D01*
X67951410Y-57609500D01*
X67848590Y-57609500D01*
X67848587Y-57609500D01*
X67749274Y-57636111D01*
X67749272Y-57636111D01*
X67714902Y-57655955D01*
X67661684Y-57665338D01*
X67614885Y-57638317D01*
X67596403Y-57587537D01*
X67610899Y-57544840D01*
X67609889Y-57544257D01*
X67663887Y-57450729D01*
X67663888Y-57450728D01*
X67690500Y-57351410D01*
X67690500Y-57248590D01*
X67663888Y-57149272D01*
X67612478Y-57060227D01*
X67612477Y-57060226D01*
X67612476Y-57060224D01*
X67539775Y-56987523D01*
X67450729Y-56936112D01*
X67450725Y-56936111D01*
X67351412Y-56909500D01*
X67351410Y-56909500D01*
X67333474Y-56909500D01*
X67282694Y-56891018D01*
X67255674Y-56844218D01*
X67265058Y-56791000D01*
X67277613Y-56774639D01*
X67312476Y-56739775D01*
X67312478Y-56739773D01*
X67363888Y-56650728D01*
X67390500Y-56551410D01*
X67390500Y-56448590D01*
X67363888Y-56349272D01*
X67312478Y-56260227D01*
X67312477Y-56260226D01*
X67312476Y-56260224D01*
X67239775Y-56187523D01*
X67164939Y-56144316D01*
X67164936Y-56144315D01*
X67150728Y-56136112D01*
X67051410Y-56109500D01*
X67040272Y-56109500D01*
X67029845Y-56106588D01*
X67016148Y-56096780D01*
X67000315Y-56091018D01*
X66994828Y-56081515D01*
X66987249Y-56076088D01*
X71957000Y-56076088D01*
X71957000Y-56178913D01*
X71983611Y-56278226D01*
X71983612Y-56278230D01*
X72035023Y-56367276D01*
X72107724Y-56439977D01*
X72107726Y-56439978D01*
X72107727Y-56439979D01*
X72196772Y-56491389D01*
X72296090Y-56518001D01*
X72296092Y-56518001D01*
X72398908Y-56518001D01*
X72398910Y-56518001D01*
X72498228Y-56491389D01*
X72587273Y-56439979D01*
X72659978Y-56367274D01*
X72711388Y-56278229D01*
X72738000Y-56178911D01*
X72738000Y-56076091D01*
X72711388Y-55976773D01*
X72695511Y-55949274D01*
X72692154Y-55943459D01*
X72659978Y-55887728D01*
X72659977Y-55887727D01*
X72659976Y-55887725D01*
X72587275Y-55815024D01*
X72498229Y-55763613D01*
X72498225Y-55763612D01*
X72398912Y-55737001D01*
X72398910Y-55737001D01*
X72296090Y-55737001D01*
X72296087Y-55737001D01*
X72196774Y-55763612D01*
X72196770Y-55763613D01*
X72107724Y-55815024D01*
X72035023Y-55887725D01*
X71983612Y-55976771D01*
X71983611Y-55976775D01*
X71957000Y-56076088D01*
X66987249Y-56076088D01*
X66985908Y-56075128D01*
X66981719Y-56058809D01*
X66973295Y-56044218D01*
X66973975Y-56028639D01*
X66972473Y-56022786D01*
X66974407Y-56018749D01*
X66974787Y-56010054D01*
X66982993Y-55979426D01*
X66990500Y-55951410D01*
X66990500Y-55848590D01*
X66963888Y-55749272D01*
X66912478Y-55660227D01*
X66912477Y-55660226D01*
X66912476Y-55660224D01*
X66839775Y-55587523D01*
X66750729Y-55536112D01*
X66750725Y-55536111D01*
X66651412Y-55509500D01*
X66651410Y-55509500D01*
X66548590Y-55509500D01*
X66548587Y-55509500D01*
X66449274Y-55536111D01*
X66449270Y-55536112D01*
X66360224Y-55587523D01*
X66287523Y-55660224D01*
X66236112Y-55749270D01*
X66236111Y-55749274D01*
X66209500Y-55848587D01*
X65363492Y-55848587D01*
X65312476Y-55760224D01*
X65238202Y-55685950D01*
X65215364Y-55636974D01*
X65229350Y-55584776D01*
X65254560Y-55561675D01*
X65339773Y-55512478D01*
X65412478Y-55439773D01*
X65463888Y-55350728D01*
X65490500Y-55251410D01*
X65490500Y-55148590D01*
X65463888Y-55049272D01*
X65412478Y-54960227D01*
X65412477Y-54960226D01*
X65412476Y-54960224D01*
X65339775Y-54887523D01*
X65250729Y-54836112D01*
X65250725Y-54836111D01*
X65151412Y-54809500D01*
X65151410Y-54809500D01*
X65048590Y-54809500D01*
X65048587Y-54809500D01*
X64949274Y-54836111D01*
X64949270Y-54836112D01*
X64860224Y-54887523D01*
X64787523Y-54960224D01*
X64736112Y-55049270D01*
X64736111Y-55049274D01*
X64709500Y-55148587D01*
X64709500Y-55251412D01*
X64736111Y-55350725D01*
X64736112Y-55350729D01*
X64787523Y-55439775D01*
X64861797Y-55514049D01*
X64884635Y-55563025D01*
X64870649Y-55615223D01*
X64845436Y-55638326D01*
X64760226Y-55687522D01*
X64723634Y-55724114D01*
X64674657Y-55746951D01*
X64622460Y-55732964D01*
X64591465Y-55688698D01*
X64591472Y-55656758D01*
X64589824Y-55656541D01*
X64590500Y-55651407D01*
X64590500Y-55548592D01*
X64590499Y-55548587D01*
X64563888Y-55449272D01*
X64512478Y-55360227D01*
X64512477Y-55360226D01*
X64512476Y-55360224D01*
X64439775Y-55287523D01*
X64350729Y-55236112D01*
X64350725Y-55236111D01*
X64251412Y-55209500D01*
X64251410Y-55209500D01*
X64148590Y-55209500D01*
X64148587Y-55209500D01*
X64049274Y-55236111D01*
X64049270Y-55236112D01*
X63960224Y-55287523D01*
X63887523Y-55360224D01*
X63836112Y-55449270D01*
X63836111Y-55449274D01*
X63809500Y-55548587D01*
X40200500Y-55548587D01*
X40200500Y-53248587D01*
X61209500Y-53248587D01*
X61209500Y-53351412D01*
X61236111Y-53450725D01*
X61236112Y-53450729D01*
X61287523Y-53539775D01*
X61360224Y-53612476D01*
X61360226Y-53612477D01*
X61360227Y-53612478D01*
X61449272Y-53663888D01*
X61548590Y-53690500D01*
X61548592Y-53690500D01*
X61651408Y-53690500D01*
X61651410Y-53690500D01*
X61750728Y-53663888D01*
X61839773Y-53612478D01*
X61912478Y-53539773D01*
X61963888Y-53450728D01*
X61990500Y-53351410D01*
X61990500Y-53248590D01*
X61963888Y-53149272D01*
X61912478Y-53060227D01*
X61912477Y-53060226D01*
X61912476Y-53060224D01*
X61839775Y-52987523D01*
X61750729Y-52936112D01*
X61750725Y-52936111D01*
X61651412Y-52909500D01*
X61651410Y-52909500D01*
X61548590Y-52909500D01*
X61548587Y-52909500D01*
X61449274Y-52936111D01*
X61449270Y-52936112D01*
X61360224Y-52987523D01*
X61287523Y-53060224D01*
X61236112Y-53149270D01*
X61236111Y-53149274D01*
X61209500Y-53248587D01*
X40200500Y-53248587D01*
X40200500Y-51871470D01*
X42269200Y-51871470D01*
X42269200Y-52008529D01*
X42295938Y-52142957D01*
X42295939Y-52142959D01*
X42348387Y-52269579D01*
X42348390Y-52269585D01*
X42424535Y-52383545D01*
X42424541Y-52383552D01*
X42521447Y-52480458D01*
X42521453Y-52480463D01*
X42635415Y-52556610D01*
X42635420Y-52556612D01*
X42762040Y-52609060D01*
X42762042Y-52609061D01*
X42896470Y-52635800D01*
X43033530Y-52635800D01*
X43167957Y-52609061D01*
X43167959Y-52609060D01*
X43294585Y-52556610D01*
X43408547Y-52480463D01*
X43505463Y-52383547D01*
X43581610Y-52269585D01*
X43634061Y-52142957D01*
X43660800Y-52008530D01*
X43660800Y-51871470D01*
X43634061Y-51737043D01*
X43581610Y-51610415D01*
X43505463Y-51496453D01*
X43505458Y-51496447D01*
X43408552Y-51399541D01*
X43408545Y-51399535D01*
X43294585Y-51323390D01*
X43294579Y-51323387D01*
X43167959Y-51270939D01*
X43167957Y-51270938D01*
X43033530Y-51244200D01*
X42896470Y-51244200D01*
X42762042Y-51270938D01*
X42762040Y-51270939D01*
X42635420Y-51323387D01*
X42635414Y-51323390D01*
X42521454Y-51399535D01*
X42521447Y-51399541D01*
X42424541Y-51496447D01*
X42424535Y-51496454D01*
X42348390Y-51610414D01*
X42348387Y-51610420D01*
X42295939Y-51737040D01*
X42295938Y-51737042D01*
X42269200Y-51871470D01*
X40200500Y-51871470D01*
X40200500Y-50748587D01*
X44409500Y-50748587D01*
X44409500Y-50851412D01*
X44436111Y-50950725D01*
X44436112Y-50950729D01*
X44487523Y-51039775D01*
X44560224Y-51112476D01*
X44560226Y-51112477D01*
X44560227Y-51112478D01*
X44649272Y-51163888D01*
X44748590Y-51190500D01*
X44748592Y-51190500D01*
X44851408Y-51190500D01*
X44851410Y-51190500D01*
X44950728Y-51163888D01*
X45039773Y-51112478D01*
X45112478Y-51039773D01*
X45163888Y-50950728D01*
X45190500Y-50851410D01*
X45190500Y-50748590D01*
X45163888Y-50649272D01*
X45112478Y-50560227D01*
X45112477Y-50560226D01*
X45112476Y-50560224D01*
X45039775Y-50487523D01*
X44972336Y-50448587D01*
X67609500Y-50448587D01*
X67609500Y-50551412D01*
X67636111Y-50650725D01*
X67636112Y-50650729D01*
X67687523Y-50739775D01*
X67760224Y-50812476D01*
X67760226Y-50812477D01*
X67760227Y-50812478D01*
X67849272Y-50863888D01*
X67948590Y-50890500D01*
X67948592Y-50890500D01*
X68051408Y-50890500D01*
X68051410Y-50890500D01*
X68150728Y-50863888D01*
X68239773Y-50812478D01*
X68312478Y-50739773D01*
X68363888Y-50650728D01*
X68390500Y-50551410D01*
X68390500Y-50448590D01*
X68363888Y-50349272D01*
X68312478Y-50260227D01*
X68312477Y-50260226D01*
X68312476Y-50260224D01*
X68239775Y-50187523D01*
X68150729Y-50136112D01*
X68150725Y-50136111D01*
X68051412Y-50109500D01*
X68051410Y-50109500D01*
X67948590Y-50109500D01*
X67948587Y-50109500D01*
X67849274Y-50136111D01*
X67849270Y-50136112D01*
X67760224Y-50187523D01*
X67687523Y-50260224D01*
X67636112Y-50349270D01*
X67636111Y-50349274D01*
X67609500Y-50448587D01*
X44972336Y-50448587D01*
X44950729Y-50436112D01*
X44950725Y-50436111D01*
X44851412Y-50409500D01*
X44851410Y-50409500D01*
X44748590Y-50409500D01*
X44748587Y-50409500D01*
X44649274Y-50436111D01*
X44649270Y-50436112D01*
X44560224Y-50487523D01*
X44487523Y-50560224D01*
X44436112Y-50649270D01*
X44436111Y-50649274D01*
X44409500Y-50748587D01*
X40200500Y-50748587D01*
X40200500Y-49348587D01*
X48309500Y-49348587D01*
X48309500Y-49451412D01*
X48336111Y-49550725D01*
X48336112Y-49550729D01*
X48387523Y-49639775D01*
X48460224Y-49712476D01*
X48460226Y-49712477D01*
X48460227Y-49712478D01*
X48549272Y-49763888D01*
X48648590Y-49790500D01*
X48648592Y-49790500D01*
X48751408Y-49790500D01*
X48751410Y-49790500D01*
X48850728Y-49763888D01*
X48939773Y-49712478D01*
X49012478Y-49639773D01*
X49063888Y-49550728D01*
X49090500Y-49451410D01*
X49090500Y-49348590D01*
X49063888Y-49249272D01*
X49012478Y-49160227D01*
X49012477Y-49160226D01*
X49012476Y-49160224D01*
X48939775Y-49087523D01*
X48850729Y-49036112D01*
X48850725Y-49036111D01*
X48751412Y-49009500D01*
X48751410Y-49009500D01*
X48648590Y-49009500D01*
X48648587Y-49009500D01*
X48549274Y-49036111D01*
X48549270Y-49036112D01*
X48460224Y-49087523D01*
X48387523Y-49160224D01*
X48336112Y-49249270D01*
X48336111Y-49249274D01*
X48309500Y-49348587D01*
X40200500Y-49348587D01*
X40200500Y-46791470D01*
X41253200Y-46791470D01*
X41253200Y-46928529D01*
X41279938Y-47062957D01*
X41279939Y-47062959D01*
X41332387Y-47189579D01*
X41332390Y-47189585D01*
X41408535Y-47303545D01*
X41408541Y-47303552D01*
X41505447Y-47400458D01*
X41505453Y-47400463D01*
X41619415Y-47476610D01*
X41619420Y-47476612D01*
X41746040Y-47529060D01*
X41746042Y-47529061D01*
X41880470Y-47555800D01*
X42017530Y-47555800D01*
X42151957Y-47529061D01*
X42151959Y-47529060D01*
X42278585Y-47476610D01*
X42392547Y-47400463D01*
X42489463Y-47303547D01*
X42565610Y-47189585D01*
X42618061Y-47062957D01*
X42644800Y-46928530D01*
X42644800Y-46791470D01*
X43285200Y-46791470D01*
X43285200Y-46928529D01*
X43311938Y-47062957D01*
X43311939Y-47062959D01*
X43364387Y-47189579D01*
X43364390Y-47189585D01*
X43440535Y-47303545D01*
X43440541Y-47303552D01*
X43537447Y-47400458D01*
X43537453Y-47400463D01*
X43651415Y-47476610D01*
X43651420Y-47476612D01*
X43778040Y-47529060D01*
X43778042Y-47529061D01*
X43912470Y-47555800D01*
X44049530Y-47555800D01*
X44183957Y-47529061D01*
X44183959Y-47529060D01*
X44310585Y-47476610D01*
X44424547Y-47400463D01*
X44521463Y-47303547D01*
X44597610Y-47189585D01*
X44650061Y-47062957D01*
X44676800Y-46928530D01*
X44676800Y-46791470D01*
X44668831Y-46751407D01*
X44650416Y-46658824D01*
X44650219Y-46657841D01*
X44650061Y-46657043D01*
X44646560Y-46648592D01*
X44646558Y-46648587D01*
X68409500Y-46648587D01*
X68409500Y-46751412D01*
X68436111Y-46850725D01*
X68436112Y-46850729D01*
X68487523Y-46939775D01*
X68560224Y-47012476D01*
X68560226Y-47012477D01*
X68560227Y-47012478D01*
X68649272Y-47063888D01*
X68748590Y-47090500D01*
X68748592Y-47090500D01*
X68851408Y-47090500D01*
X68851410Y-47090500D01*
X68950728Y-47063888D01*
X69039773Y-47012478D01*
X69112478Y-46939773D01*
X69163888Y-46850728D01*
X69190500Y-46751410D01*
X69190500Y-46648590D01*
X69163888Y-46549272D01*
X69112478Y-46460227D01*
X69112477Y-46460226D01*
X69112476Y-46460224D01*
X69039775Y-46387523D01*
X68950729Y-46336112D01*
X68950725Y-46336111D01*
X68851412Y-46309500D01*
X68851410Y-46309500D01*
X68748590Y-46309500D01*
X68748587Y-46309500D01*
X68649274Y-46336111D01*
X68649270Y-46336112D01*
X68560224Y-46387523D01*
X68487523Y-46460224D01*
X68436112Y-46549270D01*
X68436111Y-46549274D01*
X68409500Y-46648587D01*
X44646558Y-46648587D01*
X44597612Y-46530420D01*
X44597609Y-46530414D01*
X44521464Y-46416454D01*
X44521458Y-46416447D01*
X44424552Y-46319541D01*
X44424545Y-46319535D01*
X44310585Y-46243390D01*
X44310579Y-46243387D01*
X44183959Y-46190939D01*
X44183957Y-46190938D01*
X44049530Y-46164200D01*
X43912470Y-46164200D01*
X43778042Y-46190938D01*
X43778040Y-46190939D01*
X43651420Y-46243387D01*
X43651414Y-46243390D01*
X43537454Y-46319535D01*
X43537447Y-46319541D01*
X43440541Y-46416447D01*
X43440535Y-46416454D01*
X43364390Y-46530414D01*
X43364387Y-46530420D01*
X43311939Y-46657040D01*
X43311938Y-46657042D01*
X43285200Y-46791470D01*
X42644800Y-46791470D01*
X42618061Y-46657043D01*
X42618060Y-46657041D01*
X42618060Y-46657040D01*
X42565612Y-46530420D01*
X42565609Y-46530414D01*
X42489464Y-46416454D01*
X42489458Y-46416447D01*
X42392552Y-46319541D01*
X42392545Y-46319535D01*
X42278585Y-46243390D01*
X42278579Y-46243387D01*
X42151959Y-46190939D01*
X42151957Y-46190938D01*
X42017530Y-46164200D01*
X41880470Y-46164200D01*
X41746042Y-46190938D01*
X41746040Y-46190939D01*
X41619420Y-46243387D01*
X41619414Y-46243390D01*
X41505454Y-46319535D01*
X41505447Y-46319541D01*
X41408541Y-46416447D01*
X41408535Y-46416454D01*
X41332390Y-46530414D01*
X41332387Y-46530420D01*
X41279939Y-46657040D01*
X41279938Y-46657042D01*
X41253200Y-46791470D01*
X40200500Y-46791470D01*
X40200500Y-45948587D01*
X69109500Y-45948587D01*
X69109500Y-46051412D01*
X69136111Y-46150725D01*
X69136112Y-46150729D01*
X69187523Y-46239775D01*
X69260224Y-46312476D01*
X69260226Y-46312477D01*
X69260227Y-46312478D01*
X69349272Y-46363888D01*
X69448590Y-46390500D01*
X69448592Y-46390500D01*
X69551408Y-46390500D01*
X69551410Y-46390500D01*
X69650728Y-46363888D01*
X69739773Y-46312478D01*
X69812478Y-46239773D01*
X69863888Y-46150728D01*
X69890500Y-46051410D01*
X69890500Y-45948590D01*
X69863888Y-45849272D01*
X69812478Y-45760227D01*
X69812477Y-45760226D01*
X69812476Y-45760224D01*
X69739775Y-45687523D01*
X69650729Y-45636112D01*
X69650725Y-45636111D01*
X69551412Y-45609500D01*
X69551410Y-45609500D01*
X69448590Y-45609500D01*
X69448587Y-45609500D01*
X69349274Y-45636111D01*
X69349270Y-45636112D01*
X69260224Y-45687523D01*
X69187523Y-45760224D01*
X69136112Y-45849270D01*
X69136111Y-45849274D01*
X69109500Y-45948587D01*
X40200500Y-45948587D01*
X40200500Y-42809194D01*
X43989500Y-42809194D01*
X43989500Y-44540805D01*
X43998812Y-44587623D01*
X44034285Y-44640714D01*
X44060831Y-44658450D01*
X44087376Y-44676187D01*
X44134194Y-44685500D01*
X45865806Y-44685500D01*
X45912624Y-44676187D01*
X45965714Y-44640714D01*
X46001187Y-44587624D01*
X46010500Y-44540806D01*
X46010500Y-42848587D01*
X62309500Y-42848587D01*
X62309500Y-42951412D01*
X62336111Y-43050725D01*
X62336112Y-43050729D01*
X62387523Y-43139775D01*
X62460224Y-43212476D01*
X62460226Y-43212477D01*
X62460227Y-43212478D01*
X62549272Y-43263888D01*
X62648590Y-43290500D01*
X62648592Y-43290500D01*
X62751408Y-43290500D01*
X62751410Y-43290500D01*
X62850728Y-43263888D01*
X62939773Y-43212478D01*
X63012478Y-43139773D01*
X63063888Y-43050728D01*
X63090500Y-42951410D01*
X63090500Y-42848590D01*
X63063888Y-42749272D01*
X63012478Y-42660227D01*
X63012477Y-42660226D01*
X63012476Y-42660224D01*
X62939775Y-42587523D01*
X62850729Y-42536112D01*
X62850725Y-42536111D01*
X62751412Y-42509500D01*
X62751410Y-42509500D01*
X62648590Y-42509500D01*
X62648587Y-42509500D01*
X62549274Y-42536111D01*
X62549270Y-42536112D01*
X62460224Y-42587523D01*
X62387523Y-42660224D01*
X62336112Y-42749270D01*
X62336111Y-42749274D01*
X62309500Y-42848587D01*
X46010500Y-42848587D01*
X46010500Y-42809194D01*
X46001187Y-42762376D01*
X45992433Y-42749274D01*
X45965714Y-42709285D01*
X45925984Y-42682740D01*
X45912624Y-42673813D01*
X45912623Y-42673812D01*
X45865806Y-42664500D01*
X44134194Y-42664500D01*
X44087376Y-42673812D01*
X44034285Y-42709285D01*
X43998812Y-42762376D01*
X43989500Y-42809194D01*
X40200500Y-42809194D01*
X40200500Y-41044497D01*
X43850000Y-41044497D01*
X43850000Y-41225502D01*
X43850001Y-41225518D01*
X43878314Y-41404281D01*
X43878320Y-41404304D01*
X43934250Y-41576441D01*
X43934257Y-41576457D01*
X44016430Y-41737728D01*
X44027911Y-41753532D01*
X44517036Y-41264407D01*
X44534075Y-41327993D01*
X44599901Y-41442007D01*
X44692993Y-41535099D01*
X44807007Y-41600925D01*
X44870590Y-41617962D01*
X44381465Y-42107086D01*
X44397270Y-42118568D01*
X44558542Y-42200742D01*
X44558558Y-42200749D01*
X44730695Y-42256679D01*
X44730718Y-42256685D01*
X44909481Y-42284998D01*
X44909498Y-42285000D01*
X45090502Y-42285000D01*
X45090518Y-42284998D01*
X45269281Y-42256685D01*
X45269304Y-42256679D01*
X45441441Y-42200749D01*
X45441457Y-42200742D01*
X45602731Y-42118567D01*
X45618533Y-42107086D01*
X45129409Y-41617962D01*
X45192993Y-41600925D01*
X45307007Y-41535099D01*
X45400099Y-41442007D01*
X45465925Y-41327993D01*
X45482962Y-41264409D01*
X45972086Y-41753533D01*
X45983567Y-41737731D01*
X46065742Y-41576457D01*
X46065749Y-41576441D01*
X46107291Y-41448587D01*
X62709500Y-41448587D01*
X62709500Y-41551412D01*
X62736111Y-41650725D01*
X62736112Y-41650729D01*
X62787523Y-41739775D01*
X62860224Y-41812476D01*
X62860226Y-41812477D01*
X62860227Y-41812478D01*
X62949272Y-41863888D01*
X63048590Y-41890500D01*
X63048592Y-41890500D01*
X63151408Y-41890500D01*
X63151410Y-41890500D01*
X63250728Y-41863888D01*
X63339773Y-41812478D01*
X63412478Y-41739773D01*
X63463888Y-41650728D01*
X63490500Y-41551410D01*
X63490500Y-41448590D01*
X63463888Y-41349272D01*
X63412478Y-41260227D01*
X63412477Y-41260226D01*
X63412476Y-41260224D01*
X63339775Y-41187523D01*
X63250729Y-41136112D01*
X63250725Y-41136111D01*
X63151412Y-41109500D01*
X63151410Y-41109500D01*
X63048590Y-41109500D01*
X63048587Y-41109500D01*
X62949274Y-41136111D01*
X62949270Y-41136112D01*
X62860224Y-41187523D01*
X62787523Y-41260224D01*
X62736112Y-41349270D01*
X62736111Y-41349274D01*
X62709500Y-41448587D01*
X46107291Y-41448587D01*
X46116903Y-41419003D01*
X46116904Y-41419000D01*
X46121682Y-41404293D01*
X46121685Y-41404281D01*
X46149998Y-41225518D01*
X46150000Y-41225502D01*
X46150000Y-41044497D01*
X46149998Y-41044481D01*
X46121685Y-40865718D01*
X46121679Y-40865695D01*
X46065749Y-40693558D01*
X46065742Y-40693542D01*
X45983568Y-40532270D01*
X45972086Y-40516465D01*
X45482962Y-41005589D01*
X45465925Y-40942007D01*
X45400099Y-40827993D01*
X45307007Y-40734901D01*
X45192993Y-40669075D01*
X45129408Y-40652037D01*
X45618532Y-40162911D01*
X45602728Y-40151430D01*
X45441457Y-40069257D01*
X45441441Y-40069250D01*
X45269304Y-40013320D01*
X45269281Y-40013314D01*
X45090518Y-39985001D01*
X45090502Y-39985000D01*
X44909498Y-39985000D01*
X44909481Y-39985001D01*
X44730718Y-40013314D01*
X44730695Y-40013320D01*
X44558558Y-40069250D01*
X44558542Y-40069257D01*
X44397267Y-40151432D01*
X44381465Y-40162911D01*
X44381465Y-40162912D01*
X44870590Y-40652037D01*
X44807007Y-40669075D01*
X44692993Y-40734901D01*
X44599901Y-40827993D01*
X44534075Y-40942007D01*
X44517037Y-41005590D01*
X44027912Y-40516465D01*
X44027911Y-40516465D01*
X44016432Y-40532267D01*
X43934257Y-40693542D01*
X43934250Y-40693558D01*
X43878320Y-40865695D01*
X43878314Y-40865718D01*
X43850001Y-41044481D01*
X43850000Y-41044497D01*
X40200500Y-41044497D01*
X40200500Y-37348587D01*
X51309500Y-37348587D01*
X51309500Y-37451412D01*
X51336111Y-37550725D01*
X51336112Y-37550729D01*
X51387523Y-37639775D01*
X51460224Y-37712476D01*
X51460226Y-37712477D01*
X51460227Y-37712478D01*
X51549272Y-37763888D01*
X51648590Y-37790500D01*
X51648592Y-37790500D01*
X51751408Y-37790500D01*
X51751410Y-37790500D01*
X51850728Y-37763888D01*
X51939773Y-37712478D01*
X52012478Y-37639773D01*
X52063888Y-37550728D01*
X52090500Y-37451410D01*
X52090500Y-37348590D01*
X52063888Y-37249272D01*
X52012478Y-37160227D01*
X52012477Y-37160226D01*
X52012476Y-37160224D01*
X51939775Y-37087523D01*
X51850729Y-37036112D01*
X51850725Y-37036111D01*
X51751412Y-37009500D01*
X51751410Y-37009500D01*
X51648590Y-37009500D01*
X51648587Y-37009500D01*
X51549274Y-37036111D01*
X51549270Y-37036112D01*
X51460224Y-37087523D01*
X51387523Y-37160224D01*
X51336112Y-37249270D01*
X51336111Y-37249274D01*
X51309500Y-37348587D01*
X40200500Y-37348587D01*
X40200500Y-22648587D01*
X51809500Y-22648587D01*
X51809500Y-22751412D01*
X51836111Y-22850725D01*
X51836112Y-22850729D01*
X51887523Y-22939775D01*
X51960224Y-23012476D01*
X51960226Y-23012477D01*
X51960227Y-23012478D01*
X52049272Y-23063888D01*
X52148590Y-23090500D01*
X52148592Y-23090500D01*
X52251408Y-23090500D01*
X52251410Y-23090500D01*
X52350728Y-23063888D01*
X52439773Y-23012478D01*
X52512478Y-22939773D01*
X52563888Y-22850728D01*
X52590500Y-22751410D01*
X52590500Y-22648590D01*
X52563888Y-22549272D01*
X52512478Y-22460227D01*
X52512477Y-22460226D01*
X52512476Y-22460224D01*
X52439775Y-22387523D01*
X52350729Y-22336112D01*
X52350725Y-22336111D01*
X52251412Y-22309500D01*
X52251410Y-22309500D01*
X52148590Y-22309500D01*
X52148587Y-22309500D01*
X52049274Y-22336111D01*
X52049270Y-22336112D01*
X51960224Y-22387523D01*
X51887523Y-22460224D01*
X51836112Y-22549270D01*
X51836111Y-22549274D01*
X51809500Y-22648587D01*
X40200500Y-22648587D01*
X40200500Y-19202074D01*
X40200608Y-19197940D01*
X40209840Y-19021787D01*
X40216716Y-18890582D01*
X40217578Y-18882384D01*
X40265400Y-18580444D01*
X40267112Y-18572390D01*
X40346235Y-18277100D01*
X40348789Y-18269240D01*
X40458342Y-17983840D01*
X40461697Y-17976309D01*
X40600479Y-17703934D01*
X40604607Y-17696785D01*
X40771107Y-17440397D01*
X40775953Y-17433727D01*
X40968336Y-17196155D01*
X40973859Y-17190020D01*
X41190020Y-16973859D01*
X41196155Y-16968336D01*
X41203788Y-16962154D01*
X41433727Y-16775953D01*
X41440397Y-16771107D01*
X41696787Y-16604605D01*
X41703934Y-16600479D01*
X41976309Y-16461697D01*
X41983840Y-16458342D01*
X42269244Y-16348787D01*
X42277100Y-16346235D01*
X42572390Y-16267112D01*
X42580444Y-16265400D01*
X42882384Y-16217578D01*
X42890582Y-16216716D01*
X43181448Y-16201472D01*
X43197940Y-16200608D01*
X43202074Y-16200500D01*
X43239882Y-16200500D01*
X71760118Y-16200500D01*
X71797926Y-16200500D01*
X71802060Y-16200608D01*
G37*
%TD.AperFunction*%
%TD*%
M02*
