M48
; DRILL file {KiCad 9.0.7} date 2026-05-16T18:23:08-0400
; FORMAT={-:-/ absolute / inch / decimal}
; #@! TF.CreationDate,2026-05-16T18:23:08-04:00
; #@! TF.GenerationSoftware,Kicad,Pcbnew,9.0.7
; #@! TF.FileFunction,Plated,1,4,PTH
FMAT,2
INCH
; #@! TA.AperFunction,Plated,PTH,ViaDrill
T1C0.0118
; #@! TA.AperFunction,Plated,PTH,ComponentDrill
T2C0.0236
; #@! TA.AperFunction,Plated,PTH,ComponentDrill
T3C0.0295
; #@! TA.AperFunction,Plated,PTH,ComponentDrill
T4C0.0354
; #@! TA.AperFunction,Plated,PTH,ComponentDrill
T5C0.0394
; #@! TA.AperFunction,Plated,PTH,ComponentDrill
T6C0.0472
; #@! TA.AperFunction,Plated,PTH,ComponentDrill
T7C0.1260
%
G90
G05
T1
X1.6378Y-3.1299
X1.7205Y-3.4528
X1.7355Y-2.9475
X1.7598Y-1.8898
X1.7638Y-2.0
X1.7795Y-2.0433
X1.8307Y-1.1102
X1.8425Y-1.4803
X1.8425Y-3.3661
X1.8583Y-3.5394
X1.878Y-2.0157
X1.8858Y-2.1457
X1.8858Y-3.7992
X1.8976Y-1.7008
X1.9134Y-2.3622
X1.9173Y-1.9449
X1.9369Y-1.5623
X1.9377Y-2.5166
X1.9731Y-2.5993
X1.9764Y-3.6378
X1.9921Y-3.1535
X1.9928Y-2.682
X1.9928Y-2.7646
X2.0197Y-2.4882
X2.0243Y-2.5835
X2.0315Y-2.1378
X2.0354Y-1.4724
X2.0354Y-2.3858
X2.0512Y-3.5669
X2.0551Y-0.8937
X2.0551Y-1.374
X2.0551Y-1.5551
X2.063Y-3.6181
X2.0748Y-1.1457
X2.0991Y-2.4654
X2.1063Y-3.0079
X2.1102Y-3.1772
X2.1102Y-3.2244
X2.122Y-2.2402
X2.1299Y-3.2874
X2.1378Y-2.6024
X2.1693Y-2.7126
X2.1732Y-1.815
X2.1732Y-2.6457
X2.1811Y-3.5748
X2.1857Y-2.6072
X2.1929Y-1.0157
X2.1929Y-3.0039
X2.2323Y-2.0866
X2.2402Y-2.2087
X2.2559Y-2.8701
X2.2622Y-1.572
X2.2717Y-3.6378
X2.3228Y-3.5315
X2.3465Y-2.5984
X2.3504Y-2.3228
X2.3504Y-2.3543
X2.3583Y-2.8307
X2.3819Y-3.3543
X2.3819Y-3.5984
X2.3858Y-0.9449
X2.3898Y-1.4291
X2.3932Y-2.4208
X2.4173Y-3.6575
X2.4252Y-2.0984
X2.437Y-2.2402
X2.4444Y-2.3814
X2.4449Y-1.878
X2.4449Y-2.8465
X2.4487Y-1.7515
X2.4567Y-2.0591
X2.4685Y-1.3268
X2.4685Y-1.689
X2.4843Y-1.6339
X2.4921Y-2.185
X2.5079Y-2.5039
X2.5236Y-2.4016
X2.5236Y-2.9016
X2.5276Y-2.189
X2.5299Y-1.0866
X2.5512Y-3.5433
X2.5591Y-1.8425
X2.5591Y-2.2047
X2.5591Y-3.6614
X2.563Y-2.1732
X2.5787Y-3.4409
X2.5827Y-3.3543
X2.5906Y-2.5512
X2.5984Y-1.6142
X2.6054Y-1.0852
X2.6063Y-2.3504
X2.622Y-2.2008
X2.6339Y-2.7559
X2.6339Y-3.0591
X2.6378Y-2.2244
X2.6417Y-1.3858
X2.6496Y-2.2559
X2.6535Y-1.4409
X2.6535Y-2.4016
X2.6535Y-2.5354
X2.6535Y-2.5787
X2.6575Y-3.0591
X2.6614Y-1.5551
X2.6693Y-1.0866
X2.6732Y-2.2835
X2.6732Y-2.3465
X2.6772Y-1.8858
X2.6772Y-1.9882
X2.685Y-1.2638
X2.6885Y-2.4562
X2.6969Y-1.7362
X2.7047Y-2.9567
X2.7087Y-1.6024
X2.7087Y-1.8386
X2.72Y-2.4208
X2.7244Y-3.0512
X2.7362Y-1.811
X2.7402Y-2.4449
X2.748Y-2.6575
X2.7559Y-2.9449
X2.7677Y-1.2638
X2.7677Y-1.437
X2.7677Y-2.0748
X2.7835Y-1.7323
X2.7913Y-3.0276
X2.7953Y-2.4724
X2.8189Y-2.8386
X2.8228Y-1.2638
X2.8228Y-1.4331
X2.8268Y-1.5551
X2.8425Y-3.7756
X2.8465Y-3.5118
X2.8483Y-2.2097
X2.8543Y-1.7362
X2.8661Y-2.7244
X2.8898Y-3.0591
X2.8937Y-2.5984
X2.8976Y-1.9488
X2.9094Y-0.9449
X2.9094Y-2.1929
T3
X1.6535Y-3.5433
X1.6535Y-3.622
T4
X2.7271Y-3.4781
X2.7271Y-3.6355
X2.7271Y-3.793
T5
X1.7717Y-1.6195
X1.7717Y-1.7195
T6
X2.6582Y-3.8718
X2.6582Y-3.3993
X2.8944Y-3.3993
X2.8944Y-3.8718
T7
X1.6929Y-0.748
X1.6929Y-3.8189
X2.8346Y-0.748
T2
G00X1.6985Y-2.5276
M15
G01X1.667Y-2.5276
M16
G05
G00X1.6985Y-2.8678
M15
G01X1.667Y-2.8678
M16
G05
G00X1.869Y-2.5276
M15
G01X1.8257Y-2.5276
M16
G05
G00X1.869Y-2.8678
M15
G01X1.8257Y-2.8678
M16
G05
M30
